<svg width="63" height="63" viewBox="0 0 63 63" fill="none" xmlns="http://www.w3.org/2000/svg">
<g clip-path="url(#clip0_6125_105)">
<path d="M35.0051 55.7969C36.601 55.5698 37.7109 54.0904 37.4841 52.4929C37.2573 50.8946 35.7808 49.7832 34.1849 50.0103C32.5896 50.2374 31.4798 51.7161 31.7058 53.3143C31.9128 54.7732 33.1612 55.8266 34.5911 55.8266C34.7274 55.8266 34.8659 55.8167 35.0051 55.7969ZM31.2742 53.3143C31.5024 51.7168 30.3939 50.2367 28.798 50.0082C27.2028 49.7796 25.7241 50.8897 25.4959 52.4879C25.2677 54.0855 26.3762 55.5656 27.9721 55.7941C28.112 55.8139 28.2512 55.8238 28.3889 55.8238C29.8174 55.8238 31.0665 54.7717 31.2742 53.3143ZM41.7668 53.8152C43.2327 53.1445 43.8784 51.4111 43.2087 49.9431C42.5389 48.475 40.8081 47.8283 39.3421 48.4991C37.8762 49.1698 37.2305 50.9031 37.9002 52.3712C38.3905 53.4459 39.4488 54.0798 40.5566 54.0798C40.9621 54.0798 41.374 53.9949 41.7675 53.8152H41.7668ZM25.0819 52.3662C25.7524 50.8989 25.1088 49.1648 23.6428 48.4927C22.1776 47.8213 20.446 48.4658 19.7749 49.9339C19.1044 51.4012 19.748 53.1353 21.214 53.8074C21.6075 53.9878 22.0201 54.0734 22.427 54.0734C23.5333 54.0734 24.5916 53.4402 25.0819 52.367V52.3662ZM47.6885 50.0032C48.9064 48.9462 49.0392 47.101 47.9838 45.8806C46.9283 44.6609 45.0858 44.5286 43.8678 45.5849C42.6499 46.6419 42.5178 48.487 43.5725 49.7068C44.1497 50.3739 44.9622 50.7156 45.7796 50.7156C46.4564 50.7156 47.1367 50.4808 47.6892 50.0025L47.6885 50.0032ZM19.4118 49.6976C20.4679 48.4785 20.3372 46.6327 19.12 45.575C17.9027 44.5172 16.0595 44.6481 15.0033 45.8672C13.9472 47.0862 14.0779 48.932 15.2951 49.9898C15.8476 50.4694 16.5279 50.705 17.2061 50.705C18.0228 50.705 18.8346 50.364 19.4118 49.6976ZM52.3017 44.6821C53.1749 43.3258 52.7857 41.5167 51.4307 40.6423C50.0763 39.7671 48.2699 40.1576 47.3967 41.5146C46.5235 42.8709 46.9127 44.68 48.2678 45.5544C48.7566 45.87 49.3049 46.0214 49.8467 46.0214C50.8047 46.0214 51.7436 45.5488 52.3017 44.6828V44.6821ZM14.72 45.5403C16.0751 44.6665 16.4665 42.8582 15.5947 41.5012C14.7222 40.1442 12.9164 39.7522 11.5614 40.626C10.2064 41.4998 9.81498 43.3081 10.6868 44.6651C11.2449 45.5332 12.1838 46.0058 13.1432 46.0058C13.6843 46.0058 14.2312 45.8551 14.72 45.5403ZM55.235 38.2686C55.6893 36.7199 54.8048 35.0955 53.2583 34.6405C51.7118 34.1856 50.0905 35.0714 49.6355 36.6201C49.1812 38.1688 50.0657 39.7926 51.6122 40.2482C51.887 40.3288 52.164 40.3678 52.4367 40.3678C53.6984 40.3678 54.8613 39.5421 55.235 38.2686ZM11.3791 40.2312C12.9256 39.7777 13.8122 38.154 13.3594 36.6053C12.9058 35.0566 11.2852 34.1686 9.73868 34.6229C8.1922 35.0764 7.30558 36.7001 7.75914 38.2488C8.13216 39.5237 9.29572 40.3501 10.5582 40.3501C10.8295 40.3501 11.1064 40.3119 11.3798 40.2312H11.3791ZM56.2368 31.2927C56.2382 29.6789 54.9327 28.3693 53.3212 28.3679C51.7097 28.3664 50.402 29.6739 50.4006 31.2877C50.3992 32.9015 51.7048 34.2111 53.3162 34.2125H53.3184C54.9291 34.2125 56.2354 32.9058 56.2368 31.2927ZM12.5992 31.2714C12.5992 31.2651 12.5992 31.2594 12.5992 31.253C12.5992 31.2488 12.5992 31.2438 12.5992 31.2396C12.602 29.6258 11.2972 28.3148 9.68569 28.3127C8.07422 28.3098 6.76512 29.6166 6.763 31.2304V31.2537V31.2721C6.763 32.886 8.06928 34.1941 9.68075 34.1941C11.2922 34.1941 12.5992 32.886 12.5992 31.2721V31.2714ZM53.264 27.9391C54.8111 27.487 55.6985 25.864 55.247 24.3146C54.7949 22.7652 53.1742 21.8765 51.6278 22.3286C50.0806 22.7814 49.1932 24.4037 49.6447 25.9532C50.017 27.2288 51.1813 28.0566 52.4445 28.0566C52.715 28.0566 52.9906 28.0184 53.264 27.9384V27.9391ZM13.3686 25.9079C13.8242 24.3599 12.9404 22.7347 11.3947 22.2784C9.84889 21.8221 8.22612 22.7071 7.77044 24.2552C7.31476 25.8032 8.19856 27.4283 9.74433 27.8846C10.0199 27.966 10.2975 28.0049 10.5709 28.0049C11.8313 28.0049 12.9941 27.1807 13.3686 25.9086V25.9079ZM51.4469 21.9346C52.8026 21.0622 53.1954 19.2538 52.3244 17.8962C51.4533 16.5385 49.6482 16.1451 48.2918 17.0174C46.9361 17.8898 46.5426 19.6974 47.4143 21.0558C47.9718 21.9247 48.9121 22.3987 49.8722 22.3987C50.4119 22.3987 50.9587 22.2487 51.4469 21.9346ZM15.6109 21.0162C16.4855 19.6607 16.097 17.8516 14.7434 16.9757C13.3897 16.0998 11.5833 16.4889 10.7087 17.8445C9.83406 19.2001 10.2226 21.0092 11.5762 21.885C12.0658 22.202 12.6147 22.3534 13.1573 22.3534C14.1146 22.3534 15.0528 21.8822 15.6109 21.0169V21.0162ZM48.0078 16.6899C49.0647 15.4716 48.9361 13.6257 47.7195 12.5673C46.503 11.5081 44.6598 11.6376 43.6029 12.8559C42.5453 14.0742 42.6746 15.9201 43.8911 16.9785C44.4436 17.4596 45.1254 17.6952 45.8043 17.6952C46.6196 17.6952 47.4313 17.3549 48.0085 16.6899H48.0078ZM19.144 16.9481C20.3634 15.8925 20.4969 14.0466 19.4421 12.8262C18.3881 11.6051 16.5449 11.4713 15.3262 12.5269C14.1068 13.5825 13.9733 15.4284 15.0281 16.6488C15.6053 17.3174 16.4184 17.6598 17.2365 17.6598C17.9126 17.6598 18.5922 17.4257 19.144 16.9481ZM43.2405 12.6203C43.9123 11.153 43.2702 9.41818 41.8049 8.74535C40.3404 8.07252 38.6081 8.71564 37.9356 10.183C37.2637 11.6496 37.9066 13.3844 39.3711 14.058C39.7653 14.2391 40.1793 14.3247 40.5863 14.3247C41.6919 14.3247 42.7495 13.6922 43.2405 12.6203ZM23.6718 14.0374C25.1384 13.3682 25.7856 11.6348 25.1173 10.1667C24.4489 8.69795 22.7188 8.04988 21.2521 8.71917C19.7855 9.38847 19.1383 11.1218 19.8067 12.5906C20.2963 13.666 21.356 14.3021 22.4637 14.3021C22.8685 14.3021 23.2797 14.2172 23.6718 14.0382V14.0374ZM37.5201 10.0606C37.7498 8.46306 36.642 6.98156 35.0468 6.75233C33.4515 6.52239 31.9722 7.63175 31.7433 9.22928C31.5137 10.8268 32.6214 12.3083 34.2167 12.5376C34.3573 12.5581 34.4971 12.568 34.6356 12.568C36.0634 12.568 37.3117 11.518 37.5201 10.0613V10.0606ZM28.8305 12.5305C30.4264 12.3048 31.5377 10.8261 31.3123 9.22787C31.087 7.62962 29.6111 6.51744 28.0152 6.74242C26.4193 6.96811 25.308 8.44608 25.5334 10.0443C25.7389 11.5039 26.9887 12.5588 28.4193 12.5588C28.555 12.5588 28.6927 12.5489 28.8312 12.5298L28.8305 12.5305Z" fill="#9BD3DD"/>
<path d="M35.9639 62.503C37.9957 62.2143 39.4093 60.3303 39.1204 58.2955C38.8315 56.2607 36.9508 54.845 34.919 55.1344C32.8872 55.4238 31.4735 57.3071 31.7625 59.3419C32.026 61.1998 33.6162 62.5405 35.4368 62.5405C35.6106 62.5405 35.7865 62.5285 35.9639 62.503ZM31.2128 59.3419C31.5032 57.3071 30.0916 55.4223 28.0598 55.1316C26.028 54.8408 24.1459 56.2544 23.8556 58.2891C23.5652 60.3239 24.9767 62.2087 27.0086 62.4995C27.1866 62.5249 27.3639 62.5377 27.5391 62.5377C29.3583 62.5377 30.9486 61.1984 31.2128 59.3426V59.3419ZM44.5744 59.9801C46.4409 59.1261 47.2632 56.918 46.4105 55.0488C45.5578 53.1789 43.3536 52.356 41.4864 53.21C39.6199 54.0639 38.7975 56.2713 39.6503 58.1413C40.2741 59.5096 41.6227 60.3175 43.0329 60.3175C43.5493 60.3175 44.0742 60.2093 44.5744 59.9801ZM23.3271 58.1342C24.1813 56.2657 23.361 54.0569 21.4952 53.2015C19.6294 52.3461 17.4238 53.1675 16.5697 55.0368C15.7156 56.9053 16.5358 59.1141 18.4016 59.9694C18.9032 60.1994 19.4288 60.3083 19.9459 60.3083C21.3547 60.3083 22.7019 59.5018 23.3271 58.1349V58.1342ZM52.1153 55.1245C53.6667 53.7788 53.8349 51.4285 52.4912 49.8748C51.1474 48.3212 48.8005 48.1528 47.2491 49.4984C45.6977 50.8441 45.5296 53.1944 46.8733 54.7481C47.608 55.5978 48.643 56.0329 49.6836 56.0329C50.5455 56.0329 51.4124 55.7336 52.1153 55.1245ZM16.1069 54.7354C17.4521 53.1831 17.2853 50.8328 15.7353 49.4857C14.1853 48.1386 11.8384 48.3056 10.4933 49.8579C9.14816 51.4101 9.31488 53.7604 10.8649 55.1075C11.5685 55.7188 12.4354 56.0181 13.2987 56.0181C14.3386 56.0181 15.3722 55.5837 16.1069 54.7354ZM57.9897 48.3488C59.1017 46.6217 58.6057 44.3181 56.8805 43.2045C55.156 42.0909 52.8557 42.5883 51.7437 44.3153C50.6317 46.043 51.1284 48.3459 52.8529 49.4595C53.476 49.8621 54.1733 50.0538 54.8635 50.0538C56.0836 50.0538 57.2797 49.4525 57.9897 48.3488ZM10.1323 49.4411C11.8582 48.3289 12.3563 46.026 11.2457 44.2976C10.1351 42.5692 7.83552 42.0704 6.1096 43.1826C4.38368 44.2948 3.88562 46.5977 4.9962 48.3261C5.70691 49.4312 6.90298 50.034 8.12447 50.0333C8.81329 50.0333 9.50987 49.8416 10.1323 49.4404V49.4411ZM61.7248 40.1821C62.3034 38.2103 61.1766 36.1423 59.2076 35.5621C57.2387 34.9827 55.1737 36.1111 54.5943 38.0829C54.0157 40.0547 55.1426 42.1228 57.1115 42.7029C57.4612 42.8062 57.8138 42.855 58.1613 42.855C59.7679 42.855 61.2494 41.8037 61.7248 40.1821ZM5.87859 42.6817C7.84824 42.1037 8.97649 40.0363 8.4 38.0638C7.82281 36.0913 5.75848 34.9615 3.78883 35.5395C1.81918 36.1175 0.690228 38.1848 1.26742 40.1573C1.74217 41.7803 3.22436 42.8338 4.83229 42.8331C5.17776 42.8331 5.5303 42.7843 5.87859 42.6817ZM63 31.2987C63.0021 29.2434 61.3398 27.5759 59.2868 27.5744C57.2344 27.573 55.5693 29.2378 55.5679 31.2931C55.5665 33.3484 57.2288 35.0159 59.2811 35.0173H59.2846C61.3348 35.0166 62.9986 33.3526 63 31.2987ZM7.43142 31.2718V31.2485V31.2308C7.43495 29.1755 5.77332 27.5065 3.72171 27.5037C1.6694 27.5002 0.00282288 29.1635 -0.000709534 31.2188C-0.000709534 31.2273 -0.000709534 31.2358 -0.000709534 31.2442C-0.000709534 31.2534 -0.000709534 31.2626 -0.000709534 31.2718C-0.000709534 33.3271 1.66304 34.9933 3.71536 34.9933C5.76767 34.9933 7.43142 33.3271 7.43142 31.2718ZM59.2147 27.0283C61.1844 26.4524 62.3154 24.3857 61.7396 22.4125C61.1646 20.44 59.101 19.3073 57.1306 19.8839C55.1602 20.4605 54.0299 22.5264 54.6056 24.4997C55.0797 26.1241 56.5619 27.1782 58.1705 27.1782C58.5153 27.1782 58.8664 27.1301 59.214 27.0283H59.2147ZM8.4113 24.4416C8.99203 22.4698 7.86661 20.4011 5.89766 19.8195C3.92942 19.238 1.86298 20.365 1.28225 22.3361C0.70153 24.3072 1.82694 26.3766 3.79519 26.9582C4.14631 27.0622 4.49954 27.111 4.84784 27.111C6.45295 27.111 7.93372 26.0611 8.41059 24.4416H8.4113ZM56.9003 19.3823C58.6269 18.2715 59.1271 15.9686 58.0179 14.2395C56.9088 12.5104 54.6092 12.0095 52.8826 13.1202C51.1559 14.231 50.6557 16.5332 51.7649 18.2623C52.4749 19.3689 53.6724 19.9724 54.8946 19.9724C55.582 19.9724 56.2786 19.7813 56.8996 19.3816L56.9003 19.3823ZM11.2669 18.2121C12.381 16.4858 11.8865 14.1822 10.162 13.0672C8.43815 11.9514 6.13786 12.4467 5.02446 14.1737C3.91034 15.9 4.40488 18.2036 6.12939 19.3186C6.7525 19.7219 7.45191 19.9151 8.14284 19.9143C9.36222 19.9143 10.5569 19.3137 11.2676 18.2121H11.2669ZM52.5215 12.7035C53.8681 11.152 53.7035 8.80165 52.1542 7.45387C50.6049 6.10537 48.258 6.27022 46.9121 7.82177C45.5656 9.37331 45.7302 11.7236 47.2795 13.0714C47.9831 13.6834 48.8514 13.9841 49.7154 13.9841C50.7539 13.9841 51.7868 13.5504 52.5215 12.7035ZM15.7657 13.0318C17.3178 11.6875 17.4881 9.33723 16.1458 7.78285C14.8035 6.22848 12.4566 6.05797 10.9045 7.40222C9.35233 8.74647 9.18206 11.0968 10.5244 12.6512C11.2591 13.5023 12.2948 13.9388 13.3369 13.9388C14.1981 13.9388 15.0635 13.6402 15.7657 13.0325V13.0318ZM46.4501 7.52037C47.3056 5.65257 46.4875 3.44305 44.6217 2.58627C42.7566 1.72949 40.5503 2.54877 39.6948 4.41728C38.8392 6.28508 39.6573 8.4946 41.5231 9.35138C42.0254 9.58202 42.5518 9.69098 43.0703 9.69098C44.4783 9.69098 45.8249 8.88585 46.4501 7.52037ZM21.5313 9.32591C23.3985 8.47337 24.2229 6.26668 23.3716 4.39605C22.5203 2.52613 20.3168 1.70048 18.4489 2.55302C16.5817 3.40555 15.7572 5.61224 16.6085 7.48287C17.2317 8.85259 18.581 9.66197 19.9919 9.66197C20.5076 9.66197 21.0311 9.55373 21.5306 9.32591H21.5313ZM39.167 4.26163C39.4588 2.22686 38.0487 0.340665 36.0176 0.0484676C33.9857 -0.24373 32.1023 1.16773 31.8105 3.2025C31.5187 5.23656 32.9288 7.12276 34.96 7.41566C35.1394 7.44113 35.3174 7.45387 35.4934 7.45387C37.3111 7.45387 38.9007 6.11598 39.167 4.26163ZM28.1008 7.40717C30.1326 7.11993 31.5477 5.23727 31.2609 3.2025C30.974 1.16702 29.0941 -0.24939 27.0623 0.0378551C25.0297 0.3251 23.6154 2.20776 23.9022 4.24323C24.1643 6.10183 25.7553 7.44467 27.5773 7.44467C27.7504 7.44467 27.9249 7.43264 28.1015 7.40788L28.1008 7.40717Z" fill="#9BD3DD"/>
<path d="M34.211 50.2417C35.4452 50.0662 36.3036 48.9222 36.1284 47.6862C35.9532 46.4502 34.8108 45.5906 33.5766 45.766C32.3424 45.9415 31.484 47.0855 31.6592 48.3215C31.8189 49.45 32.7854 50.2643 33.891 50.2643C33.9963 50.2643 34.1036 50.2572 34.211 50.2417ZM31.3258 48.3215C31.5024 47.0855 30.6447 45.9408 29.4105 45.7639C28.1763 45.587 27.0332 46.4459 26.8566 47.6819C26.68 48.9179 27.5376 50.0627 28.7719 50.2395C28.88 50.2551 28.988 50.2622 29.094 50.2622C30.1989 50.2622 31.1647 49.4486 31.3258 48.3215ZM39.4411 48.7085C40.575 48.1899 41.0744 46.8492 40.5566 45.7137C40.0387 44.5781 38.7 44.0779 37.5661 44.5965C36.4322 45.1151 35.9327 46.4558 36.4506 47.5914C36.8299 48.4227 37.6487 48.913 38.505 48.913C38.8187 48.913 39.1373 48.8472 39.4411 48.7078V48.7085ZM26.5359 47.5878C27.0544 46.453 26.5564 45.1116 25.4232 44.5916C24.29 44.0716 22.9505 44.5711 22.4312 45.7059C21.9127 46.8407 22.4108 48.1821 23.5439 48.7021C23.8484 48.8415 24.1678 48.908 24.4821 48.908C25.3377 48.908 26.1565 48.4184 26.5359 47.5878ZM44.0211 45.7597C44.9636 44.9425 45.0653 43.5148 44.2493 42.5717C43.4334 41.6279 42.0077 41.5253 41.0653 42.3431C40.1228 43.1603 40.0211 44.588 40.8371 45.5318C41.2836 46.0476 41.9123 46.3122 42.5439 46.3122C43.0674 46.3122 43.5937 46.1304 44.0204 45.7604L44.0211 45.7597ZM22.1501 45.5233C22.9667 44.5802 22.8657 43.1525 21.9247 42.3346C20.983 41.5168 19.5573 41.6179 18.7406 42.561C17.9239 43.5034 18.0249 44.9312 18.966 45.7497C19.3934 46.1212 19.9197 46.303 20.4439 46.303C21.0755 46.303 21.7036 46.0391 22.1501 45.5241V45.5233ZM47.5896 41.6441C48.2649 40.5949 47.9633 39.1962 46.9163 38.5198C45.8686 37.8434 44.4719 38.1455 43.7958 39.1941C43.1204 40.2433 43.4221 41.642 44.4698 42.3191C44.8477 42.5632 45.2716 42.6799 45.6906 42.6799C46.4316 42.6799 47.1579 42.3148 47.5896 41.6441ZM18.5209 42.3078C19.5693 41.6321 19.8717 40.2334 19.197 39.1834C18.5223 38.1335 17.1256 37.8307 16.0772 38.5064C15.0288 39.182 14.7264 40.5808 15.4011 41.6307C15.8328 42.3021 16.559 42.6679 17.3008 42.6679C17.719 42.6679 18.1422 42.5518 18.5202 42.3078H18.5209ZM49.8588 36.6838C50.2106 35.486 49.526 34.2295 48.3299 33.8779C47.1339 33.5256 45.8792 34.2111 45.5281 35.4089C45.1762 36.6067 45.8608 37.8632 47.0569 38.2149C47.2695 38.2771 47.4836 38.3069 47.6941 38.3069C48.6698 38.3069 49.5698 37.668 49.8588 36.6831V36.6838ZM15.9373 38.2014C17.1334 37.8505 17.8194 36.5947 17.469 35.3969C17.1185 34.1991 15.8645 33.5121 14.6678 33.863C13.4717 34.214 12.7857 35.4698 13.1361 36.6676C13.4251 37.6531 14.3251 38.2927 15.3015 38.2927C15.5113 38.2927 15.7254 38.263 15.9373 38.2007V38.2014ZM50.6331 31.2877C50.6338 30.039 49.6242 29.0266 48.378 29.0252C47.1318 29.0245 46.1201 30.0355 46.1187 31.2835C46.118 32.5315 47.1275 33.5447 48.3737 33.5461H48.3759C49.6214 33.5461 50.6323 32.5351 50.6331 31.2877ZM16.8812 31.2715V31.2573V31.2467C16.8833 29.9987 15.8744 28.9848 14.6275 28.9827C13.3806 28.9806 12.3689 29.9909 12.3668 31.2396V31.2538C12.3668 31.2602 12.3668 31.2658 12.3668 31.2722C12.3668 32.5202 13.3777 33.5326 14.624 33.5326C15.8709 33.5326 16.8812 32.5202 16.8812 31.2722V31.2715ZM48.3342 28.6941C49.531 28.3438 50.2176 27.0887 49.8679 25.8902C49.5182 24.6917 48.2649 24.004 47.0682 24.3542C45.8721 24.7045 45.1847 25.9596 45.5344 27.1581C45.822 28.145 46.7227 28.7853 47.6998 28.7853C47.9096 28.7853 48.1222 28.7556 48.3335 28.6941H48.3342ZM17.4753 27.1227C17.8278 25.9249 17.1447 24.6684 15.9486 24.3153C14.7533 23.9623 13.4978 24.6464 13.1453 25.8442C12.7928 27.0413 13.4759 28.2986 14.672 28.6516C14.8854 28.7146 15.1001 28.7443 15.3114 28.7443C16.2863 28.7443 17.1857 28.1068 17.4753 27.1227ZM46.9283 24.05C47.9767 23.3751 48.2812 21.9763 47.6072 20.9264C46.9332 19.8765 45.5372 19.5716 44.4881 20.2465C43.4397 20.9215 43.1352 22.3195 43.8092 23.3701C44.2409 24.0422 44.9678 24.4087 45.7103 24.4087C46.1286 24.4087 46.551 24.2927 46.9283 24.05ZM19.2104 23.339C19.8872 22.2905 19.587 20.891 18.5393 20.214C17.4923 19.5362 16.0949 19.8369 15.4188 20.8861C14.742 21.9346 15.0429 23.334 16.0899 24.0111C16.4686 24.2559 16.8932 24.3734 17.3128 24.3734C18.0532 24.3734 18.7788 24.0083 19.2111 23.339H19.2104ZM44.2684 19.9932C45.0865 19.0508 44.9862 17.6231 44.0452 16.8045C43.1041 15.9852 41.6785 16.0857 40.8611 17.0281C40.043 17.9705 40.1433 19.3982 41.0843 20.2168C41.5117 20.5889 42.0388 20.7708 42.5637 20.7708C43.1946 20.7708 43.8219 20.5076 44.2684 19.9932ZM21.9431 20.1927C22.8862 19.3763 22.9894 17.9485 22.1741 17.0047C21.3588 16.0602 19.9331 15.9569 18.9907 16.7734C18.0476 17.5898 17.9444 19.0176 18.7597 19.9614C19.2062 20.4786 19.8349 20.7432 20.4679 20.7432C20.9907 20.7432 21.5163 20.5621 21.9431 20.1927ZM40.5806 16.8448C41.1006 15.71 40.6032 14.3686 39.47 13.8479C38.3368 13.3272 36.9974 13.8252 36.4774 14.9601C35.9574 16.0949 36.4548 17.4363 37.588 17.957C37.8932 18.0971 38.2125 18.1636 38.5276 18.1636C39.3824 18.1636 40.2005 17.6747 40.5806 16.8448ZM25.4451 17.9415C26.5797 17.4236 27.0798 16.0836 26.5627 14.9473C26.0456 13.8111 24.7075 13.3102 23.5729 13.8281C22.4383 14.346 21.9381 15.6867 22.4553 16.8222C22.8339 17.6542 23.6534 18.1459 24.5104 18.1459C24.8234 18.1459 25.142 18.0801 25.4451 17.9422V17.9415ZM36.1567 14.866C36.334 13.6307 35.4777 12.4845 34.2435 12.3069C33.01 12.1294 31.8655 12.9869 31.6882 14.2229C31.5109 15.4581 32.3671 16.6043 33.6013 16.7819C33.7101 16.7974 33.8182 16.8052 33.9256 16.8052C35.0298 16.8052 35.9949 15.993 36.1567 14.866ZM29.4352 16.7762C30.6695 16.6015 31.5292 15.4581 31.3547 14.2221C31.1809 12.9861 30.0386 12.1251 28.8044 12.2999C27.5701 12.4739 26.7104 13.6179 26.8849 14.8539C27.0438 15.9831 28.0103 16.7989 29.1173 16.7989C29.2226 16.7989 29.3286 16.7918 29.4359 16.7762H29.4352Z" fill="#9BD3DD"/>
<path d="M33.5873 45.875C34.5375 45.7399 35.1981 44.859 35.0631 43.9074C34.9282 42.9558 34.0487 42.2943 33.0984 42.4295C32.1482 42.5646 31.4877 43.4454 31.6226 44.397C31.7455 45.2658 32.4895 45.8927 33.3408 45.8927C33.422 45.8927 33.5047 45.887 33.5873 45.875ZM31.3655 44.3963C31.5011 43.4447 30.8412 42.5632 29.891 42.4273C28.9415 42.2915 28.0613 42.9523 27.9256 43.9032C27.79 44.8548 28.4498 45.7363 29.3993 45.8722C29.4827 45.8842 29.5654 45.8898 29.6473 45.8898C30.4979 45.8898 31.2411 45.2637 31.3655 44.3956V44.3963ZM37.6128 44.6949C38.486 44.2959 38.8703 43.2629 38.4712 42.3891C38.0727 41.5147 37.042 41.1298 36.1688 41.5295C35.2956 41.9286 34.912 42.9615 35.3104 43.8353C35.6022 44.4748 36.2324 44.8527 36.8915 44.8527C37.1331 44.8527 37.3783 44.8017 37.6121 44.6949H37.6128ZM27.6784 43.8317C28.0775 42.958 27.6939 41.925 26.8214 41.5253C25.9489 41.1255 24.9174 41.509 24.5183 42.3835C24.1191 43.2572 24.5027 44.2895 25.3752 44.6899C25.6098 44.7975 25.8556 44.8484 26.0973 44.8484C26.7557 44.8484 27.3859 44.4713 27.6784 43.8324V43.8317ZM41.1388 42.4245C41.8644 41.7955 41.9428 40.6961 41.3148 39.9702C40.6867 39.2436 39.5895 39.1651 38.864 39.794C38.1384 40.423 38.06 41.5225 38.6881 42.2484C39.0314 42.646 39.5154 42.849 40.0021 42.849C40.4055 42.849 40.8103 42.7096 41.1388 42.4245ZM24.3028 42.2427C24.9316 41.5168 24.8539 40.418 24.129 39.7884C23.4042 39.1587 22.307 39.2365 21.6783 39.9624C21.0495 40.6883 21.1272 41.7871 21.852 42.4167C22.1806 42.7026 22.5861 42.8426 22.9902 42.8426C23.4762 42.8426 23.9595 42.6396 24.3035 42.2427H24.3028ZM43.8856 39.2563C44.4056 38.4491 44.1732 37.3716 43.3671 36.8508C42.5603 36.3301 41.485 36.5629 40.9651 37.3701C40.4451 38.1781 40.6768 39.2549 41.4836 39.7756C41.7747 39.9638 42.1011 40.0537 42.4232 40.0537C42.994 40.0537 43.5529 39.7721 43.8849 39.2563H43.8856ZM21.5087 39.7671C22.3155 39.2471 22.5486 38.1703 22.0294 37.3624C21.5101 36.5544 20.4349 36.3209 19.6281 36.8409C18.8213 37.3609 18.5881 38.4378 19.1074 39.2457C19.4394 39.7622 19.999 40.0445 20.5698 40.0445C20.8919 40.0445 21.2176 39.9546 21.5087 39.7671ZM45.6327 35.438C45.9033 34.5161 45.3763 33.5489 44.4557 33.278C43.5352 33.007 42.5695 33.5348 42.2989 34.4567C42.0283 35.3785 42.5553 36.3457 43.4759 36.6166C43.6391 36.6648 43.8044 36.6874 43.9662 36.6874C44.7171 36.6874 45.4102 36.1957 45.6327 35.438ZM19.52 36.6067C20.4412 36.3365 20.9682 35.37 20.6991 34.4475C20.4292 33.5249 19.4642 32.9971 18.5429 33.2666C17.6224 33.5369 17.0946 34.5033 17.3638 35.4259C17.5856 36.1851 18.2787 36.6775 19.0304 36.6768C19.1922 36.6768 19.3568 36.6542 19.5193 36.606L19.52 36.6067ZM46.229 31.2842C46.229 30.3234 45.4526 29.5438 44.4932 29.5431C43.5338 29.5424 42.7546 30.3206 42.7538 31.2814C42.7531 32.2422 43.5303 33.0218 44.4897 33.0226H44.4911C45.4498 33.0226 46.2276 32.2443 46.2283 31.2842H46.229ZM20.2462 31.2715V31.2609V31.2531C20.2476 30.2923 19.4712 29.5119 18.5118 29.5098C17.5524 29.5084 16.7732 30.2859 16.7718 31.2467V31.2609V31.2715C16.7718 32.2323 17.5496 33.0112 18.509 33.0112C19.4684 33.0112 20.2462 32.2323 20.2462 31.2715ZM44.4586 29.2877C45.3798 29.0181 45.9083 28.0517 45.6391 27.1291C45.3699 26.2065 44.4056 25.6773 43.4843 25.9468C42.5631 26.2164 42.0347 27.1828 42.3038 28.1047C42.5257 28.8646 43.2187 29.3577 43.9711 29.3577C44.1322 29.3577 44.2961 29.3351 44.4593 29.2877H44.4586ZM20.704 28.0778C20.9753 27.156 20.4497 26.1888 19.5292 25.9164C18.6086 25.6447 17.6429 26.1711 17.3709 27.093C17.0996 28.0149 17.6259 28.982 18.5457 29.2544C18.7096 29.3025 18.875 29.3259 19.0382 29.3259C19.7884 29.3259 20.4808 28.8349 20.704 28.0778ZM43.3763 25.712C44.1838 25.1927 44.4176 24.1158 43.899 23.3072C43.3805 22.4985 42.3052 22.2643 41.4977 22.7836C40.6902 23.3029 40.4564 24.3797 40.9749 25.1884C41.307 25.7056 41.8665 25.9879 42.4381 25.9879C42.7595 25.9879 43.0852 25.8987 43.3755 25.7113L43.3763 25.712ZM22.0393 25.1651C22.5599 24.3578 22.3289 23.281 21.5228 22.7589C20.7167 22.2374 19.6415 22.4688 19.1201 23.276C18.5994 24.0833 18.8305 25.1601 19.6365 25.6815C19.9283 25.8704 20.2547 25.9603 20.5776 25.9603C21.1477 25.9603 21.7065 25.6794 22.0386 25.1644L22.0393 25.1651ZM41.3296 22.5898C41.9591 21.8646 41.8821 20.7651 41.1579 20.1347C40.4338 19.5044 39.3359 19.5815 38.7064 20.3067C38.077 21.0318 38.154 22.1306 38.8781 22.7617C39.2073 23.0482 39.6129 23.1883 40.017 23.1883C40.5023 23.1883 40.9855 22.986 41.3289 22.5898H41.3296ZM24.1432 22.7433C24.8687 22.1143 24.9485 21.0156 24.3212 20.289C23.6938 19.5624 22.596 19.4824 21.8704 20.1107C21.1442 20.7389 21.065 21.8384 21.6924 22.565C22.0357 22.9633 22.5204 23.1671 23.0071 23.1671C23.4098 23.1671 23.8146 23.0277 24.1432 22.7433ZM38.4903 20.1666C38.8908 19.2928 38.5079 18.2606 37.6354 17.8594C36.7629 17.459 35.7315 17.8417 35.3316 18.7155C34.9317 19.5885 35.3139 20.6215 36.1864 21.0227C36.421 21.1309 36.6676 21.1818 36.9099 21.1818C37.5683 21.1818 38.1978 20.8054 38.4903 20.1673V20.1666ZM26.8391 21.0106C27.7123 20.6123 28.0973 19.5801 27.6995 18.7056C27.3018 17.8311 26.2711 17.4455 25.3979 17.8439C24.5246 18.2422 24.1396 19.2744 24.5374 20.1489C24.8291 20.7892 25.46 21.1677 26.1199 21.1677C26.3608 21.1677 26.6059 21.1175 26.8391 21.0106ZM35.0843 18.6426C35.2207 17.691 34.5616 16.8095 33.612 16.6729C32.6618 16.5364 31.7816 17.1965 31.6452 18.1481C31.5089 19.099 32.168 19.9812 33.1175 20.1178C33.2016 20.1298 33.2842 20.1362 33.3669 20.1362C34.2168 20.1362 34.96 19.5107 35.0843 18.6433V18.6426ZM29.9108 20.1128C30.861 19.9784 31.5223 19.0983 31.3888 18.1467C31.2545 17.1951 30.3757 16.5329 29.4255 16.6666C28.4753 16.801 27.814 17.6811 27.9475 18.6327C28.0697 19.5022 28.8137 20.1298 29.6657 20.1298C29.7462 20.1298 29.8282 20.1241 29.9108 20.1128Z" fill="#9BD3DD"/>
</g>
<defs>
<clipPath id="clip0_6125_105">
<rect width="63" height="62.5401" fill="white" transform="matrix(-1 0 0 1 63 0)"/>
</clipPath>
</defs>
</svg>
