<svg width="229" height="114" viewBox="0 0 229 114" fill="none" xmlns="http://www.w3.org/2000/svg">
<g clip-path="url(#clip0_6136_2)">
<path d="M24.5798 113.988C24.5798 108.103 29.3177 103.336 35.1812 103.336C41.0448 103.336 45.795 108.091 45.795 113.975M183.205 113.913C183.205 113.913 183.205 113.863 183.205 113.851C183.205 113.851 183.205 113.814 183.205 113.801C183.205 107.917 187.943 103.15 193.794 103.138C199.657 103.138 204.408 107.892 204.42 113.764V113.851V113.913M35.3915 101.772C29.763 100.121 26.5467 94.2117 28.1796 88.5756C29.8249 82.9272 35.7132 79.6994 41.3417 81.3381C46.9702 82.9892 50.1865 88.8984 48.5536 94.5469C47.2052 99.1898 42.9746 102.206 38.3728 102.206C37.3832 102.206 36.3812 102.07 35.3915 101.772ZM180.409 94.3731C178.752 88.737 181.968 82.8154 187.584 81.1519C193.2 79.4884 199.101 82.7161 200.758 88.3522C202.416 93.9882 199.2 99.9098 193.584 101.573C192.582 101.871 191.567 102.008 190.578 102.008C186.001 102.008 181.77 99.0036 180.409 94.3731ZM41.9973 79.8981C37.0739 76.72 35.6389 70.1281 38.8057 65.1872C41.9726 60.2463 48.5288 58.8063 53.4646 61.9843C58.388 65.1624 59.823 71.7419 56.6562 76.6952C54.6274 79.8608 51.2132 81.5864 47.7248 81.5864C45.7579 81.5864 43.7786 81.0402 41.9973 79.8981ZM172.257 76.5586C169.078 71.6178 170.488 65.0258 175.412 61.8354C180.335 58.6449 186.904 60.0601 190.083 65.001C193.262 69.9419 191.852 76.5338 186.928 79.7243C185.147 80.8788 183.155 81.425 181.176 81.425C177.7 81.425 174.286 79.7119 172.257 76.5586ZM54.4914 60.7926C50.6442 56.3607 51.1142 49.6321 55.5428 45.7713C59.959 41.9105 66.6638 42.3822 70.511 46.8265C74.3581 51.2584 73.8881 57.9869 69.4595 61.8478C67.4555 63.5982 64.969 64.4548 62.5073 64.4548C59.5385 64.4548 56.5943 63.2133 54.4914 60.7926ZM159.417 61.736C154.988 57.8876 154.506 51.1715 158.328 46.7272C162.163 42.2829 168.855 41.7863 173.284 45.6348C177.712 49.4832 178.207 56.1993 174.372 60.656C172.27 63.0892 169.313 64.343 166.344 64.343C163.882 64.343 161.421 63.4864 159.417 61.7485V61.736ZM71.8222 45.9699C69.3853 40.6318 71.7109 34.3006 77.0425 31.8549C82.3618 29.4093 88.6583 31.7432 91.1076 37.0938C93.5446 42.4319 91.2189 48.7507 85.8873 51.2088C84.4524 51.8667 82.9555 52.1771 81.4711 52.1771C77.4507 52.1771 73.6036 49.868 71.8222 45.9699ZM142.952 51.1343C137.62 48.7011 135.27 42.3822 137.694 37.0317C140.119 31.6811 146.415 29.3224 151.747 31.7556C157.079 34.1888 159.429 40.5077 157.004 45.8582C155.223 49.7811 151.376 52.0902 147.343 52.0902C145.871 52.0902 144.374 51.7798 142.952 51.1343ZM92.6168 36.6468C91.788 30.8246 95.8083 25.4368 101.61 24.5926C107.412 23.7609 112.78 27.7955 113.622 33.6178C114.45 39.4401 110.43 44.8278 104.628 45.672C104.121 45.7465 103.614 45.7837 103.107 45.7837C97.9113 45.7837 93.3838 41.9601 92.6168 36.6468ZM124.198 45.6472C118.397 44.8278 114.364 39.4401 115.18 33.6178C115.997 27.7955 121.365 23.7484 127.167 24.5678C132.969 25.3871 137.002 30.7749 136.185 36.5972C135.443 41.9105 130.891 45.7589 125.695 45.7589C125.2 45.7589 124.705 45.7217 124.198 45.6472Z" fill="#E89ABE"/>
<path d="M0 114C0 106.514 6.03673 100.444 13.4961 100.431C20.9554 100.431 27.0045 106.489 27.0169 113.975M201.983 113.913V113.826V113.764C201.983 106.278 208.008 100.195 215.467 100.183C222.926 100.171 228.988 106.229 229 113.715C229 113.715 229 113.777 229 113.801C229 113.801 229 113.863 229 113.901M13.7558 98.4574C6.5934 96.3594 2.48644 88.8364 4.57703 81.6485C6.66762 74.4607 14.1641 70.3392 21.3265 72.4372C28.4889 74.5352 32.5959 82.0582 30.5053 89.246C28.7858 95.1676 23.3923 99.0036 17.5412 99.0036C16.2918 99.0036 15.0052 98.8298 13.7435 98.4574H13.7558ZM198.433 89.035C196.318 81.8596 200.412 74.3117 207.575 72.2013C214.725 70.0785 222.246 74.1876 224.349 81.363C226.464 88.5384 222.369 96.0863 215.219 98.1967C213.945 98.5691 212.659 98.7554 211.397 98.7554C205.558 98.7554 200.177 94.9318 198.445 89.035H198.433ZM22.1677 70.5999C15.8959 66.5528 14.0775 58.1608 18.1102 51.8668C22.1429 45.5727 30.5053 43.7478 36.7771 47.7949C43.0488 51.8419 44.8673 60.234 40.8345 66.528C38.2491 70.5626 33.9071 72.7599 29.4538 72.7599C26.955 72.7599 24.4191 72.0647 22.1677 70.6123V70.5999ZM188.042 66.3418C183.997 60.0477 185.79 51.6681 192.062 47.5963C198.334 43.5368 206.684 45.3369 210.741 51.6309C214.786 57.9249 212.993 66.3045 206.721 70.3764C204.457 71.8413 201.909 72.5489 199.398 72.5489C194.969 72.5489 190.627 70.364 188.042 66.3542V66.3418ZM38.0883 46.2679C33.1897 40.6195 33.7958 32.0536 39.4243 27.15C45.0528 22.234 53.5884 22.8423 58.4747 28.4907C63.3733 34.1392 62.7672 42.7051 57.1387 47.6087C54.578 49.8432 51.4236 50.9357 48.2815 50.9357C44.5085 50.9357 40.748 49.3591 38.076 46.2679H38.0883ZM171.688 47.4721C166.047 42.5809 165.429 34.0151 170.303 28.3542C175.177 22.6933 183.712 22.0726 189.353 26.9638C194.994 31.855 195.612 40.4208 190.739 46.0817C188.067 49.1853 184.306 50.7743 180.521 50.7743C177.391 50.7743 174.249 49.6819 171.688 47.4721ZM60.157 27.3983C57.0521 20.5953 60.021 12.5509 66.7999 9.42246C73.5789 6.30649 81.5949 9.28591 84.7122 16.0889C87.8172 22.8919 84.8483 30.9363 78.0693 34.0647C76.2385 34.9089 74.3335 35.3062 72.4408 35.3062C67.3195 35.3062 62.4332 32.3764 60.157 27.3983ZM150.733 33.9654C143.941 30.8619 140.948 22.8174 144.04 16.0144C147.133 9.19901 155.149 6.19476 161.928 9.29832C168.719 12.4019 171.713 20.4463 168.62 27.2493C166.357 32.2398 161.446 35.182 156.324 35.182C154.456 35.182 152.551 34.7848 150.733 33.953V33.9654ZM86.6296 15.5179C85.5657 8.10655 90.6994 1.24148 98.0722 0.173853C105.457 -0.893772 112.298 4.24572 113.362 11.657C114.426 19.0683 109.292 25.9334 101.919 27.001C101.264 27.1003 100.62 27.1376 99.9772 27.1376C93.3714 27.1376 87.5945 22.2712 86.6296 15.5054V15.5179ZM126.858 26.9762C119.473 25.9334 114.327 19.0683 115.366 11.657C116.405 4.24572 123.246 -0.918601 130.631 0.124196C138.016 1.16699 143.162 8.03207 142.123 15.4434C141.17 22.2091 135.394 27.1003 128.763 27.1003C128.132 27.1003 127.501 27.0507 126.858 26.9638V26.9762Z" fill="#E89ABE"/>
<path d="M44.9539 113.963C44.9539 109.419 48.6155 105.732 53.1554 105.72C57.683 105.72 61.3569 109.394 61.3693 113.95M167.643 113.913V113.863V113.826C167.643 109.283 171.305 105.583 175.832 105.583C180.36 105.583 184.046 109.258 184.046 113.801V113.851C184.046 113.851 184.046 113.901 184.046 113.913M53.3162 104.515C48.9619 103.237 46.4754 98.6684 47.7372 94.2985C49.0113 89.9287 53.5636 87.4335 57.918 88.6997C62.2724 89.9784 64.7588 94.5468 63.497 98.9166C62.4455 102.517 59.1798 104.838 55.6295 104.838C54.8625 104.838 54.0956 104.727 53.3286 104.503L53.3162 104.515ZM165.478 98.7925C164.192 94.4351 166.678 89.8542 171.033 88.5632C175.375 87.2721 179.939 89.7674 181.226 94.1372C182.512 98.4946 180.026 103.075 175.671 104.367C174.892 104.59 174.113 104.702 173.346 104.702C169.808 104.702 166.53 102.38 165.478 98.7925ZM58.4252 87.6073C54.6151 85.1493 53.5141 80.0594 55.9635 76.2234C58.4128 72.3998 63.4847 71.295 67.2947 73.753C71.1048 76.211 72.2058 81.3008 69.7688 85.1244C68.1978 87.57 65.5629 88.9108 62.8538 88.9108C61.3322 88.9108 59.7983 88.4887 58.4252 87.6073ZM159.169 85.0127C156.708 81.1891 157.796 76.0993 161.606 73.6288C165.416 71.1584 170.488 72.2509 172.95 76.0744C175.412 79.898 174.311 84.9879 170.513 87.4583C169.14 88.3521 167.594 88.7742 166.072 88.7742C163.375 88.7742 160.74 87.4459 159.169 85.0127ZM68.0864 72.8219C65.1175 69.3956 65.4763 64.194 68.9029 61.2022C72.3171 58.2228 77.5003 58.5828 80.4815 62.0215C83.4504 65.4478 83.0917 70.6494 79.6651 73.6413C78.1064 74.9944 76.189 75.6648 74.284 75.6648C71.9955 75.6648 69.7069 74.7089 68.0864 72.8343V72.8219ZM149.236 73.5543C145.809 70.5749 145.438 65.3858 148.395 61.9346C151.364 58.4959 156.534 58.1234 159.973 61.0904C163.4 64.0699 163.771 69.259 160.815 72.7102C159.194 74.5971 156.906 75.553 154.605 75.553C152.7 75.553 150.795 74.8951 149.236 73.5419V73.5543ZM81.4959 61.3636C79.6032 57.2296 81.4093 52.3384 85.5286 50.4514C89.6479 48.5521 94.5219 50.3645 96.4022 54.4985C98.2948 58.6324 96.4888 63.5236 92.3694 65.4106C91.2561 65.9196 90.0933 66.1679 88.9552 66.1679C85.8503 66.1679 82.869 64.3802 81.4959 61.3636ZM136.507 65.3485C132.388 63.4616 130.569 58.5828 132.449 54.4364C134.33 50.3025 139.191 48.4776 143.323 50.3645C147.442 52.2515 149.261 57.1303 147.38 61.2767C146.007 64.3057 143.026 66.0934 139.909 66.0934C138.771 66.0934 137.62 65.8575 136.507 65.3485ZM97.5773 54.1509C96.9341 49.6445 100.051 45.4733 104.529 44.8278C109.02 44.1823 113.176 47.3106 113.82 51.8046C114.463 56.311 111.346 60.4822 106.867 61.1277C106.472 61.1898 106.076 61.2146 105.692 61.2146C101.684 61.2146 98.1711 58.26 97.5773 54.1509ZM122.009 61.1029C117.518 60.4697 114.401 56.2986 115.032 51.8046C115.663 47.2982 119.819 44.1698 124.297 44.803C128.788 45.4361 131.905 49.6073 131.274 54.1012C130.693 58.2103 127.18 61.1898 123.159 61.1898C122.776 61.1898 122.392 61.1649 121.996 61.1029H122.009Z" fill="#E89ABE"/>
<path d="M60.9612 113.95C60.9612 110.45 63.7816 107.607 67.2701 107.607C70.7585 107.607 73.5913 110.437 73.5913 113.938M155.409 113.913V113.876V113.851C155.409 110.35 158.229 107.507 161.718 107.507C165.206 107.507 168.039 110.338 168.039 113.839V113.888V113.925M67.3938 106.688C64.0414 105.707 62.124 102.182 63.1013 98.8298C64.0785 95.4655 67.5917 93.5413 70.9317 94.522C74.2841 95.5027 76.2015 99.0284 75.2242 102.38C74.4201 105.149 71.8966 106.949 69.1627 106.949C68.5813 106.949 67.9752 106.862 67.3938 106.688ZM153.739 102.281C152.749 98.9291 154.667 95.4034 158.007 94.4103C161.347 93.4172 164.86 95.3414 165.849 98.6932C166.839 102.045 164.922 105.571 161.582 106.564C160.988 106.738 160.382 106.825 159.788 106.825C157.054 106.825 154.543 105.037 153.739 102.281ZM71.3275 93.653C68.3958 91.7661 67.5422 87.8432 69.4225 84.8886C71.3028 81.9464 75.2118 81.0898 78.156 82.9768C81.0878 84.8637 81.9413 88.7866 80.061 91.7412C78.8487 93.6282 76.82 94.6586 74.7418 94.6586C73.5789 94.6586 72.3914 94.3358 71.3399 93.653H71.3275ZM148.89 91.6667C146.997 88.7246 147.838 84.8017 150.77 82.9023C153.702 81.0029 157.611 81.8471 159.503 84.7893C161.396 87.7314 160.555 91.6543 157.623 93.5537C156.559 94.2365 155.372 94.5717 154.197 94.5717C152.118 94.5717 150.09 93.5537 148.89 91.6667ZM78.7745 82.2816C76.486 79.6373 76.7705 75.64 79.393 73.3433C82.0279 71.0467 86.0111 71.3322 88.2997 73.964C90.5882 76.6083 90.3037 80.6057 87.6811 82.9023C86.4812 83.9451 85.0092 84.4541 83.5371 84.4541C81.7681 84.4541 80.0115 83.7216 78.7621 82.2692L78.7745 82.2816ZM141.245 82.8402C138.61 80.556 138.313 76.5462 140.602 73.902C142.878 71.2577 146.873 70.9598 149.508 73.2564C152.143 75.5406 152.44 79.5504 150.151 82.1947C148.902 83.6471 147.145 84.392 145.376 84.392C143.917 84.392 142.445 83.883 141.245 82.8526V82.8402ZM89.0914 73.4551C87.6317 70.277 89.0295 66.5155 92.1963 65.0506C95.3631 63.5857 99.1114 64.9885 100.571 68.1666C102.031 71.3446 100.633 75.1061 97.4661 76.571C96.6125 76.9683 95.7219 77.1545 94.8312 77.1545C92.4437 77.1545 90.1552 75.7889 89.0914 73.4551ZM131.447 76.5338C128.268 75.0813 126.87 71.3198 128.318 68.1418C129.765 64.9513 133.513 63.5485 136.68 65.001C139.859 66.4534 141.257 70.2149 139.81 73.393C138.746 75.7269 136.457 77.1048 134.058 77.1048C133.179 77.1048 132.289 76.9186 131.447 76.5338ZM101.474 67.9059C100.979 64.4423 103.379 61.227 106.83 60.7305C110.282 60.2339 113.486 62.6422 113.981 66.1058C114.475 69.5694 112.075 72.7847 108.624 73.2813C108.315 73.3309 108.018 73.3433 107.721 73.3433C104.629 73.3433 101.932 71.0591 101.474 67.9059ZM120.277 73.2688C116.826 72.7847 114.413 69.5694 114.908 66.1058C115.391 62.6422 118.595 60.2215 122.046 60.718C125.497 61.2022 127.91 64.4175 127.415 67.8811C126.969 71.0467 124.26 73.3309 121.168 73.3309C120.871 73.3309 120.574 73.3061 120.277 73.2688Z" fill="#E89ABE"/>
</g>
<defs>
<clipPath id="clip0_6136_2">
<rect width="229" height="114" fill="white"/>
</clipPath>
</defs>
</svg>
