<svg width="97" height="19" viewBox="0 0 97 19" fill="none" xmlns="http://www.w3.org/2000/svg">
<path d="M96.7469 0.337158L96.1614 3.57102L85.1486 5.48068L84.605 2.44196L96.7469 0.337158Z" fill="white"/>
<path d="M85.3997 6.87454L77.4956 8.2545L78.0811 5.0067L84.856 3.83582L85.3997 6.87454Z" fill="white"/>
<path d="M95.8405 5.41101L95.255 8.64488L85.9987 10.2618L85.4551 7.20915L95.8405 5.41101Z" fill="white"/>
<path d="M86.2499 11.6557L76.5894 13.3284L77.1748 10.0945L85.7062 8.60303L86.2499 11.6557Z" fill="white"/>
<path d="M94.8928 10.6521L94.3212 13.886L86.8911 15.1823L86.3335 12.1436L94.8928 10.6521Z" fill="white"/>
<path d="M87.142 16.5762L75.6553 18.5695L76.2268 15.3217L86.5983 13.5236L87.142 16.5762Z" fill="white"/>
<path d="M23.8257 5.81525H26.8646V6.49826L23.8257 9.53698V18.5834H28.0774V2.38623H23.8257V5.81525Z" fill="white"/>
<path d="M17.5384 4.26804C17.2039 3.98925 16.8414 3.75229 16.465 3.57108C16.3117 3.47351 16.1444 3.40381 15.9771 3.32018C15.545 3.12503 15.071 2.95776 14.5692 2.83231C13.9837 2.67898 13.3424 2.56747 12.6593 2.51171C12.2133 2.46989 11.6975 2.44202 11.0841 2.44202H0.879883V5.94073H3.9049V6.65162L0.879883 9.6764V18.5974H11.0841C11.6975 18.5974 12.2133 18.5695 12.6593 18.5277C13.6073 18.4441 14.4716 18.2629 15.1965 17.998C15.5868 17.8865 15.9771 17.7332 16.4371 17.4823C16.8553 17.2453 17.2178 17.0084 17.5245 16.7575C17.7336 16.5902 17.9009 16.4229 18.0821 16.2417C18.4585 15.8235 18.7791 15.3357 19.044 14.7502C19.1694 14.4714 19.2949 14.1648 19.3925 13.8163V13.7605C19.6434 12.9242 19.7828 11.9903 19.8246 10.9309V10.5127C19.8246 9.20247 19.6713 8.11522 19.3785 7.16736C19.0021 5.91285 18.3888 4.92317 17.5384 4.24016V4.26804ZM15.545 11.0006C15.545 12.506 15.1407 13.5793 14.3322 14.1787C14.2764 14.2205 14.2067 14.2624 14.151 14.3042C14.1091 14.3321 14.0534 14.3739 14.0255 14.3878C13.6073 14.6387 13.1473 14.806 12.5896 14.9314C12.032 15.0569 11.4047 15.1126 10.7217 15.1126H5.14558V5.94073H10.7217C11.4047 5.94073 12.032 5.99648 12.5896 6.12193C13.2867 6.27526 13.8861 6.51223 14.3601 6.86071C14.597 7.02797 14.7783 7.22312 14.9177 7.46009C15.3359 8.04553 15.5589 8.86793 15.5589 9.9273V10.9867L15.545 11.0006Z" fill="white"/>
<path d="M70.8319 3.90564C69.856 2.91597 68.3366 2.4281 66.3292 2.4281H53.3369V5.80136H56.348V6.48437L53.3369 9.49521V18.5696H57.5468V18.5417H57.5608V13.5794H66.3152C68.3644 13.5794 69.8421 13.0776 70.8319 12.06C71.8077 11.0564 72.3095 9.67642 72.3095 7.93404C72.3095 6.19165 71.8077 4.89532 70.8319 3.8917V3.90564ZM68.0438 8.28252C68.0438 8.90977 67.8765 9.3837 67.528 9.73218C67.1935 10.0807 66.594 10.2619 65.7716 10.2619H57.5608V5.80136L65.7716 5.77348C66.5801 5.77348 67.1656 5.95469 67.5141 6.28923C67.8626 6.6377 68.0299 7.11163 68.0299 7.71101V8.26858L68.0438 8.28252Z" fill="white"/>
<path d="M31.186 2.38623V5.89888H40.2611V6.58189L38.5604 8.28246V18.5834H42.8261V5.89888H50.2005V2.38623H31.186Z" fill="white"/>
</svg>
