<svg width="60" height="39" viewBox="0 0 60 39" fill="none" xmlns="http://www.w3.org/2000/svg">
<path d="M18.9743 27.9421H26.5577V25.907H18.9743V17.7805H31.3113L28.7045 22.5338H53.1138L40.9022 0.217285L32.4126 15.7454H16.939V25.8931H12.4363C7.73847 25.8931 2.98487 22.5616 2.98487 16.6793C2.98487 10.797 7.50149 7.35409 12.046 7.35409C16.5905 7.35409 18.7094 9.80737 19.8943 11.3407L21.4835 9.97464C20.1731 8.2462 17.3293 5.31899 12.046 5.31899C6.23293 5.31899 0.879883 9.84919 0.879883 16.6793C0.879883 23.5095 6.42809 27.9282 12.4503 27.9282H16.9529V38.0898H32.9423V36.0547H18.9743V27.9142V27.9421ZM40.9161 4.35719L50.0609 20.6659H31.7853L40.9161 4.35719Z" fill="white"/>
<path d="M36.2464 27.4543C36.2464 26.5064 36.9016 25.8652 37.7937 25.8652C38.5465 25.8652 39.0902 26.2277 39.1738 26.9943H38.4489C38.3932 26.6179 38.1841 26.4228 37.7937 26.4228C37.3058 26.4228 36.9852 26.7992 36.9852 27.4404V27.4822C36.9852 28.1234 37.278 28.4997 37.7937 28.4997C38.1841 28.4997 38.4489 28.3046 38.5047 27.9003H39.1878C39.1041 28.667 38.5604 29.0573 37.7937 29.0573C36.7761 29.0573 36.2324 28.43 36.2324 27.4822V27.4543H36.2464Z" fill="white"/>
<path d="M40.8325 25.921C41.5713 25.921 42.0314 26.2137 42.0314 26.8689C42.0314 27.3567 41.7526 27.6076 41.3901 27.7052L42.2126 29.0294H41.4598L40.721 27.8307H40.4143V29.0294H39.7173V25.921H40.8325ZM41.3483 26.9107C41.3483 26.5762 41.1531 26.4646 40.8186 26.4646H40.4282V27.3567H40.8186C41.1671 27.3567 41.3483 27.2034 41.3483 26.9107Z" fill="white"/>
<path d="M44.722 25.921V26.4647H43.3977V27.1895H44.4572V27.7052H43.3977V28.4719H44.7917V29.0155H42.7007V25.9071H44.722V25.921Z" fill="white"/>
<path d="M47.0358 25.921L48.0395 29.0294H47.3007L47.0916 28.3464H45.9625L45.7533 29.0294H45.0981L46.1158 25.921H47.0358ZM46.9522 27.8446L46.5479 26.5065L46.1297 27.8446H46.9522Z" fill="white"/>
<path d="M47.998 26.4646V25.921H50.3818V26.4646H49.5454V29.0155H48.8345V26.4646H47.998Z" fill="white"/>
<path d="M51.6084 25.921V29.0294H50.8975V25.921H51.6084Z" fill="white"/>
<path d="M52.8492 25.921L53.588 28.3046L54.3269 25.921H54.982L53.9505 29.0294H53.1419L52.1104 25.921H52.8492Z" fill="white"/>
<path d="M57.4911 25.921V26.4647H56.1667V27.1895H57.2262V27.7052H56.1667V28.4719H57.5608V29.0155H55.4697V25.9071H57.4911V25.921Z" fill="white"/>
<path d="M38.3514 30.4651V31.0087H37.0271V31.7336H38.0865V32.2493H37.0271V33.016H38.4211V33.5596H36.3301V30.4512H38.3514V30.4651Z" fill="white"/>
<path d="M38.7695 31.9985C38.7695 31.0506 39.4247 30.4094 40.3169 30.4094C41.0697 30.4094 41.6133 30.7718 41.697 31.5385H40.9721C40.9163 31.1621 40.7072 30.967 40.3169 30.967C39.829 30.967 39.5084 31.3433 39.5084 31.9845V32.0124C39.5084 32.6536 39.8011 33.03 40.3169 33.03C40.7072 33.03 40.9721 32.8348 41.0278 32.4306H41.7248C41.6412 33.1972 41.0975 33.5875 40.3308 33.5875C39.3132 33.5875 38.7695 32.9603 38.7695 32.0124V31.9706V31.9985Z" fill="white"/>
<path d="M42.0732 31.9985C42.0732 31.0785 42.7563 30.4233 43.6764 30.4233C44.5964 30.4233 45.2795 31.0506 45.2795 31.9845V32.0124C45.2795 32.9324 44.6522 33.6154 43.6764 33.6154C42.7006 33.6154 42.0872 32.9463 42.0872 32.0403V31.9985H42.0732ZM44.5407 31.9985C44.5407 31.3991 44.22 30.9809 43.6764 30.9809C43.1327 30.9809 42.8121 31.3712 42.8121 31.9985V32.0263C42.8121 32.6536 43.1745 33.0439 43.6903 33.0439C44.2061 33.0439 44.5407 32.6397 44.5407 32.0124V31.9706V31.9985Z" fill="white"/>
<path d="M46.6596 30.4651L47.8445 32.5141V30.4651H48.4718V33.5735H47.7748L46.4784 31.3711V33.5735H45.8511V30.4651H46.6735H46.6596Z" fill="white"/>
<path d="M49.0293 31.9985C49.0293 31.0785 49.7124 30.4233 50.6324 30.4233C51.5525 30.4233 52.2355 31.0506 52.2355 31.9845V32.0124C52.2355 32.9324 51.6082 33.6154 50.6324 33.6154C49.6566 33.6154 49.0432 32.9463 49.0432 32.0403V31.9985H49.0293ZM51.4967 31.9985C51.4967 31.3991 51.1761 30.9809 50.6324 30.9809C50.0887 30.9809 49.7681 31.3712 49.7681 31.9985V32.0263C49.7681 32.6536 50.1306 33.0439 50.6464 33.0439C51.1622 33.0439 51.4967 32.6397 51.4967 32.0124V31.9706V31.9985Z" fill="white"/>
<path d="M53.7272 30.4651L54.4521 32.4026L55.1631 30.4651H56.0692V33.5735H55.3722V31.399L54.5079 33.5735H54.2709L53.4066 31.399V33.5735H52.7793V30.4651H53.7133H53.7272Z" fill="white"/>
<path d="M56.543 30.4651H57.3097L57.937 31.6499L58.5504 30.4651H59.2334L58.2716 32.2353V33.5735H57.5606V32.2353L56.543 30.4651Z" fill="white"/>
<path d="M38.1003 35.0093L39.104 38.1177H38.3651L38.156 37.4347H37.0269L36.8178 38.1177H36.1626L37.1802 35.0093H38.1003ZM38.0166 36.9189L37.6124 35.5808L37.1942 36.9189H38.0166Z" fill="white"/>
<path d="M39.2573 36.5425C39.2573 35.6086 39.9265 34.9535 40.8326 34.9535C41.5156 34.9535 42.143 35.2741 42.2127 36.0407H41.5157C41.4599 35.6783 41.2229 35.5111 40.8465 35.5111C40.3029 35.5111 39.9962 35.9153 39.9962 36.5425V36.5844C39.9962 37.1837 40.2471 37.6159 40.8605 37.6159C41.3762 37.6159 41.5993 37.3231 41.6132 36.9607H40.9162V36.445H42.3102V36.7795C42.3102 37.6019 41.7805 38.1595 40.8465 38.1595C39.8289 38.1595 39.2713 37.5043 39.2713 36.5844V36.5425H39.2573Z" fill="white"/>
<path d="M44.9032 35.0093V35.5529H43.5788V36.2778H44.6383V36.7935H43.5788V37.5602H44.9729V38.1038H42.8818V34.9954H44.9032V35.0093Z" fill="white"/>
<path d="M46.3388 35.0093L47.5237 37.0583V35.0093H48.151V38.1177H47.454L46.1576 35.9153V38.1177H45.5303V35.0093H46.3528H46.3388Z" fill="white"/>
<path d="M48.709 36.5425C48.709 35.5947 49.3642 34.9535 50.2563 34.9535C51.0091 34.9535 51.5528 35.3159 51.6364 36.0826H50.9115C50.8558 35.7062 50.6467 35.5111 50.2563 35.5111C49.7684 35.5111 49.4478 35.8874 49.4478 36.5286V36.5565C49.4478 37.1977 49.7406 37.574 50.2563 37.574C50.6467 37.574 50.9115 37.3789 50.9673 36.9747H51.6643C51.5807 37.7413 51.037 38.1316 50.2703 38.1316C49.2526 38.1316 48.709 37.5043 48.709 36.5565V36.5147V36.5425Z" fill="white"/>
<path d="M51.7617 35.0093H52.5284L53.1557 36.1941L53.7691 35.0093H54.4522L53.4903 36.7795V38.1177H52.7794V36.7795L51.7617 35.0093Z" fill="white"/>
</svg>
