<svg width="74" height="35" viewBox="0 0 74 35" fill="none" xmlns="http://www.w3.org/2000/svg">
<path d="M61.5616 15.5989L54.5775 27.1404H49.7124C49.7124 27.1404 58.2159 12.9644 58.3832 12.6438C58.7596 11.9608 58.2996 11.459 58.2996 11.459H64.6563L73.9962 27.1404H68.3365C68.3365 27.1404 68.8802 26.6665 68.4062 25.8859C68.1971 25.5375 62.1471 15.5989 62.1471 15.5989C62.1471 15.5989 62.0076 15.3062 61.8543 15.3062C61.701 15.3062 61.5616 15.5989 61.5616 15.5989Z" fill="white"/>
<path d="M27.9935 11.4173C27.9935 11.4173 28.4257 11.9609 28.119 12.616C28.0075 12.8669 22.9332 21.2164 22.9332 21.2164C22.9332 21.2164 22.7799 21.4952 22.4872 21.4952C22.1944 21.4952 22.055 21.2443 22.055 21.2443L16.0468 11.4591H9.45308C9.45308 11.4591 9.9131 11.9609 9.57854 12.616C9.41125 12.9366 0.893799 27.1405 0.893799 27.1405H5.73105L12.6314 15.6826C12.6314 15.6826 12.7848 15.4178 12.9381 15.4178C13.0915 15.4178 13.2448 15.6826 13.2448 15.6826L19.9779 26.3878C19.9779 26.3878 20.2149 26.7363 20.5774 26.9315C21.0513 27.1545 21.581 27.1405 21.581 27.1405H24.2157C24.2157 27.1405 24.4527 26.7224 24.7037 26.2903C24.9128 25.9278 33.6254 11.4033 33.6254 11.4033H28.0075L27.9935 11.4173Z" fill="white"/>
<path d="M3.24971 31.1549C3.37517 31.2943 3.44487 31.4755 3.44487 31.6846V34.1658H2.97091V32.284C2.76181 32.4373 2.39937 32.521 1.9951 32.5906C1.66054 32.6743 1.35385 32.8834 1.38173 33.2597C1.42355 33.7337 1.96722 33.873 2.53877 33.7894L2.28784 34.1658C1.4793 34.2633 0.879883 33.9149 0.879883 33.2458C0.879883 32.744 1.31202 32.3816 1.86962 32.2561C2.31571 32.1585 2.94303 32.0888 2.94303 31.6428C2.94303 31.3361 2.63633 31.0992 2.25995 31.0992C1.8278 31.0992 1.549 31.3501 1.52112 31.6428H0.991407C1.06111 31.1549 1.57689 30.7646 2.24602 30.7646C2.60846 30.7646 2.85938 30.8622 2.98485 30.904C3.15213 30.9598 3.44487 30.8204 3.37517 30.5555H3.93279C3.90491 30.8901 3.61216 31.0992 3.24971 31.1549Z" fill="white"/>
<path d="M2.84539 30.4301C2.55265 30.4301 2.32959 30.2489 2.32959 29.984C2.32959 29.7192 2.56659 29.538 2.84539 29.538C3.1242 29.538 3.36117 29.7192 3.36117 29.984C3.36117 30.2489 3.13814 30.4301 2.84539 30.4301ZM2.84539 29.8028C2.73387 29.8028 2.63628 29.8725 2.63628 29.998C2.63628 30.1234 2.73387 30.1931 2.84539 30.1931C2.95691 30.1931 3.05449 30.1234 3.05449 29.998C3.05449 29.8725 2.95691 29.8028 2.84539 29.8028ZM6.12133 34.1657V31.8658C6.12133 31.4058 5.94011 31.1131 5.48009 31.1131C5.08976 31.1131 4.83883 31.3919 4.83883 31.6567H4.35091C4.39274 31.2246 4.81096 30.7785 5.48009 30.7785C6.21892 30.7785 6.60924 31.141 6.60924 31.7961V34.1797H6.13526L6.12133 34.1657Z" fill="white"/>
<path d="M10.0944 34.1658C9.99686 34.0961 9.94109 34.0125 9.94109 33.8871V33.7058C9.84351 33.9149 9.57865 34.2077 8.97922 34.2077C8.37979 34.2077 7.87793 33.8313 7.87793 33.1483V30.8065H8.35191V33.0507C8.35191 33.5943 8.65859 33.8731 9.14649 33.8731C9.6344 33.8731 9.94109 33.5386 9.94109 33.0786V30.8205H10.4151V33.7895C10.4151 33.9986 10.5266 34.0961 10.652 34.1798H10.0805L10.0944 34.1658Z" fill="white"/>
<path d="M9.77368 30.4301V29.761H10.2477V30.1095H11.7393V30.4301H9.77368Z" fill="white"/>
<path d="M13.9976 34.1657V31.81C13.9976 31.4058 13.6909 31.1131 13.2169 31.1131C12.7848 31.1131 12.5199 31.364 12.4084 31.5731L12.7569 31.81C12.5896 31.8518 12.4084 32.0191 12.4084 32.2282V34.1657H11.9344V32.284C11.9344 32.047 12.1296 31.8937 12.2411 31.8519L11.8787 31.6149C12.0181 31.2107 12.492 30.7925 13.2169 30.7925C13.9418 30.7925 14.4855 31.1828 14.4855 31.7961V34.1797H14.0115L13.9976 34.1657Z" fill="white"/>
<path d="M17.3155 34.1658H16.3397L15.6008 30.932L16.0469 30.8065L16.7439 33.8313H17.1343C17.65 33.8313 17.8034 33.4828 17.8034 32.3956C17.8034 31.3083 17.5943 31.1411 17.0227 31.1411H16.7579L16.9809 30.8065H17.2736C18.124 30.8065 18.2634 31.3223 18.2634 32.3677C18.2634 33.6222 17.9985 34.1519 17.3015 34.1519" fill="white"/>
<path d="M21.2326 34.1658V31.8658C21.2326 31.4058 21.0514 31.1131 20.5913 31.1131C20.1871 31.1131 19.9362 31.3919 19.9362 31.6567H19.4482C19.4901 31.2246 19.9083 30.7786 20.5774 30.7786C21.3162 30.7786 21.7066 31.141 21.7066 31.7961V34.1797H21.2326V34.1658Z" fill="white"/>
<path d="M25.2055 34.1658C25.1079 34.0961 25.0522 34.0125 25.0522 33.8871V33.7058C24.9546 33.9149 24.6897 34.2077 24.1042 34.2077C23.5187 34.2077 22.989 33.8313 22.989 33.1483V30.8065H23.463V33.0507C23.463 33.5943 23.7696 33.8731 24.2576 33.8731C24.7455 33.8731 25.0522 33.5386 25.0522 33.0786V30.8205H25.5261V33.7895C25.5261 33.9986 25.6237 34.0961 25.7631 34.1798H25.2055V34.1658Z" fill="white"/>
<path d="M29.039 34.1658C28.9415 34.0961 28.8857 34.0125 28.8857 33.8871V33.7058C28.7881 33.9149 28.5232 34.2077 27.9238 34.2077C27.3244 34.2077 26.8086 33.8313 26.8086 33.1483V30.8065H27.2826V33.0507C27.2826 33.5943 27.5753 33.8731 28.0772 33.8731C28.579 33.8731 28.8718 33.5386 28.8718 33.0786V30.8205H29.3457V33.7895C29.3457 33.9986 29.4572 34.0961 29.5966 34.1798H29.0251L29.039 34.1658Z" fill="white"/>
<path d="M31.7573 34.2076C31.0603 34.2076 30.5724 33.8452 30.5166 33.2458H31.0045C31.0603 33.664 31.367 33.873 31.7573 33.873C32.287 33.873 32.5658 33.4967 32.5658 32.4931C32.5658 31.4895 32.2731 31.1131 31.7573 31.1131C31.4227 31.1131 31.1439 31.3222 31.0463 31.6567H30.5584C30.656 31.141 31.1578 30.7786 31.7573 30.7786C32.5937 30.7786 33.0537 31.2664 33.0537 32.4931C33.0537 33.7197 32.5937 34.2076 31.7573 34.2076Z" fill="white"/>
<path d="M30.949 30.4301V29.761H31.4369V30.1095H32.9285V30.4301H30.949Z" fill="white"/>
<path d="M36.3577 34.1657V31.6428C36.3577 31.3779 36.2044 31.2107 36.0929 31.1828C35.9813 31.364 35.8001 31.5034 35.5074 31.5034C35.2146 31.5034 35.0334 31.364 34.9358 31.1828C34.8104 31.2246 34.6709 31.3779 34.6709 31.6428V33.4409L35.5074 32.2143H34.9916L35.1449 31.8797H35.9953V32.2143L34.6849 34.1797H34.2109V31.587C34.2109 31.127 34.5594 30.7925 35.117 30.7925C35.117 30.9597 35.2704 31.1549 35.5353 31.1549C35.8141 31.1549 35.9674 30.9597 35.9674 30.7925C36.5111 30.7925 36.8456 31.127 36.8456 31.587V34.1797H36.3856L36.3577 34.1657Z" fill="white"/>
<path d="M40.2329 34.1657V31.81C40.2329 31.4058 39.9263 31.1131 39.4523 31.1131C39.0202 31.1131 38.7553 31.364 38.6438 31.5731L38.9923 31.81C38.825 31.8518 38.6438 32.0191 38.6438 32.2282V34.1657H38.1698V32.284C38.1698 32.047 38.365 31.8937 38.4765 31.8519L38.1001 31.6149C38.2395 31.2107 38.7135 30.7925 39.4384 30.7925C40.1633 30.7925 40.7069 31.1828 40.7069 31.7961V34.1797H40.2329V34.1657Z" fill="white"/>
<path d="M43.2442 34.2076C42.4914 34.2076 41.9338 33.8312 41.9617 33.1482H42.4775C42.4217 33.5803 42.812 33.873 43.2302 33.873C43.6484 33.873 43.997 33.6221 43.997 33.2597C43.997 32.8694 43.6206 32.6603 43.1466 32.5627C42.5751 32.4373 42.0593 32.2143 42.0593 31.6985C42.0593 31.141 42.6169 30.7925 43.2302 30.7925C43.8436 30.7925 44.3594 31.141 44.4012 31.6706H43.9133C43.9133 31.364 43.5787 31.127 43.2302 31.127C42.8817 31.127 42.5472 31.364 42.5472 31.6567C42.5472 32.0331 42.9236 32.1446 43.4672 32.2561C44.0527 32.3815 44.4849 32.6743 44.4849 33.2039C44.4849 33.873 43.9691 34.2215 43.2442 34.2215" fill="white"/>
<path d="M46.9661 34.2076C46.1994 34.2076 45.6558 33.8312 45.6836 33.1482H46.1994C46.1437 33.5803 46.534 33.873 46.9522 33.873C47.3704 33.873 47.7189 33.6221 47.7189 33.2597C47.7189 32.8694 47.3286 32.6603 46.8685 32.5627C46.297 32.4373 45.7812 32.2143 45.7812 31.6985C45.7812 31.141 46.3249 30.7925 46.9522 30.7925C47.5795 30.7925 48.0674 31.141 48.1232 31.6706H47.6353C47.6213 31.364 47.3007 31.127 46.9522 31.127C46.6037 31.127 46.2691 31.364 46.2691 31.6567C46.2691 32.0331 46.6455 32.1446 47.1892 32.2561C47.7747 32.3815 48.2207 32.6743 48.2207 33.2039C48.2207 33.873 47.705 34.2215 46.9801 34.2215" fill="white"/>
<path d="M50.9671 34.2076C50.4792 34.2076 50.1446 33.9567 49.9634 33.6918V33.873C49.9634 34.0124 49.9216 34.0961 49.81 34.1518H49.2524C49.3918 34.0682 49.4894 33.9706 49.4894 33.7615V30.7925H49.9634V33.0506C49.9634 33.5106 50.4792 33.8452 50.8556 33.8452C51.2598 33.8452 51.5665 33.5803 51.5665 33.1482V30.7786H52.0405V33.2179C52.0405 33.8033 51.5665 34.1797 50.981 34.1797" fill="white"/>
<path d="M54.0478 34.1658H53.4065V30.8204H53.8665V33.8452H54.2847L54.0478 34.1798V34.1658ZM55.163 34.1658H54.5356V30.8204H55.0096V33.8452H55.4278L55.1769 34.1798L55.163 34.1658Z" fill="white"/>
<path d="M58.5924 34.1657V31.8937C58.5924 31.6428 58.5366 31.4476 58.3554 31.4476C58.1881 31.4476 58.1045 31.6009 58.0069 31.8379L57.0032 34.1518H56.5292V31.1828C56.5292 30.9876 56.4316 30.8901 56.2922 30.7925H56.8498C56.9614 30.8622 57.0032 30.9598 57.0032 31.0852V33.1621L57.6723 31.6149C57.7559 31.3919 57.8814 31.2246 58.1045 31.1828H57.6444V30.8064H59.0524V31.1828H58.5227C58.8712 31.2525 59.0524 31.5034 59.0524 31.8519V34.1518H58.5784L58.5924 34.1657Z" fill="white"/>
<path d="M58.9547 29.5938H58.4807V30.4301H58.9547V29.5938Z" fill="white"/>
<path d="M61.9798 34.1658H61.004L60.2651 30.932L60.7252 30.8065L61.4222 33.8313H61.8125C62.3143 33.8313 62.4816 33.4828 62.4816 32.3956C62.4816 31.3083 62.2725 31.1411 61.7149 31.1411H61.4361L61.6731 30.8065H61.9658C62.8162 30.8065 62.9556 31.3223 62.9556 32.3677C62.9556 33.6222 62.6907 34.1519 61.9798 34.1519" fill="white"/>
<path d="M65.4368 34.2076C64.7538 34.2076 64.2659 33.8731 64.2659 33.2877V30.8204H64.7398V33.2598C64.7398 33.7058 65.0465 33.8731 65.4508 33.8731C65.855 33.8731 66.1478 33.7058 66.1478 33.2598V32.3816C66.1478 32.061 65.869 31.838 65.4229 31.838H65.1302V31.5034H65.4229C65.8411 31.5034 66.1478 31.3362 66.1478 31.0435V30.8344H66.6218V31.0713C66.6218 31.4477 66.3011 31.6289 65.8411 31.6707C66.3151 31.6707 66.6218 31.9634 66.6218 32.3259V33.3016C66.6218 33.887 66.1478 34.2216 65.4508 34.2216" fill="white"/>
<path d="M69.5492 34.1658V31.8658C69.5492 31.4058 69.3541 31.1131 68.908 31.1131C68.5037 31.1131 68.2528 31.3919 68.2528 31.6567H67.7788C67.8206 31.2246 68.2249 30.7786 68.894 30.7786C69.6329 30.7786 70.0232 31.141 70.0232 31.7961V34.1797H69.5492V34.1658Z" fill="white"/>
<path d="M73.5223 34.1657V31.6428C73.5223 31.3779 73.3829 31.2107 73.2435 31.1828C73.1459 31.364 72.9508 31.5034 72.672 31.5034C72.3932 31.5034 72.198 31.364 72.1004 31.1828C71.9749 31.2246 71.8355 31.3779 71.8355 31.6428V33.4409L72.658 32.2143H72.1562L72.2956 31.8797H73.1598V32.2143L71.8355 34.1797H71.3616V31.587C71.3616 31.127 71.7101 30.7925 72.2537 30.7925C72.2537 30.9597 72.421 31.1549 72.6859 31.1549C72.9508 31.1549 73.118 30.9597 73.118 30.7925C73.6617 30.7925 73.9963 31.127 73.9963 31.587V34.1797H73.5362L73.5223 34.1657Z" fill="white"/>
<path d="M73.9822 30.1095H71.5845V30.444H73.9822V30.1095Z" fill="white"/>
<path d="M43.8435 0.80957C43.8435 3.55557 46.0461 5.77188 48.7505 5.77188V5.8137C46.0461 5.8137 43.8435 8.04395 43.8435 10.8039H43.8017C43.8017 8.05789 41.6131 5.82764 38.8948 5.82764V5.78582C41.6131 5.78582 43.8017 3.55557 43.8017 0.80957H43.8435Z" fill="white"/>
<path d="M37.9329 13.2153L37.6122 14.5814C37.6122 14.5814 43.0768 12.3929 40.7627 16.4213C38.4487 20.4358 36.2461 23.9205 36.2461 23.9205C36.2461 23.9205 33.0259 28.9944 42.3658 26.4435L46.7431 24.9939L47.1195 23.5721C47.1195 23.5721 39.9821 26.1369 42.8677 21.6485L47.454 13.8844C47.454 13.8844 49.5172 10.8178 45.5303 11.459C41.1809 12.142 37.9468 13.2153 37.9468 13.2153" fill="white"/>
</svg>
