<svg width="56" height="54" viewBox="0 0 56 54" fill="none" xmlns="http://www.w3.org/2000/svg">
<path d="M52.9743 32.0041C52.3052 31.6278 51.5245 31.4048 50.7578 31.5302C50.0887 31.6417 49.4753 32.046 49.085 32.6035C49.3498 32.6453 49.6147 32.729 49.8656 32.8126C50.5347 33.0496 51.2178 33.2447 51.887 33.4817C52.6537 33.7465 53.4204 33.9974 54.201 34.2483C54.201 33.8999 54.1592 33.5514 54.0338 33.2308C53.8525 32.7011 53.4343 32.2969 52.9603 32.0041H52.9743ZM53.4343 33.5235C52.8488 33.3981 52.3051 33.1332 51.7336 32.9659C51.2039 32.7847 50.6602 32.6314 50.1305 32.4363C50.3117 32.269 50.5348 32.1157 50.7996 32.0599C51.4409 31.9484 52.1239 32.0738 52.6676 32.4502C53.044 32.6872 53.4761 33.0356 53.4482 33.5235H53.4343Z" fill="white"/>
<path d="M5.7451 33.635C6.12149 33.5095 6.49789 33.3423 6.88821 33.2308C6.95791 33.412 7.0276 33.6071 7.09731 33.8023C7.25065 33.7604 7.40401 33.6908 7.55736 33.6211C7.41795 33.175 7.23669 32.7429 7.08335 32.2968C7.04153 32.1714 7.01367 32.0459 6.93003 31.9484C6.76275 31.9484 6.60941 32.0181 6.45607 32.0878C6.52577 32.269 6.60942 32.4641 6.6373 32.6593C5.29904 33.1471 3.96077 33.635 2.62251 34.1229C2.39947 34.2204 2.14853 34.2483 1.95337 34.3877C1.98125 34.5689 2.06491 34.7501 2.14855 34.9313C2.55282 34.7501 2.98496 34.6107 3.40316 34.4574C4.18381 34.1926 4.9505 33.8998 5.73115 33.6211L5.7451 33.635Z" fill="white"/>
<path d="M53.8248 34.9871C52.1659 34.4017 50.507 33.7883 48.8621 33.189C48.8063 33.3005 48.7645 33.4259 48.7506 33.5653C49.4476 33.8441 50.1585 34.1089 50.8695 34.3738C51.0507 34.4574 51.2877 34.4714 51.3713 34.6944C51.2877 34.6944 51.1901 34.7083 51.1065 34.7083C50.2004 34.6526 49.2942 34.6108 48.3881 34.555C48.2766 34.555 48.2208 34.6247 48.2627 34.7362C49.3361 35.2519 50.4234 35.7119 51.4968 36.2137C52.0962 36.4786 52.6817 36.7852 53.2951 37.0222C53.3787 36.9107 53.4345 36.7713 53.4484 36.618C53.1975 36.4786 52.9326 36.381 52.6678 36.2695C52.152 36.0325 51.6223 35.7816 51.0925 35.5586C50.8974 35.475 50.6743 35.4192 50.5489 35.252C50.8556 35.1962 51.1483 35.252 51.455 35.252C52.2914 35.2659 53.1278 35.3495 53.9642 35.3635C53.9781 35.2659 54.006 35.1823 54.02 35.0847C53.9782 35.0289 53.8945 35.001 53.8387 34.9732L53.8248 34.9871Z" fill="white"/>
<path d="M7.72458 35.9768C8.22643 35.698 8.25429 34.9313 7.83608 34.555C7.62698 34.3877 7.34818 34.3877 7.09726 34.4574C6.91603 34.4992 6.74876 34.5689 6.58148 34.6386C5.57778 35.0568 4.57408 35.475 3.57039 35.8931C3.36128 35.9768 3.15219 36.0883 3.01279 36.2695C2.52488 36.7574 2.87338 37.6773 3.48675 37.8725C3.76555 37.9282 4.05829 37.8725 4.30922 37.7192C5.43837 37.1337 6.59541 36.5622 7.71063 35.9628L7.72458 35.9768ZM3.40311 36.6458C3.52857 36.5204 3.69584 36.4646 3.86312 36.3949C4.9644 35.9071 6.05175 35.4192 7.15303 34.9453C7.43183 34.778 7.78032 35.1404 7.61304 35.4192C7.43181 35.6004 7.15302 35.6701 6.92998 35.7956C6.38631 36.0883 5.81476 36.3113 5.27109 36.5901C4.81107 36.8271 4.32318 37.0361 3.84921 37.2592C3.51464 37.4404 3.15219 36.8828 3.40311 36.6319V36.6458Z" fill="white"/>
<path d="M48.0534 35.5168C47.6631 35.6423 47.3982 36.0186 47.3704 36.4229C47.3704 36.6319 47.4958 36.8271 47.677 36.9386C48.2207 37.315 48.8062 37.6216 49.3498 37.998C49.308 38.1095 49.2105 38.221 49.2802 38.3464C49.3499 38.444 49.4474 38.4998 49.5589 38.5277C49.6983 38.5555 49.7402 38.3883 49.8099 38.3186C49.8935 38.3464 49.9772 38.3604 50.0469 38.4161C50.5487 38.7367 51.0645 39.0573 51.5803 39.364C51.7476 39.4616 51.9009 39.6149 52.0961 39.6567C52.2215 39.5313 52.3052 39.364 52.3749 39.1967C51.6221 38.7367 50.8693 38.2628 50.1305 37.7889C50.2281 37.6216 50.3396 37.4404 50.4233 37.2731C50.5627 37.301 50.6881 37.3707 50.8136 37.4404C51.4688 37.8028 52.1379 38.1374 52.7791 38.5137C52.8906 38.3464 52.9882 38.1792 53.0579 37.984C51.636 37.2592 50.256 36.4925 48.848 35.7398C48.611 35.6283 48.3462 35.475 48.0674 35.5168H48.0534ZM49.6287 37.524C49.085 37.2034 48.5692 36.855 48.0256 36.5344C47.7607 36.4089 48.0255 35.9071 48.2625 36.0604C48.8062 36.3671 49.3638 36.6459 49.9074 36.9525C49.9214 37.1756 49.7262 37.3428 49.6147 37.524H49.6287Z" fill="white"/>
<path d="M7.47368 38.9736C8.14281 38.5554 8.78407 38.0955 9.4532 37.6912C9.39744 37.5518 9.32775 37.4264 9.24411 37.3009C7.96161 38.1094 6.67909 38.9039 5.38265 39.6984C5.21537 39.7681 5.00628 39.9075 4.839 39.7542C4.6996 39.6566 4.57412 39.4754 4.64382 39.3082C4.75534 38.9457 5.14569 38.8063 5.45237 38.6391C6.44213 38.0397 7.44581 37.4682 8.44951 36.8828C8.57497 36.7991 8.75621 36.7712 8.81197 36.6179C8.77015 36.4925 8.70044 36.367 8.63074 36.2555C7.51552 36.8828 6.38635 37.4682 5.25719 38.0815C4.88081 38.2906 4.4626 38.4439 4.21168 38.8203C4.10015 39.0015 4.00257 39.2245 4.03045 39.4475C4.08621 39.9215 4.47657 40.3257 4.93659 40.4233C5.27116 40.4233 5.57782 40.256 5.82874 40.0609C6.35847 39.6845 6.9161 39.35 7.45977 38.9736H7.47368Z" fill="white"/>
<path d="M51.0089 40.5209C50.8695 40.5767 50.7301 40.493 50.6186 40.4233C49.2804 39.6149 47.9839 38.7507 46.6596 37.9143C46.562 38.0537 46.4784 38.1791 46.4087 38.3464C46.8408 38.5834 47.2172 38.89 47.6493 39.1549C48.7785 39.9215 49.9355 40.6882 51.0508 41.4827C51.2738 41.0367 51.5805 40.6464 51.8035 40.2143C51.6781 40.1306 51.5526 40.047 51.4132 39.9773C51.2738 40.1585 51.1623 40.3676 51.0089 40.5349V40.5209Z" fill="white"/>
<path d="M8.72828 41.3712C8.88163 41.3712 9.03496 41.3434 9.16043 41.2458C9.53681 40.967 9.91318 40.7161 10.2756 40.4234C10.4847 40.2561 10.8054 40.1307 10.8611 39.824C10.903 39.5592 10.7078 39.364 10.5544 39.1689C10.3314 38.8622 10.1083 38.5555 9.8853 38.2628C9.23011 38.7786 8.54704 39.2664 7.87791 39.7543C7.78033 39.824 7.6967 39.6985 7.627 39.6707C7.52941 39.7125 7.44577 39.7682 7.36213 39.824C7.36213 39.9494 7.36213 40.0749 7.36213 40.2003C6.70694 40.6882 6.00993 41.1343 5.35474 41.6221C5.4802 41.7755 5.60567 41.9288 5.7172 42.0821C6.28874 41.664 6.86026 41.2458 7.43181 40.8276C7.52939 40.7579 7.61304 40.6464 7.7385 40.6325C7.90578 40.8137 8.04519 41.0088 8.18459 41.204C8.18459 41.2318 8.18459 41.2737 8.18459 41.2876C7.54335 41.7755 6.88816 42.2494 6.23298 42.7373C6.33056 42.9045 6.44207 43.0579 6.56753 43.1973C7.04149 42.8488 7.50155 42.4864 7.98945 42.1518C8.25432 41.9009 8.67252 41.7615 8.7701 41.3712H8.72828ZM9.24406 39.5034C9.42529 39.3919 9.56468 39.1828 9.80166 39.1549C9.91318 39.3361 10.0665 39.5034 10.1641 39.6846C10.1641 39.8379 9.99684 39.8937 9.89925 39.9773C9.46711 40.2561 9.09072 40.6325 8.63069 40.8834C8.46341 40.6882 8.32401 40.4931 8.15673 40.2979C8.51918 40.0331 8.86768 39.7543 9.24406 39.5034Z" fill="white"/>
<path d="M45.7673 39.2664C46.1298 39.6009 46.562 39.8518 46.9383 40.1724C47.6354 40.6882 48.3323 41.2179 49.0154 41.7476C49.4197 42.0542 49.8239 42.3469 50.2143 42.6675C50.3258 42.5281 50.4373 42.3887 50.5488 42.2494C49.0572 41.1064 47.5378 40.0191 46.0601 38.8761C45.9486 39.0016 45.8649 39.127 45.7534 39.2664H45.7673Z" fill="white"/>
<path d="M45.2655 39.9773C44.9448 40.1585 44.5963 40.4373 44.6103 40.8415C44.6103 41.2597 45.0145 41.4967 45.2655 41.7894C45.5721 42.0542 45.837 42.3609 46.1437 42.6257C46.1437 42.779 45.9485 42.9184 46.0461 43.0718C46.0879 43.1554 46.1855 43.2251 46.2831 43.2669C46.4086 43.2948 46.4783 43.1693 46.5758 43.1136C46.9243 43.3924 47.2031 43.7269 47.5098 44.0336C47.8304 44.3402 48.1232 44.6887 48.4856 44.9396C48.5832 44.8002 48.7087 44.6748 48.8341 44.5493C48.179 43.9499 47.6214 43.2669 46.9662 42.6815C47.0916 42.5281 47.2171 42.3748 47.3565 42.2354C47.4401 42.2075 47.4959 42.3051 47.5516 42.3469C48.165 42.8906 48.7784 43.4202 49.3917 43.9639C49.5311 43.8245 49.6566 43.6851 49.7821 43.5457C48.4996 42.4166 47.2031 41.2876 45.9067 40.1585C45.7394 39.9912 45.4885 40.0052 45.2655 39.9912V39.9773ZM46.9801 41.8451C46.8268 41.9845 46.6873 42.1379 46.5479 42.2912C46.5479 42.2912 46.534 42.2633 46.5201 42.2494C46.2413 42.0124 46.0043 41.7197 45.7394 41.4827C45.5443 41.2876 45.3351 41.1064 45.1539 40.8833C45.0563 40.7579 45.1818 40.6046 45.2933 40.5209C45.4327 40.3955 45.5721 40.5627 45.6836 40.6464C46.1019 41.0506 46.5898 41.3991 46.9801 41.8451Z" fill="white"/>
<path d="M11.4606 40.5906C11.4606 40.4233 11.2793 40.3118 11.1678 40.2142C11.0842 40.2561 11.0144 40.3118 10.9587 40.3676C9.67618 41.5524 8.36582 42.7093 7.09726 43.9081C7.06938 44.0893 7.2785 44.2147 7.37608 44.3402C8.31008 43.5178 9.20225 42.6536 10.1223 41.8172C10.5684 41.413 11.0145 40.9948 11.4606 40.5766V40.5906Z" fill="white"/>
<path d="M11.8648 41.3154C11.6836 41.3712 11.4884 41.4269 11.3351 41.5384C10.9587 41.7475 10.7635 42.1378 10.5823 42.5002C10.3871 42.9463 10.2756 43.4481 9.96891 43.8244C9.57859 44.3541 8.89555 44.619 8.2543 44.6468C8.2543 44.6887 8.2543 44.7862 8.2543 44.828H8.21244C8.21244 44.9674 8.19851 45.1068 8.18457 45.2462C8.67248 45.2044 9.18826 45.1626 9.62041 44.9256C9.92709 44.7444 10.1641 44.4935 10.3871 44.2147C10.6381 43.8802 10.7356 43.4481 10.9029 43.0578C10.9866 42.8626 11.0423 42.6675 11.1399 42.4863C11.3629 42.096 11.7393 41.7893 12.1854 41.7336C12.1575 41.5802 12.1436 41.413 12.1297 41.2596C12.046 41.2875 11.9484 41.3015 11.8648 41.3293V41.3154Z" fill="white"/>
<path d="M46.506 43.8384C46.1436 43.5039 45.8229 43.1136 45.4605 42.7651C45.0144 42.3469 44.6241 41.873 44.178 41.4688C44.0665 41.6081 43.9271 41.7336 43.8017 41.859C44.3314 42.4863 44.9447 43.0439 45.5023 43.6572C45.2932 43.8384 45.0981 44.0614 44.8611 44.2147C44.4011 43.6154 43.8713 43.0857 43.3974 42.4863C43.3556 42.4445 43.3137 42.3469 43.2301 42.3748C43.1046 42.4724 42.9791 42.5839 42.8955 42.7233C43.0488 42.9742 43.2719 43.1833 43.4671 43.4063C43.7598 43.7687 44.0804 44.0893 44.3732 44.4517C44.4986 44.5632 44.401 44.7305 44.415 44.8699C44.4707 44.9675 44.5544 45.0372 44.638 45.1208C44.6659 45.0929 44.6938 45.0511 44.7217 45.0372C44.7774 45.0372 44.8471 45.0372 44.9029 45.0372C45.4047 45.6644 45.9763 46.2638 46.4781 46.8911C46.506 46.8911 46.5479 46.8911 46.5757 46.8771C46.6873 46.7656 46.7988 46.668 46.9103 46.5565C46.3666 45.9153 45.823 45.2741 45.2654 44.6469C45.4466 44.4657 45.6417 44.2844 45.823 44.1032H45.9345C46.5061 44.7026 47.1055 45.2602 47.677 45.8596C47.8443 45.748 47.9837 45.6087 48.1231 45.4693C47.5655 44.9396 47.0497 44.3681 46.506 43.8384Z" fill="white"/>
<path d="M12.6035 45.4832C12.1575 46.1105 11.7532 46.7796 11.321 47.4208C11.1816 47.6438 11.0144 47.8529 10.9028 48.1038C11.0144 48.1735 11.1398 48.2432 11.2374 48.3268C11.2513 48.3268 11.2931 48.3268 11.3071 48.3268C12.255 46.7935 13.2309 45.2742 14.1788 43.7409C14.2903 43.6154 14.137 43.5039 14.0812 43.3924C13.8442 43.4481 13.6769 43.6433 13.4818 43.7966C13.2727 43.9499 13.0775 44.1451 12.8684 44.2984C12.4084 44.6469 12.0041 45.0511 11.5301 45.3857C11.6416 45.1766 11.7393 44.9675 11.8647 44.7724C12.1853 44.2427 12.492 43.699 12.7987 43.1694C12.8823 43.016 13.0078 42.8766 13.0496 42.7094C13.0775 42.5979 13.0078 42.5003 12.9799 42.4027C12.8823 42.4445 12.7847 42.4724 12.7011 42.5421C12.2132 42.9882 11.7114 43.4342 11.2095 43.8663C10.4289 44.619 9.55062 45.302 8.79785 46.0826C8.90937 46.1663 9.02089 46.2638 9.14636 46.3475L9.06272 46.445C9.06272 46.445 9.16028 46.3753 9.17422 46.3335C9.96881 45.6366 10.7634 44.9536 11.5441 44.2566C11.1956 45.0093 10.7495 45.7063 10.3871 46.4311C10.2337 46.7378 10.0107 47.0165 9.89914 47.3511C10.6798 46.7656 11.4744 46.1941 12.255 45.6087C12.3526 45.539 12.4641 45.4972 12.5896 45.4832H12.6035Z" fill="white"/>
<path d="M42.2265 43.8384C42.3659 43.713 42.5471 43.6293 42.6725 43.49C42.6725 43.3087 42.4913 43.1972 42.3798 43.0718C41.9337 43.4481 41.4598 43.8105 40.9997 44.173C40.9858 44.3542 41.181 44.4657 41.2646 44.5911C41.4319 44.4657 41.5713 44.3263 41.7386 44.2008C42.798 45.5808 43.8993 46.9329 44.9727 48.3129C45.126 48.2153 45.2793 48.1038 45.4188 47.9644C45.363 47.7414 45.1678 47.602 45.0424 47.4208C44.1084 46.222 43.1605 45.0372 42.2265 43.8384Z" fill="white"/>
<path d="M40.3168 47.6855C40.5677 47.5601 40.8047 47.4486 41.0556 47.3231C40.9998 47.1559 40.9162 46.9886 40.8465 46.8353C40.6095 46.9607 40.3586 47.0862 40.1076 47.1837C39.8428 46.7516 39.6198 46.3056 39.4385 45.8316C39.787 45.6086 40.1773 45.4692 40.5398 45.2741C40.498 45.1626 40.4422 45.0511 40.3865 44.9395C40.3586 44.8838 40.3028 44.7862 40.2331 44.842C39.7312 45.1207 39.2016 45.3159 38.6997 45.6086C38.7694 45.8595 38.9227 46.0825 39.0343 46.3195C39.4246 47.128 39.8149 47.9225 40.2192 48.717C40.5537 49.3443 40.8186 50.0134 41.1811 50.6267C41.3483 50.557 41.5156 50.4873 41.6829 50.4037C41.5017 50.0412 41.3065 49.6649 41.1253 49.3025C40.8744 48.7588 40.5677 48.2431 40.3307 47.6855H40.3168Z" fill="white"/>
<path d="M17.9706 46.3474C18.0263 46.0965 18.0821 45.7759 17.8869 45.5668C17.7057 45.3577 17.4408 45.1765 17.1481 45.1905C16.9111 45.1765 16.6881 45.3298 16.5626 45.525C16.2141 46.0407 15.8935 46.5844 15.5729 47.1141C15.4195 47.0862 15.2801 47.0722 15.1268 47.0722C15.0571 47.1977 15.0013 47.3231 14.9874 47.4765C15.0989 47.5322 15.2522 47.574 15.1825 47.7274C14.7225 48.4243 14.2904 49.1492 13.8164 49.8461C13.9419 49.9297 14.0673 50.0134 14.1928 50.097C14.2346 50.097 14.2764 50.097 14.3322 50.111C14.7922 49.3722 15.2662 48.6474 15.7262 47.9225C15.9214 47.9922 16.0747 48.1316 16.2559 48.2292C15.8935 49.0376 15.4056 49.7904 15.0152 50.5849C15.1825 50.6825 15.3498 50.78 15.531 50.8497C15.8377 50.2225 16.2002 49.6091 16.5208 48.9958C17.0087 48.1177 17.4687 47.2256 17.9706 46.3613V46.3474ZM16.0189 47.4207C16.3674 46.8492 16.7438 46.2916 17.0784 45.7201C17.2457 45.7201 17.413 45.748 17.4966 45.8874L17.5384 45.9153C17.2596 46.5286 16.8554 47.0862 16.5905 47.7134C16.5766 47.7134 16.5347 47.7274 16.5208 47.7413C16.3396 47.6437 16.1723 47.5462 16.005 47.4346L16.0189 47.4207Z" fill="white"/>
<path d="M38.6161 47.0025C38.4767 46.7237 38.3652 46.4031 38.0724 46.2498C37.8773 46.1104 37.6403 46.0965 37.4173 46.1383C37.0548 46.208 36.762 46.5565 36.7899 46.9328C36.8457 47.351 37.0409 47.7274 37.1803 48.1316C37.5427 48.9958 37.8494 49.9018 38.2119 50.7661C38.3373 51.1424 38.6858 51.463 39.0901 51.5048C39.5501 51.5048 40.0798 51.2261 40.1774 50.7382C40.2471 50.3618 40.0241 50.0134 39.8847 49.6928C39.4664 48.7867 39.0343 47.9086 38.6161 47.0025ZM39.5919 50.7103C39.4804 50.9612 39.118 51.0588 38.9089 50.8915C38.7416 50.6406 38.6719 50.3618 38.5464 50.097C38.2815 49.4837 38.0724 48.8564 37.7936 48.2431C37.6263 47.8528 37.473 47.4625 37.3336 47.0583C37.2639 46.891 37.3476 46.6819 37.5288 46.6262C37.71 46.5147 37.8912 46.668 37.947 46.8492C38.4767 47.9783 38.9646 49.1352 39.4665 50.2782C39.5222 50.4176 39.6337 50.557 39.5919 50.7103Z" fill="white"/>
<path d="M19.3925 49.0656C19.6016 48.4801 19.8664 47.9226 20.0616 47.3371C20.1313 47.1699 20.201 46.9887 20.2568 46.8075C20.1313 46.7517 20.0058 46.682 19.8804 46.6402C19.7131 46.9329 19.6155 47.2675 19.4761 47.5741C19.2809 48.0759 19.0439 48.5638 18.8488 49.0656C18.6118 49.6789 18.3191 50.2783 18.0821 50.8916C17.9845 51.1286 17.873 51.4074 17.6081 51.5049C17.5384 51.5049 17.4827 51.5049 17.4269 51.5049C17.1202 51.3655 17.0784 50.9752 17.2038 50.6965C17.4548 50.1389 17.7196 49.5813 17.9566 49.0098C18.0124 48.8983 18.0681 48.7729 18.1239 48.6614C18.4445 47.9644 18.7512 47.2396 19.0718 46.5426C19.1137 46.4729 19.0997 46.3753 19.1136 46.2917C19.0021 46.2499 18.8767 46.2081 18.7651 46.1663C18.0403 47.6856 17.2596 49.1771 16.5487 50.7104C16.5068 50.9056 16.5069 51.1007 16.5208 51.2958C16.6463 51.714 17.0505 51.9928 17.4687 52.0346L17.4409 52.0764C17.7057 52.0904 17.9706 52.0346 18.1797 51.8534C18.4724 51.6025 18.5421 51.2122 18.6815 50.8637C18.7094 50.808 18.7234 50.7522 18.7512 50.6965C18.9325 50.2086 19.1555 49.7207 19.3367 49.2189C19.3646 49.1632 19.3785 49.1074 19.4064 49.0377L19.3925 49.0656Z" fill="white"/>
<path d="M35.4098 50.6546C35.5911 50.5013 35.7723 50.3061 35.7723 50.0552C35.8002 49.6092 35.5632 49.2328 35.4238 48.8146C35.2147 48.1874 34.9498 47.5741 34.7547 46.9329C34.5874 47.0026 34.4201 47.0862 34.2528 47.1559C34.3086 47.4207 34.4341 47.6716 34.5177 47.9225C34.7268 48.5498 34.9359 49.1771 35.1311 49.8043C35.2705 50.2225 34.4759 50.4455 34.3643 50.0413C34.0298 49.1631 33.8067 48.2292 33.5 47.3371C33.3467 47.3929 33.1934 47.4486 33.04 47.5044C33.0679 47.6298 33.0819 47.7413 33.1237 47.8668C33.3467 48.5637 33.5279 49.2746 33.751 49.9716C33.8346 50.2504 33.8904 50.571 34.1552 50.7243C34.3643 50.8776 34.6292 50.8079 34.8522 50.7801C35.0892 51.5467 35.4238 52.2855 35.605 53.0661C35.7723 53.0103 35.9396 52.9267 36.1208 52.857C36.1208 52.843 36.1068 52.8152 36.0929 52.7873C35.8838 52.0624 35.605 51.3516 35.3959 50.6128L35.4098 50.6546Z" fill="white"/>
<path d="M21.7763 47.9504C21.9854 47.9922 22.1667 48.0898 22.3479 48.1734C22.3758 48.1177 22.3897 48.0619 22.4176 47.9922C22.4594 47.8947 22.4873 47.7971 22.5152 47.6995C21.9715 47.4347 21.386 47.2535 20.8284 47.0026C20.7587 47.1559 20.703 47.3232 20.6472 47.4765C20.8284 47.5462 21.0236 47.6159 21.2048 47.6856C21.0375 48.2013 20.8145 48.6892 20.6193 49.1771C20.2569 50.097 19.8665 51.017 19.5041 51.937C19.4204 52.174 19.295 52.383 19.2532 52.6339C19.3647 52.6897 19.4902 52.7176 19.6156 52.7594C19.6853 52.7873 19.7411 52.8012 19.8108 52.8291C19.8944 52.5921 19.992 52.3552 20.0896 52.1182C20.1175 52.0624 20.1314 52.0067 20.1593 51.9649C20.215 51.8255 20.2708 51.6722 20.3266 51.5328C20.5217 51.0867 20.703 50.6407 20.8842 50.1946C21.1212 49.5674 21.4 48.9401 21.6509 48.3128C21.6927 48.1874 21.7485 48.0759 21.7903 47.9504H21.7763Z" fill="white"/>
<path d="M32.4405 49.5953C32.3568 49.1492 32.2593 48.7032 32.1617 48.2711C32.3569 48.2153 32.552 48.1874 32.7472 48.1596C32.7332 47.9784 32.7053 47.8111 32.6635 47.6299C32.0641 47.7693 31.4647 47.9087 30.8513 48.0062C30.8792 48.1596 30.921 48.3129 30.9628 48.4802C31.1719 48.4802 31.3671 48.4384 31.5622 48.3687C31.6459 48.6893 31.7156 49.0238 31.7853 49.3444C32.092 50.7801 32.4126 52.188 32.7333 53.6237C32.7611 53.6237 32.8308 53.5958 32.8587 53.5958C33.0121 53.554 33.1793 53.5261 33.3466 53.4982C33.3187 53.4564 33.3048 53.4146 33.2769 53.3728C33.0539 52.1043 32.7193 50.8638 32.4684 49.5953H32.4405Z" fill="white"/>
<path d="M24.2297 48.1595C24.0484 48.968 23.8812 49.7625 23.6721 50.571C23.3933 50.5013 23.1284 50.4316 22.8495 50.3759C23.0726 49.5813 23.2956 48.7729 23.5466 47.9783C23.3653 47.9226 23.1841 47.8947 23.0029 47.8668C22.7799 48.508 22.6265 49.1771 22.4174 49.8322C22.3895 49.9577 22.3616 50.0971 22.3338 50.2225C22.2641 50.2225 22.1944 50.2225 22.1386 50.2225C22.055 50.3201 21.9295 50.4177 21.9714 50.5571C21.9714 50.6686 22.0968 50.6965 22.1665 50.7522C21.9295 51.5746 21.6925 52.3831 21.4695 53.2055C21.6507 53.2334 21.8319 53.2752 22.0132 53.3031C22.2362 52.4946 22.4592 51.6861 22.6962 50.8777C22.975 50.9195 23.2538 51.0031 23.5326 51.0868C23.3654 51.9231 23.1841 52.7594 23.0169 53.5958C23.1981 53.6376 23.3793 53.6794 23.5605 53.7352C23.6163 53.4982 23.6721 53.2752 23.7139 53.0382C23.8533 52.3552 24.0066 51.6861 24.1739 51.0171C24.369 50.111 24.5642 49.205 24.7733 48.2989C24.606 48.2153 24.4109 48.2014 24.2297 48.1595Z" fill="white"/>
<path d="M25.6377 48.271C25.2892 48.3686 25.1219 48.7589 25.0801 49.0794C24.9965 50.0273 24.8849 50.9752 24.8152 51.923C24.7734 52.3412 24.7037 52.7454 24.7456 53.1636C24.8013 53.4563 24.9965 53.7351 25.2753 53.8327C25.6517 53.986 26.1256 53.9721 26.4323 53.6793C26.5857 53.54 26.6135 53.3309 26.6972 53.1497C26.6972 51.937 26.739 50.7243 26.753 49.5116C26.753 49.2328 26.8087 48.9401 26.6554 48.7031C26.4741 48.3267 26.0141 48.1873 25.6377 48.257V48.271ZM26.1954 50.8218C26.1675 51.6164 26.1257 52.4109 26.1117 53.1915C25.9444 53.5121 25.4565 53.4842 25.3171 53.1636C25.2892 52.7733 25.3589 52.3691 25.3729 51.9788C25.4426 51.2679 25.4704 50.5431 25.5541 49.8322C25.5959 49.4837 25.5541 49.1073 25.7493 48.8007C25.8747 48.7728 26.0141 48.717 26.1396 48.8007C26.2929 48.8704 26.279 49.0516 26.279 49.177C26.2651 49.7346 26.265 50.2782 26.2093 50.8358L26.1954 50.8218Z" fill="white"/>
<path d="M30.3494 48.2432C30.1822 48.2432 30.0289 48.271 29.8616 48.2989C29.8616 48.5498 29.9034 48.8147 29.9452 49.0656C30.1822 50.6964 30.3913 52.3273 30.6004 53.9721C30.7677 53.9442 30.921 53.9303 31.0883 53.9303C30.9907 52.9406 30.8374 51.951 30.7119 50.9613C30.5864 50.0552 30.4331 49.1631 30.3494 48.2571V48.2432Z" fill="white"/>
<path d="M29.4294 51.463C29.4294 51.3376 29.3179 51.2539 29.2482 51.1703C29.3319 51.0727 29.4434 50.9752 29.4294 50.8218C29.4294 50.1667 29.4294 49.5255 29.4294 48.8704C29.4434 48.6334 29.2343 48.3686 28.9834 48.3686C28.4676 48.3407 27.9657 48.3686 27.4639 48.3546C27.4639 49.2049 27.4639 50.0552 27.4639 50.8915C27.3942 50.9194 27.3244 50.9473 27.2547 50.9752C27.2269 51.0309 27.2129 51.0867 27.1851 51.1564C27.199 51.2261 27.2129 51.2958 27.2269 51.3655C27.3245 51.4212 27.436 51.477 27.5336 51.5327C27.436 51.8673 27.4778 52.2297 27.4639 52.5782C27.4639 53.0381 27.4639 53.5121 27.436 53.986H28.0075C28.0075 53.1497 27.9796 52.3133 28.0075 51.4909H28.8161C28.8161 51.7139 28.8161 51.9509 28.8161 52.1739C28.844 52.7733 28.7742 53.3866 28.83 53.986H29.3876C29.3876 53.1497 29.3876 52.2994 29.3876 51.463H29.4294ZM28.8718 50.5291C28.8718 50.6546 28.8718 50.794 28.8439 50.9194C28.5791 50.9194 28.3142 50.9473 28.0493 50.9473C28.0215 50.2921 28.0772 49.6231 28.0493 48.9679C28.3142 48.954 28.5651 48.9679 28.83 48.9679C28.9136 49.4837 28.83 50.0134 28.8579 50.543L28.8718 50.5291Z" fill="white"/>
<path d="M55.4279 27.1254V27.0697C55.4279 26.9442 55.4279 26.8327 55.4279 26.7073C55.4279 26.1637 55.4 25.6061 55.3582 25.0764C55.2885 24.2819 55.2048 23.4874 55.0654 22.7068C54.5357 19.4032 53.3508 16.2112 51.6501 13.3258C46.8686 5.35261 38.142 0 28.1469 0C18.9185 0 10.7496 4.55808 5.81472 11.5416C5.38258 12.1549 4.97828 12.7821 4.60189 13.4233C3.06847 16.0299 1.98115 18.9014 1.39566 21.8565C1.07504 23.5152 0.879883 25.1879 0.879883 26.8745C0.879883 27.0139 0.879883 27.1533 0.879883 27.2927C0.879883 28.5891 0.991392 29.8575 1.17262 31.112C1.67446 31.126 2.16238 31.0841 2.66423 31.112C4.01643 31.112 5.36863 31.0841 6.72083 31.112C6.52567 30.2339 6.46988 29.3278 6.38624 28.4218C6.28865 26.7491 6.38624 25.0485 6.69292 23.4037C7.30629 19.8632 8.82579 16.5039 11.0702 13.7021C11.3908 13.2979 11.7393 12.9076 12.0739 12.5173C13.217 11.2767 14.4994 10.1616 15.8795 9.19979C17.4826 8.07073 19.2809 7.22044 21.121 6.55137C21.5811 6.41198 22.055 6.27259 22.5151 6.1332C25.1916 5.43624 27.9935 5.21322 30.7398 5.54775C31.8689 5.70108 33.012 5.88229 34.0994 6.21683C36.4134 6.87197 38.6299 7.9174 40.6094 9.29737C42.9235 10.9004 44.917 12.9633 46.4504 15.333C48.6669 18.7062 49.9075 22.7207 49.9633 26.763C50.033 27.2091 49.9354 27.6691 49.9494 28.1151C49.9215 29.1048 49.796 30.0805 49.6427 31.0563C50.5348 31.0284 51.427 31.0842 52.3192 31.0702C53.2532 31.0702 54.2011 31.0981 55.1351 31.0981C55.1351 31.0841 55.1491 31.0563 55.163 31.0284C55.3303 29.8854 55.4139 28.7145 55.4418 27.5297V27.1394L55.4279 27.1254ZM20.8701 5.8126C20.438 5.97987 20.0058 6.17501 19.5737 6.34228C19.4622 6.3841 19.2949 6.42592 19.2252 6.30046C18.8209 5.63139 18.4863 4.90656 18.0821 4.23748C17.9287 5.07383 17.8033 5.92411 17.622 6.77439C17.5802 6.9556 17.5802 7.15075 17.4827 7.31802C17.3014 7.49923 17.0366 7.58286 16.8275 7.72225C16.479 7.9174 16.1444 8.14042 15.7959 8.32163C15.6565 8.40526 15.4752 8.4192 15.3637 8.27981C14.9455 7.79195 14.5134 7.30408 14.0952 6.81621C13.8861 6.92772 13.7188 7.13681 13.4957 7.19256C13.3145 7.23438 13.1891 7.03924 13.0776 6.92772C12.8685 6.66288 12.6175 6.42592 12.4363 6.14713C12.3109 5.92411 12.5339 5.75684 12.6872 5.63139C13.0915 5.32473 13.4958 5.03201 13.914 4.72535C14.1649 4.55808 14.3879 4.34899 14.6667 4.23748C14.834 4.16779 15.0152 4.2793 15.1268 4.40475C15.4056 4.72535 15.6704 5.07382 15.9632 5.38049C16.0886 4.80898 16.1723 4.22354 16.2838 3.65204C16.3395 3.3175 16.6602 3.13629 16.925 2.9969C17.399 2.77388 17.9008 2.60661 18.3748 2.38358C18.7233 2.23025 19.1137 2.09086 19.4901 2.23025C19.727 2.31389 19.8106 2.57873 19.9361 2.77388C20.2846 3.47083 20.5913 4.18172 20.8841 4.89262C20.9677 5.11564 21.0932 5.32473 21.121 5.56169C21.1489 5.71502 20.9677 5.78472 20.8701 5.84047V5.8126ZM31.8968 1.82602C31.8689 2.70418 31.7713 3.58234 31.7016 4.46051C31.7016 4.5999 31.6598 4.72535 31.632 4.8508C31.0743 4.8508 30.5168 4.75323 29.9452 4.71141C29.8197 4.68353 29.5967 4.71141 29.6106 4.51626C29.5548 3.72173 29.5827 2.92721 29.5827 2.13268C29.3597 2.3557 29.1924 2.62055 28.9972 2.85751C28.6209 3.34538 28.2306 3.81931 27.8542 4.30718C27.7705 4.40475 27.6869 4.54414 27.5475 4.55808C27.2129 4.61384 26.8784 4.58596 26.5438 4.5999C26.1674 4.5999 25.8049 4.68353 25.4286 4.62777C25.2892 4.57202 25.2752 4.40475 25.2334 4.2793C25.0801 3.67992 24.9964 3.0666 24.8291 2.48116C24.6061 2.52297 24.3691 2.60661 24.1461 2.55085C23.9788 2.48116 23.923 2.29995 23.8951 2.14662C23.8254 1.82602 23.7557 1.51936 23.686 1.19876C23.6581 0.947857 23.923 0.808467 24.1321 0.794528C24.857 0.710893 25.5819 0.585441 26.3068 0.501807C26.488 0.487868 26.725 0.501807 26.8087 0.683015C26.9759 1.15694 26.9899 1.65875 27.185 2.13268C27.5196 1.67269 27.8821 1.22664 28.2445 0.780589C28.4954 0.45999 28.9415 0.45999 29.3039 0.487868C29.8894 0.557563 30.4889 0.585441 31.0744 0.669076C31.381 0.696954 31.6738 0.864223 31.855 1.11513C31.9386 1.32421 31.8968 1.56118 31.9107 1.7842L31.8968 1.82602ZM42.7283 5.93805C42.3101 6.74652 41.8083 7.5271 41.3343 8.30769C41.2646 8.43314 41.1392 8.64223 40.958 8.55859C40.484 8.29375 40.024 8.00103 39.5639 7.70831C39.4664 7.65256 39.3548 7.5271 39.4245 7.41559C39.7591 6.69076 40.1215 5.9938 40.4561 5.26897C39.5639 5.70108 38.6439 6.10532 37.7517 6.53743C37.6402 6.60712 37.5147 6.55137 37.4032 6.50955C36.8456 6.25865 36.288 6.02168 35.7443 5.77078C35.6467 5.71502 35.5073 5.63139 35.5352 5.51988C35.6885 4.86474 35.8698 4.2096 36.0092 3.54053C35.8419 3.3872 35.5631 3.44295 35.3958 3.28962C35.2146 3.16417 35.2843 2.91327 35.3401 2.746C35.4516 2.41146 35.4515 2.03511 35.6607 1.74239C35.7582 1.60299 35.9395 1.63087 36.0789 1.67269C36.7201 1.88178 37.3614 2.1048 38.0026 2.29995C38.1978 2.36964 38.4208 2.43934 38.5463 2.62055C38.6299 2.746 38.5742 2.91327 38.5463 3.05266C38.4487 3.44295 38.3651 3.84719 38.2536 4.23748C38.8112 4.00052 39.3409 3.69386 39.8985 3.47083C40.1912 3.35932 40.4979 3.48477 40.7628 3.62416C41.167 3.84719 41.5434 4.11203 41.9337 4.33505C42.2683 4.55808 42.6726 4.75323 42.8259 5.14352C42.9793 5.39442 42.8259 5.67321 42.7144 5.91017L42.7283 5.93805Z" fill="white"/>
<path d="M28.2862 29.9272C27.6589 29.8993 27.0455 30.0108 26.4322 30.0247C26.2928 30.0247 26.2231 29.8993 26.1673 29.7878C25.7212 28.9514 25.2612 28.143 24.8151 27.3205C24.7036 27.1254 24.592 26.9163 24.4666 26.7212C24.3551 26.526 24.0763 26.526 23.9787 26.3309C23.8672 26.0939 23.8393 25.843 23.7696 25.5921C23.5187 24.477 23.212 23.3618 22.9332 22.2467C22.8914 22.0794 22.7101 22.0376 22.5986 21.9401C22.2919 21.0619 22.0828 20.1419 21.9713 19.2219C21.9295 18.0789 21.9713 16.9499 21.9434 15.8069C21.9434 15.6117 21.6925 15.6117 21.5531 15.542C21.5391 15.2075 21.5391 14.8729 21.5531 14.5384C25.4285 14.5384 29.3178 14.5384 33.1932 14.5384C33.1932 14.4827 33.221 14.3711 33.235 14.3154C32.6216 14.2875 31.9943 14.3154 31.381 14.3154C28.105 14.3154 24.8151 14.3154 21.5392 14.3154C21.5392 13.5069 21.5392 12.6845 21.5392 11.876C21.5392 11.5694 21.4973 11.2488 21.344 10.97C21.1907 10.6773 20.8143 10.5936 20.6888 10.287C20.6052 10.3427 20.5634 10.4264 20.4937 10.4961C20.3124 10.7052 20.0336 10.7749 19.8663 10.9979C19.6572 11.2627 19.6572 11.6112 19.6433 11.9318C19.5875 12.7263 19.5597 13.5209 19.5318 14.3154C17.6499 14.3154 15.7679 14.3154 13.8721 14.3154C13.8721 14.3851 13.872 14.4548 13.886 14.5384C15.754 14.5384 17.608 14.5384 19.476 14.5384C19.476 14.8451 19.476 15.1517 19.4342 15.4584C19.3087 15.556 19.1693 15.6257 19.0439 15.7093C18.9463 16.8244 18.9742 17.9395 18.9045 19.0547C18.8766 19.2638 18.8069 19.445 18.7372 19.6401C18.5002 20.3092 18.2353 20.9643 17.9984 21.6195C17.9426 21.8425 17.6916 21.8704 17.5383 21.9958C17.4686 22.0655 17.4547 22.177 17.4268 22.2746C17.1201 23.5849 16.6601 24.8394 16.2698 26.1218C16.228 26.2194 16.214 26.3309 16.1304 26.4006C15.9631 26.4981 15.7679 26.54 15.6285 26.6654C15.4752 26.8048 15.3636 26.986 15.2382 27.1393C14.5691 28.0175 13.9139 28.9235 13.3005 29.8575C13.2308 29.955 13.1611 30.0944 13.0217 30.0944C12.7568 30.0944 12.4641 30.0805 12.241 29.9411C12.018 29.7041 11.9622 29.3696 11.795 29.1047C11.6137 28.7423 11.2652 28.4914 11.1258 28.1151C10.9864 27.6969 11.0004 27.2369 11.0143 26.8048C10.9585 26.7072 10.9028 26.6236 10.8749 26.5121C10.7773 25.9963 10.847 25.4666 10.847 24.9509C10.847 24.7 10.9307 24.4212 10.7494 24.2121C10.6658 24.0727 10.4706 24.0588 10.3731 24.1843C10.1361 24.4352 10.1918 24.7976 10.1779 25.1182C10.1361 25.62 10.2058 26.1357 10.0385 26.6236C9.99669 26.6515 9.95484 26.6933 9.91301 26.7212C9.91301 27.1812 9.89911 27.6411 9.73183 28.0733C9.57849 28.4217 9.31362 28.7005 9.11846 29.049C8.95117 29.2999 8.86752 29.5787 8.71418 29.8296C8.40749 30.0526 8.01718 30.1502 7.68262 30.3035C7.76626 30.5544 7.84987 30.8193 7.9614 31.0562C8.68629 31.112 9.4112 31.098 10.1222 31.098C13.4678 31.098 16.8274 31.098 20.187 31.098C21.2464 31.1259 22.3059 31.1399 23.3653 31.1259C23.7975 31.1399 24.2296 31.1259 24.6618 31.1259C25.763 31.1538 26.8643 31.112 27.9656 31.1259C28.1189 30.7356 28.2165 30.3314 28.3001 29.9272H28.2862Z" fill="white"/>
<path d="M34.1133 14.5524C35.0334 14.7336 35.9255 14.9985 36.8456 15.1379C38.2257 15.333 39.6197 15.2912 40.9998 15.2494C41.418 15.2076 41.8362 15.2076 42.2404 15.0821C42.5611 14.9845 42.8678 14.873 43.1605 14.6918C43.272 14.6361 43.3278 14.5106 43.3975 14.3991C43.2442 14.2458 43.0211 14.19 42.812 14.1621C42.575 14.1343 42.4077 13.9252 42.1568 13.8973C41.641 13.8137 41.0973 13.8555 40.5816 13.8555C39.8148 13.8833 39.0481 13.8973 38.2814 13.953C37.5287 13.9809 36.7898 14.0924 36.051 14.0646C35.7443 14.0646 35.3958 14.0924 35.131 13.8973C34.8522 13.6882 34.6849 13.3676 34.4061 13.1585C34.2109 13.0888 34.0018 13.1306 33.8066 13.1167C33.8903 13.4931 34.0854 13.8415 34.197 14.2179C34.197 14.3294 34.1412 14.427 34.1133 14.5385V14.5524Z" fill="white"/>
<path d="M28.5234 31.2375C28.3979 31.7533 28.3979 32.3248 28.147 32.7987C28.0773 32.952 27.9379 33.1053 27.9797 33.2866C28.0494 33.5932 28.2585 33.8441 28.3003 34.1647C28.37 34.6108 28.37 35.0847 28.5373 35.5168C28.8161 36.4368 29.3458 37.301 30.0428 37.9561C30.9489 38.6949 31.9945 39.2385 33.0679 39.6428C33.2073 39.6985 33.3745 39.6567 33.5279 39.6567C34.0576 39.6288 34.5874 39.6567 35.1171 39.6428C35.7165 39.6149 36.3299 39.6567 36.9432 39.601C39.0064 39.587 41.0695 39.5313 43.1187 39.5173C43.537 39.5034 43.9412 39.4755 44.3594 39.4894C44.457 39.4894 44.5825 39.5034 44.6382 39.4198C45.0704 38.8761 45.4467 38.2907 45.8092 37.6913C46.2274 36.9525 46.6456 36.2138 46.9802 35.4332C45.9347 35.475 44.8752 35.475 43.8297 35.4889C42.7703 35.5307 41.7108 35.5168 40.6513 35.5447C39.0482 35.5447 37.4312 35.5726 35.828 35.5168C35.4377 35.4889 35.0334 35.4889 34.6431 35.4192C34.1692 35.3356 33.6812 35.2798 33.263 35.0568C32.8448 34.8477 32.5103 34.4574 32.3709 34.0114C32.4545 33.7744 32.7333 33.5793 32.6775 33.3144C32.4545 32.8405 32.3012 32.3387 32.0781 31.8648C31.9666 31.9345 31.8551 31.9902 31.7296 32.0181C31.5902 31.6975 31.632 31.349 31.5902 31.0145C31.5484 30.666 31.5344 30.3036 31.5205 29.9551C31.4787 28.617 31.4787 27.2788 31.5623 25.9546C31.5902 25.3831 31.3811 24.8534 31.2417 24.3098C31.409 23.9752 31.7296 23.7243 31.9387 23.4037C31.4369 23.1668 30.949 22.9019 30.4471 22.665C30.1125 22.5116 29.7919 22.3165 29.4574 22.1771C28.9973 22.0238 28.5094 22.2329 28.0354 22.2189C27.9239 22.2189 27.8124 22.1632 27.7148 22.1074C27.1991 21.7868 26.6693 21.508 26.1117 21.2432C25.7911 21.062 25.4426 20.9505 25.1499 20.7414C24.885 20.5462 24.7595 20.2256 24.5504 19.9747C24.5783 20.4347 24.5922 20.8808 24.5225 21.3408C24.4389 21.8286 24.4946 22.3165 24.5504 22.8044C24.4807 22.8601 24.425 22.9159 24.3692 22.9716C24.3553 23.111 24.3692 23.2644 24.4249 23.4037C24.2298 23.6128 24.0346 23.8498 24.0346 24.1425C23.9788 24.5189 24.188 24.8673 24.3413 25.1879C24.4668 25.4249 24.5504 25.6758 24.6898 25.9128C24.8431 25.4946 25.0383 25.0904 25.1917 24.6722C25.2614 24.4213 25.2753 24.1286 25.1917 23.8777C25.122 23.6965 24.9686 23.585 24.8571 23.4456C24.871 23.2086 24.9129 22.9298 24.6759 22.7904C24.5783 22.2468 24.5783 21.6892 24.648 21.1317C24.9128 21.1177 25.0523 21.3686 25.2335 21.522C25.9026 22.0935 26.5718 22.6929 27.2409 23.2783C27.45 23.4595 27.6869 23.6268 27.8682 23.8359C28.0633 24.0589 28.0494 24.3934 28.2446 24.6164C28.3979 24.8395 28.6628 24.951 28.8719 25.1322C29.0949 25.3273 29.3319 25.5504 29.4016 25.857C29.5549 26.7212 29.304 27.5855 29.1089 28.4218C28.9276 29.3697 28.6488 30.3036 28.4815 31.2654L28.5234 31.2375Z" fill="white"/>
<path d="M33.0538 26.5819C32.9701 26.7352 32.8447 26.8746 32.8586 27.0697C32.8586 27.474 32.8307 27.9061 32.6356 28.2685C32.4543 28.5612 32.2592 28.8539 32.1616 29.1885C32.0361 29.5091 32.1198 29.8575 32.1337 30.1921C32.1755 30.4709 32.1895 30.7636 32.2173 31.0424C33.3883 31.0842 34.5454 31.0284 35.7163 31.0702C37.3195 31.0702 38.9365 31.0702 40.5396 31.0702C42.9513 31.0702 45.3629 31.1121 47.7746 31.0981C48.0395 31.0981 48.3043 31.126 48.5692 31.0981C48.7922 30.8612 48.7923 30.4848 48.8062 30.1781C48.5135 30.1363 48.2207 30.1363 47.9419 30.0109C47.6631 29.8994 47.3703 29.9272 47.0776 29.8715C46.98 29.8436 46.9243 29.746 46.8685 29.6624C46.4921 29.077 45.8509 28.7145 45.1678 28.5891C44.7217 28.5891 44.3314 28.84 43.941 29.0212C43.6065 29.1745 43.3695 29.4812 43.1883 29.8018C43.1047 29.983 42.8955 30.1085 42.6864 30.1085C42.4076 30.1085 42.2682 29.8157 42.0312 29.7182C41.85 29.6206 41.6131 29.6206 41.4458 29.4673C41.404 29.2024 41.4179 28.9097 41.2366 28.6727C41.0694 28.4915 40.8324 28.3939 40.6094 28.2824C40.3724 28.1849 40.1493 28.0315 39.8844 28.0733C39.7032 28.0733 39.5639 28.1988 39.4384 28.3103C39.2014 28.5194 39.1596 28.84 38.9783 29.0909C38.7135 29.4951 38.2535 29.8157 37.7655 29.8018C37.3752 29.7182 37.1103 29.3557 36.7479 29.2163C36.4691 29.1327 36.2461 29.3697 36.023 29.4951C35.7721 29.6485 35.5212 29.8157 35.2424 29.8994C34.9915 29.9133 34.9217 29.6345 34.8381 29.4533C34.7126 29.2024 34.4896 29.0073 34.3641 28.7564C34.2247 28.4915 33.9877 28.2406 34.0017 27.934C34.0017 27.6134 34.0017 27.2928 33.9599 26.9722C33.9599 26.8467 33.8344 26.7631 33.8205 26.6516C33.8205 25.9964 33.8205 25.3552 33.8205 24.7001C33.8484 24.4492 33.6811 24.1704 33.4302 24.1007C33.2211 24.268 33.0398 24.491 33.0538 24.7698C33.0538 25.3692 32.9841 25.9685 32.998 26.5819H33.0538Z" fill="white"/>
</svg>
