<svg width="81" height="34" viewBox="0 0 81 34" fill="none" xmlns="http://www.w3.org/2000/svg">
<path d="M57.6066 15.3532C43.5923 14.1487 24.8609 14.042 6.82949 14.042C3.39059 14.042 0.879883 14.1335 0.879883 14.2402C0.879883 14.3469 3.43624 14.3927 6.82949 14.5604C31.0996 15.6734 57.6218 17.442 57.6218 23.6626C57.6218 28.6178 43.9271 31.2402 33.2908 32.4447C28.8172 32.9021 26.6108 33.1308 26.6108 33.2528C26.6108 33.3747 28.6042 33.3747 33.3212 33.3747C39.6665 33.3747 51.2918 32.6886 57.6827 31.8806C69.521 30.3102 80.066 26.9559 80.066 22.5496C80.066 18.616 71.0122 16.5119 57.6066 15.3532Z" fill="white"/>
<path d="M52.3265 23.678C52.3265 21.208 47.016 19.8816 38.4492 18.5246C28.6346 16.9847 15.7159 16.0851 6.82949 15.643C4.48617 15.5363 0.879883 15.399 0.879883 15.5058C0.879883 15.6125 3.39059 15.8717 6.82949 16.2529C20.9351 17.808 38.4492 20.3694 38.4492 24.3336C38.4492 27.6878 26.8999 29.5784 22.1981 30.1883C19.0178 30.5999 14.7572 31.1031 14.7572 31.2251C14.7572 31.3623 19.5656 31.2098 22.1981 31.0726C27.0064 30.8286 33.0169 30.3103 38.4187 29.4107C46.0574 28.1147 52.3265 25.9955 52.3265 23.678Z" fill="white"/>
<path d="M4.85128 12.7766H7.72718V2.3936H11.6682V0.152344H0.89502V2.3936H4.85128V12.7766Z" fill="white"/>
<path d="M15.6853 7.01334C16.2027 6.57119 17.1917 6.23576 18.196 6.23576C19.2916 6.23576 20.1589 6.52545 20.1589 7.63846V12.7766H22.9283V6.52545C22.9283 4.80258 21.4219 3.94877 19.2003 3.94877C17.9069 3.94877 16.7048 4.19272 15.6853 4.72635H15.6245V0.0151367L12.9312 0.152356V12.7766H15.7005V7.01334H15.6853Z" fill="white"/>
<path d="M39.8491 4.20801H37.0645V12.7766H39.8491V4.20801Z" fill="white"/>
<path d="M60.2544 13.0205C61.9282 13.0205 63.6476 12.6393 64.0432 12.3191L64.2411 10.581H64.1498C63.3281 10.9012 62.0955 11.0079 60.9087 11.0079C59.0523 11.0079 57.3024 10.7487 56.922 9.42227H64.4236C64.4845 9.0716 64.5149 8.52272 64.4845 8.17205C64.4084 5.68685 62.6433 3.94873 59.2044 3.94873C56.2068 3.94873 54.1069 5.68685 54.1069 8.3855C54.1069 11.694 56.4198 13.0205 60.2239 13.0205H60.2544ZM59.4783 5.83931C61.0304 5.83931 61.7608 6.63214 61.7608 7.74514H56.9676C56.9676 6.75411 57.8958 5.83931 59.4783 5.83931Z" fill="white"/>
<path d="M28.6651 13.0205C30.4606 13.0205 31.617 12.1514 32.0127 11.4806H32.0583C32.0431 12.0294 32.104 12.5478 32.2561 12.7765H34.9038C34.6299 12.0447 34.7212 9.51375 34.7212 8.8429V4.20792H32.9257C32.317 4.20792 31.7236 3.94873 29.8976 3.94873C26.7782 3.94873 24.511 5.76308 24.511 8.98012C24.511 11.4043 26.3217 13.0357 28.6651 13.0357V13.0205ZM30.4149 6.08326C31.0693 6.08326 31.4344 6.129 32.0583 6.31196V8.23304C32.0583 9.51375 31.1758 10.8707 29.4867 10.8707C28.3303 10.8707 27.2499 10.2456 27.2499 8.76667C27.2499 7.28774 28.3759 6.08326 30.4149 6.08326Z" fill="white"/>
<path d="M76.6272 4.20801H73.6143L70.7536 8.91922H70.6623L67.8017 4.20801H64.7888L70.708 12.9901L76.6272 4.20801Z" fill="white"/>
<path d="M53.0113 9.23939C53.0113 7.48603 51.8549 6.38827 49.3594 6.17481V6.08333C50.2572 5.90037 52.0527 5.36674 52.0527 3.30845C52.0527 1.25015 50.3485 0.0609131 46.3313 0.0609131C45.2966 0.0609131 44.3228 0.0761597 42.1772 0.259119V12.7614C43.6837 12.8986 44.8097 12.9596 47.0465 12.9596C50.8506 12.9596 52.9961 11.4806 52.9961 9.22414L53.0113 9.23939ZM45.0836 2.01248C45.3575 1.98199 45.9205 1.96674 46.3161 1.96674C47.8073 1.96674 49.0398 2.48513 49.0398 3.56764C49.0398 4.74163 48.2334 5.36674 46.1792 5.36674H45.0684V2.01248H45.0836ZM45.0836 7.21159H47.0161C49.0398 7.21159 50.0137 7.74522 50.0137 9.08692C50.0137 10.078 49.329 11.0232 47.0465 11.0232C46.4074 11.0232 45.5857 11.008 45.0684 10.9775V7.22683L45.0836 7.21159Z" fill="white"/>
<path d="M38.4644 3.39984C39.3622 3.39984 40.1078 2.668 40.1078 1.7532C40.1078 0.838406 39.3774 0.106567 38.4644 0.106567C37.5514 0.106567 36.821 0.838406 36.821 1.7532C36.821 2.668 37.5514 3.39984 38.4644 3.39984Z" fill="white"/>
</svg>
