<svg width="97" height="35" viewBox="0 0 97 35" fill="none" xmlns="http://www.w3.org/2000/svg">
<path d="M30.6584 19.4243C30.7344 19.8817 30.7801 20.3391 30.7801 20.7812C30.7801 20.9795 30.7801 21.1929 30.7497 21.3911C30.6888 21.94 30.5823 22.4889 30.3997 23.0377C30.2171 23.5714 29.9736 24.0898 29.6693 24.5777C29.365 25.0656 28.9998 25.523 28.5889 25.9346C28.1629 26.3615 27.6912 26.7274 27.1738 27.0324C26.6412 27.3525 26.0782 27.5965 25.4696 27.7795C24.8457 27.9624 24.1914 28.0691 23.5219 28.0844C22.8676 28.0996 22.2133 28.0386 21.6046 27.9014C20.996 27.7642 20.4329 27.5508 19.9004 27.2611C19.383 26.9714 18.9113 26.6207 18.4853 26.2243C18.0744 25.8126 17.7244 25.3552 17.4505 24.8521C17.1766 24.3337 16.9788 23.7848 16.8875 23.2055C16.8419 22.9005 16.8115 22.5956 16.8115 22.2907C16.8115 22.0467 16.8267 21.7875 16.8723 21.5436C16.3245 21.879 15.7767 22.1382 15.2289 22.3212C14.5442 22.5499 13.7986 22.6718 13.0074 22.6871C12.2617 22.7023 11.5618 22.6413 10.8923 22.4736C10.2684 22.3212 9.65974 22.0925 9.08152 21.7875C8.54894 21.5131 8.03159 21.1624 7.52945 20.7508C7.19469 20.4763 6.89036 20.1866 6.5556 19.8664C6.5556 19.8664 6.08388 19.409 5.85564 19.1194C5.59696 18.8144 5.32308 18.479 5.03396 18.1131L4.44051 17.3355C4.25792 17.1068 4.09054 16.9086 3.92316 16.6951C3.66448 16.4055 3.40581 16.1158 3.13191 15.8566C2.66021 15.3992 2.17327 14.957 1.62548 14.6064C1.51897 14.5301 1.39724 14.4539 1.27551 14.3929C1.19943 14.3472 1.10813 14.3014 1.03204 14.2709C0.971179 14.2252 0.879883 14.1795 0.879883 14.088C0.879883 13.9965 0.955962 13.9508 1.03204 13.9203C1.10813 13.8745 1.19943 13.844 1.27551 13.783C1.39724 13.7221 1.50375 13.6458 1.62548 13.5696C2.17327 13.2037 2.67542 12.7768 3.13191 12.3041C3.40581 12.0297 3.66448 11.7552 3.92316 11.4503C4.09054 11.2521 4.27313 11.0386 4.44051 10.8099L5.03396 10.0324C5.30786 9.66645 5.58174 9.33102 5.85564 9.02609C6.08388 8.7364 6.5556 8.279 6.5556 8.279C6.87515 7.95882 7.19469 7.65389 7.52945 7.3947C8.03159 6.98304 8.54894 6.63237 9.08152 6.35793C9.65974 6.05299 10.2684 5.82429 10.8923 5.67183C11.5618 5.50412 12.2617 5.44313 13.0074 5.45837C13.7986 5.47362 14.5594 5.59559 15.2289 5.82429C15.7767 5.99201 16.3245 6.26645 16.8723 6.58663C16.8419 6.34268 16.8115 6.08349 16.8115 5.83954C16.8115 5.53461 16.8419 5.22968 16.8875 4.92474C16.9788 4.34537 17.1766 3.79649 17.4505 3.27811C17.7244 2.77497 18.0592 2.31757 18.4853 1.89066C18.8961 1.49425 19.3678 1.12833 19.9004 0.853891C20.4329 0.564205 20.996 0.350752 21.6046 0.213532C22.2133 0.0610658 22.8676 7.92649e-05 23.5219 0.0305725C24.1914 0.0458192 24.8609 0.152546 25.4696 0.335505C26.063 0.503218 26.6412 0.762411 27.1738 1.08259C27.6912 1.38752 28.1629 1.75344 28.5889 2.1651C28.9998 2.57676 29.365 3.03416 29.6693 3.52205C29.9736 4.00994 30.2171 4.52833 30.3997 5.06196C30.5823 5.59559 30.6888 6.15972 30.7497 6.7086C30.7649 6.90681 30.7801 7.12026 30.7801 7.33371C30.7801 7.76062 30.7497 8.21802 30.6584 8.67542C30.5519 9.34627 30.354 9.98663 30.0954 10.5812C29.8367 11.1606 29.5171 11.6943 29.1215 12.1669C28.7411 12.6395 28.315 13.0512 27.8281 13.3866C27.5847 13.5696 27.326 13.7221 27.0673 13.8593C26.9303 13.9355 26.7934 13.9965 26.6412 14.0727C26.7934 14.149 26.9303 14.2099 27.0673 14.2862C27.326 14.4234 27.5847 14.5759 27.8281 14.7588C28.315 15.1095 28.7411 15.5212 29.1215 15.9786C29.5171 16.4512 29.8367 16.9848 30.0954 17.5642C30.354 18.1588 30.5519 18.7992 30.6584 19.4548V19.4243ZM28.4672 18.1588C28.239 17.6557 27.9346 17.1678 27.5542 16.7561C27.189 16.3445 26.763 15.9786 26.2913 15.6889C25.8195 15.3992 25.3022 15.1705 24.7696 15.018C24.2066 14.8656 23.6284 14.7741 23.0502 14.7741C22.4263 14.7741 21.8024 14.8351 21.209 14.9875C20.7068 15.1095 20.2199 15.2772 19.7634 15.5059C19.3526 15.7041 18.957 15.9481 18.5918 16.2225C18.2418 16.4664 17.907 16.7409 17.5723 17.0001C17.2527 17.2593 16.9332 17.5032 16.5832 17.7167C16.2484 17.9301 15.8985 18.1131 15.5181 18.2503C15.1072 18.3875 14.6659 18.4638 14.2399 18.4638C13.6464 18.4638 13.053 18.3418 12.5052 18.1131C11.9726 17.8844 11.5009 17.549 11.0901 17.1373C10.6945 16.7256 10.3749 16.2377 10.1619 15.7041C9.94885 15.1705 9.85756 14.6064 9.85756 14.027C9.85756 13.4476 9.94885 12.8835 10.1619 12.3499C10.3749 11.8162 10.6945 11.3283 11.0901 10.9167C11.4857 10.505 11.9726 10.1848 12.5052 9.95613C13.053 9.72743 13.6464 9.60546 14.2399 9.60546C14.6659 9.60546 15.1072 9.66645 15.5181 9.81891C15.8985 9.94089 16.2484 10.1391 16.5832 10.3373C16.918 10.566 17.2527 10.8099 17.5723 11.0539C17.907 11.3131 18.2418 11.5875 18.5918 11.8315C18.957 12.1059 19.3526 12.3499 19.7634 12.5481C20.2199 12.7768 20.7068 12.9597 21.209 13.0664C21.8176 13.2189 22.4415 13.2799 23.0502 13.2799C23.6284 13.2799 24.2066 13.2037 24.7696 13.0512C25.3022 12.8987 25.8195 12.67 26.2913 12.3803C26.763 12.0907 27.189 11.7247 27.5542 11.3131C27.9194 10.9014 28.239 10.4135 28.4672 9.91039C28.7107 9.37676 28.8628 8.79739 28.9389 8.21802C29.015 7.5929 28.9998 6.95255 28.8781 6.34268C28.7715 5.76331 28.5737 5.19918 28.2846 4.6808C28.0107 4.17766 27.6759 3.72026 27.2651 3.32385C26.8695 2.92743 26.413 2.59201 25.9108 2.34806C25.4087 2.08887 24.8761 1.89066 24.3283 1.78394C23.7653 1.67721 23.1719 1.64672 22.5785 1.7077C22.0002 1.78394 21.4524 1.9364 20.9199 2.21084C20.4329 2.45479 19.9917 2.79021 19.6113 3.20187C19.2461 3.59829 18.9417 4.05568 18.7287 4.55882C18.5157 5.06196 18.3787 5.61084 18.3483 6.15972C18.3179 6.73909 18.3787 7.31847 18.5613 7.88259C18.5918 7.95882 18.607 8.03506 18.6374 8.09604C18.6374 8.12654 18.6526 8.17228 18.6679 8.20277C18.6831 8.24851 18.6983 8.279 18.7135 8.32474C18.7135 8.33999 18.7439 8.37048 18.7744 8.37048C18.82 8.37048 18.82 8.32474 18.8352 8.29425C18.8352 8.21802 18.8352 8.12654 18.8504 8.0503C18.8809 7.76062 18.957 7.47093 19.0787 7.19649C19.2917 6.69335 19.6417 6.26645 20.0982 5.96151C20.5547 5.65658 21.1025 5.50412 21.635 5.45837C22.2285 5.42788 22.8219 5.51936 23.3393 5.7938C23.811 6.03775 24.2066 6.41891 24.4653 6.87631C24.7392 7.36421 24.8609 7.91308 24.8457 8.46196C24.8457 9.02609 24.6783 9.59021 24.3892 10.0781C24.1001 10.566 23.674 10.9624 23.1567 11.2064C22.6545 11.4503 22.0763 11.5418 21.5285 11.496C21.1481 11.4656 20.7677 11.3436 20.4025 11.1759C20.0373 11.0082 19.7026 10.7795 19.383 10.5355C19.033 10.2763 18.7135 9.98663 18.3787 9.71219C18.0288 9.40725 17.6788 9.10232 17.3136 8.82788C16.9332 8.5382 16.5376 8.26376 16.1115 8.01981C15.655 7.77586 15.1833 7.57766 14.6812 7.42519C14.1181 7.27273 13.5399 7.19649 12.9617 7.18125C12.3683 7.18125 11.7748 7.22699 11.1966 7.3642C10.7097 7.48618 10.2227 7.65389 9.76625 7.89784C9.35541 8.11129 8.95979 8.38573 8.59459 8.69066C8.24462 8.99559 7.92507 9.31577 7.60553 9.66645C7.3012 10.0171 7.01208 10.383 6.72297 10.7337C6.43386 11.0996 6.15997 11.4503 5.87086 11.8162C5.58175 12.1669 5.29264 12.5023 4.9731 12.8225C4.65355 13.1427 4.30357 13.4324 3.93838 13.6763C3.8623 13.7221 3.78622 13.7678 3.71013 13.8288C3.64927 13.8593 3.60362 13.8898 3.54275 13.9203C3.4971 13.9508 3.45146 13.9812 3.45146 14.0422C3.45146 14.0422 3.51232 14.1337 3.54275 14.1642C3.60362 14.1947 3.64927 14.2252 3.71013 14.2557C3.78622 14.3014 3.8623 14.3472 3.93838 14.4082C4.30357 14.6521 4.65355 14.957 4.9731 15.262C5.29264 15.5821 5.58175 15.9176 5.87086 16.2682C6.15997 16.6189 6.44908 16.9848 6.72297 17.3508C7.01208 17.7167 7.3012 18.0826 7.60553 18.418C7.90985 18.7687 8.24462 19.1041 8.59459 19.3938C8.95979 19.6987 9.34019 19.9732 9.76625 20.1866C10.2227 20.4306 10.6945 20.5983 11.1966 20.7203C11.7748 20.8575 12.3683 20.9032 12.9617 20.9032C13.5399 20.9032 14.1181 20.8117 14.6812 20.6593C15.1833 20.5221 15.655 20.3238 16.1115 20.0647C16.5376 19.836 16.9332 19.5615 17.3136 19.2566C17.6788 18.9669 18.0288 18.6772 18.3787 18.3723C18.7135 18.0826 19.033 17.8082 19.383 17.549C19.7026 17.305 20.0373 17.0763 20.4025 16.9086C20.7525 16.7409 21.1329 16.6189 21.5285 16.5884C22.0915 16.5274 22.6545 16.6342 23.1567 16.8781C23.674 17.1221 24.1001 17.5185 24.3892 18.0064C24.6783 18.4942 24.8457 19.0584 24.8457 19.6073C24.8457 20.1714 24.724 20.7203 24.4653 21.1929C24.2066 21.6655 23.811 22.0315 23.3393 22.2907C22.8219 22.5651 22.2133 22.6566 21.635 22.6261C21.0873 22.5956 20.5395 22.4279 20.0982 22.1229C19.6417 21.818 19.2917 21.3911 19.0787 20.9032C18.9722 20.6288 18.8961 20.3391 18.8504 20.0494C18.8504 19.9732 18.8504 19.8817 18.8352 19.8055C18.8352 19.775 18.82 19.7292 18.7744 19.7292C18.7439 19.7292 18.7287 19.7445 18.7135 19.775C18.6983 19.8055 18.6831 19.8512 18.6679 19.8969C18.6679 19.9274 18.6526 19.9579 18.6374 20.0037C18.607 20.0799 18.5918 20.1409 18.5613 20.2171C18.394 20.766 18.3179 21.3606 18.3483 21.94C18.3787 22.4889 18.5005 23.0377 18.7287 23.5409C18.9417 24.044 19.2461 24.5014 19.6113 24.8978C19.9917 25.2943 20.4329 25.6297 20.9199 25.8889C21.4372 26.1481 22.0002 26.3158 22.5785 26.3768C23.1567 26.453 23.7501 26.4225 24.3283 26.3005C24.8761 26.1938 25.4087 25.9956 25.9108 25.7364C26.3978 25.4772 26.8543 25.1418 27.2651 24.7454C27.6759 24.349 28.0107 23.8916 28.2846 23.3884C28.5585 22.87 28.7563 22.3059 28.8781 21.7265C28.9846 21.1167 29.015 20.4763 28.9389 19.8512C28.8781 19.2718 28.7107 18.6925 28.4672 18.1588ZM20.1438 14.027C20.1438 14.027 20.1286 13.9812 20.0982 13.9812C19.3982 13.8135 18.7896 13.4324 18.2114 13.0207C17.6027 12.5786 17.0245 12.1059 16.4158 11.679C15.8072 11.2673 15.1224 10.9014 14.3616 10.8557C13.7682 10.8252 13.1595 10.9472 12.6422 11.2369C12.1552 11.5113 11.7596 11.9077 11.4857 12.3803C11.1966 12.8835 11.0597 13.4476 11.0597 14.027C11.0597 14.6216 11.1966 15.201 11.4857 15.6889C11.7596 16.1615 12.1552 16.5732 12.6422 16.8324C13.1595 17.1221 13.7682 17.2593 14.3616 17.2135C15.1072 17.1678 15.7919 16.8019 16.4158 16.3902C17.0397 15.9633 17.6027 15.4754 18.2114 15.0485C18.7744 14.6369 19.3982 14.2557 20.0982 14.088C20.0982 14.088 20.1438 14.0575 20.1438 14.0422V14.027Z" fill="white"/>
<path d="M96.1648 22.6413H90.0022C91.1586 22.001 91.3565 21.4673 91.3565 19.2566V8.82787C91.3565 6.61711 91.1586 6.06823 90.0022 5.44312H96.1648C95.0084 6.06823 94.8106 6.61711 94.8106 8.82787V19.2566C94.8106 21.4673 95.0084 22.001 96.1648 22.6413Z" fill="white"/>
<path d="M83.2005 22.6414H89.987C88.6176 21.8333 88.1915 21.0557 87.3242 19.0584C82.6071 8.08081 80.9333 4.25391 80.9333 4.25391C80.9333 4.25391 80.0051 6.23597 76.3836 6.73911C76.8857 7.01355 77.0075 7.36422 77.0075 7.80637C77.0075 8.11131 76.9466 8.46198 76.7336 8.94987L72.2295 19.0736C71.2861 21.2082 70.7231 21.757 69.3993 22.6109C68.3493 22.001 68.1363 21.4064 68.1363 19.2718V8.84314C68.1363 6.66288 68.3493 6.0835 69.4754 5.45839H63.3431C64.4692 6.0835 64.6822 6.64763 64.6822 8.84314V12.4109H56.161V8.84314C56.161 6.63238 56.3588 6.0835 57.5 5.45839H51.3526C52.5091 6.0835 52.6917 6.63238 52.6917 8.84314V19.2718C52.6917 21.4826 52.4938 22.0162 51.3374 22.6566H57.4848C56.3284 22.0162 56.1458 21.4826 56.1458 19.2718V14.8046H64.667V19.2718C64.667 21.4521 64.4539 22.0162 63.3279 22.6566H75.501C74.5881 22.1535 74.375 21.879 74.375 21.4216C74.375 21.1167 74.4511 20.6288 74.6489 20.1257L75.8967 17.1831H82.6984L83.8701 20.1257C84.2657 21.1319 84.2961 21.3149 84.2961 21.5436C84.2961 21.9248 84.1896 22.0467 83.1853 22.6566L83.2005 22.6414ZM76.7792 15.0485L79.3812 8.88888L81.8615 15.0485H76.7944H76.7792Z" fill="white"/>
<path d="M50.7897 4.25387C50.1963 4.80275 49.0094 5.42786 46.453 5.42786H38.2818C37.2928 5.42786 36.4711 4.75701 36.395 3.9032C35.8168 5.21441 34.5082 6.96777 33.3669 7.9588H40.5339V19.2566C40.5339 21.4368 40.3208 22.0315 39.1948 22.6261H45.4944C44.2467 21.7723 43.988 21.2081 43.988 19.531V7.9588H44.9466C46.4835 7.9588 47.503 7.69961 47.9899 7.54714C49.6485 6.98302 50.6832 5.77853 50.8049 4.25387H50.7897Z" fill="white"/>
<path d="M86.4722 30.3256H86.32C86.32 30.1427 86.2287 29.3803 85.4527 29.3803C84.9353 29.3803 84.7375 29.731 84.7375 30.0055C84.7375 30.3561 84.9505 30.5696 85.5287 31.1337C86.0613 31.6673 86.3504 32.079 86.3504 32.5364C86.3504 33.2835 85.7266 34.0001 84.6158 34.0001C83.9919 34.0001 83.5354 33.7866 83.4137 33.7866C83.2919 33.7866 83.2463 33.8171 83.2463 33.8171H83.0941L83.2311 32.4449H83.3832C83.3528 32.7499 83.6723 33.5732 84.5245 33.5732C85.057 33.5732 85.3309 33.2225 85.3309 32.9023C85.3309 32.5821 85.1331 32.4297 84.5397 31.8046C84.068 31.3014 83.7789 31.0422 83.7789 30.4476C83.7789 29.5176 84.5853 28.9382 85.407 28.9382C85.9852 28.9382 86.1983 29.1516 86.4417 29.1516C86.533 29.1516 86.6091 29.1059 86.6091 29.1059H86.7308L86.4874 30.3409L86.4722 30.3256ZM43.7902 28.3131H43.6532C43.6684 27.688 43.1511 27.1543 42.375 27.1543C41.5077 27.1543 41.1273 27.8099 41.1273 28.3436C41.1273 28.8772 41.4316 29.1364 42.2533 29.792C42.862 30.2647 43.638 30.7373 43.638 31.8198C43.638 32.9023 42.6185 33.9696 41.2186 33.9696C40.4121 33.9696 39.7731 33.7256 39.5905 33.7256C39.4535 33.7256 39.3926 33.7409 39.3622 33.8019H39.1948L39.2405 32.1705H39.3774C39.4231 32.8413 40.123 33.4512 41.0664 33.4512C42.2685 33.4512 42.5881 32.6889 42.5881 32.2925C42.5881 31.9265 42.4663 31.5149 41.5838 30.844C40.7469 30.2037 40.0926 29.5938 40.0926 28.7705C40.0926 27.8404 40.6708 26.6207 42.2533 26.6207C42.9076 26.6207 43.4554 26.8799 43.6837 26.8799C43.8206 26.8799 43.8815 26.8342 43.9576 26.7732H44.0945L43.7902 28.2826V28.3131ZM50.5919 33.9543C50.2267 33.9543 49.6941 33.6799 49.8615 32.9023L50.3484 30.7678C50.4093 30.5086 50.5463 29.7005 49.8463 29.7005C49.5115 29.7005 48.7355 29.975 48.4312 31.6521L48.0355 33.8324L46.8334 33.9391L47.5182 30.6001C47.6247 30.0817 47.5334 29.7005 47.0465 29.7005C46.9704 29.7005 45.89 29.7768 45.5401 31.6368C45.5401 31.6368 45.3575 32.7194 45.1292 33.8324L43.9728 33.9391L44.6727 30.1122C44.7336 29.8073 44.8097 29.3346 44.2771 29.4261V29.3346L45.9509 29.0297L45.7531 30.1274C45.9965 29.7463 46.5596 29.0602 47.5791 29.0602C48.5225 29.0602 48.6746 29.8073 48.6594 30.0055C48.8725 29.6243 49.5572 29.0297 50.3637 29.0297C50.9571 29.0297 51.8092 29.3803 51.5353 30.6611L51.094 32.6736C51.0332 32.9023 50.9571 33.4512 51.3679 33.4512C51.581 33.4512 51.8549 33.2835 51.9614 33.2073L52.0527 33.3902C51.7483 33.5884 51.2462 34.0153 50.6071 34.0153L50.5919 33.9543ZM53.9699 33.9696C52.6005 33.9696 51.9157 33.0243 51.9157 31.9723C51.9157 30.4629 53.0874 28.9229 54.7612 28.9229C55.9937 28.9229 56.7545 29.8225 56.7545 30.9812C56.7545 32.4449 55.659 33.9696 53.9547 33.9696H53.9699ZM54.7612 29.3956C53.5287 29.3956 53.0722 31.4234 53.0722 32.1705C53.0722 33.0395 53.4069 33.5274 53.9699 33.5274C55.1264 33.5274 55.6437 31.4996 55.6437 30.7983C55.6437 29.5481 55.0351 29.3956 54.7764 29.3956H54.7612ZM58.9609 33.9696C57.5914 33.9696 56.9219 33.0243 56.9219 31.9723C56.9219 30.4629 58.0936 28.9229 59.7674 28.9229C61.0151 28.9229 61.7607 29.8225 61.7607 30.9812C61.7607 32.4449 60.6804 33.9696 58.9609 33.9696ZM59.7522 29.3956C58.5196 29.3956 58.0632 31.4234 58.0632 32.1705C58.0632 33.0395 58.3827 33.5274 58.9457 33.5274C60.1021 33.5274 60.6195 31.4996 60.6195 30.7983C60.6195 29.5481 60.0109 29.3956 59.7522 29.3956ZM65.0779 29.6395H63.8758C63.5715 31.1795 63.2672 32.8261 63.2672 32.8261C63.2215 33.0243 63.2672 33.3902 63.6476 33.3902C63.9975 33.3902 64.3932 33.1768 64.5758 33.0243L64.6671 33.07L64.4084 33.7104C64.4084 33.7104 63.678 33.9543 63.2367 33.9543C62.0651 33.9543 62.0499 33.07 62.202 32.3077L62.6889 29.6243H61.989L62.0803 29.1059H62.765L62.9933 27.9472L64.2714 27.3373C64.2714 27.3373 64.1345 28.1301 63.9367 29.1212H65.1388L65.0475 29.6395H65.0779ZM68.6842 33.9391C68.4103 33.9391 67.9538 33.8019 67.9538 33.1768C67.9538 32.6736 68.532 30.6153 68.532 30.4629C68.532 30.1122 68.5016 29.6853 67.9842 29.6853C67.5125 29.6853 66.7213 30.2342 66.4626 31.6064L66.0518 33.8019L64.8953 33.9391L66.2191 26.8799C66.3104 26.392 66.0822 26.2548 65.8387 26.3158V26.209L67.5125 25.9041L66.7213 30.0207C66.843 29.8682 67.4669 29.0144 68.532 29.0144C69.095 29.0144 69.7037 29.3651 69.7037 30.1274C69.7037 30.6916 69.1255 32.4602 69.1255 32.9938C69.1255 33.2987 69.3385 33.3902 69.5059 33.3902C69.7037 33.3902 69.8863 33.253 70.0385 33.1615L70.1298 33.3445C69.9624 33.4664 69.232 33.9543 68.669 33.9543L68.6842 33.9391ZM75.7294 33.9848C75.349 33.9848 75.0903 33.7714 75.0903 33.3597C75.0903 33.2225 75.0903 33.2073 75.1055 33.0853C74.9077 33.375 74.4816 33.9696 73.5534 33.9696C72.6252 33.9696 72.1231 33.131 72.1231 32.2772C72.1231 31.4996 72.8535 28.9992 75.562 28.9992C75.9729 28.9992 76.6576 29.1364 76.9467 29.2431L76.2772 32.7803C76.2467 32.9023 76.1859 33.4207 76.5815 33.4207C76.7945 33.4207 77.038 33.2377 77.1749 33.1615L77.251 33.314C76.688 33.7714 76.1554 34.0001 75.7294 34.0001V33.9848ZM75.3642 29.4566C73.6295 29.4566 73.3404 32.1095 73.3404 32.5516C73.3404 33.2682 73.6904 33.4207 73.873 33.4207C74.6186 33.4207 75.1207 32.5059 75.2729 31.7131L75.699 29.5328C75.699 29.5328 75.4859 29.4413 75.349 29.4413L75.3642 29.4566ZM80.8117 30.3256H80.6595C80.6595 30.1427 80.5682 29.3803 79.7922 29.3803C79.2748 29.3803 79.0618 29.731 79.0618 30.0055C79.0618 30.3561 79.29 30.5696 79.8682 31.1337C80.4008 31.6673 80.6899 32.079 80.6899 32.5364C80.6899 33.2835 80.0661 34.0001 78.9553 34.0001C78.3314 34.0001 77.8749 33.7866 77.738 33.7866C77.601 33.7866 77.5706 33.8171 77.5706 33.8171H77.4336L77.5706 32.4449H77.738C77.7075 32.7499 78.0118 33.5732 78.864 33.5732C79.3965 33.5732 79.6704 33.2225 79.6704 32.9023C79.6704 32.5821 79.4726 32.4297 78.8792 31.8046C78.4075 31.3014 78.1184 31.0422 78.1184 30.4476C78.1184 29.5176 78.9096 28.9382 79.7465 28.9382C80.3095 28.9382 80.5378 29.1516 80.766 29.1516C80.8421 29.1516 80.9334 29.1059 80.9334 29.1059H81.0399L80.7964 30.3409L80.8117 30.3256ZM87.9938 33.9391C87.4764 33.9391 87.1569 33.5884 87.2786 32.9786L87.8416 29.9597C87.9482 29.3803 87.6286 29.3194 87.4917 29.3499V29.2584L89.1655 28.9687L88.4655 32.6889C88.3742 33.131 88.4655 33.3902 88.7698 33.3902C89.0133 33.3902 89.1959 33.2682 89.3633 33.1615L89.4546 33.3292C89.1959 33.5122 88.4959 33.9543 87.9786 33.9543L87.9938 33.9391ZM88.785 27.7337C88.4046 27.7337 88.2525 27.4135 88.2525 27.2153C88.2525 26.7884 88.6633 26.453 89.0285 26.453C89.3328 26.453 89.5763 26.6969 89.5763 27.0019C89.5763 27.3068 89.272 27.749 88.785 27.749V27.7337ZM90.9001 32.6584C90.8697 32.7956 90.748 33.3902 91.2653 33.3902C91.524 33.3902 91.7066 33.2225 91.8283 33.131L91.9044 33.314C91.7675 33.4207 91.0675 33.9391 90.5197 33.9391C89.6372 33.9391 89.6524 33.1615 89.7132 32.7956L90.8545 26.7884C90.9306 26.392 90.7632 26.1633 90.4589 26.2243V26.1328L92.1783 25.8279L90.8697 32.6584H90.9001ZM94.9325 33.9391L93.9891 31.6064L93.4869 31.8808L93.1217 33.8171L91.9805 33.9391L93.3043 26.9714C93.3652 26.6207 93.3043 26.2243 92.9543 26.3005V26.209L94.6129 25.8736C94.3695 27.2001 93.5782 31.3929 93.5782 31.3929C94.3847 30.9965 95.5411 30.0969 95.5411 29.5938C95.5411 29.3346 95.2824 29.3041 95.1303 29.3346L95.0999 29.2584L96.1802 28.6485C96.1802 28.6485 96.3628 28.8467 96.3628 29.0449C96.3628 29.8225 95.1455 30.8135 94.8412 31.0422L95.5716 32.7651C95.815 33.3292 96.2259 33.6799 96.4845 33.6647V33.7714L94.9325 33.9391Z" fill="white"/>
</svg>
