<svg width="128" height="33" viewBox="0 0 128 33" fill="none" xmlns="http://www.w3.org/2000/svg">
<path d="M118.834 24.3448C118.142 23.9894 117.411 23.634 116.305 23.634C115.337 23.634 114.547 23.9894 113.796 24.3448C113.006 24.72 112.176 25.0951 111.09 25.0951C110.122 25.0951 109.411 24.7595 108.64 24.4041C107.85 24.0487 107.02 23.6538 105.914 23.6538C104.946 23.6538 104.156 24.0092 103.405 24.3448C102.615 24.7002 101.786 25.0754 100.699 25.0754C100.64 25.0754 100.581 25.0754 100.521 25.0754C100.64 25.2136 100.739 25.3518 100.857 25.49C101.963 25.4505 102.773 25.0951 103.563 24.72C104.314 24.3843 105.025 24.0684 105.914 24.0684C106.922 24.0684 107.672 24.4238 108.463 24.7792C109.233 25.1346 110.043 25.5098 111.09 25.5098C112.275 25.5098 113.125 25.1149 113.974 24.7397C114.725 24.4041 115.436 24.0684 116.305 24.0684C117.313 24.0684 117.964 24.4041 118.636 24.7397C119.387 25.1149 120.157 25.5098 121.441 25.5098C121.56 25.3715 121.678 25.2333 121.797 25.0951C121.698 25.0951 121.579 25.0951 121.461 25.0951C120.276 25.0951 119.545 24.72 118.834 24.3646" fill="white"/>
<path d="M116.325 24.4041C115.357 24.4041 114.567 24.7595 113.816 25.1149C113.026 25.4703 112.196 25.8651 111.11 25.8651C110.142 25.8651 109.43 25.5295 108.66 25.1741C107.87 24.8187 107.04 24.4238 105.934 24.4238C104.966 24.4238 104.176 24.7792 103.425 25.1149C102.753 25.411 102.062 25.7269 101.193 25.8257C101.311 25.9441 101.43 26.0626 101.548 26.2008C102.319 26.0626 102.971 25.7862 103.583 25.5097C104.334 25.1741 105.045 24.8582 105.934 24.8582C106.941 24.8582 107.692 25.1938 108.482 25.569C109.253 25.9244 110.063 26.2995 111.11 26.2995C112.295 26.2995 113.144 25.9046 113.994 25.5295C114.744 25.1938 115.456 24.8582 116.325 24.8582C117.332 24.8582 117.984 25.1938 118.656 25.5295C119.268 25.8454 119.881 26.1416 120.77 26.26C120.888 26.1416 121.026 26.0231 121.125 25.8849C120.137 25.8257 119.485 25.49 118.834 25.1741C118.142 24.8187 117.411 24.4435 116.305 24.4435" fill="white"/>
<path d="M116.325 25.1741C115.357 25.1741 114.567 25.5295 113.816 25.8849C113.026 26.26 112.196 26.6352 111.11 26.6352C110.142 26.6352 109.43 26.2995 108.66 25.9441C107.87 25.5887 107.04 25.1938 105.934 25.1938C104.966 25.1938 104.176 25.5492 103.425 25.8849C102.931 26.1021 102.418 26.339 101.865 26.4772C101.983 26.5957 102.102 26.6944 102.22 26.8129C102.714 26.6549 103.168 26.4575 103.603 26.26C104.354 25.9244 105.065 25.6085 105.954 25.6085C106.961 25.6085 107.712 25.9639 108.502 26.3193C109.272 26.6747 110.082 27.0498 111.129 27.0498C112.315 27.0498 113.164 26.6549 114.013 26.2798C114.764 25.9441 115.475 25.6085 116.344 25.6085C117.352 25.6085 118.004 25.9441 118.676 26.2798C119.11 26.497 119.545 26.7141 120.098 26.8721C120.216 26.7536 120.355 26.6549 120.473 26.5364C119.841 26.3982 119.347 26.1613 118.873 25.9046C118.182 25.5492 117.451 25.1741 116.344 25.1741" fill="white"/>
<path d="M116.325 25.9639C115.357 25.9639 114.567 26.3193 113.816 26.6747C113.026 27.0301 112.196 27.4053 111.11 27.4053C110.142 27.4053 109.43 27.0696 108.66 26.7142C107.87 26.3391 107.04 25.9639 105.934 25.9639C104.966 25.9639 104.176 26.3193 103.425 26.655C103.129 26.7932 102.832 26.9314 102.516 27.0301C102.635 27.1289 102.753 27.2276 102.892 27.3263C103.129 27.2276 103.366 27.1289 103.603 27.0104C104.354 26.6747 105.065 26.3588 105.954 26.3588C106.961 26.3588 107.712 26.7142 108.502 27.0696C109.272 27.425 110.082 27.8002 111.129 27.8002C112.315 27.8002 113.164 27.4053 114.013 27.0301C114.764 26.6747 115.475 26.3588 116.344 26.3588C117.352 26.3588 118.004 26.6945 118.675 27.0301C118.913 27.1486 119.169 27.2671 119.426 27.3855C119.564 27.2868 119.683 27.1881 119.801 27.0894C119.466 26.9709 119.169 26.8129 118.873 26.655C118.182 26.2996 117.451 25.9244 116.344 25.9244" fill="white"/>
<path d="M116.325 26.7339C115.357 26.7339 114.567 27.0893 113.816 27.4447C113.026 27.8001 112.196 28.195 111.109 28.195C110.142 28.195 109.43 27.8593 108.66 27.5039C107.87 27.1288 107.04 26.7536 105.934 26.7536C104.966 26.7536 104.176 27.109 103.425 27.4447C103.326 27.4842 103.247 27.5237 103.168 27.5632C103.306 27.6619 103.425 27.7606 103.563 27.8396C103.563 27.8396 103.583 27.8396 103.603 27.8396C104.353 27.5039 105.065 27.188 105.954 27.188C106.961 27.188 107.712 27.5237 108.502 27.8988C109.272 28.2542 110.082 28.6294 111.129 28.6294C112.315 28.6294 113.164 28.2345 114.013 27.8593C114.764 27.5237 115.475 27.188 116.344 27.188C117.352 27.188 118.004 27.5039 118.675 27.8593C118.715 27.8593 118.735 27.8988 118.774 27.8988C118.893 27.8198 119.031 27.7211 119.15 27.6224C119.051 27.5829 118.952 27.5237 118.853 27.4842C118.162 27.1288 117.431 26.7536 116.325 26.7536" fill="white"/>
<path d="M113.796 28.2148C113.006 28.5702 112.176 28.9453 111.09 28.9453C110.122 28.9453 109.411 28.6097 108.64 28.2543C107.85 27.8791 107.021 27.504 105.914 27.504C105.124 27.504 104.452 27.7409 103.82 27.9976C103.959 28.0963 104.097 28.1753 104.255 28.2543C104.769 28.0568 105.302 27.8989 105.914 27.8989C106.922 27.8989 107.672 28.2345 108.463 28.6097C109.233 28.9651 110.043 29.3402 111.09 29.3402C112.275 29.3402 113.125 28.9453 113.974 28.5702C114.725 28.2345 115.436 27.8989 116.305 27.8989C117.016 27.8989 117.55 28.0568 118.043 28.274C118.182 28.1951 118.32 28.0963 118.458 28.0174C117.866 27.7409 117.214 27.4843 116.305 27.4843C115.337 27.4843 114.547 27.8397 113.796 28.1951" fill="white"/>
<path d="M111.169 0.236816C102.2 0.236816 94.9109 7.50279 94.9109 16.4865C94.9109 25.4703 102.2 32.7362 111.169 32.7362C120.137 32.7362 127.427 25.4505 127.427 16.4865C127.427 7.52253 120.157 0.236816 111.169 0.236816ZM111.169 30.1497C103.623 30.1497 97.5185 24.0289 97.5185 16.4865C97.5185 8.94413 103.623 2.82334 111.169 2.82334C118.715 2.82334 124.839 8.94413 124.839 16.4865C124.839 24.0289 118.715 30.1497 111.169 30.1497Z" fill="white"/>
<path d="M118.873 12.4586C118.774 12.9522 118.261 13.5051 117.964 13.7223C117.332 14.2356 113.124 16.8024 112.65 17.3947C112.176 17.9871 112.097 18.8558 112.097 19.5271V24.4633H112.749V23.1799C112.749 22.7455 113.006 22.0544 113.519 21.5213C114.389 20.6131 116.404 19.4877 117.707 18.5202C118.814 17.7106 118.873 16.6247 118.873 15.677V12.3007V12.4586Z" fill="white"/>
<path d="M112.097 17.0986C112.572 16.5062 116.898 13.8605 117.53 13.3669C118.142 12.8535 118.873 12.0835 118.873 11.116V5.58752C118.873 6.35756 118.439 6.96964 117.866 7.70018C117.234 8.52945 114.31 10.109 112.868 11.1357C111.426 12.1427 110.932 13.1497 110.932 14.4133V24.5225H111.584V19.2507C111.584 18.5794 111.643 17.7304 112.097 17.138V17.0986Z" fill="white"/>
<path d="M108.818 11.3726C107.495 10.3656 104.788 8.17399 104.472 7.75936C104.156 7.32498 103.465 6.55494 103.465 5.62695V10.7605C103.465 11.4911 103.82 12.8337 105.084 13.7617C106.368 14.6897 108.166 16.052 108.719 16.6049C109.272 17.1577 109.766 18.1252 109.766 19.5271V24.4829H110.398V14.5909C110.398 12.9916 110.102 12.3796 108.798 11.3726H108.818Z" fill="white"/>
<path d="M0.879883 4.89648H8.88042L8.70263 14.6897H8.88042C9.05822 13.7618 9.57183 12.9522 10.0262 12.1427L13.9771 4.89648H22.9456L15.8735 15.8942L23.6962 27.4842H14.1549L10.2632 20.6526C9.78913 19.7838 9.07797 18.9546 8.88042 18.0068H8.70263L8.88042 27.4842H0.879883V4.89648Z" fill="white"/>
<path d="M25.1777 4.89648H30.6695C34.8574 4.89648 37.4452 6.53528 37.4452 11.037C37.4452 12.6561 36.8724 14.512 35.4698 15.4203C38.1366 15.8942 39.3417 18.5992 39.3417 21.087C39.3417 25.5295 36.2205 27.5039 32.1115 27.5039H25.1975V4.89648H25.1777ZM29.583 14.2949H30.1163C32.2893 14.2949 33.3363 13.663 33.3363 11.3332C33.3363 9.00334 32.0128 8.43075 30.1558 8.43075H29.583V14.3146V14.2949ZM29.583 23.9499H30.5114C32.882 23.9499 34.9167 23.6537 34.9167 20.7118C34.9167 17.7699 32.5066 17.6514 30.2941 17.6514H29.583V23.9499Z" fill="white"/>
<path d="M55.56 27.4842H51.4116V26.1415H51.3523C50.4436 27.3065 48.883 27.9778 47.3619 27.9778C43.0555 27.9778 40.5862 24.0486 40.5862 20.0602C40.5862 16.0719 43.0752 12.3007 47.3027 12.3007C48.8238 12.3007 50.3844 12.9522 51.4116 14.1566V12.7745H55.56V27.4842ZM51.8265 20.1195C51.8265 18.145 50.4831 16.0126 48.3102 16.0126C46.1372 16.0126 44.8334 18.145 44.8334 20.1195C44.8334 22.0939 46.1569 24.2461 48.3102 24.2461C50.4634 24.2461 51.8265 22.0939 51.8265 20.1195Z" fill="white"/>
<path d="M62.7704 14.1171H62.8297C63.6989 12.7942 65.1607 12.2809 66.6621 12.2809C70.6129 12.2809 71.7587 15.0649 71.7587 18.4807V27.4644H67.551V19.6653C67.551 17.8883 67.6498 15.6177 65.2792 15.6177C62.9087 15.6177 62.7507 18.4017 62.7507 20.1787V27.4644H58.5627V12.7548H62.7507V14.0974L62.7704 14.1171Z" fill="white"/>
<path d="M78.9689 18.1648H79.0282L83.4334 12.7745H88.8856L82.6828 19.2507L89.3597 27.5039H83.8483L79.0282 21.2449H78.9689V27.5039H74.7612V2.073H78.9689V18.1648Z" fill="white"/>
</svg>
