<svg width="36" height="34" viewBox="0 0 36 34" fill="none" xmlns="http://www.w3.org/2000/svg">
<path d="M24.3679 4.24506C23.2221 3.49477 22.4122 2.3101 22.1554 0.927991C22.0961 0.631823 22.0764 0.315912 22.0764 0H18.4416V14.5714C18.3823 16.2102 17.039 17.5134 15.3796 17.5134C14.866 17.5134 14.3919 17.3949 13.9573 17.158C12.9894 16.6446 12.3177 15.6179 12.3177 14.453C12.3177 12.7747 13.6807 11.3926 15.3796 11.3926C15.6957 11.3926 15.992 11.4518 16.2883 11.5308V7.81882C15.992 7.77933 15.6957 7.75958 15.3796 7.75958C11.6855 7.75958 8.68286 10.7607 8.68286 14.453C8.68286 16.7236 9.80889 18.7178 11.5473 19.9222C12.6338 20.6922 13.9573 21.1266 15.3796 21.1266C19.0737 21.1266 22.0764 18.1254 22.0764 14.4332V7.04878C23.4987 8.07549 25.2568 8.66783 27.1335 8.66783V5.03484C26.126 5.03484 25.1778 4.73868 24.3877 4.22532L24.3679 4.24506Z" fill="white"/>
<path d="M0.879883 25.2335H6.72721L6.19383 26.9118H4.67273V33.1116H2.77632V26.9118H0.879883V25.2335Z" fill="white"/>
<path d="M16.3477 25.2335H22.3332L21.7999 26.9118H20.1405V33.1116H18.2441V26.9118H16.3477V25.2335Z" fill="white"/>
<path d="M8.9792 27.7411H7.10254V33.1116H8.9792V27.7411Z" fill="white"/>
<path d="M9.72998 25.2137H11.6066V28.8862L13.4636 27.0697H15.6958L13.345 29.3601L15.9724 33.1313H13.8981L12.14 30.525L11.5869 31.0581V33.1313H9.71021V25.2335L9.72998 25.2137Z" fill="white"/>
<path d="M28.7929 25.2137H30.6696V28.8862L32.5265 27.0697H34.7588L32.408 29.3601L35.0353 33.1313H32.9611L31.203 30.525L30.6499 31.0581V33.1313H28.7732V25.2335L28.7929 25.2137Z" fill="white"/>
<path d="M8.9792 26.1813C8.9792 26.6946 8.56437 27.129 8.031 27.129C7.49763 27.129 7.08276 26.7144 7.08276 26.1813C7.08276 25.6482 7.49763 25.2335 8.031 25.2335C8.56437 25.2335 8.9792 25.6482 8.9792 26.1813Z" fill="white"/>
<path d="M24.8223 26.6748C23.0444 26.6748 21.6023 28.1162 21.6023 29.8932C21.6023 31.6702 23.0444 33.1115 24.8223 33.1115C26.6002 33.1115 28.0422 31.6702 28.0422 29.8932C28.0422 28.1162 26.6002 26.6748 24.8223 26.6748ZM24.8223 31.453C23.9531 31.453 23.2617 30.7619 23.2617 29.8932C23.2617 29.0244 23.9531 28.3333 24.8223 28.3333C25.6915 28.3333 26.3829 29.0244 26.3829 29.8932C26.3829 30.7619 25.6915 31.453 24.8223 31.453Z" fill="white"/>
</svg>
