<svg width="61" height="22" viewBox="0 0 61 22" fill="none" xmlns="http://www.w3.org/2000/svg">
<path d="M3.3097 11.9152C3.3097 16.18 6.52966 19.4378 10.6781 19.4378C14.8265 19.4378 16.6834 16.8513 16.6834 14.0081V12.9814H10.8559V14.5412H15.0833C15.1031 16.0812 13.7005 17.878 10.6583 17.878C7.31985 17.878 4.98881 15.3902 4.98881 11.8954C4.98881 8.40064 7.49763 5.99181 10.9547 5.99181C13.2067 5.99181 14.9845 6.54466 16.6242 7.68984L16.7229 7.61086V6.14977C15.4982 5.28101 13.4042 4.45174 10.8954 4.45174C6.62843 4.45174 3.28993 7.74907 3.28993 11.8954L3.3097 11.9152ZM0.879883 11.9152C0.879883 17.5621 5.06783 21.7677 10.6781 21.7677C15.7945 21.7677 18.9354 18.5493 18.9354 13.3565V10.691H10.8559V12.2113H17.4736V13.6132C17.4736 17.6805 14.945 20.2276 10.6781 20.2276C5.99629 20.2276 2.5195 16.6538 2.5195 11.9152C2.5195 7.17648 6.17407 3.6817 10.9151 3.6817C13.1671 3.6817 15.2018 4.23455 16.7427 5.30075V3.76068C15.2611 2.69448 13.2857 2.14164 10.9151 2.14164C5.24561 2.14164 0.879883 6.44593 0.879883 11.9152ZM22.2542 13.238V21.3135H23.795V13.2775C23.795 11.4808 24.9803 10.1974 26.7187 10.1974C27.2323 10.1974 27.7064 10.3356 28.2003 10.533C28.4176 10.0394 28.6151 9.62479 28.8719 9.22991C28.3188 8.85476 27.5089 8.63757 26.7384 8.63757C24.0914 8.63757 22.2344 10.5528 22.2344 13.2578L22.2542 13.238ZM19.9824 21.3135H21.5233V13.238C21.5233 10.0592 23.6567 7.88728 26.7779 7.88728C27.8249 7.88728 28.8917 8.22294 29.3658 8.5191C29.6621 8.18345 29.9584 7.8083 30.393 7.47265C29.425 6.80133 28.1213 6.40644 26.6989 6.40644C22.59 6.40644 19.9824 9.17067 19.9824 13.2775V21.3135ZM44.1618 12.2706V14.5412C45.0705 13.317 45.8607 12.2508 46.5916 11.3623C48.4485 9.09169 50.0684 7.82805 52.5772 7.82805C55.975 7.82805 58.4641 10.3948 58.4641 13.9883C58.4641 17.5818 56.0343 20.2078 52.6958 20.2078C49.9697 20.2078 47.6189 18.3519 47.0855 15.8246L45.9792 17.3054C46.8484 19.7932 49.377 21.7479 52.676 21.7479C56.9034 21.7479 60.0246 18.3519 60.0246 13.9883C60.0246 9.62479 56.8837 6.24849 52.597 6.24849C48.3103 6.24849 46.1175 9.56556 44.1816 12.2508L44.1618 12.2706ZM48.9424 13.4355H48.8831L47.6781 15.0743C47.8954 16.95 49.7918 19.4575 52.676 19.4575C55.5601 19.4575 57.7134 17.0882 57.7134 13.9686C57.7134 10.849 55.5404 8.55859 52.5575 8.55859C49.5745 8.55859 47.9744 10.6713 46.8089 12.2508C46.236 13.0011 45.2483 14.245 44.1421 15.7851V18.2926C45.1693 16.7723 46.5521 14.9953 47.5596 13.7711C49.2782 11.698 50.3252 10.1382 52.5179 10.1382C54.7107 10.1382 56.133 11.7769 56.133 13.9686C56.133 16.1602 54.7502 17.9175 52.6562 17.9175C50.4635 17.9175 48.9227 15.9035 48.9227 13.6527V13.4157L48.9424 13.4355ZM47.4016 0.779266V7.2752C47.8757 6.90006 48.3893 6.46568 48.9424 6.24849V0.759521H47.4016V0.779266ZM45.0903 9.66428C45.5644 9.07195 46.078 8.42038 46.6311 7.86754V0.779266H45.0903V9.66428ZM38.8281 17.108H38.8084C38.1565 17.6016 37.0898 17.9175 36.0625 17.9175C33.9686 17.9175 32.408 16.3577 32.408 14.0278C32.408 11.698 33.9488 10.1184 36.023 10.1184C38.2355 10.1184 39.5986 11.7375 39.5986 13.9093V21.3333H41.1394V13.8304C41.1394 10.8095 39.0257 8.57834 36.0428 8.57834C33.0598 8.57834 30.8079 10.7897 30.8079 14.0278C30.8079 17.2659 33.0598 19.5365 36.0428 19.4575C37.1688 19.4378 38.3145 19.0232 38.8479 18.648V17.108H38.8281ZM28.4768 14.0081C28.4768 18.5493 31.6968 21.7677 36.023 21.7677C36.991 21.7677 38.117 21.4715 38.8281 20.9384V19.3983C38.354 19.7932 37.2083 20.2276 36.023 20.2276C32.4672 20.2276 30.0572 17.72 30.0572 14.0081C30.0572 10.2961 32.6253 7.84779 36.023 7.84779C39.4208 7.84779 41.8506 10.3356 41.8506 13.8106V21.3333H43.4112V13.7909C43.4112 9.44709 40.3492 6.26823 36.023 6.26823C31.6968 6.26823 28.4768 9.64454 28.4768 14.0278V14.0081Z" fill="white"/>
</svg>
