<svg width="67" height="25" viewBox="0 0 67 25" fill="none" xmlns="http://www.w3.org/2000/svg">
<path d="M51.3524 12.2451C51.3524 13.2915 50.503 14.1406 49.4758 14.1406C48.4485 14.1406 47.5793 13.2915 47.5793 12.2451C47.5793 11.1986 48.4288 10.3496 49.4758 10.3496C50.5227 10.3496 51.3524 11.1986 51.3524 12.2451Z" fill="white"/>
<path d="M15.8339 0.931396H14.4313C14.2567 0.931396 14.1152 1.07283 14.1152 1.24731V18.346C14.1152 18.5205 14.2567 18.6619 14.4313 18.6619H15.8339C16.0084 18.6619 16.1499 18.5205 16.1499 18.346V1.24731C16.1499 1.07283 16.0084 0.931396 15.8339 0.931396Z" fill="white"/>
<path d="M43.4309 6.04521C42.4431 5.43313 41.2578 5.13696 39.875 5.13696C38.4922 5.13696 37.4058 5.39364 36.3983 5.907C35.8452 6.18342 35.3711 6.53882 35.0352 6.93371V5.80828C35.0352 5.57134 34.8575 5.39364 34.6204 5.39364H33.1981C32.961 5.39364 32.7832 5.57134 32.7832 5.80828V18.267C32.7832 18.504 32.961 18.6817 33.1981 18.6817H34.6204C34.8575 18.6817 35.0352 18.504 35.0352 18.267V11.5342C35.0352 9.95462 35.5093 8.78969 36.3983 7.98017C37.1687 7.26937 38.0972 6.93371 39.2429 6.93371C40.2307 6.93371 41.0603 7.17064 41.7912 7.66426C42.5221 8.13812 42.8185 8.67123 42.8185 9.34254V18.2868C42.8185 18.5237 42.9963 18.7014 43.2333 18.7014H44.7149C44.9519 18.7014 45.1297 18.5237 45.1297 18.2868V8.96739C45.1297 7.76298 44.5173 6.75601 43.4111 6.06495" fill="white"/>
<path d="M63.6593 14.0418C63.6593 15.108 63.2049 15.799 62.2369 16.2926C61.585 16.6085 60.7752 16.7862 59.8072 16.7862H56.2514V10.4483H59.8072C60.9727 10.4483 61.9011 10.7444 62.6715 11.3565C63.3432 11.8699 63.6593 12.5412 63.6593 13.4494V14.0418ZM56.2514 2.78741H59.985C61.4073 2.78741 62.2369 3.1823 62.6715 3.87336C62.9086 4.22876 63.0469 4.84084 63.0469 5.68985C62.8691 6.89426 62.395 7.64455 61.6048 8.09867C61.0122 8.43433 60.0837 8.61203 58.8195 8.61203H56.2711V2.80715L56.2514 2.78741ZM65.1211 10.7049C64.6075 10.0336 63.9556 9.57951 63.2049 9.36232C63.7383 9.0859 64.1729 8.71075 64.5482 8.27638C65.1014 7.58532 65.4372 6.75605 65.536 5.74908V5.3147C65.536 3.91284 65.0421 2.76766 64.0346 2.03712C63.0469 1.30657 61.6838 0.951172 60.0047 0.951172H54.3944C54.0981 0.951172 53.8611 1.18811 53.8611 1.48427V18.1486C53.8611 18.4448 54.0981 18.6817 54.3944 18.6817H60.3603C62.0592 18.6817 63.4025 18.3658 64.4099 17.7142C65.5754 16.9442 66.1681 15.7003 66.1483 14.1207V13.7456C66.1483 12.6004 65.8125 11.5737 65.1408 10.7049" fill="white"/>
<path d="M51.8462 22.7888V24.5658C51.8462 24.7435 51.7474 24.8224 51.5894 24.8224H51.5696C51.3918 24.8224 51.3128 24.7237 51.3128 24.5658V22.7888C51.3128 22.078 51.0362 21.7226 50.5226 21.7226C49.8707 21.7226 49.4558 22.0977 49.4558 22.9665V24.5658C49.4558 24.7435 49.3571 24.8224 49.199 24.8224H49.1793C49.0015 24.8224 48.9225 24.7237 48.9225 24.5658V22.7888C48.9225 22.078 48.6459 21.7226 48.1323 21.7226C47.4804 21.7226 47.0656 22.0977 47.0656 22.9665V24.5658C47.0656 24.7435 46.9668 24.8224 46.8088 24.8224H46.789C46.6112 24.8224 46.5322 24.7237 46.5322 24.5658V21.5054C46.5322 21.3277 46.6309 21.2487 46.789 21.2487H46.8088C46.9865 21.2487 47.0656 21.3474 47.0656 21.5054V21.6831C47.3224 21.3672 47.6977 21.1895 48.1323 21.1895C48.7645 21.1895 49.1595 21.3869 49.3373 21.8805C49.5941 21.4461 50.009 21.1895 50.5424 21.1895C51.4708 21.1895 51.8857 21.6436 51.8857 22.7888H51.8462Z" fill="white"/>
<path d="M51.5895 24.9212H51.5697C51.3524 24.9212 51.2338 24.8027 51.2338 24.5855V22.8085C51.2338 22.1372 50.9968 21.8213 50.5029 21.8213C49.8313 21.8213 49.4955 22.2162 49.4955 22.9862V24.5855C49.4955 24.8027 49.3769 24.9212 49.1596 24.9212H49.1399C48.9226 24.9212 48.8041 24.8027 48.8041 24.5855V22.8085C48.8041 22.1372 48.567 21.8213 48.0732 21.8213C47.4015 21.8213 47.0657 22.2162 47.0657 22.9862V24.5855C47.0657 24.8027 46.9471 24.9212 46.7298 24.9212H46.7101C46.4928 24.9212 46.3743 24.8027 46.3743 24.5855V21.5251C46.3743 21.3079 46.4928 21.1895 46.7101 21.1895H46.7298C46.9471 21.1895 47.0657 21.3079 47.0657 21.5054C47.3422 21.2487 47.6781 21.1302 48.0732 21.1302C48.6856 21.1302 49.0806 21.3277 49.2979 21.7423C49.5745 21.3474 49.9893 21.1302 50.5029 21.1302C51.4907 21.1302 51.9253 21.6436 51.9253 22.8085V24.5855C51.9253 24.8027 51.8068 24.9212 51.5895 24.9212ZM50.5029 21.6633C51.0758 21.6633 51.3721 22.0385 51.3721 22.7888V24.5658C51.3721 24.704 51.4314 24.7435 51.5499 24.7435H51.5697C51.708 24.7435 51.7475 24.6843 51.7475 24.5658V22.7888C51.7475 21.7028 51.3722 21.2685 50.4832 21.2685C49.9894 21.2685 49.5745 21.5054 49.3374 21.92L49.2584 22.0582L49.1991 21.92C49.0213 21.4659 48.6855 21.2685 48.0534 21.2685C47.6386 21.2685 47.283 21.4264 47.0262 21.7226L46.8879 21.8805V21.5054C46.8879 21.3672 46.8286 21.3277 46.7101 21.3277H46.6903C46.5521 21.3277 46.5126 21.3869 46.5126 21.5054V24.5658C46.5126 24.704 46.5718 24.7435 46.6903 24.7435H46.7101C46.8484 24.7435 46.8879 24.6843 46.8879 24.5658V22.9665C46.8879 21.8805 47.52 21.6633 48.0336 21.6633C48.4287 21.6633 48.9028 21.8608 48.9028 22.7888V24.5658C48.9028 24.704 48.9621 24.7435 49.0806 24.7435H49.1004C49.2387 24.7435 49.2782 24.6843 49.2782 24.5658V22.9665C49.2782 21.8805 49.9103 21.6633 50.424 21.6633H50.5029Z" fill="white"/>
<path d="M56.1132 23.1837C56.1132 23.1837 56.0145 23.3219 55.8564 23.3219H52.992C53.1105 23.9142 53.6242 24.4078 54.2563 24.4078C54.5922 24.4078 54.9082 24.2696 55.1255 24.0524C55.2242 23.9537 55.3033 23.9142 55.4416 23.9142H55.5404C55.7577 23.9142 55.8564 24.0524 55.7181 24.2301C55.3823 24.6645 54.8489 24.9409 54.2366 24.9409C53.2093 24.9409 52.3796 24.0722 52.3796 23.0652C52.3796 22.0582 53.2093 21.2092 54.2366 21.2092C55.2638 21.2092 56.0935 22.0385 56.0935 23.0652V23.1837H56.1132ZM52.992 22.7888H55.5206C55.4021 22.1965 54.8885 21.7423 54.2563 21.7423C53.6242 21.7423 53.1105 22.1965 52.992 22.7888Z" fill="white"/>
<path d="M54.2563 25.0001C53.2093 25.0001 52.3203 24.1116 52.3203 23.0454C52.3203 21.9792 53.1895 21.1105 54.2563 21.1105C55.323 21.1105 56.1922 21.9792 56.1922 23.0454V23.1639C56.1922 23.1639 56.1329 23.3613 55.8564 23.3613H53.0907C53.229 23.9142 53.7229 24.2893 54.2563 24.2893C54.5526 24.2893 54.8488 24.1709 55.0661 23.9537C55.1847 23.8352 55.3032 23.7957 55.4415 23.7957H55.5403C55.6786 23.7957 55.7773 23.855 55.8366 23.9339C55.8761 24.0129 55.8564 24.1314 55.7773 24.2301C55.402 24.704 54.8489 24.9804 54.2365 24.9804L54.2563 25.0001ZM54.2563 21.2684C53.2685 21.2684 52.4783 22.0582 52.4783 23.0454C52.4783 24.0327 53.2883 24.8422 54.2563 24.8422C54.8094 24.8422 55.3229 24.5855 55.6785 24.1511C55.718 24.0919 55.7378 24.0524 55.7181 24.0129C55.7181 23.9734 55.639 23.9537 55.56 23.9537H55.4613C55.3427 23.9537 55.2834 23.9932 55.1847 24.0721C54.9279 24.3091 54.6118 24.4473 54.276 24.4473C53.6241 24.4473 53.071 23.9734 52.9327 23.3021V23.2231H55.8564C55.9156 23.2231 56.0342 23.2231 56.0342 23.1639V23.0454C56.0342 22.0582 55.244 21.2684 54.2563 21.2684ZM55.6193 22.8677H52.9129V22.7888C53.071 22.1372 53.6044 21.6831 54.2563 21.6831C54.9082 21.6831 55.4613 22.1372 55.5996 22.7888V22.8677H55.6193ZM53.0907 22.7098H55.4218C55.2637 22.1767 54.8094 21.8015 54.2563 21.8015C53.7031 21.8015 53.229 22.1767 53.0907 22.7098Z" fill="white"/>
<path d="M60.0837 24.8422C59.9059 24.8422 59.8269 24.7434 59.8269 24.5855V24.2696C59.5108 24.6645 59.017 24.9211 58.4836 24.9211C57.4564 24.9211 56.6267 24.0524 56.6267 23.0454C56.6267 22.0384 57.4564 21.1894 58.4836 21.1894C59.0368 21.1894 59.5108 21.4461 59.8269 21.841V20.2614C59.8269 20.0837 59.9257 20.0048 60.0837 20.0048H60.1035C60.2813 20.0048 60.3603 20.1035 60.3603 20.2614V24.5657C60.3603 24.7434 60.2615 24.8224 60.1035 24.8224H60.0837V24.8422ZM59.7874 23.0652C59.7874 22.3346 59.1553 21.7423 58.4441 21.7423C57.733 21.7423 57.1798 22.3346 57.1798 23.0652C57.1798 23.7957 57.733 24.4078 58.4441 24.4078C59.1553 24.4078 59.7874 23.776 59.7874 23.0652Z" fill="white"/>
<path d="M58.464 25.0001C57.417 25.0001 56.5281 24.1116 56.5281 23.0454C56.5281 21.9792 57.3972 21.1105 58.464 21.1105C58.9381 21.1105 59.3925 21.3079 59.7481 21.6436V20.2614C59.7481 20.0442 59.8665 19.9258 60.0838 19.9258H60.1036C60.3209 19.9258 60.4394 20.0442 60.4394 20.2614V24.5657C60.4394 24.7829 60.3209 24.9014 60.1036 24.9014H60.0838C59.8665 24.9014 59.7481 24.7829 59.7481 24.5657V24.4473C59.4122 24.8027 58.9381 24.9804 58.464 24.9804V25.0001ZM58.464 21.2684C57.4762 21.2684 56.6861 22.0582 56.6861 23.0454C56.6861 24.0326 57.496 24.8422 58.464 24.8422C58.9578 24.8422 59.4319 24.6052 59.7678 24.2103L59.9061 24.0524V24.5657C59.9061 24.7039 59.9653 24.7434 60.0838 24.7434H60.1036C60.2419 24.7434 60.2814 24.6842 60.2814 24.5657V20.2614C60.2814 20.1232 60.2221 20.0837 60.1036 20.0837H60.0838C59.9456 20.0837 59.9061 20.143 59.9061 20.2614V22.0384L59.7678 21.8805C59.4319 21.4856 58.9776 21.2684 58.464 21.2684ZM58.464 24.467C57.7133 24.467 57.1207 23.8352 57.1207 23.0652C57.1207 22.2951 57.7133 21.683 58.464 21.683C59.2146 21.683 59.8666 22.3149 59.8666 23.0652C59.8666 23.8154 59.2146 24.467 58.464 24.467ZM58.464 21.8213C57.7923 21.8213 57.259 22.3741 57.259 23.0652C57.259 23.7562 57.7923 24.3288 58.464 24.3288C59.1356 24.3288 59.7283 23.7365 59.7283 23.0652C59.7283 22.3938 59.1554 21.8213 58.464 21.8213Z" fill="white"/>
<path d="M61.0125 20.4391C61.0125 20.2417 61.1903 20.064 61.4076 20.064C61.6051 20.064 61.7829 20.2417 61.7829 20.4391C61.7829 20.6563 61.6051 20.834 61.4076 20.834C61.1903 20.834 61.0125 20.6563 61.0125 20.4391Z" fill="white"/>
<path d="M61.4075 20.8932C61.1507 20.8932 60.9333 20.6958 60.9333 20.4193C60.9333 20.1824 61.1507 19.9652 61.4075 19.9652C61.6643 19.9652 61.8618 20.1824 61.8618 20.4193C61.8618 20.676 61.6643 20.8932 61.4075 20.8932ZM61.4075 20.1232C61.2297 20.1232 61.0914 20.2614 61.0914 20.4193C61.0914 20.597 61.2297 20.7352 61.4075 20.7352C61.5655 20.7352 61.7236 20.597 61.7236 20.4193C61.7236 20.2614 61.5853 20.1232 61.4075 20.1232Z" fill="white"/>
<path d="M61.4469 21.2684H61.3877C61.2458 21.2684 61.1309 21.3834 61.1309 21.5251V24.5855C61.1309 24.7273 61.2458 24.8422 61.3877 24.8422H61.4469C61.5888 24.8422 61.7038 24.7273 61.7038 24.5855V21.5251C61.7038 21.3834 61.5888 21.2684 61.4469 21.2684Z" fill="white"/>
<path d="M61.4271 24.9212H61.3876C61.1703 24.9212 61.0518 24.8027 61.0518 24.5855V21.5251C61.0518 21.3079 61.1703 21.1895 61.3876 21.1895H61.4271C61.6444 21.1895 61.7629 21.3079 61.7629 21.5251V24.5855C61.7629 24.8027 61.6444 24.9212 61.4271 24.9212ZM61.3876 21.3277C61.2493 21.3277 61.2098 21.3869 61.2098 21.5054V24.5658C61.2098 24.704 61.2691 24.7435 61.3876 24.7435H61.4271C61.5654 24.7435 61.6049 24.6842 61.6049 24.5658V21.5054C61.6049 21.3672 61.5456 21.3277 61.4271 21.3277H61.3876Z" fill="white"/>
<path d="M62.2961 23.0652C62.2961 22.0385 63.1258 21.2092 64.1531 21.2092C64.7062 21.2092 65.1803 21.4659 65.4963 21.8608V21.5449C65.4963 21.3672 65.5951 21.2882 65.7532 21.2882H65.7729C65.9507 21.2882 66.0298 21.3869 66.0298 21.5449V24.625C66.0298 24.8027 65.931 24.8817 65.7729 24.8817H65.7532C65.5754 24.8817 65.4963 24.783 65.4963 24.625V24.3091C65.1803 24.704 64.6864 24.9607 64.1531 24.9607C63.1258 24.9607 62.2961 24.0919 62.2961 23.085V23.0652ZM65.4766 23.0652C65.4766 22.3347 64.8445 21.7423 64.1333 21.7423C63.4222 21.7423 62.869 22.3347 62.869 23.0652C62.869 23.7958 63.4222 24.4078 64.1333 24.4078C64.8445 24.4078 65.4766 23.776 65.4766 23.0652Z" fill="white"/>
<path d="M64.1532 25.0001C63.1062 25.0001 62.2173 24.1116 62.2173 23.0454C62.2173 21.9792 63.0864 21.1105 64.1532 21.1105C64.6273 21.1105 65.0816 21.3079 65.4372 21.6436V21.5054C65.4372 21.2882 65.5558 21.1697 65.7731 21.1697H65.7928C66.0101 21.1697 66.1286 21.2882 66.1286 21.5054V24.5855C66.1286 24.8027 66.0101 24.9212 65.7928 24.9212H65.7731C65.5558 24.9212 65.4372 24.8027 65.4372 24.5855V24.4473C65.1014 24.8027 64.6273 24.9804 64.1532 24.9804V25.0001ZM64.1532 21.2684C63.1655 21.2684 62.3753 22.0582 62.3753 23.0454C62.3753 24.0327 63.1852 24.8422 64.1532 24.8422C64.647 24.8422 65.1212 24.6052 65.457 24.2104L65.5953 24.0524V24.5855C65.5953 24.7237 65.6545 24.7632 65.7731 24.7632H65.7928C65.9311 24.7632 65.9706 24.704 65.9706 24.5855V21.5054C65.9706 21.3672 65.9114 21.3277 65.7928 21.3277H65.7731C65.6348 21.3277 65.5953 21.3869 65.5953 21.5054V22.0385L65.457 21.8805C65.1212 21.4856 64.6668 21.2684 64.1532 21.2684ZM64.1335 24.467C63.3828 24.467 62.7901 23.8352 62.7901 23.0652C62.7901 22.2951 63.3828 21.6831 64.1335 21.6831C64.8841 21.6831 65.536 22.3149 65.536 23.0652C65.536 23.8155 64.8841 24.467 64.1335 24.467ZM64.1335 21.8213C63.4618 21.8213 62.9284 22.3741 62.9284 23.0652C62.9284 23.7562 63.4618 24.3288 64.1335 24.3288C64.8051 24.3288 65.3977 23.7365 65.3977 23.0652C65.3977 22.3939 64.8249 21.8213 64.1335 21.8213Z" fill="white"/>
<path d="M12.456 3.79453C12.2584 3.2022 11.9424 2.70858 11.5275 2.29395C11.1127 1.87932 10.5991 1.58315 9.98667 1.36596C9.37429 1.14877 8.64339 1.05005 7.8137 1.05005H2.20343H1.25522C1.03792 1.05005 0.879883 1.22775 0.879883 1.42519V18.129C0.879883 18.4252 1.11693 18.6819 1.433 18.6819H2.59854C2.89485 18.6819 3.15166 18.4449 3.15166 18.129V2.98501H7.12229C8.30755 2.98501 9.19651 3.22194 9.74963 3.71555C10.3028 4.20917 10.5991 4.90022 10.5991 5.82821C10.5991 6.7562 10.3225 7.46701 9.74963 7.96062C9.19651 8.45423 8.30755 8.69116 7.12229 8.67142H4.57398C4.33693 8.67142 4.13938 8.86886 4.13938 9.1058V9.6389V10.172C4.13938 10.4089 4.33693 10.6064 4.57398 10.6064H5.93701H7.85319C8.68288 10.6064 9.4138 10.5077 10.0262 10.2905C10.6386 10.0733 11.1522 9.75737 11.567 9.36248C11.9819 8.94784 12.2979 8.45423 12.4955 7.8619C12.693 7.26956 12.8116 6.59825 12.8116 5.84796C12.8116 5.09767 12.7128 4.40661 12.4955 3.81428L12.456 3.79453Z" fill="white"/>
<path d="M30.9855 12.0082C30.9855 8.03952 27.5286 4.86066 23.4591 5.31478C20.3577 5.65044 17.8686 8.15799 17.5328 11.2381C17.0785 15.3055 20.2589 18.7608 24.2296 18.7608C25.4741 18.7608 26.6199 18.4251 27.6273 17.8328C27.7261 17.7736 27.7853 17.6748 27.7853 17.5564V15.5819C27.7853 15.3647 27.5285 15.2463 27.3507 15.3845C26.4025 16.2532 25.0988 16.7468 23.6764 16.5691C21.5825 16.3322 19.8836 14.6144 19.6465 12.5018C19.3305 9.61908 21.701 7.17076 24.5851 7.4077C26.9162 7.5854 28.8323 9.75729 28.8323 12.1069V18.2277C28.8323 18.4646 29.0299 18.6621 29.2669 18.6621H30.5312C30.7683 18.6621 30.9658 18.4646 30.9658 18.2277V12.0082H30.9855Z" fill="white"/>
</svg>
