<svg width="27" height="24" viewBox="0 0 27 24" fill="none" xmlns="http://www.w3.org/2000/svg">
<mask id="mask0_6159_336" style="mask-type:luminance" maskUnits="userSpaceOnUse" x="0" y="0" width="27" height="24">
<path d="M26.7689 0H0.230957V24H26.7689V0Z" fill="white"/>
</mask>
<g mask="url(#mask0_6159_336)">
<path d="M-2.08769 6.99325C-4.38449 5.66739 -5.17163 2.72995 -3.84578 0.434056C-2.51993 -1.86275 0.417508 -2.64989 2.71432 -1.32404C5.01112 0.00181389 5.79826 2.93925 4.47241 5.23606C3.58335 6.77667 1.96904 7.63752 0.309219 7.63752C-0.505219 7.63752 -1.33149 7.43004 -2.08678 6.99325H-2.08769ZM3.20389 -2.17124C0.90708 -3.49709 0.119942 -6.43453 1.4467 -8.73133C2.77255 -11.0281 5.70999 -11.8153 8.00589 -10.4885C10.3027 -9.16267 11.0898 -6.22523 9.76398 -3.92842C8.87493 -2.38781 7.26061 -1.52697 5.60079 -1.52697C4.78636 -1.52697 3.96009 -1.73444 3.2048 -2.17124H3.20389Z" fill="#0C0C0C"/>
<path d="M1.44579 32.7304C0.119942 30.4336 0.90617 27.4971 3.20298 26.1712C5.49979 24.8454 8.43631 25.6325 9.76307 27.9284C11.0889 30.2252 10.3018 33.1617 8.00498 34.4885C7.24878 34.9253 6.42342 35.1328 5.60898 35.1328C3.94917 35.1328 2.33485 34.271 1.44579 32.7313V32.7304ZM-3.84578 23.565C-5.17163 21.2682 -4.38449 18.3317 -2.08769 17.0058C0.20912 15.68 3.14565 16.4662 4.4715 18.763C5.79735 21.0598 5.01021 23.9963 2.71432 25.3231C1.95812 25.7599 1.13276 25.9674 0.318319 25.9674C-1.3415 25.9674 -2.95581 25.1056 -3.84487 23.5659L-3.84578 23.565Z" fill="#0C0C0C"/>
<path d="M26.9527 1.69168C26.9527 0.697062 27.7589 -0.108276 28.7526 -0.108276C29.7472 -0.108276 30.5526 0.697972 30.5526 1.69168C30.5526 2.68629 29.7463 3.49163 28.7526 3.49163C27.758 3.49163 26.9527 2.68538 26.9527 1.69168ZM22.9851 1.69168C22.9851 0.697062 23.7914 -0.108276 24.7851 -0.108276C25.7797 -0.108276 26.585 0.697972 26.585 1.69168C26.585 2.68629 25.7788 3.49163 24.7851 3.49163C23.7904 3.49163 22.9851 2.68538 22.9851 1.69168Z" fill="#0C0C0C"/>
<path d="M20.8184 3.49161C20.7893 3.49161 20.7593 3.49161 20.7293 3.48979C20.7001 3.48797 20.6701 3.48615 20.641 3.48342C20.6119 3.48069 20.5828 3.47705 20.5536 3.4725C20.5245 3.46795 20.4954 3.4634 20.4663 3.45703C20.4381 3.45066 20.4089 3.44429 20.3807 3.43701C20.3525 3.42973 20.3234 3.42154 20.2961 3.41335C20.2679 3.40516 20.2397 3.39515 20.2124 3.38605C20.1851 3.37604 20.1578 3.36512 20.1305 3.3542C20.1032 3.34328 20.0759 3.33054 20.0504 3.31871C20.024 3.30597 19.9976 3.29323 19.9712 3.27867C19.9458 3.26502 19.9194 3.25046 19.8948 3.2359C19.8693 3.22043 19.8448 3.20496 19.8202 3.18858C19.7956 3.1722 19.771 3.15491 19.7474 3.13762C19.7237 3.12033 19.7001 3.10214 19.6773 3.08303C19.6546 3.06483 19.6318 3.04481 19.61 3.02479C19.5881 3.00477 19.5663 2.98475 19.5454 2.96382C19.5244 2.94289 19.5044 2.92105 19.4844 2.89921C19.4644 2.87737 19.4453 2.85462 19.4262 2.83187C19.408 2.80912 19.3898 2.78546 19.3716 2.7618C19.3543 2.73814 19.337 2.71357 19.3206 2.689C19.3042 2.66443 19.2888 2.63986 19.2733 2.61438C19.2587 2.5889 19.2442 2.56342 19.2305 2.53703C19.2169 2.51155 19.2032 2.48516 19.1905 2.45877C19.1777 2.43239 19.1659 2.40509 19.155 2.3787C19.1441 2.3514 19.1331 2.3241 19.1231 2.2968C19.1131 2.2695 19.104 2.24129 19.0958 2.21308C19.0867 2.18487 19.0795 2.15666 19.0722 2.12845C19.0649 2.10024 19.0585 2.07112 19.0522 2.04291C19.0467 2.01379 19.0412 1.98467 19.0367 1.95555C19.0321 1.92643 19.0285 1.89731 19.0258 1.86819C19.023 1.83907 19.0203 1.80904 19.0194 1.77993C19.0176 1.75081 19.0176 1.72078 19.0176 1.69166C19.0176 1.66254 19.0176 1.63251 19.0194 1.60248C19.0212 1.57245 19.023 1.54333 19.0258 1.51421C19.0285 1.48509 19.0321 1.45597 19.0367 1.42685C19.0412 1.39773 19.0458 1.36861 19.0522 1.33949C19.0576 1.31128 19.0649 1.28216 19.0722 1.25395C19.0795 1.22574 19.0867 1.19662 19.0958 1.16932C19.104 1.14111 19.114 1.1129 19.1231 1.0856C19.1331 1.05831 19.1441 1.0301 19.155 1.00371C19.1659 0.976407 19.1786 0.949107 19.1905 0.923627C19.2032 0.897237 19.216 0.870848 19.2305 0.845368C19.2442 0.818978 19.2587 0.793498 19.2733 0.768019C19.2888 0.742539 19.3042 0.71797 19.3206 0.6934C19.337 0.668831 19.3543 0.644261 19.3716 0.620601C19.3889 0.596942 19.4071 0.573281 19.4262 0.550532C19.4444 0.527782 19.4644 0.505033 19.4844 0.483194C19.5044 0.461354 19.5244 0.439514 19.5454 0.418584C19.5663 0.397654 19.5881 0.377635 19.61 0.357615C19.6318 0.337595 19.6546 0.318486 19.6773 0.299376C19.7001 0.281176 19.7237 0.262976 19.7474 0.244776C19.771 0.227486 19.7956 0.210197 19.8202 0.193817C19.8448 0.177437 19.8693 0.161967 19.8948 0.146497C19.9194 0.131937 19.9458 0.116468 19.9712 0.102818C19.9967 0.0891684 20.024 0.0755193 20.0504 0.0636895C20.0768 0.0509496 20.1041 0.0391199 20.1305 0.0282C20.1578 0.0172802 20.1851 0.00635978 20.2124 -0.00365008C20.2397 -0.0136599 20.2679 -0.0227601 20.2961 -0.03095C20.3243 -0.0391399 20.3525 -0.0473292 20.3807 -0.0546091C20.4089 -0.061889 20.4381 -0.0682591 20.4663 -0.074629C20.4954 -0.0800889 20.5245 -0.0855487 20.5536 -0.0900986C20.5828 -0.0946485 20.6119 -0.0982894 20.641 -0.101019C20.6701 -0.103749 20.7001 -0.106479 20.7293 -0.107389C20.7884 -0.110119 20.8476 -0.110119 20.9067 -0.107389C20.9358 -0.105569 20.9659 -0.103749 20.995 -0.101019C21.0241 -0.0982894 21.0532 -0.0946485 21.0823 -0.0900986C21.1115 -0.0855487 21.1406 -0.0809989 21.1697 -0.074629C21.1979 -0.0682591 21.227 -0.061889 21.2552 -0.0546091C21.2834 -0.0473292 21.3126 -0.0391399 21.3399 -0.03095C21.3681 -0.0227601 21.3963 -0.0127499 21.4236 -0.00365008C21.4509 0.00635978 21.4791 0.0172802 21.5055 0.0282C21.5328 0.0391199 21.5601 0.0518596 21.5856 0.0636895C21.612 0.0764293 21.6383 0.0891684 21.6638 0.102818C21.6893 0.116468 21.7157 0.131027 21.7412 0.146497C21.7667 0.161057 21.7912 0.177437 21.8158 0.193817C21.8404 0.210197 21.8649 0.227486 21.8886 0.244776C21.9122 0.262066 21.9359 0.280266 21.9587 0.299376C21.9814 0.318486 22.0042 0.337595 22.026 0.357615C22.0478 0.377635 22.0697 0.398564 22.0906 0.418584C22.1115 0.439514 22.1316 0.461354 22.1516 0.483194C22.1716 0.505033 22.1907 0.526872 22.2098 0.550532C22.228 0.573281 22.2462 0.596942 22.2644 0.620601C22.2817 0.644261 22.299 0.668831 22.3154 0.6934C22.3318 0.71797 22.3472 0.742539 22.3627 0.768019C22.3782 0.792588 22.3927 0.818978 22.4064 0.845368C22.42 0.870848 22.4337 0.897237 22.4455 0.923627C22.4582 0.950017 22.4701 0.977317 22.481 1.00371C22.4919 1.03101 22.5028 1.05831 22.5128 1.0856C22.5228 1.1129 22.532 1.14111 22.5401 1.16932C22.5483 1.19753 22.5565 1.22574 22.5638 1.25395C22.5711 1.28216 22.5774 1.31128 22.5838 1.33949C22.5893 1.36861 22.5947 1.39773 22.5993 1.42685C22.6038 1.45597 22.6075 1.48509 22.6102 1.51421C22.6129 1.54333 22.6157 1.57336 22.6166 1.60248C22.6175 1.6316 22.6184 1.66163 22.6184 1.69166C22.6184 1.72169 22.6184 1.75081 22.6166 1.77993C22.6148 1.80904 22.6129 1.83907 22.6102 1.86819C22.6075 1.89731 22.6038 1.92643 22.5993 1.95555C22.5947 1.98467 22.5902 2.01379 22.5838 2.04291C22.5774 2.07112 22.5711 2.10024 22.5638 2.12845C22.5565 2.15666 22.5483 2.18578 22.5401 2.21308C22.532 2.24129 22.5219 2.2695 22.5128 2.2968C22.5028 2.3241 22.4919 2.35231 22.481 2.3787C22.4701 2.406 22.4573 2.4333 22.4455 2.45877C22.4328 2.48516 22.42 2.51155 22.4064 2.53703C22.3927 2.56342 22.3782 2.5889 22.3627 2.61438C22.3481 2.63986 22.3318 2.66443 22.3154 2.689C22.299 2.71357 22.2817 2.73814 22.2644 2.7618C22.2471 2.78546 22.2289 2.80912 22.2098 2.83187C22.1907 2.85462 22.1716 2.87737 22.1516 2.89921C22.1316 2.92105 22.1115 2.94289 22.0906 2.96382C22.0697 2.98475 22.0478 3.00477 22.026 3.02479C22.0042 3.04481 21.9814 3.06392 21.9587 3.08303C21.9359 3.10123 21.9122 3.11942 21.8886 3.13762C21.8649 3.15491 21.8404 3.1722 21.8158 3.18858C21.7912 3.20496 21.7667 3.22043 21.7412 3.2359C21.7157 3.25046 21.6902 3.26502 21.6638 3.27867C21.6383 3.29232 21.612 3.30597 21.5856 3.31871C21.5592 3.33145 21.5319 3.34328 21.5055 3.3542C21.4782 3.36512 21.4509 3.37604 21.4236 3.38605C21.3963 3.39606 21.3681 3.40516 21.3399 3.41335C21.3117 3.42154 21.2834 3.42973 21.2552 3.43701C21.227 3.44429 21.1979 3.45066 21.1697 3.45703C21.1406 3.46249 21.1115 3.46795 21.0823 3.4725C21.0532 3.47705 21.0241 3.48069 20.995 3.48342C20.9659 3.48615 20.9358 3.48888 20.9067 3.48979C20.8776 3.4907 20.8476 3.49161 20.8175 3.49161H20.8184Z" fill="#0C0C0C"/>
<path d="M15.95 10.1227C15.0891 9.62584 14.7943 8.52475 15.2912 7.663C15.788 6.80215 16.8891 6.50731 17.7499 7.00417C18.6108 7.50102 18.9065 8.6021 18.4088 9.46295C18.0757 10.0408 17.4706 10.3638 16.8481 10.3638C16.5433 10.3638 16.233 10.2856 15.95 10.1227ZM17.9338 6.68658C17.0729 6.18973 16.7781 5.08864 17.2749 4.2278C17.7718 3.36695 18.8729 3.0712 19.7346 3.56897C20.5955 4.06582 20.8903 5.1669 20.3935 6.02866C20.0595 6.6065 19.4553 6.92864 18.8328 6.92864C18.528 6.92864 18.2177 6.85129 17.9347 6.68749L17.9338 6.68658Z" fill="#0C0C0C"/>
<path d="M14.8671 13.7999C14.838 13.7999 14.808 13.8 14.778 13.7981C14.7488 13.7963 14.7188 13.7945 14.6897 13.7918C14.6606 13.789 14.6305 13.7854 14.6023 13.7808C14.5732 13.7763 14.5441 13.7717 14.515 13.7654C14.4868 13.759 14.4567 13.7526 14.4285 13.7454C14.4003 13.7381 14.3721 13.7299 14.3439 13.7217C14.3157 13.7135 14.2875 13.7035 14.2602 13.6944C14.2329 13.6844 14.2047 13.6735 14.1783 13.6625C14.151 13.6516 14.1237 13.6389 14.0973 13.6271C14.0709 13.6143 14.0445 13.6016 14.019 13.5879C13.9936 13.5743 13.9672 13.5597 13.9426 13.5442C13.9171 13.5297 13.8925 13.5133 13.868 13.4969C13.8434 13.4805 13.8188 13.4633 13.7961 13.446C13.7724 13.4287 13.7488 13.4105 13.726 13.3914C13.7033 13.3723 13.6805 13.3531 13.6587 13.3331C13.6368 13.3131 13.615 13.2922 13.5941 13.2722C13.5731 13.2512 13.5522 13.2294 13.5331 13.2075C13.5131 13.1857 13.494 13.1639 13.4749 13.1402C13.4567 13.1175 13.4375 13.0938 13.4203 13.0701C13.403 13.0465 13.3857 13.0219 13.3693 12.9973C13.3529 12.9728 13.3374 12.9482 13.322 12.9227C13.3065 12.8972 13.2929 12.8718 13.2783 12.8463C13.2647 12.8208 13.251 12.7944 13.2392 12.7671C13.2264 12.7407 13.2146 12.7134 13.2037 12.687C13.1928 12.6597 13.1818 12.6324 13.1718 12.6051C13.1618 12.5778 13.1527 12.5496 13.1436 12.5214C13.1354 12.4932 13.1272 12.465 13.12 12.4368C13.1127 12.4086 13.1063 12.3795 13.0999 12.3512C13.0936 12.3221 13.089 12.293 13.0845 12.2639C13.0799 12.2348 13.0763 12.2057 13.0736 12.1765C13.0708 12.1474 13.0681 12.1174 13.0672 12.0883C13.0654 12.0591 13.0645 12.0291 13.0645 11.9991C13.0645 11.9691 13.0645 11.9399 13.0672 11.9099C13.069 11.8808 13.0708 11.8508 13.0736 11.8216C13.0763 11.7925 13.0799 11.7634 13.0845 11.7343C13.089 11.7052 13.0936 11.676 13.0999 11.6469C13.1054 11.6187 13.1127 11.5896 13.12 11.5614C13.1272 11.5332 13.1345 11.5041 13.1436 11.4768C13.1518 11.4485 13.1618 11.4203 13.1718 11.393C13.1818 11.3657 13.1919 11.3384 13.2037 11.3111C13.2146 11.2838 13.2273 11.2565 13.2392 11.2311C13.2519 11.2047 13.2647 11.1783 13.2783 11.1519C13.292 11.1264 13.3065 11.1 13.322 11.0754C13.3365 11.05 13.3529 11.0254 13.3693 11.0008C13.3857 10.9763 13.403 10.9517 13.4203 10.928C13.4375 10.9044 13.4557 10.8807 13.4749 10.858C13.4931 10.8352 13.5131 10.8125 13.5331 10.7906C13.5531 10.7688 13.5731 10.7469 13.5941 10.726C13.615 10.7051 13.6368 10.6842 13.6587 10.665C13.6805 10.645 13.7033 10.6259 13.726 10.6068C13.7488 10.5886 13.7724 10.5704 13.7961 10.5522C13.8197 10.5349 13.8443 10.5176 13.868 10.5012C13.8925 10.4849 13.9171 10.4694 13.9426 10.4539C13.9681 10.4394 13.9936 10.4248 14.019 10.4102C14.0445 10.3966 14.0718 10.3839 14.0973 10.3711C14.1237 10.3584 14.151 10.3465 14.1783 10.3356C14.2047 10.3247 14.2329 10.3138 14.2602 10.3038C14.2875 10.2938 14.3157 10.2847 14.3439 10.2756C14.3721 10.2674 14.4003 10.2592 14.4285 10.2519C14.4567 10.2446 14.4859 10.2383 14.515 10.2319C14.5432 10.2264 14.5732 10.221 14.6023 10.2164C14.6315 10.2119 14.6606 10.2082 14.6897 10.2055C14.7188 10.2028 14.7488 10.2 14.778 10.1991C14.8371 10.1964 14.8963 10.1964 14.9554 10.1991C14.9845 10.2009 15.0146 10.2028 15.0437 10.2055C15.0728 10.2082 15.1028 10.2119 15.131 10.2164C15.1602 10.221 15.1893 10.2255 15.2184 10.2319C15.2466 10.2374 15.2766 10.2446 15.3048 10.2519C15.3331 10.2592 15.3613 10.2665 15.3895 10.2756C15.4177 10.2838 15.4459 10.2938 15.4732 10.3038C15.5005 10.3138 15.5287 10.3247 15.5551 10.3356C15.5815 10.3465 15.6088 10.3593 15.6352 10.3711C15.6616 10.3839 15.6879 10.3966 15.7134 10.4102C15.7389 10.4239 15.7653 10.4385 15.7908 10.4539C15.8163 10.4694 15.8408 10.4849 15.8654 10.5012C15.89 10.5176 15.9145 10.5349 15.9373 10.5522C15.9609 10.5695 15.9846 10.5877 16.0074 10.6068C16.0301 10.625 16.0529 10.645 16.0747 10.665C16.0965 10.6851 16.1184 10.7051 16.1393 10.726C16.1602 10.7469 16.1812 10.7679 16.2003 10.7906C16.2203 10.8125 16.2394 10.8352 16.2585 10.858C16.2767 10.8807 16.2958 10.9044 16.3131 10.928C16.3304 10.9517 16.3477 10.9763 16.3641 11.0008C16.3804 11.0254 16.3959 11.05 16.4114 11.0754C16.4259 11.1 16.4414 11.1264 16.4551 11.1519C16.4687 11.1774 16.4824 11.2047 16.4942 11.2311C16.5069 11.2574 16.5188 11.2847 16.5297 11.3111C16.5406 11.3384 16.5515 11.3657 16.5615 11.393C16.5715 11.4203 16.5806 11.4485 16.5897 11.4768C16.5979 11.505 16.6061 11.5332 16.6134 11.5614C16.6207 11.5896 16.6271 11.6187 16.6325 11.6469C16.6389 11.676 16.6434 11.7052 16.648 11.7343C16.6525 11.7634 16.6562 11.7925 16.6589 11.8216C16.6616 11.8508 16.6644 11.8808 16.6653 11.9099C16.6671 11.9399 16.668 11.9691 16.668 11.9991C16.668 12.0291 16.668 12.0582 16.6653 12.0883C16.6644 12.1174 16.6616 12.1474 16.6589 12.1765C16.6562 12.2057 16.6525 12.2348 16.648 12.2639C16.6434 12.293 16.6389 12.3221 16.6325 12.3512C16.6271 12.3795 16.6198 12.4086 16.6134 12.4368C16.6061 12.465 16.5979 12.4941 16.5897 12.5214C16.5816 12.5496 16.5715 12.5778 16.5615 12.6051C16.5515 12.6324 16.5415 12.6606 16.5297 12.687C16.5188 12.7143 16.506 12.7416 16.4942 12.7671C16.4815 12.7935 16.4687 12.8199 16.4551 12.8463C16.4414 12.8727 16.4269 12.8982 16.4114 12.9227C16.3959 12.9473 16.3804 12.9728 16.3641 12.9973C16.3477 13.0219 16.3304 13.0465 16.3131 13.0701C16.2958 13.0938 16.2776 13.1175 16.2585 13.1402C16.2403 13.163 16.2203 13.1857 16.2003 13.2075C16.1802 13.2294 16.1602 13.2512 16.1393 13.2722C16.1184 13.2931 16.0965 13.3131 16.0747 13.3331C16.0529 13.3531 16.0301 13.3723 16.0074 13.3914C15.9846 13.4096 15.9609 13.4278 15.9373 13.446C15.9136 13.4633 15.89 13.4805 15.8654 13.4969C15.8408 13.5133 15.8163 13.5288 15.7908 13.5442C15.7653 13.5588 15.7398 13.5743 15.7134 13.5879C15.6879 13.6016 15.6606 13.6152 15.6352 13.6271C15.6088 13.6398 15.5815 13.6516 15.5551 13.6625C15.5278 13.6735 15.5005 13.6844 15.4732 13.6944C15.4459 13.7044 15.4177 13.7135 15.3895 13.7217C15.3613 13.7299 15.3331 13.7381 15.3048 13.7454C15.2766 13.7526 15.2475 13.759 15.2184 13.7654C15.1902 13.7708 15.1602 13.7763 15.131 13.7808C15.1019 13.7854 15.0728 13.789 15.0437 13.7918C15.0146 13.7945 14.9845 13.7972 14.9554 13.7981C14.9263 13.799 14.8963 13.7999 14.8662 13.7999H14.8671Z" fill="#0C0C0C"/>
<path d="M17.2749 19.7722C16.7781 18.9114 17.0729 17.8103 17.9338 17.3125C18.7946 16.8157 19.8957 17.1105 20.3935 17.9713C20.8903 18.8322 20.5955 19.9333 19.7346 20.431C19.4507 20.5948 19.1413 20.6722 18.8365 20.6722C18.214 20.6722 17.6089 20.3491 17.2758 19.7713L17.2749 19.7722ZM15.2912 16.3361C14.7943 15.4752 15.0891 14.3742 15.95 13.8773C16.8108 13.3805 17.9119 13.6753 18.4097 14.5361C18.9065 15.397 18.6117 16.4981 17.7509 16.9949C17.4669 17.1587 17.1575 17.2361 16.8527 17.2361C16.2303 17.2361 15.6251 16.913 15.2921 16.3352L15.2912 16.3361Z" fill="#0C0C0C"/>
<path d="M20.8186 24.1083C20.7894 24.1083 20.7594 24.1083 20.7294 24.1056C20.7003 24.1047 20.6702 24.1019 20.6411 24.0992C20.612 24.0965 20.5829 24.0928 20.5537 24.0883C20.5246 24.0837 20.4955 24.0792 20.4664 24.0728C20.4382 24.0664 20.4091 24.0601 20.3808 24.0528C20.3526 24.0455 20.3235 24.0373 20.2962 24.0291C20.268 24.0209 20.2398 24.0109 20.2125 24.0018C20.1852 23.9918 20.1579 23.9809 20.1306 23.97C20.1033 23.9591 20.076 23.9463 20.0505 23.9345C20.0241 23.9218 19.9977 23.909 19.9714 23.8954C19.9459 23.8817 19.9195 23.8672 19.8949 23.8517C19.8694 23.8371 19.8449 23.8207 19.8203 23.8044C19.7957 23.788 19.7712 23.7707 19.7475 23.7534C19.7238 23.7361 19.7002 23.7179 19.6774 23.6988C19.6547 23.6797 19.6319 23.6606 19.6101 23.6406C19.5883 23.6205 19.5664 23.5996 19.5455 23.5796C19.5246 23.5587 19.5045 23.5368 19.4845 23.515C19.4645 23.4931 19.4454 23.4704 19.4263 23.4476C19.4081 23.4249 19.3899 23.4012 19.3717 23.3776C19.3544 23.3539 19.3371 23.3303 19.3207 23.3057C19.3043 23.2811 19.2889 23.2566 19.2734 23.2311C19.2588 23.2056 19.2443 23.1801 19.2297 23.1546C19.2161 23.1292 19.2033 23.1019 19.1906 23.0764C19.1778 23.05 19.166 23.0227 19.1551 22.9963C19.1442 22.969 19.1333 22.9417 19.1232 22.9144C19.1132 22.8871 19.1041 22.8589 19.095 22.8307C19.0868 22.8025 19.0787 22.7743 19.0714 22.746C19.0641 22.7178 19.0577 22.6887 19.0514 22.6596C19.0459 22.6314 19.0404 22.6023 19.0359 22.5722C19.0313 22.5431 19.0277 22.514 19.025 22.4849C19.0222 22.4558 19.0195 22.4257 19.0186 22.3966C19.0177 22.3675 19.0159 22.3375 19.0159 22.3074C19.0159 22.2774 19.0159 22.2483 19.0186 22.2183C19.0204 22.1891 19.0222 22.1591 19.025 22.13C19.0277 22.1009 19.0313 22.0717 19.0359 22.0426C19.0404 22.0135 19.045 21.9844 19.0514 21.9553C19.0568 21.9271 19.0641 21.8979 19.0714 21.8697C19.0787 21.8415 19.0859 21.8124 19.095 21.7842C19.1041 21.756 19.1132 21.7278 19.1232 21.7005C19.1333 21.6732 19.1442 21.645 19.1551 21.6186C19.166 21.5913 19.1788 21.564 19.1906 21.5376C19.2033 21.5112 19.2161 21.4848 19.2297 21.4593C19.2434 21.4338 19.2579 21.4075 19.2734 21.3829C19.2889 21.3574 19.3043 21.3328 19.3207 21.3083C19.3371 21.2837 19.3544 21.2591 19.3717 21.2364C19.389 21.2127 19.4072 21.1891 19.4263 21.1663C19.4445 21.1436 19.4645 21.1208 19.4845 21.099C19.5045 21.0771 19.5246 21.0553 19.5455 21.0344C19.5664 21.0134 19.5883 20.9925 19.6101 20.9734C19.6319 20.9534 19.6547 20.9343 19.6774 20.9152C19.7002 20.897 19.7238 20.8778 19.7475 20.8606C19.7712 20.8433 19.7957 20.826 19.8203 20.8096C19.8449 20.7932 19.8694 20.7777 19.8949 20.7623C19.9195 20.7477 19.9459 20.7332 19.9714 20.7186C19.9968 20.7049 20.0241 20.6922 20.0505 20.6795C20.0769 20.6667 20.1042 20.6549 20.1306 20.644C20.1579 20.6331 20.1852 20.6221 20.2125 20.6121C20.2398 20.6021 20.268 20.593 20.2962 20.5839C20.3244 20.5757 20.3526 20.5675 20.3808 20.5603C20.4091 20.553 20.4382 20.5466 20.4664 20.5402C20.4955 20.5339 20.5246 20.5293 20.5537 20.5248C20.5829 20.5202 20.612 20.5166 20.6411 20.5139C20.6702 20.5111 20.7003 20.5084 20.7294 20.5075C20.7885 20.5047 20.8477 20.5047 20.9068 20.5075C20.9359 20.5093 20.966 20.5111 20.9951 20.5139C21.0242 20.5166 21.0542 20.5202 21.0834 20.5248C21.1125 20.5293 21.1416 20.5339 21.1707 20.5402C21.1989 20.5457 21.228 20.553 21.2563 20.5603C21.2845 20.5675 21.3136 20.5748 21.3409 20.5839C21.3691 20.5921 21.3973 20.6021 21.4246 20.6121C21.4519 20.6221 21.4801 20.6321 21.5065 20.644C21.5338 20.6549 21.5611 20.6676 21.5866 20.6795C21.613 20.6922 21.6394 20.7049 21.6648 20.7186C21.6903 20.7322 21.7167 20.7468 21.7422 20.7623C21.7677 20.7768 21.7922 20.7932 21.8168 20.8096C21.8414 20.826 21.8659 20.8433 21.8896 20.8606C21.9133 20.8778 21.9369 20.896 21.9597 20.9152C21.9824 20.9334 22.0052 20.9534 22.027 20.9734C22.0489 20.9934 22.0707 21.0134 22.0916 21.0344C22.1126 21.0553 22.1326 21.0771 22.1526 21.099C22.1726 21.1208 22.1917 21.1436 22.2108 21.1663C22.229 21.1891 22.2472 21.2127 22.2654 21.2364C22.2827 21.26 22.3 21.2846 22.3164 21.3083C22.3328 21.3328 22.3482 21.3574 22.3637 21.3829C22.3783 21.4084 22.3937 21.4338 22.4074 21.4593C22.421 21.4848 22.4347 21.5121 22.4465 21.5376C22.4593 21.564 22.4711 21.5913 22.482 21.6186C22.4929 21.645 22.5039 21.6732 22.5139 21.7005C22.5239 21.7278 22.533 21.756 22.5412 21.7842C22.5493 21.8124 22.5575 21.8406 22.5648 21.8697C22.5721 21.8979 22.5785 21.9271 22.5848 21.9553C22.5903 21.9835 22.5958 22.0135 22.6003 22.0426C22.6049 22.0717 22.6085 22.1009 22.6112 22.13C22.614 22.1591 22.6167 22.1891 22.6176 22.2183C22.6185 22.2483 22.6194 22.2774 22.6194 22.3074C22.6194 22.3375 22.6194 22.3666 22.6176 22.3966C22.6158 22.4257 22.614 22.4558 22.6112 22.4849C22.6085 22.514 22.6049 22.544 22.6003 22.5722C22.5958 22.6014 22.5912 22.6305 22.5848 22.6596C22.5785 22.6887 22.5721 22.7178 22.5648 22.746C22.5575 22.7743 22.5493 22.8025 22.5412 22.8307C22.533 22.8589 22.523 22.8871 22.5139 22.9144C22.5039 22.9417 22.4929 22.9699 22.482 22.9963C22.4711 23.0227 22.4584 23.05 22.4465 23.0764C22.4338 23.1028 22.421 23.1292 22.4074 23.1546C22.3937 23.1801 22.3792 23.2065 22.3637 23.2311C22.3492 23.2566 22.3328 23.2811 22.3164 23.3057C22.3 23.3303 22.2827 23.3548 22.2654 23.3776C22.2481 23.4012 22.2299 23.4249 22.2108 23.4476C22.1917 23.4704 22.1726 23.4931 22.1526 23.515C22.1326 23.5368 22.1116 23.5587 22.0916 23.5796C22.0707 23.6005 22.0489 23.6205 22.027 23.6406C22.0052 23.6606 21.9833 23.6797 21.9597 23.6988C21.9369 23.717 21.9133 23.7352 21.8896 23.7534C21.8659 23.7707 21.8414 23.788 21.8168 23.8044C21.7922 23.8207 21.7677 23.8362 21.7422 23.8517C21.7167 23.8662 21.6912 23.8817 21.6648 23.8954C21.6394 23.909 21.613 23.9227 21.5866 23.9345C21.5602 23.9472 21.5329 23.9591 21.5065 23.97C21.4792 23.9809 21.4519 23.9918 21.4246 24.0018C21.3973 24.0118 21.3691 24.0209 21.3409 24.0291C21.3127 24.0373 21.2845 24.0455 21.2563 24.0528C21.228 24.0601 21.1989 24.0664 21.1707 24.0728C21.1416 24.0783 21.1125 24.0837 21.0834 24.0883C21.0542 24.0928 21.0251 24.0965 20.9951 24.0992C20.966 24.1019 20.9359 24.1047 20.9068 24.1056C20.8777 24.1074 20.8477 24.1083 20.8176 24.1083H20.8186Z" fill="#0C0C0C"/>
<path d="M26.9527 22.3074C26.9527 21.3128 27.7589 20.5075 28.7526 20.5075C29.7472 20.5075 30.5526 21.3137 30.5526 22.3074C30.5526 23.302 29.7463 24.1074 28.7526 24.1074C27.758 24.1074 26.9527 23.3011 26.9527 22.3074ZM22.9851 22.3074C22.9851 21.3128 23.7914 20.5075 24.7851 20.5075C25.7797 20.5075 26.585 21.3137 26.585 22.3074C26.585 23.302 25.7788 24.1074 24.7851 24.1074C23.7904 24.1074 22.9851 23.3011 22.9851 22.3074Z" fill="#0C0C0C"/>
<path d="M12.8786 0.43772C12.0751 -0.935451 12.5374 -2.70083 13.9105 -3.50435C15.2837 -4.30786 17.0491 -3.84559 17.8526 -2.47242C18.6561 -1.09925 18.1939 0.666126 16.8207 1.46965C16.3639 1.73718 15.8625 1.86458 15.3683 1.86458C14.3783 1.86458 13.4146 1.35408 12.8786 0.43772ZM18.5242 -2.86553C17.7207 -4.2387 18.1829 -6.00317 19.5561 -6.8076C20.9293 -7.61112 22.6947 -7.14884 23.4982 -5.77567C24.3017 -4.4025 23.8394 -2.63713 22.4662 -1.83361C22.0094 -1.56607 21.508 -1.43867 21.0139 -1.43867C20.0238 -1.43867 19.0602 -1.94918 18.5242 -2.86553Z" fill="#0C0C0C"/>
<path d="M9.71953 5.1669C9.69587 5.1669 9.67221 5.1669 9.64855 5.1669C9.62489 5.1669 9.60123 5.16508 9.57757 5.16417C9.55391 5.16326 9.53025 5.16143 9.50659 5.15961C9.48293 5.15779 9.45928 5.15598 9.43653 5.15325C9.41287 5.15052 9.38921 5.14778 9.36646 5.14505C9.3428 5.14232 9.32005 5.13869 9.29639 5.13505C9.27273 5.13141 9.24998 5.12777 9.22632 5.12413C9.20357 5.11958 9.17991 5.11594 9.15716 5.11139C9.13441 5.10684 9.11075 5.10229 9.088 5.09683C9.06525 5.09137 9.0425 5.08591 9.01975 5.08045C8.997 5.07499 8.97425 5.06862 8.9515 5.06225C8.92875 5.05588 8.906 5.04951 8.88325 5.04223C8.8605 5.03586 8.83866 5.02858 8.81591 5.0213C8.79408 5.01402 8.77132 5.00583 8.74948 4.99764C8.72765 4.98945 8.70581 4.98126 8.68306 4.97307C8.66122 4.96488 8.63938 4.95578 8.61754 4.94668C8.5957 4.93758 8.57386 4.92848 8.55293 4.91847C8.532 4.90937 8.51016 4.89936 8.48923 4.88935C8.4683 4.87934 8.44646 4.86933 8.42553 4.85841C8.4046 4.84749 8.38367 4.83657 8.36274 4.82565C8.34181 4.81473 8.32179 4.8029 8.30086 4.79198C8.28084 4.78015 8.25991 4.76832 8.23989 4.75649C8.21987 4.74466 8.19985 4.73192 8.17983 4.71918C8.15981 4.70644 8.13979 4.6937 8.12068 4.68096C8.10066 4.66822 8.08156 4.65457 8.06245 4.64092C8.04334 4.62727 8.02423 4.61362 8.00512 4.59997C7.98601 4.58632 7.9669 4.57176 7.9487 4.5572C7.9305 4.54264 7.91139 4.52809 7.89319 4.51353C7.87499 4.49897 7.85679 4.4835 7.83859 4.46803C7.82039 4.45256 7.8031 4.43709 7.78581 4.42071C7.76852 4.40524 7.75032 4.38886 7.73394 4.37248C7.71665 4.3561 7.70027 4.33972 7.68298 4.32334C7.6666 4.30696 7.64931 4.28967 7.63384 4.27238C7.61746 4.25509 7.60108 4.2378 7.58561 4.22051C7.56923 4.20322 7.55376 4.18502 7.53829 4.16773C7.52282 4.14953 7.50735 4.13133 7.49279 4.11313C7.47823 4.09493 7.46276 4.07673 7.44911 4.05762C7.43455 4.03942 7.41999 4.02031 7.40634 4.0012C7.39269 3.98209 7.37813 3.96298 7.3654 3.94387C7.35175 3.92476 7.33901 3.90474 7.32536 3.88563C7.31262 3.86652 7.29988 3.8465 7.28714 3.82648C7.2744 3.80646 7.26257 3.78644 7.24983 3.76642C7.238 3.74641 7.22617 3.72548 7.21434 3.70546C7.20251 3.68544 7.19159 3.66451 7.18067 3.64358C7.16975 3.62265 7.15883 3.60172 7.14791 3.58079C7.13699 3.55986 7.12698 3.53893 7.11697 3.518C7.10696 3.49707 7.09695 3.47523 7.08785 3.45339C7.07875 3.43155 7.06874 3.41062 7.05964 3.38878C7.05054 3.36694 7.04144 3.3451 7.03325 3.32326C7.02506 3.30142 7.01687 3.27958 7.00868 3.25683C7.00049 3.23499 6.99321 3.21224 6.98593 3.1904C6.97865 3.16856 6.97137 3.14581 6.96409 3.12306C6.95772 3.10031 6.95044 3.07756 6.94407 3.05481C6.9377 3.03206 6.93133 3.00932 6.92587 2.98657C6.92041 2.96382 6.91495 2.94107 6.90949 2.91832C6.90403 2.89557 6.89948 2.87191 6.89493 2.84916C6.89038 2.82641 6.88583 2.80275 6.88219 2.78C6.87855 2.75725 6.874 2.73359 6.87127 2.70993C6.86763 2.68627 6.8649 2.66261 6.86217 2.63986C6.85944 2.6162 6.85671 2.59254 6.85398 2.56979C6.85125 2.54613 6.84943 2.52247 6.84761 2.49881C6.84579 2.47515 6.84397 2.45149 6.84306 2.42783C6.84215 2.40417 6.84124 2.38052 6.84033 2.35686C6.84033 2.3332 6.84033 2.30954 6.84033 2.28588C6.84033 2.26222 6.84033 2.23856 6.84033 2.2149C6.84033 2.19124 6.84215 2.16758 6.84306 2.14392C6.84397 2.12026 6.84579 2.0966 6.84761 2.07294C6.84943 2.04928 6.85125 2.02562 6.85398 2.00196C6.85671 1.9783 6.85853 1.95464 6.86217 1.93189C6.8649 1.90823 6.86854 1.88457 6.87127 1.86182C6.87491 1.83816 6.87855 1.81541 6.88219 1.79175C6.88674 1.76809 6.89038 1.74534 6.89493 1.72259C6.89948 1.69984 6.90403 1.67619 6.90949 1.65344C6.91495 1.63069 6.92041 1.60794 6.92587 1.58519C6.93224 1.56244 6.9377 1.53969 6.94407 1.51694C6.95044 1.49419 6.95681 1.47144 6.96409 1.44869C6.97137 1.42685 6.97865 1.4041 6.98593 1.38135C6.99321 1.35951 7.0014 1.33676 7.00868 1.31492C7.01687 1.29308 7.02506 1.27033 7.03325 1.24849C7.04144 1.22665 7.05054 1.20481 7.05964 1.18297C7.06874 1.16113 7.07784 1.13929 7.08785 1.11836C7.09695 1.09652 7.10696 1.07559 7.11697 1.05375C7.12698 1.03282 7.13699 1.01189 7.14791 0.990964C7.15883 0.970034 7.16975 0.949106 7.18067 0.928176C7.19159 0.907246 7.20251 0.886316 7.21434 0.866296C7.22617 0.846277 7.238 0.825347 7.24983 0.805327C7.26166 0.785308 7.2744 0.764378 7.28714 0.745268C7.29988 0.725248 7.31262 0.705229 7.32536 0.686119C7.3381 0.6661 7.35175 0.64699 7.3654 0.62788C7.37904 0.60877 7.39269 0.58966 7.40634 0.570551C7.41999 0.551441 7.43455 0.532331 7.44911 0.514132C7.46367 0.495932 7.47823 0.476822 7.49279 0.458622C7.50735 0.440423 7.52282 0.422222 7.53829 0.404023C7.55376 0.385823 7.56923 0.368534 7.58561 0.350334C7.60108 0.333044 7.61746 0.315755 7.63384 0.298465C7.65022 0.281175 7.6666 0.263885 7.68298 0.247505C7.69936 0.231125 7.71665 0.213836 7.73394 0.198366C7.75123 0.181986 7.76852 0.165607 7.78581 0.150137C7.8031 0.134667 7.8213 0.118287 7.83859 0.102817C7.85679 0.0873474 7.87499 0.0727876 7.89319 0.0573179C7.91139 0.0427581 7.9305 0.0272887 7.9487 0.0136389C7.9669 -0.000920892 7.98601 -0.0145708 8.00512 -0.0291306C8.02423 -0.0427804 8.04334 -0.0573399 8.06245 -0.0700797C8.08156 -0.0837296 8.10157 -0.0964696 8.12068 -0.110119C8.1407 -0.122859 8.15981 -0.135599 8.17983 -0.148339C8.19985 -0.161079 8.21987 -0.172909 8.23989 -0.185649C8.25991 -0.197478 8.28084 -0.209308 8.30086 -0.221138C8.32088 -0.232058 8.34181 -0.243887 8.36274 -0.254807C8.38367 -0.265727 8.4046 -0.276647 8.42553 -0.287567C8.44646 -0.297576 8.4683 -0.308497 8.48923 -0.318507C8.51016 -0.328517 8.532 -0.338526 8.55293 -0.347626C8.57477 -0.356726 8.59661 -0.366736 8.61754 -0.374926C8.63938 -0.384026 8.66122 -0.393125 8.68306 -0.401315C8.7049 -0.409505 8.72765 -0.417695 8.74948 -0.425885C8.77132 -0.434075 8.79408 -0.441355 8.81591 -0.448635C8.83775 -0.455915 8.8605 -0.463195 8.88325 -0.470475C8.906 -0.477755 8.92875 -0.484125 8.9515 -0.490495C8.97425 -0.496865 8.997 -0.503234 9.01975 -0.508694C9.0425 -0.514154 9.06525 -0.519613 9.088 -0.525073C9.11075 -0.530533 9.1335 -0.535084 9.15716 -0.539633C9.18082 -0.544183 9.20357 -0.548733 9.22632 -0.552373C9.24998 -0.556923 9.27273 -0.560563 9.29639 -0.563293C9.32005 -0.566933 9.3428 -0.569663 9.36646 -0.573303C9.39012 -0.576032 9.41378 -0.578763 9.43653 -0.581493C9.46019 -0.584223 9.48384 -0.586043 9.50659 -0.587863C9.53025 -0.589683 9.55391 -0.590593 9.57757 -0.592413C9.60123 -0.593323 9.62489 -0.594233 9.64855 -0.595143C9.69587 -0.596053 9.74319 -0.596053 9.79051 -0.595143C9.81417 -0.595143 9.83783 -0.594233 9.86149 -0.592413C9.88515 -0.591503 9.90881 -0.589683 9.93247 -0.587863C9.95613 -0.586043 9.97979 -0.584223 10.0025 -0.581493C10.0262 -0.578763 10.0499 -0.576032 10.0726 -0.573303C10.0963 -0.570573 10.119 -0.566933 10.1427 -0.563293C10.1663 -0.559653 10.1891 -0.556013 10.2127 -0.552373C10.2355 -0.547823 10.2592 -0.544183 10.2819 -0.539633C10.3047 -0.535084 10.3283 -0.530533 10.3511 -0.525073C10.3738 -0.519613 10.3966 -0.514154 10.4193 -0.508694C10.4421 -0.503234 10.4648 -0.496865 10.4876 -0.490495C10.5103 -0.484125 10.5331 -0.477755 10.5549 -0.470475C10.5777 -0.464105 10.6004 -0.456825 10.6222 -0.448635C10.6441 -0.441355 10.6668 -0.434075 10.6887 -0.425885C10.7105 -0.417695 10.7323 -0.409505 10.7551 -0.401315C10.7778 -0.393125 10.7988 -0.384026 10.8206 -0.374926C10.8425 -0.365826 10.8643 -0.356726 10.8852 -0.347626C10.9071 -0.338526 10.928 -0.328517 10.9489 -0.318507C10.9699 -0.308497 10.9917 -0.298486 11.0126 -0.287567C11.0336 -0.276647 11.0545 -0.265727 11.0754 -0.254807C11.0963 -0.243887 11.1173 -0.232058 11.1373 -0.221138C11.1573 -0.209308 11.1782 -0.197478 11.1983 -0.185649C11.2183 -0.173819 11.2392 -0.161079 11.2583 -0.148339C11.2783 -0.135599 11.2984 -0.122859 11.3175 -0.110119C11.3375 -0.0973796 11.3566 -0.0837296 11.3757 -0.0700797C11.3948 -0.0564299 11.4148 -0.0427804 11.433 -0.0291306C11.4512 -0.0154808 11.4703 -0.000920892 11.4895 0.0136389C11.5077 0.0281987 11.5268 0.0427581 11.545 0.0573179C11.5632 0.0718777 11.5814 0.0873474 11.5996 0.102817C11.6178 0.118287 11.6351 0.133757 11.6523 0.150137C11.6696 0.165607 11.6878 0.181986 11.7042 0.198366C11.7215 0.214746 11.7388 0.231125 11.7552 0.247505C11.7716 0.263885 11.7888 0.281175 11.8052 0.298465C11.8216 0.315755 11.838 0.333044 11.8535 0.350334C11.8689 0.367624 11.8853 0.385823 11.8999 0.404023C11.9153 0.422222 11.9308 0.439513 11.9454 0.458622C11.9599 0.476822 11.9754 0.495932 11.9899 0.514132C12.0045 0.532331 12.0182 0.551441 12.0327 0.570551C12.0473 0.58966 12.0609 0.60877 12.0737 0.62788C12.0873 0.64699 12.1001 0.667009 12.1137 0.686119C12.1264 0.705229 12.1401 0.725248 12.1519 0.745268C12.1638 0.765288 12.1774 0.785308 12.1892 0.805327C12.2011 0.825347 12.2129 0.846277 12.2247 0.866296C12.2366 0.886316 12.2475 0.907246 12.2584 0.928176C12.2693 0.949106 12.2802 0.970034 12.2902 0.990964C12.3012 1.01189 12.3112 1.03282 12.3212 1.05375C12.3312 1.07468 12.3412 1.09652 12.3503 1.11836C12.3594 1.1402 12.3694 1.16113 12.3785 1.18297C12.3876 1.20481 12.3967 1.22665 12.4049 1.24849C12.4131 1.27033 12.4213 1.29217 12.4295 1.31492C12.4377 1.33676 12.4449 1.35951 12.4522 1.38135C12.4595 1.40319 12.4668 1.42594 12.4741 1.44869C12.4813 1.47144 12.4877 1.49419 12.4941 1.51694C12.5005 1.53969 12.5068 1.56244 12.5123 1.58519C12.5177 1.60794 12.5232 1.63069 12.5287 1.65344C12.5341 1.67619 12.5387 1.69984 12.5432 1.72259C12.5478 1.74534 12.5523 1.769 12.556 1.79175C12.5605 1.8145 12.5642 1.83816 12.5669 1.86182C12.5705 1.88548 12.5733 1.90914 12.576 1.93189C12.5787 1.95555 12.5814 1.97921 12.5842 2.00196C12.5869 2.02562 12.5887 2.04928 12.5905 2.07294C12.5924 2.0966 12.5942 2.12026 12.5951 2.14392C12.596 2.16758 12.5969 2.19124 12.5978 2.2149C12.5978 2.23856 12.5987 2.26222 12.5987 2.28588C12.5987 2.30954 12.5987 2.3332 12.5978 2.35686C12.5978 2.38052 12.596 2.40417 12.5951 2.42783C12.5942 2.45149 12.5924 2.47515 12.5905 2.49881C12.5887 2.52247 12.5869 2.54613 12.5842 2.56979C12.5814 2.59345 12.5796 2.61711 12.576 2.63986C12.5733 2.66352 12.5696 2.68718 12.5669 2.70993C12.5632 2.73359 12.5596 2.75634 12.556 2.78C12.5514 2.80366 12.5478 2.82641 12.5432 2.84916C12.5387 2.87191 12.5341 2.89557 12.5287 2.91832C12.5232 2.94107 12.5177 2.96382 12.5123 2.98657C12.5068 3.00932 12.5005 3.03206 12.4941 3.05481C12.4877 3.07756 12.4813 3.10031 12.4741 3.12306C12.4677 3.1449 12.4604 3.16765 12.4522 3.1904C12.4449 3.21224 12.4377 3.23499 12.4295 3.25683C12.4213 3.27867 12.4131 3.30142 12.4049 3.32326C12.3967 3.3451 12.3876 3.36694 12.3785 3.38878C12.3694 3.41062 12.3603 3.43246 12.3503 3.45339C12.3412 3.47523 12.3312 3.49616 12.3212 3.518C12.3112 3.53893 12.3012 3.56077 12.2902 3.58079C12.2802 3.60172 12.2684 3.62265 12.2584 3.64358C12.2475 3.66451 12.2356 3.68544 12.2247 3.70546C12.2138 3.72548 12.2011 3.74641 12.1892 3.76642C12.1774 3.78644 12.1647 3.80737 12.1519 3.82648C12.1392 3.84559 12.1264 3.86652 12.1137 3.88563C12.101 3.90565 12.0873 3.92476 12.0737 3.94387C12.06 3.96298 12.0464 3.98209 12.0327 4.0012C12.0191 4.02031 12.0045 4.03942 11.9899 4.05762C11.9754 4.07582 11.9608 4.09493 11.9454 4.11313C11.9308 4.13133 11.9153 4.14953 11.8999 4.16773C11.8844 4.18593 11.8689 4.20322 11.8535 4.22051C11.838 4.2378 11.8216 4.25509 11.8052 4.27238C11.7888 4.28967 11.7725 4.30696 11.7552 4.32334C11.7379 4.33972 11.7215 4.35701 11.7042 4.37248C11.6869 4.38886 11.6696 4.40524 11.6523 4.42071C11.6351 4.43618 11.6169 4.45256 11.5996 4.46803C11.5814 4.4835 11.5632 4.49806 11.545 4.51353C11.5268 4.52809 11.5077 4.54355 11.4895 4.5572C11.4713 4.57176 11.4521 4.58632 11.433 4.59997C11.4139 4.61362 11.3948 4.62727 11.3757 4.64092C11.3566 4.65457 11.3366 4.66822 11.3175 4.68096C11.2984 4.6937 11.2783 4.70644 11.2583 4.71918C11.2383 4.73192 11.2183 4.74375 11.1983 4.75649C11.1782 4.76832 11.1573 4.78015 11.1373 4.79198C11.1173 4.8029 11.0963 4.81473 11.0754 4.82565C11.0545 4.83657 11.0336 4.84749 11.0126 4.85841C10.9917 4.86842 10.9708 4.87934 10.9489 4.88935C10.928 4.89936 10.9062 4.90937 10.8852 4.91847C10.8634 4.92757 10.8425 4.93758 10.8206 4.94668C10.7988 4.95578 10.7769 4.96397 10.7551 4.97307C10.7333 4.98217 10.7114 4.98945 10.6887 4.99764C10.6668 5.00583 10.6441 5.01311 10.6222 5.0213C10.6004 5.02858 10.5777 5.03586 10.5549 5.04223C10.5322 5.04951 10.5094 5.05588 10.4876 5.06225C10.4648 5.06862 10.4421 5.07499 10.4193 5.08045C10.3966 5.08682 10.3738 5.09137 10.3511 5.09683C10.3283 5.10229 10.3056 5.10684 10.2819 5.11139C10.2592 5.11594 10.2355 5.12049 10.2127 5.12413C10.1891 5.12868 10.1663 5.13232 10.1427 5.13505C10.119 5.13869 10.0963 5.14232 10.0726 5.14505C10.0489 5.14778 10.0253 5.15052 10.0025 5.15325C9.97888 5.15598 9.95522 5.15779 9.93247 5.15961C9.90881 5.16143 9.88515 5.16326 9.86149 5.16417C9.83783 5.16508 9.81417 5.16599 9.79051 5.1669C9.76685 5.1669 9.74319 5.1669 9.71953 5.1669Z" fill="#0C0C0C"/>
<path d="M6.91285 15.3842C6.90375 13.7927 8.18592 12.4959 9.77749 12.4868C11.3691 12.4777 12.6667 13.7599 12.6749 15.3515C12.684 16.9421 11.4018 18.2398 9.81024 18.2489H9.79387C8.21049 18.2489 6.92195 16.9694 6.91285 15.3842ZM6.87554 8.84325C6.86644 7.25259 8.14861 5.95495 9.74018 5.94585C11.3317 5.93675 12.6285 7.21892 12.6376 8.81049C12.6467 10.4021 11.3645 11.6988 9.77293 11.7079C9.76747 11.7079 9.76202 11.7079 9.75656 11.7079C8.17318 11.7079 6.88464 10.4284 6.87554 8.84325Z" fill="#0C0C0C"/>
<path d="M9.83121 24.7899C9.80755 24.7899 9.78389 24.7899 9.76023 24.7899C9.73658 24.7899 9.71292 24.788 9.68926 24.7871C9.6656 24.7862 9.64194 24.7844 9.61828 24.7826C9.59462 24.7808 9.57096 24.7789 9.5473 24.7762C9.52364 24.7735 9.49998 24.7708 9.47723 24.768C9.45357 24.7653 9.42991 24.7617 9.40716 24.758C9.38441 24.7544 9.36075 24.7507 9.33709 24.7471C9.31434 24.7425 9.29068 24.7389 9.26793 24.7344C9.24518 24.7298 9.22152 24.7253 9.19877 24.7198C9.17602 24.7143 9.15327 24.7089 9.13052 24.7034C9.10777 24.698 9.08502 24.6916 9.06227 24.6852C9.03953 24.6788 9.01678 24.6725 8.99494 24.6652C8.97219 24.6588 8.94944 24.6515 8.9276 24.6443C8.90576 24.637 8.88301 24.6288 8.86117 24.6206C8.83933 24.6124 8.81658 24.6042 8.79474 24.596C8.7729 24.5878 8.75106 24.5788 8.72922 24.5697C8.70738 24.5606 8.68554 24.5514 8.66461 24.5423C8.64368 24.5332 8.62184 24.5232 8.6 24.5132C8.57907 24.5032 8.55723 24.4932 8.53721 24.4823C8.51628 24.4714 8.49535 24.4605 8.47442 24.4495C8.45349 24.4386 8.43256 24.4268 8.41254 24.4159C8.39252 24.404 8.37159 24.3922 8.35158 24.3804C8.33156 24.3685 8.31063 24.3558 8.29152 24.3431C8.2715 24.3303 8.25148 24.3176 8.23237 24.3048C8.21235 24.2921 8.19324 24.2785 8.17413 24.2648C8.15502 24.2512 8.135 24.2375 8.1168 24.2239C8.09769 24.2093 8.07858 24.1956 8.06038 24.1811C8.04218 24.1665 8.02307 24.152 8.00487 24.1374C7.98667 24.1228 7.96847 24.1074 7.95027 24.0919C7.93207 24.0764 7.91478 24.061 7.89658 24.0446C7.87929 24.0291 7.862 24.0127 7.84471 23.9964C7.82742 23.98 7.81013 23.9636 7.79375 23.9472C7.77737 23.9308 7.76008 23.9136 7.74461 23.8963C7.72823 23.879 7.71185 23.8617 7.69638 23.8444C7.68091 23.8271 7.66453 23.8089 7.64906 23.7916C7.63359 23.7734 7.61904 23.7552 7.60357 23.737C7.58901 23.7188 7.57354 23.6997 7.55989 23.6815C7.54533 23.6633 7.53168 23.6442 7.51712 23.6251C7.50347 23.606 7.48891 23.5869 7.47617 23.5678C7.46252 23.5486 7.44978 23.5286 7.43613 23.5095C7.42339 23.4904 7.41065 23.4704 7.39791 23.4504C7.38517 23.4303 7.37243 23.4103 7.3606 23.3903C7.34877 23.3703 7.33694 23.3494 7.32511 23.3293C7.31419 23.3093 7.30236 23.2884 7.29144 23.2675C7.28052 23.2465 7.2696 23.2256 7.25868 23.2047C7.24867 23.1837 7.23775 23.1628 7.22774 23.1419C7.21773 23.121 7.20772 23.0991 7.19862 23.0773C7.18952 23.0554 7.17951 23.0345 7.17132 23.0127C7.16222 22.9908 7.15312 22.969 7.14493 22.9471C7.13674 22.9253 7.12855 22.9035 7.12036 22.8807C7.11217 22.8589 7.10489 22.8361 7.09761 22.8143C7.09033 22.7924 7.08305 22.7697 7.07577 22.7469C7.06849 22.7242 7.06212 22.7014 7.05575 22.6787C7.04938 22.6559 7.04301 22.6332 7.03755 22.6104C7.03209 22.5877 7.02663 22.5649 7.02117 22.5422C7.01571 22.5194 7.01116 22.4958 7.00661 22.473C7.00206 22.4503 6.99751 22.4266 6.99387 22.4039C6.98932 22.3811 6.98568 22.3575 6.98295 22.3338C6.97931 22.3102 6.97658 22.2865 6.97294 22.2637C6.97022 22.2401 6.96748 22.2164 6.96475 22.1937C6.96202 22.17 6.9602 22.1464 6.95838 22.1227C6.95656 22.099 6.95565 22.0754 6.95383 22.0517C6.95201 22.0281 6.95201 22.0044 6.9511 21.9807C6.9511 21.9571 6.9502 21.9334 6.9502 21.9098C6.9502 21.8861 6.95019 21.8624 6.9511 21.8388C6.9511 21.8151 6.95201 21.7915 6.95383 21.7678C6.95565 21.7441 6.95656 21.7205 6.95838 21.6968C6.9602 21.6732 6.96202 21.6495 6.96475 21.6258C6.96748 21.6022 6.97022 21.5785 6.97294 21.5558C6.97567 21.5321 6.97931 21.5085 6.98295 21.4857C6.98659 21.462 6.99023 21.4393 6.99387 21.4156C6.99842 21.392 7.00206 21.3692 7.00661 21.3465C7.01116 21.3237 7.01571 21.3001 7.02117 21.2773C7.02663 21.2546 7.03209 21.2318 7.03755 21.2091C7.04301 21.1863 7.04938 21.1636 7.05575 21.1408C7.06212 21.1181 7.06849 21.0953 7.07577 21.0735C7.08214 21.0507 7.08942 21.028 7.09761 21.0061C7.10489 20.9843 7.11217 20.9616 7.12036 20.9397C7.12855 20.9179 7.13674 20.8951 7.14493 20.8733C7.15312 20.8514 7.16222 20.8296 7.17132 20.8078C7.18042 20.7859 7.18952 20.7641 7.19862 20.7432C7.20772 20.7213 7.21773 20.7004 7.22774 20.6785C7.23775 20.6576 7.24776 20.6367 7.25868 20.6158C7.2696 20.5948 7.28052 20.5739 7.29144 20.553C7.30236 20.532 7.31419 20.5111 7.32511 20.4911C7.33694 20.4711 7.34877 20.4501 7.3606 20.4301C7.37243 20.4101 7.38517 20.3892 7.39791 20.3701C7.41065 20.35 7.42339 20.33 7.43613 20.3109C7.44887 20.2909 7.46252 20.2718 7.47617 20.2527C7.48982 20.2336 7.50347 20.2145 7.51712 20.1953C7.53077 20.1762 7.54533 20.1571 7.55989 20.1389C7.57445 20.1207 7.58901 20.1016 7.60357 20.0834C7.61813 20.0652 7.63359 20.047 7.64906 20.0288C7.66453 20.0106 7.68 19.9933 7.69638 19.976C7.71185 19.9587 7.72823 19.9415 7.74461 19.9242C7.76099 19.9069 7.77737 19.8896 7.79375 19.8732C7.81013 19.8568 7.82742 19.8395 7.84471 19.8241C7.862 19.8077 7.87929 19.7913 7.89658 19.7758C7.91387 19.7604 7.93207 19.744 7.95027 19.7285C7.96847 19.713 7.98576 19.6985 8.00487 19.683C8.02307 19.6685 8.04218 19.653 8.06038 19.6393C8.07858 19.6248 8.09769 19.6111 8.1168 19.5966C8.13591 19.5829 8.15502 19.5693 8.17413 19.5556C8.19324 19.542 8.21326 19.5292 8.23237 19.5156C8.25148 19.5028 8.2715 19.4901 8.29152 19.4774C8.31154 19.4646 8.33156 19.4519 8.35158 19.4401C8.37159 19.4282 8.39252 19.4164 8.41254 19.4046C8.43256 19.3936 8.45349 19.3818 8.47442 19.3709C8.49535 19.36 8.51628 19.3491 8.53721 19.3381C8.55814 19.3281 8.57907 19.3172 8.6 19.3072C8.62093 19.2972 8.64277 19.2872 8.66461 19.2781C8.68645 19.269 8.70738 19.259 8.72922 19.2508C8.75106 19.2417 8.7729 19.2326 8.79474 19.2244C8.81658 19.2162 8.83842 19.208 8.86117 19.1998C8.88301 19.1916 8.90576 19.1843 8.9276 19.1771C8.94944 19.1698 8.97219 19.1625 8.99494 19.1552C9.01678 19.1479 9.04044 19.1416 9.06227 19.1352C9.08502 19.1288 9.10777 19.1225 9.13052 19.117C9.15327 19.1115 9.17602 19.1061 9.19877 19.1006C9.22152 19.0952 9.24518 19.0906 9.26793 19.0861C9.29068 19.0815 9.31434 19.077 9.33709 19.0733C9.36075 19.0688 9.3835 19.0651 9.40716 19.0624C9.43082 19.0588 9.45448 19.0551 9.47723 19.0524C9.49998 19.0497 9.52455 19.0469 9.5473 19.0442C9.57096 19.0415 9.59462 19.0397 9.61828 19.0378C9.64194 19.036 9.6656 19.0351 9.68926 19.0333C9.71292 19.0324 9.73658 19.0315 9.76023 19.0306C9.80755 19.0296 9.85487 19.0296 9.90219 19.0306C9.92585 19.0306 9.94951 19.0315 9.97317 19.0333C9.99683 19.0351 10.0205 19.036 10.0442 19.0378C10.0678 19.0397 10.0915 19.0415 10.1151 19.0442C10.1388 19.0469 10.1624 19.0497 10.1852 19.0524C10.2089 19.0551 10.2325 19.0588 10.2553 19.0624C10.2789 19.066 10.3017 19.0697 10.3253 19.0733C10.349 19.0779 10.3717 19.0815 10.3945 19.0861C10.4172 19.0906 10.4409 19.0952 10.4637 19.1006C10.4864 19.1061 10.5092 19.1115 10.5319 19.117C10.5547 19.1225 10.5774 19.1288 10.6002 19.1352C10.6229 19.1416 10.6457 19.1479 10.6684 19.1552C10.6902 19.1616 10.713 19.1689 10.7357 19.1771C10.7576 19.1843 10.7803 19.1916 10.8022 19.1998C10.824 19.208 10.8468 19.2162 10.8686 19.2244C10.8904 19.2326 10.9123 19.2417 10.9341 19.2508C10.956 19.2599 10.9778 19.269 10.9987 19.2781C11.0206 19.2872 11.0415 19.2972 11.0633 19.3072C11.0843 19.3172 11.1061 19.3272 11.127 19.3381C11.148 19.3491 11.1689 19.36 11.1898 19.3709C11.2108 19.3818 11.2317 19.3936 11.2517 19.4046C11.2717 19.4164 11.2927 19.4282 11.3127 19.4401C11.3327 19.4519 11.3527 19.4646 11.3727 19.4774C11.3928 19.4901 11.4128 19.5028 11.4319 19.5156C11.451 19.5283 11.471 19.542 11.4901 19.5556C11.5092 19.5693 11.5283 19.5829 11.5474 19.5966C11.5666 19.6111 11.5857 19.6248 11.6039 19.6393C11.6221 19.6539 11.6412 19.6685 11.6594 19.683C11.6776 19.6976 11.6958 19.713 11.714 19.7285C11.7322 19.744 11.7495 19.7595 11.7668 19.7758C11.784 19.7913 11.8022 19.8077 11.8186 19.8241C11.835 19.8404 11.8523 19.8568 11.8696 19.8732C11.886 19.8896 11.9033 19.9069 11.9187 19.9242C11.9351 19.9415 11.9515 19.9587 11.967 19.976C11.9824 19.9933 11.9988 20.0115 12.0143 20.0288C12.0297 20.047 12.0452 20.0652 12.0598 20.0834C12.0743 20.1016 12.0898 20.1207 12.1035 20.1389C12.118 20.1571 12.1326 20.1762 12.1462 20.1953C12.1599 20.2145 12.1735 20.2336 12.1872 20.2527C12.2008 20.2718 12.2136 20.2918 12.2272 20.3109C12.2399 20.33 12.2527 20.35 12.2654 20.3701C12.2782 20.3901 12.29 20.4101 12.3027 20.4301C12.3146 20.4501 12.3264 20.4711 12.3382 20.4911C12.3491 20.5111 12.361 20.532 12.3719 20.553C12.3828 20.5739 12.3937 20.5948 12.4047 20.6158C12.4147 20.6367 12.4256 20.6576 12.4356 20.6785C12.4456 20.6995 12.4556 20.7213 12.4647 20.7432C12.4738 20.765 12.4838 20.7859 12.4929 20.8078C12.502 20.8296 12.5102 20.8514 12.5193 20.8733C12.5275 20.8951 12.5357 20.917 12.5439 20.9397C12.5521 20.9616 12.5594 20.9843 12.5675 21.0061C12.5748 21.028 12.5821 21.0507 12.5894 21.0735C12.5958 21.0953 12.603 21.119 12.6094 21.1408C12.6158 21.1636 12.6221 21.1863 12.6276 21.2091C12.634 21.2318 12.6385 21.2546 12.644 21.2773C12.6494 21.3001 12.654 21.3237 12.6585 21.3465C12.6631 21.3692 12.6676 21.3929 12.6713 21.4156C12.6758 21.4384 12.6795 21.462 12.6822 21.4857C12.6858 21.5094 12.6895 21.533 12.6922 21.5558C12.6949 21.5794 12.6977 21.6031 12.7004 21.6258C12.7031 21.6495 12.705 21.6732 12.7068 21.6968C12.7086 21.7205 12.7104 21.7441 12.7113 21.7678C12.7122 21.7915 12.7131 21.8151 12.7141 21.8388C12.7141 21.8624 12.7141 21.8861 12.7141 21.9098C12.7141 21.9334 12.7141 21.9571 12.7141 21.9807C12.7141 22.0044 12.7122 22.0281 12.7113 22.0517C12.7104 22.0754 12.7086 22.099 12.7068 22.1227C12.705 22.1464 12.7031 22.17 12.7004 22.1937C12.6977 22.2173 12.6949 22.241 12.6922 22.2637C12.6895 22.2865 12.6858 22.3111 12.6822 22.3338C12.6786 22.3575 12.6749 22.3802 12.6713 22.4039C12.6667 22.4275 12.6631 22.4503 12.6585 22.473C12.654 22.4958 12.6494 22.5194 12.644 22.5422C12.6385 22.5649 12.6331 22.5877 12.6276 22.6104C12.6221 22.6332 12.6158 22.6559 12.6094 22.6787C12.603 22.7014 12.5967 22.7242 12.5894 22.7469C12.5821 22.7688 12.5748 22.7915 12.5675 22.8143C12.5603 22.8361 12.5521 22.8589 12.5439 22.8807C12.5357 22.9026 12.5275 22.9253 12.5193 22.9471C12.5111 22.969 12.502 22.9908 12.4929 23.0127C12.4838 23.0345 12.4747 23.0563 12.4647 23.0773C12.4547 23.0982 12.4456 23.12 12.4356 23.1419C12.4256 23.1628 12.4156 23.1837 12.4047 23.2047C12.3937 23.2256 12.3828 23.2465 12.3719 23.2675C12.361 23.2884 12.3491 23.3093 12.3382 23.3293C12.3264 23.3494 12.3146 23.3703 12.3027 23.3903C12.2909 23.4103 12.2782 23.4313 12.2654 23.4504C12.2527 23.4704 12.2399 23.4904 12.2272 23.5095C12.2145 23.5295 12.2008 23.5486 12.1872 23.5678C12.1735 23.5869 12.1599 23.606 12.1462 23.6251C12.1326 23.6442 12.118 23.6633 12.1035 23.6815C12.0889 23.6997 12.0743 23.7188 12.0598 23.737C12.0452 23.7552 12.0297 23.7734 12.0143 23.7916C11.9988 23.8098 11.9833 23.8271 11.967 23.8444C11.9515 23.8617 11.9351 23.879 11.9187 23.8963C11.9023 23.9136 11.886 23.9308 11.8696 23.9472C11.8532 23.9636 11.8359 23.9809 11.8186 23.9964C11.8013 24.0118 11.784 24.0291 11.7668 24.0446C11.7495 24.0601 11.7313 24.0764 11.714 24.0919C11.6958 24.1074 11.6776 24.1219 11.6594 24.1374C11.6412 24.152 11.623 24.1674 11.6039 24.1811C11.5857 24.1956 11.5666 24.2093 11.5474 24.2239C11.5283 24.2375 11.5092 24.2512 11.4901 24.2648C11.471 24.2785 11.451 24.2912 11.4319 24.3048C11.4119 24.3176 11.3928 24.3303 11.3727 24.3431C11.3527 24.3558 11.3327 24.3676 11.3127 24.3804C11.2927 24.3922 11.2717 24.404 11.2517 24.4159C11.2317 24.4268 11.2108 24.4386 11.1898 24.4495C11.1689 24.4605 11.148 24.4714 11.127 24.4823C11.1061 24.4923 11.0843 24.5032 11.0633 24.5132C11.0424 24.5232 11.0206 24.5332 10.9987 24.5423C10.9769 24.5514 10.956 24.5615 10.9341 24.5697C10.9123 24.5788 10.8904 24.5878 10.8686 24.596C10.8468 24.6042 10.8249 24.6124 10.8022 24.6206C10.7803 24.6288 10.7576 24.6361 10.7357 24.6443C10.7139 24.6515 10.6912 24.6588 10.6684 24.6652C10.6457 24.6725 10.6229 24.6788 10.6002 24.6852C10.5774 24.6916 10.5547 24.698 10.5319 24.7034C10.5092 24.7089 10.4864 24.7143 10.4637 24.7198C10.4409 24.7253 10.4172 24.7298 10.3945 24.7344C10.3717 24.7389 10.3481 24.7435 10.3253 24.7471C10.3026 24.7516 10.2789 24.7553 10.2553 24.758C10.2316 24.7617 10.2089 24.7653 10.1852 24.768C10.1615 24.7708 10.1379 24.7735 10.1151 24.7762C10.0915 24.7789 10.0678 24.7808 10.0442 24.7826C10.0205 24.7844 9.99683 24.7853 9.97317 24.7871C9.94951 24.788 9.92585 24.789 9.90219 24.7899C9.87853 24.7899 9.85487 24.7899 9.83121 24.7899Z" fill="#0C0C0C"/>
<path d="M19.772 30.8877C18.3897 30.1006 17.9074 28.3406 18.6946 26.9584C19.4817 25.5761 21.2416 25.0938 22.6239 25.8809C24.0061 26.6681 24.4884 28.428 23.7013 29.8103C23.1699 30.743 22.1971 31.2663 21.1952 31.2653C20.712 31.2653 20.2215 31.1434 19.772 30.8868V30.8877ZM14.0891 27.65C12.7068 26.8619 12.2245 25.1029 13.0117 23.7206C13.7997 22.3384 15.5587 21.8561 16.941 22.6432C18.3233 23.4304 18.8056 25.1903 18.0184 26.5725C17.487 27.5053 16.5142 28.0285 15.5123 28.0285C15.0291 28.0285 14.5386 27.9066 14.0891 27.65Z" fill="#0C0C0C"/>
<path d="M26.7294 6.04594C26.7131 6.04594 26.6958 6.04594 26.6785 6.04503C26.6621 6.04412 26.6448 6.0423 26.6284 6.04139C26.612 6.03957 26.5948 6.03775 26.5784 6.03502C26.562 6.03229 26.5447 6.02956 26.5292 6.02592C26.5129 6.02228 26.4965 6.01864 26.4801 6.015C26.4637 6.01045 26.4482 6.0059 26.4319 6.00135C26.4155 5.9968 26.4 5.99134 26.3846 5.98497C26.3691 5.97951 26.3536 5.97314 26.3381 5.96677C26.3227 5.9604 26.3072 5.95404 26.2926 5.94676C26.2772 5.93948 26.2626 5.9322 26.2481 5.92401C26.2335 5.91582 26.2189 5.90762 26.2044 5.89943C26.1898 5.89124 26.1762 5.88214 26.1625 5.87304C26.1489 5.86394 26.1343 5.85394 26.1216 5.84393C26.1079 5.83392 26.0952 5.82391 26.0815 5.81299C26.0688 5.80207 26.056 5.79115 26.0433 5.78023C26.0306 5.76931 26.0187 5.75748 26.0069 5.74565C25.9951 5.73382 25.9832 5.72108 25.9723 5.70925C25.9614 5.69651 25.9505 5.68377 25.9396 5.67103C25.9286 5.65829 25.9186 5.64464 25.9086 5.63099C25.8986 5.61734 25.8886 5.60369 25.8804 5.59004C25.8713 5.57639 25.8622 5.56183 25.854 5.54727C25.8458 5.53271 25.8376 5.51815 25.8295 5.50359C25.8213 5.48903 25.814 5.47356 25.8067 5.459C25.7994 5.44444 25.7931 5.42897 25.7867 5.4135C25.7803 5.39803 25.7739 5.38256 25.7685 5.36618C25.763 5.35071 25.7576 5.33433 25.7521 5.31886C25.7476 5.30248 25.743 5.28701 25.7385 5.27063C25.7339 5.25425 25.7303 5.23788 25.7275 5.2215C25.7239 5.20512 25.7212 5.18874 25.7184 5.17236C25.7157 5.15598 25.7139 5.13868 25.7121 5.12231C25.7102 5.10593 25.7093 5.08864 25.7084 5.07226C25.7084 5.05588 25.7075 5.03859 25.7075 5.0213C25.7075 5.00401 25.7075 4.98763 25.7084 4.97034C25.7093 4.95396 25.7112 4.93667 25.7121 4.92029C25.7139 4.90391 25.7157 4.88662 25.7184 4.87024C25.7212 4.85386 25.7239 4.83748 25.7275 4.8211C25.7312 4.80472 25.7348 4.78834 25.7385 4.77196C25.743 4.75558 25.7476 4.7392 25.7521 4.72373C25.7567 4.70826 25.7621 4.69188 25.7685 4.67641C25.7739 4.66094 25.7803 4.64456 25.7867 4.62909C25.7931 4.61362 25.7994 4.59815 25.8067 4.58359C25.814 4.56812 25.8213 4.55357 25.8295 4.53901C25.8376 4.52445 25.8458 4.50989 25.854 4.49533C25.8622 4.48077 25.8713 4.46712 25.8804 4.45256C25.8895 4.43891 25.8995 4.42435 25.9086 4.41161C25.9186 4.39796 25.9286 4.38522 25.9396 4.37157C25.9505 4.35883 25.9614 4.34518 25.9723 4.33335C25.9832 4.32061 25.9951 4.30878 26.0069 4.29695C26.0187 4.28512 26.0315 4.27329 26.0433 4.26237C26.056 4.25145 26.0688 4.23962 26.0815 4.22961C26.0943 4.21869 26.1079 4.20868 26.1216 4.19867C26.1352 4.18866 26.1489 4.17865 26.1625 4.16955C26.1762 4.16045 26.1907 4.15135 26.2044 4.14316C26.2189 4.13497 26.2335 4.12678 26.2481 4.11859C26.2626 4.1104 26.2781 4.10312 26.2926 4.09584C26.3072 4.08856 26.3227 4.08219 26.3381 4.07582C26.3536 4.06945 26.3691 4.06308 26.3846 4.05762C26.4 4.05216 26.4164 4.0467 26.4319 4.04215C26.4482 4.0376 26.4637 4.03305 26.4801 4.0285C26.4965 4.02486 26.5129 4.02031 26.5292 4.01758C26.5456 4.01485 26.562 4.01121 26.5784 4.00939C26.5948 4.00666 26.612 4.00484 26.6284 4.00302C26.6448 4.0012 26.6621 4.00029 26.6785 3.99938C26.7121 3.99756 26.7458 3.99756 26.7795 3.99938C26.7959 3.99938 26.8132 4.0012 26.8295 4.00302C26.8459 4.00484 26.8632 4.00666 26.8796 4.00939C26.896 4.01212 26.9123 4.01485 26.9287 4.01758C26.9451 4.02122 26.9615 4.02486 26.9779 4.0285C26.9942 4.03305 27.0106 4.0376 27.0261 4.04215C27.0416 4.0467 27.0579 4.05216 27.0734 4.05762C27.0889 4.06308 27.1053 4.06945 27.1207 4.07582C27.1362 4.08219 27.1517 4.08856 27.1662 4.09584C27.1817 4.10312 27.1963 4.1104 27.2108 4.11859C27.2254 4.12678 27.2399 4.13497 27.2545 4.14316C27.2691 4.15135 27.2827 4.16045 27.2973 4.16955C27.3109 4.17865 27.3255 4.18866 27.3382 4.19867C27.3519 4.20868 27.3646 4.21869 27.3783 4.22961C27.391 4.24053 27.4046 4.25145 27.4165 4.26237C27.4292 4.27329 27.441 4.28512 27.4529 4.29695C27.4647 4.30878 27.4765 4.32152 27.4875 4.33335C27.4984 4.34609 27.5102 4.35883 27.5202 4.37157C27.5311 4.38431 27.5411 4.39796 27.5512 4.41161C27.5612 4.42435 27.5712 4.43891 27.5803 4.45256C27.5894 4.46621 27.5985 4.48077 27.6067 4.49533C27.6149 4.50989 27.623 4.52445 27.6312 4.53901C27.6394 4.55357 27.6467 4.56903 27.654 4.58359C27.6613 4.59815 27.6676 4.61362 27.674 4.62909C27.6804 4.64456 27.6867 4.66003 27.6922 4.67641C27.6977 4.69188 27.7031 4.70826 27.7077 4.72373C27.7122 4.74011 27.7168 4.75558 27.7213 4.77196C27.725 4.78834 27.7295 4.80472 27.7322 4.8211C27.735 4.83748 27.7386 4.85386 27.7404 4.87024C27.7432 4.88662 27.745 4.90391 27.7468 4.92029C27.7486 4.93667 27.7495 4.95396 27.7504 4.97034C27.7513 4.98672 27.7513 5.00401 27.7513 5.0213C27.7513 5.03859 27.7513 5.05497 27.7504 5.07226C27.7504 5.08864 27.7486 5.10593 27.7468 5.12231C27.745 5.13868 27.7432 5.15598 27.7404 5.17236C27.7377 5.18874 27.735 5.20512 27.7322 5.2215C27.7286 5.23788 27.725 5.25425 27.7213 5.27063C27.7168 5.28701 27.7122 5.30248 27.7077 5.31886C27.7031 5.33524 27.6977 5.35071 27.6922 5.36618C27.6867 5.38165 27.6804 5.39803 27.674 5.4135C27.6676 5.42897 27.6613 5.44444 27.654 5.459C27.6467 5.47447 27.6394 5.48903 27.6312 5.50359C27.623 5.51815 27.6149 5.53271 27.6067 5.54727C27.5985 5.56183 27.5894 5.57548 27.5803 5.59004C27.5712 5.6046 27.5612 5.61825 27.5512 5.63099C27.5411 5.64464 27.5311 5.65738 27.5202 5.67103C27.5093 5.68377 27.4984 5.69651 27.4875 5.70925C27.4765 5.72199 27.4647 5.73382 27.4529 5.74565C27.441 5.75748 27.4283 5.76931 27.4165 5.78023C27.4037 5.79115 27.391 5.80298 27.3783 5.81299C27.3655 5.82391 27.3519 5.83392 27.3382 5.84393C27.3255 5.85394 27.3109 5.86394 27.2973 5.87304C27.2836 5.88214 27.2691 5.89124 27.2545 5.89943C27.2399 5.90762 27.2254 5.91582 27.2108 5.92401C27.1963 5.9322 27.1808 5.93948 27.1662 5.94676C27.1517 5.95404 27.1362 5.9604 27.1207 5.96677C27.1053 5.97314 27.0898 5.97951 27.0734 5.98497C27.0579 5.99043 27.0416 5.99589 27.0261 6.00135C27.0097 6.0059 26.9942 6.01045 26.9779 6.015C26.9615 6.01955 26.9451 6.02319 26.9287 6.02592C26.9123 6.02956 26.896 6.03229 26.8796 6.03502C26.8632 6.03775 26.8459 6.03957 26.8295 6.04139C26.8132 6.04321 26.7959 6.04412 26.7795 6.04503C26.7631 6.04503 26.7458 6.04594 26.7285 6.04594H26.7294Z" fill="#0C0C0C"/>
<path d="M21.8292 7.88777C21.5435 7.39911 21.7082 6.77212 22.1969 6.48639C22.6855 6.20065 23.3125 6.36536 23.5983 6.85402C23.884 7.34268 23.7193 7.96967 23.2306 8.2554C23.0677 8.35095 22.8903 8.39554 22.7147 8.39554C22.3625 8.39554 22.0203 8.21354 21.8292 7.88777ZM23.8376 6.71389C23.5518 6.22522 23.7166 5.59824 24.2043 5.31251C24.693 5.02677 25.3199 5.19057 25.6057 5.67923C25.8914 6.16789 25.7276 6.79487 25.239 7.08061C25.0761 7.17616 24.8986 7.22075 24.723 7.22075C24.3708 7.22075 24.0287 7.03875 23.8376 6.71389Z" fill="#0C0C0C"/>
<path d="M20.7063 9.56942C20.6899 9.56942 20.6726 9.56941 20.6553 9.5685C20.6389 9.5685 20.6217 9.56668 20.6053 9.56486C20.5889 9.56304 20.5716 9.56122 20.5552 9.55849C20.5388 9.55576 20.5225 9.55304 20.5061 9.5494C20.4897 9.54576 20.4733 9.54211 20.4569 9.53847C20.4406 9.53392 20.4251 9.53028 20.4087 9.52482C20.3923 9.52027 20.3769 9.51482 20.3614 9.50936C20.3459 9.5039 20.3295 9.49752 20.3141 9.49115C20.2986 9.48479 20.2831 9.4775 20.2686 9.47114C20.2531 9.46386 20.2386 9.45658 20.224 9.44839C20.2094 9.4402 20.1949 9.43201 20.1803 9.42382C20.1658 9.41563 20.1521 9.40653 20.1375 9.39743C20.1239 9.38833 20.1093 9.37832 20.0966 9.36922C20.0829 9.35921 20.0702 9.3492 20.0566 9.33828C20.0429 9.32736 20.0311 9.31644 20.0183 9.30552C20.0056 9.2946 19.9938 9.28277 19.9819 9.27094C19.9701 9.25911 19.9583 9.24637 19.9474 9.23454C19.9364 9.2218 19.9246 9.20906 19.9146 9.19632C19.9046 9.18358 19.8937 9.16993 19.8837 9.15628C19.8736 9.14263 19.8636 9.12898 19.8545 9.11533C19.8454 9.10168 19.8363 9.08712 19.8281 9.07347C19.82 9.05891 19.8118 9.04435 19.8036 9.02979C19.7954 9.01523 19.7881 8.99976 19.7808 8.9852C19.7735 8.96973 19.7672 8.95517 19.7608 8.9397C19.7544 8.92423 19.7481 8.90876 19.7426 8.89329C19.7371 8.87782 19.7317 8.86144 19.7262 8.84597C19.7217 8.82959 19.7171 8.81413 19.7126 8.79775C19.708 8.78137 19.7044 8.76498 19.7017 8.74861C19.698 8.73223 19.6953 8.71585 19.6926 8.69947C19.6898 8.68309 19.688 8.6658 19.6862 8.64942C19.6844 8.63304 19.6835 8.61575 19.6825 8.59937C19.6825 8.58299 19.6816 8.5657 19.6816 8.54841C19.6816 8.53112 19.6816 8.51474 19.6825 8.49836C19.6835 8.48198 19.6853 8.46469 19.6862 8.44831C19.688 8.43193 19.6898 8.41464 19.6926 8.39826C19.6953 8.38188 19.698 8.3655 19.7017 8.34912C19.7053 8.33274 19.7089 8.31636 19.7126 8.29998C19.7171 8.2836 19.7217 8.26722 19.7262 8.25175C19.7308 8.23628 19.7362 8.2199 19.7426 8.20443C19.7481 8.18896 19.7544 8.17258 19.7608 8.15802C19.7672 8.14255 19.7735 8.12708 19.7808 8.11252C19.7881 8.09797 19.7954 8.0825 19.8036 8.06794C19.8118 8.05338 19.82 8.03882 19.8281 8.02426C19.8363 8.0097 19.8454 7.99605 19.8545 7.98149C19.8636 7.96693 19.8736 7.95419 19.8837 7.94054C19.8937 7.92689 19.9037 7.91415 19.9146 7.9005C19.9255 7.88685 19.9364 7.87502 19.9474 7.86228C19.9583 7.84954 19.9701 7.83771 19.9819 7.82588C19.9938 7.81405 20.0065 7.80222 20.0183 7.7913C20.0311 7.78038 20.0438 7.76946 20.0566 7.75854C20.0693 7.74762 20.0829 7.73761 20.0966 7.7276C20.1102 7.71759 20.1239 7.70758 20.1375 7.69848C20.1512 7.68938 20.1658 7.68028 20.1803 7.67209C20.1949 7.6639 20.2094 7.65571 20.224 7.64752C20.2386 7.63933 20.254 7.63205 20.2686 7.62477C20.2831 7.61749 20.2986 7.61112 20.3141 7.60475C20.3295 7.59838 20.345 7.59201 20.3614 7.58655C20.3769 7.58109 20.3932 7.57563 20.4087 7.57108C20.4242 7.56653 20.4406 7.56198 20.4569 7.55743C20.4733 7.55288 20.4897 7.54924 20.5061 7.54651C20.5225 7.54378 20.5388 7.54014 20.5552 7.53832C20.5716 7.53559 20.5889 7.53377 20.6053 7.53195C20.6217 7.53013 20.6389 7.52922 20.6553 7.52831C20.689 7.52649 20.7227 7.52649 20.7563 7.52831C20.7727 7.52831 20.79 7.53013 20.8064 7.53195C20.8228 7.53377 20.8401 7.53559 20.8564 7.53832C20.8728 7.54105 20.8892 7.54378 20.9056 7.54651C20.922 7.55015 20.9383 7.55379 20.9547 7.55743C20.9711 7.56107 20.9875 7.56562 21.0029 7.57108C21.0184 7.57563 21.0348 7.58109 21.0503 7.58655C21.0657 7.59201 21.0821 7.59838 21.0976 7.60475C21.1131 7.61112 21.1285 7.61749 21.1431 7.62477C21.1585 7.63205 21.1731 7.63933 21.1877 7.64752C21.2022 7.65571 21.2168 7.6639 21.2313 7.67209C21.2459 7.68119 21.2596 7.68938 21.2741 7.69848C21.2878 7.70758 21.3023 7.71759 21.3151 7.7276C21.3287 7.73761 21.3415 7.74762 21.3551 7.75854C21.3678 7.76946 21.3815 7.78038 21.3933 7.7913C21.4061 7.80222 21.4179 7.81405 21.4297 7.82588C21.4416 7.83771 21.4534 7.84954 21.4643 7.86228C21.4752 7.87502 21.4871 7.88776 21.4971 7.9005C21.5071 7.91324 21.518 7.92689 21.528 7.94054C21.538 7.95419 21.548 7.96784 21.5571 7.98149C21.5662 7.99514 21.5753 8.0097 21.5835 8.02426C21.5917 8.03882 21.5999 8.05338 21.6081 8.06794C21.6163 8.0825 21.6236 8.09797 21.6308 8.11252C21.6381 8.12708 21.6445 8.14255 21.6509 8.15802C21.6572 8.17349 21.6636 8.18896 21.6691 8.20443C21.6745 8.2199 21.68 8.23628 21.6845 8.25175C21.6891 8.26813 21.6936 8.2836 21.6982 8.29998C21.7018 8.31636 21.7064 8.33274 21.7091 8.34912C21.7118 8.3655 21.7155 8.38188 21.7173 8.39826C21.72 8.41464 21.7218 8.43193 21.7237 8.44831C21.7255 8.46469 21.7264 8.48198 21.7273 8.49836C21.7282 8.51474 21.7282 8.53203 21.7282 8.54841C21.7282 8.56479 21.7282 8.58208 21.7273 8.59937C21.7273 8.61575 21.7255 8.63304 21.7237 8.64942C21.7218 8.6658 21.72 8.68309 21.7173 8.69947C21.7146 8.71585 21.7118 8.73314 21.7091 8.74861C21.7055 8.76498 21.7018 8.78137 21.6982 8.79775C21.6936 8.81413 21.6891 8.82959 21.6845 8.84597C21.68 8.86235 21.6745 8.87782 21.6691 8.89329C21.6636 8.90876 21.6572 8.92423 21.6509 8.9397C21.6445 8.95517 21.6381 8.97064 21.6308 8.9852C21.6236 8.99976 21.6163 9.01523 21.6081 9.02979C21.5999 9.04435 21.5917 9.05891 21.5835 9.07347C21.5753 9.08803 21.5662 9.10168 21.5571 9.11533C21.548 9.12898 21.538 9.14354 21.528 9.15628C21.518 9.16993 21.508 9.18267 21.4971 9.19632C21.4861 9.20997 21.4752 9.2218 21.4643 9.23454C21.4534 9.24728 21.4416 9.25911 21.4297 9.27094C21.4179 9.28277 21.4052 9.2946 21.3933 9.30552C21.3806 9.31644 21.3678 9.32736 21.3551 9.33828C21.3424 9.3492 21.3287 9.35921 21.3151 9.36922C21.3023 9.37923 21.2878 9.38924 21.2741 9.39743C21.2605 9.40653 21.2459 9.41563 21.2313 9.42382C21.2168 9.43201 21.2022 9.4402 21.1877 9.44839C21.1731 9.45658 21.1576 9.46386 21.1431 9.47114C21.1285 9.47842 21.1131 9.48479 21.0976 9.49115C21.0821 9.49752 21.0666 9.5039 21.0503 9.50936C21.0348 9.51482 21.0184 9.52027 21.0029 9.52482C20.9866 9.52937 20.9711 9.53392 20.9547 9.53847C20.9383 9.54302 20.922 9.54667 20.9056 9.5494C20.8892 9.55304 20.8728 9.55576 20.8564 9.55849C20.8401 9.56122 20.8228 9.56304 20.8064 9.56486C20.79 9.56668 20.7727 9.56759 20.7563 9.5685C20.74 9.5685 20.7227 9.56942 20.7054 9.56942H20.7063Z" fill="#0C0C0C"/>
<path d="M19.708 13.203C19.7043 12.637 20.1612 12.1756 20.7263 12.1729C21.2923 12.1702 21.7536 12.6261 21.7573 13.1921C21.76 13.7581 21.3041 14.2195 20.7381 14.2222H20.7317C20.1684 14.2222 19.7107 13.7672 19.708 13.203ZM19.6952 10.8771C19.6925 10.3111 20.1484 9.84971 20.7144 9.84698C21.2804 9.84334 21.7418 10.3002 21.7445 10.8662C21.7482 11.4322 21.2914 11.8935 20.7254 11.8963H20.719C20.1557 11.8963 19.698 11.4413 19.6943 10.8771H19.6952Z" fill="#0C0C0C"/>
<path d="M20.7465 16.5481C20.7301 16.5481 20.7128 16.5481 20.6955 16.5472C20.6782 16.5463 20.6618 16.5454 20.6455 16.5436C20.6291 16.5418 20.6118 16.5399 20.5954 16.5372C20.579 16.5345 20.5617 16.5318 20.5463 16.5281C20.5299 16.5254 20.5135 16.5208 20.4971 16.5172C20.4807 16.5126 20.4653 16.509 20.4489 16.5035C20.4325 16.499 20.417 16.4935 20.4016 16.4881C20.3861 16.4826 20.3706 16.4762 20.3552 16.4699C20.3397 16.4635 20.3242 16.4571 20.3097 16.4499C20.2942 16.4426 20.2796 16.4353 20.2651 16.4271C20.2505 16.4189 20.236 16.4107 20.2214 16.4025C20.2068 16.3943 20.1932 16.3852 20.1786 16.3761C20.165 16.367 20.1504 16.357 20.1377 16.347C20.1249 16.337 20.1113 16.327 20.0976 16.3161C20.084 16.3052 20.0722 16.2942 20.0594 16.2833C20.0467 16.2724 20.0348 16.2606 20.023 16.2487C20.0112 16.2369 19.9994 16.2251 19.9884 16.2123C19.9775 16.1996 19.9666 16.1869 19.9557 16.1741C19.9448 16.1614 19.9347 16.1477 19.9247 16.1341C19.9147 16.1204 19.9047 16.1068 19.8965 16.0931C19.8874 16.0795 19.8783 16.0649 19.8701 16.0504C19.8619 16.0358 19.8538 16.0212 19.8456 16.0067C19.8374 15.9921 19.8301 15.9767 19.8228 15.9621C19.8155 15.9466 19.8092 15.9321 19.8028 15.9166C19.7964 15.9011 19.7901 15.8857 19.7846 15.8702C19.7791 15.8547 19.7737 15.8383 19.7682 15.8229C19.7637 15.8074 19.7591 15.791 19.7546 15.7746C19.75 15.7583 19.7464 15.7419 19.7437 15.7255C19.74 15.7091 19.7373 15.6927 19.7346 15.6764C19.7318 15.66 19.73 15.6427 19.7282 15.6263C19.7264 15.6099 19.7255 15.5926 19.7245 15.5763C19.7245 15.5599 19.7236 15.5426 19.7236 15.5262C19.7236 15.5098 19.7236 15.4925 19.7245 15.4753C19.7255 15.4589 19.7273 15.4416 19.7282 15.4252C19.73 15.4088 19.7318 15.3915 19.7346 15.3752C19.7373 15.3588 19.74 15.3415 19.7437 15.326C19.7473 15.3096 19.7509 15.2933 19.7546 15.2769C19.7582 15.2605 19.7637 15.2441 19.7682 15.2287C19.7728 15.2123 19.7782 15.1968 19.7846 15.1813C19.7901 15.1659 19.7964 15.1504 19.8028 15.1349C19.8092 15.1194 19.8155 15.104 19.8228 15.0894C19.8301 15.0749 19.8374 15.0594 19.8456 15.0448C19.8538 15.0303 19.8619 15.0157 19.8701 15.0012C19.8783 14.9866 19.8874 14.9729 19.8965 14.9593C19.9056 14.9456 19.9156 14.9311 19.9247 14.9183C19.9347 14.9047 19.9448 14.892 19.9557 14.8783C19.9666 14.8656 19.9775 14.8528 19.9884 14.8401C19.9994 14.8273 20.0112 14.8155 20.023 14.8037C20.0348 14.7919 20.0476 14.78 20.0594 14.7691C20.0722 14.7582 20.0849 14.7473 20.0976 14.7363C20.1104 14.7254 20.124 14.7154 20.1377 14.7054C20.1513 14.6954 20.165 14.6854 20.1786 14.6763C20.1923 14.6672 20.2068 14.6581 20.2214 14.6499C20.236 14.6417 20.2505 14.6326 20.2651 14.6253C20.2796 14.6171 20.2951 14.6099 20.3097 14.6026C20.3242 14.5953 20.3397 14.5889 20.3552 14.5826C20.3706 14.5762 20.3861 14.5698 20.4016 14.5644C20.417 14.5589 20.4334 14.5534 20.4489 14.5489C20.4653 14.5443 20.4807 14.5398 20.4971 14.5352C20.5135 14.5307 20.5299 14.527 20.5463 14.5243C20.5626 14.5207 20.579 14.5179 20.5954 14.5152C20.6118 14.5125 20.6291 14.5107 20.6455 14.5089C20.6618 14.507 20.6791 14.5061 20.6955 14.5052C20.7292 14.5034 20.7628 14.5034 20.7965 14.5052C20.8129 14.5052 20.8302 14.507 20.8466 14.5089C20.8629 14.5107 20.8802 14.5125 20.8966 14.5152C20.913 14.5179 20.9294 14.5207 20.9457 14.5243C20.9621 14.527 20.9785 14.5316 20.9949 14.5352C21.0113 14.5398 21.0276 14.5434 21.0431 14.5489C21.0586 14.5534 21.075 14.5589 21.0904 14.5644C21.1059 14.5698 21.1223 14.5762 21.1378 14.5826C21.1532 14.5889 21.1687 14.5953 21.1833 14.6026C21.1987 14.6099 21.2133 14.6171 21.2278 14.6253C21.2424 14.6335 21.257 14.6417 21.2715 14.6499C21.2861 14.6581 21.2997 14.6672 21.3143 14.6763C21.3279 14.6854 21.3416 14.6954 21.3552 14.7054C21.3689 14.7154 21.3816 14.7254 21.3953 14.7363C21.408 14.7473 21.4217 14.7582 21.4335 14.7691C21.4462 14.78 21.4581 14.7919 21.4699 14.8037C21.4817 14.8155 21.4936 14.8283 21.5045 14.8401C21.5154 14.8528 21.5272 14.8656 21.5372 14.8783C21.5482 14.891 21.5582 14.9047 21.5682 14.9183C21.5782 14.932 21.5882 14.9456 21.5973 14.9593C21.6064 14.9729 21.6155 14.9875 21.6237 15.0012C21.6319 15.0157 21.6401 15.0303 21.6483 15.0448C21.6564 15.0594 21.6637 15.0749 21.671 15.0894C21.6783 15.1049 21.6847 15.1194 21.691 15.1349C21.6974 15.1504 21.7038 15.1659 21.7092 15.1813C21.7147 15.1968 21.7201 15.2132 21.7247 15.2287C21.7292 15.2441 21.7338 15.2605 21.7383 15.2769C21.7429 15.2933 21.7465 15.3096 21.7493 15.326C21.752 15.3424 21.7556 15.3588 21.7575 15.3752C21.7602 15.3915 21.762 15.4088 21.7638 15.4252C21.7656 15.4416 21.7666 15.4589 21.7675 15.4753C21.7684 15.4916 21.7684 15.5089 21.7684 15.5262C21.7684 15.5435 21.7684 15.5599 21.7675 15.5763C21.7675 15.5926 21.7656 15.6099 21.7638 15.6263C21.762 15.6427 21.7602 15.66 21.7575 15.6764C21.7547 15.6927 21.752 15.7091 21.7493 15.7255C21.7456 15.7419 21.742 15.7583 21.7383 15.7746C21.7347 15.791 21.7302 15.8074 21.7247 15.8229C21.7201 15.8393 21.7147 15.8547 21.7092 15.8702C21.7038 15.8857 21.6974 15.902 21.691 15.9166C21.6847 15.9321 21.6783 15.9475 21.671 15.9621C21.6637 15.9767 21.6564 15.9921 21.6483 16.0067C21.6401 16.0212 21.6319 16.0358 21.6237 16.0504C21.6155 16.0649 21.6064 16.0786 21.5973 16.0931C21.5882 16.1068 21.5782 16.1204 21.5682 16.1341C21.5582 16.1477 21.5482 16.1605 21.5372 16.1741C21.5263 16.1869 21.5154 16.1996 21.5045 16.2123C21.4936 16.2251 21.4817 16.2369 21.4699 16.2487C21.4581 16.2606 21.4462 16.2724 21.4335 16.2833C21.4208 16.2942 21.408 16.3052 21.3953 16.3161C21.3825 16.327 21.3689 16.337 21.3552 16.347C21.3416 16.357 21.3279 16.367 21.3143 16.3761C21.3006 16.3852 21.2861 16.3943 21.2715 16.4025C21.257 16.4107 21.2424 16.4198 21.2278 16.4271C21.2133 16.4353 21.1978 16.4426 21.1833 16.4499C21.1687 16.4571 21.1532 16.4635 21.1378 16.4699C21.1223 16.4762 21.1068 16.4826 21.0904 16.4881C21.075 16.4935 21.0586 16.499 21.0431 16.5035C21.0267 16.5081 21.0113 16.5126 20.9949 16.5172C20.9785 16.5217 20.9621 16.5254 20.9457 16.5281C20.9294 16.5318 20.913 16.5345 20.8966 16.5372C20.8802 16.5399 20.8629 16.5418 20.8466 16.5436C20.8302 16.5454 20.8129 16.5463 20.7965 16.5472C20.7801 16.5472 20.7628 16.5481 20.7455 16.5481H20.7465Z" fill="#0C0C0C"/>
<path d="M24.2807 18.7166C23.7893 18.4363 23.6173 17.8112 23.8976 17.3189C24.1779 16.8275 24.804 16.6555 25.2954 16.9358C25.7867 17.216 25.9587 17.8412 25.6785 18.3335C25.4892 18.6647 25.1434 18.8513 24.7876 18.8513C24.6156 18.8513 24.4409 18.8085 24.2816 18.7166H24.2807ZM22.2605 17.5655C21.7691 17.2852 21.5972 16.66 21.8774 16.1677C22.1577 15.6763 22.7829 15.5044 23.2752 15.7846C23.7666 16.0649 23.9386 16.6901 23.6583 17.1824C23.469 17.5145 23.1232 17.7002 22.7674 17.7002C22.5954 17.7002 22.4216 17.6565 22.2615 17.5655H22.2605Z" fill="#0C0C0C"/>
<path d="M26.8095 20.0024C26.7931 20.0024 26.7758 20.0024 26.7586 20.0015C26.7422 20.0015 26.7249 19.9997 26.7085 19.9979C26.6921 19.9961 26.6748 19.9943 26.6585 19.9915C26.6421 19.9888 26.6248 19.9861 26.6093 19.9824C26.5929 19.9797 26.5766 19.9751 26.5602 19.9715C26.5438 19.9679 26.5283 19.9633 26.5119 19.9578C26.4956 19.9533 26.4801 19.9478 26.4646 19.9424C26.4492 19.9369 26.4337 19.9305 26.4182 19.9242C26.4028 19.9178 26.3873 19.9114 26.3727 19.9042C26.3582 19.8969 26.3427 19.8896 26.3281 19.8814C26.3136 19.8732 26.299 19.865 26.2845 19.8568C26.2699 19.8477 26.2562 19.8396 26.2426 19.8305C26.2289 19.8214 26.2144 19.8113 26.2016 19.8013C26.1889 19.7913 26.1753 19.7813 26.1616 19.7704C26.1489 19.7595 26.1361 19.7486 26.1234 19.7376C26.1106 19.7267 26.0988 19.7149 26.087 19.7031C26.0752 19.6912 26.0633 19.6794 26.0524 19.6667C26.0415 19.6539 26.0306 19.6421 26.0196 19.6284C26.0087 19.6157 25.9987 19.602 25.9887 19.5884C25.9787 19.5747 25.9687 19.5611 25.9596 19.5474C25.9505 19.5338 25.9414 19.5192 25.9332 19.5047C25.925 19.4901 25.9168 19.4756 25.9086 19.461C25.9004 19.4464 25.8932 19.431 25.8859 19.4164C25.8786 19.4018 25.8722 19.3864 25.8659 19.3709C25.8595 19.3554 25.8531 19.34 25.8477 19.3245C25.8422 19.309 25.8367 19.2927 25.8322 19.2772C25.8276 19.2608 25.8231 19.2453 25.8185 19.229C25.814 19.2126 25.8103 19.1962 25.8076 19.1798C25.804 19.1634 25.8012 19.1471 25.7985 19.1307C25.7958 19.1143 25.794 19.097 25.7921 19.0806C25.7903 19.0642 25.7894 19.047 25.7885 19.0306C25.7885 19.0142 25.7876 18.9969 25.7876 18.9805C25.7876 18.9641 25.7876 18.9469 25.7885 18.9296C25.7885 18.9132 25.7903 18.8959 25.7921 18.8795C25.794 18.8631 25.7958 18.8458 25.7985 18.8295C25.8012 18.8131 25.804 18.7958 25.8076 18.7803C25.8113 18.7649 25.8149 18.7476 25.8185 18.7312C25.8231 18.7148 25.8267 18.6984 25.8322 18.683C25.8367 18.6666 25.8422 18.6511 25.8477 18.6356C25.8531 18.6202 25.8595 18.6047 25.8659 18.5892C25.8722 18.5738 25.8786 18.5583 25.8859 18.5437C25.8932 18.5292 25.9004 18.5137 25.9086 18.4991C25.9168 18.4846 25.925 18.47 25.9332 18.4555C25.9414 18.4409 25.9505 18.4273 25.9596 18.4127C25.9687 18.399 25.9787 18.3845 25.9887 18.3717C25.9987 18.3581 26.0087 18.3454 26.0196 18.3317C26.0306 18.3181 26.0415 18.3062 26.0524 18.2935C26.0633 18.2807 26.0752 18.2689 26.087 18.2571C26.0988 18.2453 26.1116 18.2334 26.1234 18.2225C26.1361 18.2116 26.1489 18.2007 26.1616 18.1897C26.1743 18.1788 26.188 18.1688 26.2016 18.1588C26.2153 18.1488 26.2289 18.1388 26.2426 18.1297C26.2562 18.1206 26.2708 18.1115 26.2845 18.1033C26.299 18.0951 26.3136 18.086 26.3281 18.0787C26.3427 18.0705 26.3582 18.0633 26.3727 18.056C26.3882 18.0487 26.4028 18.0423 26.4182 18.036C26.4337 18.0296 26.4492 18.0232 26.4646 18.0178C26.4801 18.0123 26.4965 18.0068 26.5119 18.0023C26.5283 17.9977 26.5438 17.9932 26.5602 17.9886C26.5766 17.9841 26.5929 17.9804 26.6093 17.9777C26.6257 17.975 26.6421 17.9713 26.6585 17.9686C26.6748 17.9659 26.6921 17.9641 26.7085 17.9622C26.7249 17.9604 26.7422 17.9595 26.7586 17.9586C26.7922 17.9568 26.8259 17.9568 26.8596 17.9586C26.8759 17.9586 26.8932 17.9604 26.9096 17.9622C26.926 17.9641 26.9433 17.9659 26.9597 17.9686C26.976 17.9713 26.9924 17.9741 27.0088 17.9777C27.0252 17.9814 27.0416 17.985 27.0579 17.9886C27.0743 17.9932 27.0907 17.9968 27.1062 18.0023C27.1226 18.0068 27.138 18.0123 27.1535 18.0178C27.169 18.0232 27.1853 18.0296 27.1999 18.036C27.2154 18.0423 27.2308 18.0487 27.2454 18.056C27.26 18.0633 27.2754 18.0705 27.29 18.0787C27.3045 18.0869 27.3191 18.0951 27.3337 18.1033C27.3482 18.1115 27.3619 18.1206 27.3764 18.1297C27.3901 18.1388 27.4037 18.1488 27.4174 18.1588C27.431 18.1688 27.4438 18.1788 27.4574 18.1897C27.4702 18.2007 27.4829 18.2116 27.4956 18.2225C27.5084 18.2334 27.5202 18.2453 27.532 18.2571C27.5439 18.2689 27.5557 18.2817 27.5666 18.2935C27.5775 18.3062 27.5885 18.319 27.5994 18.3317C27.6103 18.3444 27.6203 18.3581 27.6303 18.3717C27.6403 18.3854 27.6503 18.399 27.6594 18.4127C27.6685 18.4263 27.6776 18.4409 27.6858 18.4555C27.694 18.47 27.7022 18.4846 27.7104 18.4991C27.7186 18.5137 27.7259 18.5292 27.7332 18.5437C27.7404 18.5592 27.7468 18.5738 27.7532 18.5892C27.7595 18.6047 27.7659 18.6202 27.7714 18.6356C27.7768 18.6511 27.7823 18.6675 27.7868 18.683C27.7914 18.6984 27.7959 18.7148 27.8005 18.7312C27.805 18.7476 27.8087 18.7639 27.8114 18.7803C27.8151 18.7967 27.8178 18.8131 27.8205 18.8295C27.8232 18.8458 27.8251 18.8631 27.8269 18.8795C27.8287 18.8959 27.8296 18.9132 27.8305 18.9296C27.8305 18.9459 27.8314 18.9632 27.8314 18.9805C27.8314 18.9978 27.8314 19.0142 27.8305 19.0306C27.8305 19.047 27.8287 19.0642 27.8269 19.0806C27.8251 19.097 27.8232 19.1143 27.8205 19.1307C27.8178 19.1471 27.8151 19.1634 27.8114 19.1798C27.8087 19.1962 27.8041 19.2126 27.8005 19.229C27.7959 19.2453 27.7923 19.2617 27.7868 19.2772C27.7823 19.2927 27.7768 19.309 27.7714 19.3245C27.7659 19.34 27.7595 19.3563 27.7532 19.3709C27.7468 19.3864 27.7404 19.4018 27.7332 19.4164C27.7259 19.431 27.7186 19.4464 27.7104 19.461C27.7022 19.4756 27.694 19.4901 27.6858 19.5047C27.6767 19.5192 27.6685 19.5329 27.6594 19.5474C27.6503 19.562 27.6403 19.5747 27.6303 19.5884C27.6203 19.602 27.6103 19.6148 27.5994 19.6284C27.5885 19.6412 27.5775 19.6539 27.5666 19.6667C27.5557 19.6794 27.5439 19.6912 27.532 19.7031C27.5202 19.7149 27.5084 19.7267 27.4956 19.7376C27.4829 19.7486 27.4702 19.7604 27.4574 19.7704C27.4447 19.7804 27.431 19.7913 27.4174 19.8013C27.4037 19.8113 27.3901 19.8214 27.3764 19.8305C27.3628 19.8396 27.3482 19.8487 27.3337 19.8568C27.3191 19.865 27.3045 19.8732 27.29 19.8814C27.2754 19.8896 27.26 19.8969 27.2454 19.9042C27.2308 19.9114 27.2154 19.9178 27.1999 19.9242C27.1844 19.9305 27.169 19.9369 27.1535 19.9424C27.138 19.9478 27.1216 19.9533 27.1062 19.9578C27.0907 19.9624 27.0743 19.967 27.0579 19.9715C27.0416 19.9761 27.0252 19.9797 27.0088 19.9824C26.9924 19.9861 26.976 19.9888 26.9597 19.9915C26.9433 19.9943 26.926 19.9961 26.9096 19.9979C26.8932 19.9997 26.8759 20.0006 26.8596 20.0015C26.8432 20.0024 26.8259 20.0024 26.8095 20.0024Z" fill="#0C0C0C"/>
</g>
</svg>
