<svg width="27" height="24" viewBox="0 0 27 24" fill="none" xmlns="http://www.w3.org/2000/svg">
<mask id="mask0_6159_456" style="mask-type:luminance" maskUnits="userSpaceOnUse" x="0" y="0" width="27" height="24">
<path d="M26.7685 0H0.231689V24H26.7685V0Z" fill="white"/>
</mask>
<g mask="url(#mask0_6159_456)">
<path d="M12.7946 24.2324C12.7268 23.3368 13.3997 22.5573 14.2954 22.492C15.191 22.4242 15.9704 23.0971 16.0358 23.9927C16.1035 24.8884 15.4306 25.6678 14.5374 25.7331C14.4963 25.7356 14.4551 25.738 14.414 25.738C13.5716 25.738 12.86 25.0868 12.7946 24.2348V24.2324ZM10.4442 25.4306C9.5704 25.2321 9.02093 24.3631 9.21941 23.4868C9.4179 22.613 10.2869 22.0635 11.1631 22.262C12.037 22.4605 12.5864 23.3295 12.3879 24.2058C12.2161 24.961 11.548 25.4717 10.8049 25.4717C10.6863 25.4717 10.5653 25.4596 10.4442 25.4306ZM16.4303 23.9032C16.1011 23.0681 16.5126 22.1241 17.3477 21.7973C18.1828 21.4681 19.1244 21.8796 19.4536 22.7147C19.7828 23.5498 19.3713 24.4938 18.5362 24.8206C18.3401 24.898 18.1392 24.9344 17.9432 24.9344C17.2945 24.9344 16.682 24.5422 16.4303 23.9032ZM6.62214 23.9322C5.84513 23.4844 5.57887 22.4896 6.0291 21.7126C6.4769 20.9356 7.47176 20.6693 8.24876 21.1171C9.02577 21.5649 9.29203 22.5598 8.8418 23.3368C8.54165 23.8572 7.9946 24.1501 7.43303 24.1501C7.15708 24.1501 6.87872 24.0799 6.62214 23.9322ZM19.807 22.5089C19.2479 21.807 19.3616 20.7855 20.0612 20.2263C20.7631 19.6672 21.7846 19.7809 22.3438 20.4805C22.9029 21.1825 22.7892 22.2039 22.0896 22.7631C21.7895 23.0027 21.4312 23.1189 21.0754 23.1189C20.5985 23.1189 20.1265 22.9108 19.8046 22.5089H19.807ZM3.41245 21.3761C2.80247 20.7177 2.83878 19.6914 3.49717 19.079C4.15557 18.469 5.1819 18.5053 5.7943 19.1637C6.40429 19.8197 6.36798 20.8484 5.70958 21.4608C5.39733 21.7513 5.00035 21.8965 4.60338 21.8965C4.16767 21.8965 3.73439 21.7222 3.41245 21.3785V21.3761ZM22.6221 20.1828C21.8814 19.6769 21.6902 18.6651 22.1961 17.9244C22.702 17.1837 23.7138 16.9924 24.4545 17.4983C25.1952 18.0042 25.3864 19.0136 24.8805 19.7567C24.5659 20.2167 24.0551 20.466 23.5371 20.466C23.2224 20.466 22.9029 20.374 22.6221 20.1828ZM1.09596 17.9873C0.706252 17.1788 1.04271 16.2082 1.85118 15.8185C2.65966 15.4288 3.63031 15.7652 4.02002 16.5737C4.40973 17.3822 4.07327 18.3528 3.2648 18.7425C3.03727 18.8539 2.79521 18.9047 2.55799 18.9047C1.95527 18.9047 1.37433 18.5658 1.09354 17.9873H1.09596ZM24.6336 17.1328C23.7768 16.869 23.2951 15.9589 23.5589 15.102C23.8227 14.2451 24.7329 13.7634 25.5898 14.0272C26.4466 14.2911 26.9283 15.2012 26.6645 16.0581C26.4491 16.7552 25.8076 17.2055 25.1129 17.2055C24.9556 17.2055 24.7934 17.1812 24.6336 17.1328ZM-0.116743 14.0635C-0.249875 13.1776 0.36011 12.3498 1.24846 12.2142C2.13681 12.0811 2.96223 12.6911 3.09778 13.5794C3.23091 14.4678 2.62093 15.2932 1.73258 15.4288C1.65028 15.4409 1.5704 15.4481 1.4881 15.4481C0.69657 15.4481 0.00428526 14.8696 -0.116743 14.066V14.0635ZM24.0212 11.9988V11.9867V11.977C24.0212 11.079 24.745 10.3504 25.643 10.348C26.541 10.348 27.2696 11.0717 27.2721 11.9698V11.9867V11.9988C27.2721 12.8968 26.5435 13.623 25.6479 13.623C24.7498 13.623 24.0237 12.8968 24.0237 11.9988H24.0212ZM1.24846 11.81C0.36011 11.6793 -0.252296 10.8514 -0.121585 9.96552C0.00912631 9.07716 0.836963 8.46476 1.72289 8.59789C2.61124 8.7286 3.22365 9.55644 3.09052 10.4424C2.97191 11.2484 2.2772 11.8294 1.48568 11.8294C1.4058 11.8294 1.32592 11.8245 1.24604 11.8124L1.24846 11.81ZM23.5516 8.87626C23.2854 8.01937 23.7647 7.10924 24.6215 6.84297C25.4784 6.57671 26.3886 7.05598 26.6548 7.91287C26.9211 8.76975 26.4418 9.67989 25.5849 9.94615C25.4252 9.99698 25.263 10.0188 25.1032 10.0188C24.4109 10.0188 23.7695 9.57096 23.5516 8.87626ZM1.84392 8.20576C1.03545 7.81604 0.694149 6.84539 1.08386 6.03692C1.47357 5.22845 2.44422 4.88715 3.2527 5.27686C4.06117 5.66657 4.40247 6.63722 4.01276 7.4457C3.73197 8.02663 3.15345 8.36794 2.54831 8.36552C2.31109 8.36552 2.07146 8.31468 1.84634 8.20576H1.84392ZM22.184 6.05629C21.6757 5.31559 21.8645 4.30621 22.6052 3.79789C23.3459 3.28957 24.3553 3.47837 24.8636 4.21907C25.3719 4.95977 25.1831 5.96915 24.4424 6.47747C24.1616 6.67111 23.8421 6.76309 23.525 6.76309C23.007 6.76309 22.4987 6.5162 22.184 6.05629ZM3.48265 4.94282C2.82426 4.33284 2.78553 3.30651 3.39309 2.64812C4.00308 1.98972 5.0294 1.95099 5.6878 2.55856C6.34619 3.16854 6.38492 4.19486 5.77736 4.85326C5.45784 5.1994 5.02214 5.37368 4.58401 5.37368C4.18946 5.37368 3.79248 5.23087 3.48023 4.9404L3.48265 4.94282ZM20.0442 3.76158C19.3423 3.20243 19.2261 2.18095 19.7852 1.47898C20.3444 0.777013 21.3659 0.660825 22.0678 1.21998C22.7698 1.77913 22.886 2.80061 22.3268 3.50258C22.0049 3.90682 21.5329 4.11499 21.0536 4.11499C20.7002 4.11499 20.342 3.9988 20.0442 3.76158ZM6.00731 2.3044C5.55708 1.52739 5.82093 0.534955 6.59551 0.0847284C7.37252 -0.365499 8.36495 -0.101656 8.81518 0.672928C9.2654 1.44993 9.00156 2.44237 8.22698 2.8926C7.9704 3.04267 7.68961 3.11287 7.41367 3.11287C6.85451 3.11287 6.30746 2.8224 6.00731 2.3044ZM17.3283 2.19547C16.4932 1.86869 16.0793 0.927088 16.4061 0.0919898C16.7329 -0.743109 17.6745 -1.15703 18.5096 -0.830249C19.3447 -0.503472 19.7586 0.438132 19.4318 1.27323C19.1801 1.91468 18.5677 2.30682 17.919 2.30682C17.7229 2.30682 17.522 2.27051 17.3283 2.19547ZM9.19521 0.522852C8.9943 -0.350975 9.54135 -1.22238 10.4176 -1.42329C11.2914 -1.6242 12.1628 -1.07715 12.3637 -0.20332C12.5646 0.670507 12.0176 1.54191 11.1414 1.74282C11.0203 1.77187 10.8969 1.78397 10.7783 1.78397C10.0376 1.78397 9.36949 1.27323 9.19521 0.520432V0.522852ZM14.2712 1.50561C13.3755 1.44025 12.7026 0.663245 12.768 -0.232367C12.8333 -1.12798 13.6103 -1.8009 14.5059 -1.73554C15.4016 -1.67019 16.0745 -0.893184 16.0091 0.00242877C15.9462 0.856892 15.2345 1.51045 14.3898 1.51045C14.351 1.51045 14.3099 1.51045 14.2712 1.50561Z" fill="#0C0C0C"/>
<path d="M12.5767 27.9843C12.4896 26.8151 13.3682 25.7961 14.5374 25.7114C15.7065 25.6242 16.7256 26.5029 16.8127 27.672C16.8999 28.8412 16.0212 29.8602 14.852 29.9474C14.7988 29.9522 14.7455 29.9522 14.6923 29.9522C13.5909 29.9522 12.6614 29.1026 12.5767 27.9867V27.9843ZM9.50499 29.548C8.36248 29.289 7.64599 28.1513 7.90499 27.0088C8.16399 25.8663 9.30167 25.1498 10.4442 25.4088C11.5867 25.6678 12.3032 26.8055 12.0442 27.948C11.8215 28.9332 10.9452 29.6012 9.97701 29.6012C9.82209 29.6012 9.66233 29.5843 9.50499 29.548ZM17.3283 27.5534C16.8999 26.4617 17.4372 25.2297 18.5265 24.8012C19.6182 24.3728 20.8502 24.9102 21.2787 25.9994C21.7071 27.0911 21.1697 28.3232 20.0805 28.7516C19.8263 28.8508 19.5625 28.8993 19.3035 28.8993C18.4563 28.8993 17.6551 28.3885 17.3283 27.5534ZM4.50893 27.5897C3.49471 27.004 3.14614 25.7041 3.73192 24.6899C4.3177 23.6757 5.61755 23.3271 6.63177 23.9129C7.64599 24.4987 7.99455 25.7985 7.40878 26.8127C7.01664 27.4929 6.30257 27.8729 5.56914 27.8729C5.20847 27.8729 4.84297 27.781 4.50893 27.5873V27.5897ZM21.741 25.7307C21.01 24.8158 21.1576 23.4796 22.075 22.7462C22.99 22.0151 24.3262 22.1628 25.0596 23.0802C25.7906 23.9952 25.643 25.3313 24.7256 26.0648C24.3334 26.377 23.8663 26.5295 23.4015 26.5295C22.7794 26.5295 22.1598 26.256 21.741 25.7307ZM0.31649 24.2493C-0.4823 23.39 -0.431468 22.0466 0.425416 21.2502C1.28472 20.4515 2.62814 20.5023 3.42451 21.3592C4.2233 22.2185 4.17247 23.5619 3.31558 24.3583C2.90651 24.7383 2.3885 24.9271 1.8705 24.9271C1.30166 24.9271 0.732829 24.6996 0.314069 24.2493H0.31649ZM25.4203 22.6929C24.452 22.0321 24.2027 20.7105 24.8635 19.7422C25.5244 18.774 26.846 18.5247 27.8142 19.1855C28.7825 19.8463 29.0318 21.1679 28.371 22.1362C27.9595 22.7389 27.2938 23.0633 26.616 23.0633C26.2045 23.0633 25.7858 22.9422 25.4203 22.6929ZM-2.70923 19.8221C-3.21997 18.7667 -2.777 17.4984 -1.72163 16.9876C-0.666263 16.4769 0.602118 16.9198 1.11286 17.9752C1.6236 19.0306 1.18064 20.299 0.125265 20.8097C-0.172466 20.9525 -0.48714 21.0227 -0.796974 21.0227C-1.58608 21.0227 -2.34372 20.5822 -2.70923 19.8245V19.8221ZM28.0466 18.7062C26.9259 18.3601 26.2965 17.174 26.6427 16.0533C26.9888 14.9325 28.1749 14.3032 29.2956 14.6493C30.4163 14.9955 31.0457 16.1816 30.6995 17.3023C30.4188 18.2148 29.5788 18.8006 28.6711 18.8006C28.4654 18.8006 28.2548 18.7692 28.0466 18.7062ZM-4.29228 14.6953C-4.46657 13.5359 -3.66778 12.4539 -2.50832 12.2796C-1.34887 12.1053 -0.266869 12.9041 -0.0925875 14.0636C0.0816941 15.223 -0.717095 16.305 -1.87655 16.4793C-1.98306 16.4962 -2.08956 16.5035 -2.19365 16.5035C-3.22723 16.5035 -4.13253 15.7483 -4.28986 14.6953H-4.29228ZM27.2502 11.9988V11.9843V11.9746C27.2502 10.803 28.1967 9.84934 29.3682 9.84934C30.5398 9.84934 31.4935 10.7958 31.4935 11.9673V11.9819V11.9988C31.4935 13.1704 30.5422 14.1217 29.3707 14.1217C28.1991 14.1217 27.2478 13.1704 27.2478 11.9988H27.2502ZM-2.51074 11.7495C-3.6702 11.5776 -4.47141 10.4981 -4.29955 9.33859H-4.29713C-4.12527 8.17914 -3.04569 7.37793 -1.88623 7.54979C-0.726778 7.72165 0.0744328 8.80123 -0.0974278 9.96068C-0.254766 11.0136 -1.16006 11.7713 -2.19365 11.7713C-2.29773 11.7713 -2.40182 11.764 -2.50832 11.7471L-2.51074 11.7495ZM26.6354 7.92256C26.2893 6.80183 26.9138 5.61333 28.0345 5.26719C29.1552 4.92105 30.3437 5.54555 30.6899 6.66628C31.036 7.78701 30.4115 8.97551 29.2908 9.32165C29.0826 9.38701 28.8696 9.41847 28.6614 9.41847C27.7561 9.41847 26.9162 8.83512 26.6354 7.92256ZM-1.73132 7.03905C-2.78669 6.53073 -3.23207 5.26235 -2.72375 4.20698C-2.21543 3.14919 -0.94705 2.70622 0.10832 3.21454C1.16369 3.72286 1.60908 4.99124 1.10076 6.04661C0.73525 6.80667 -0.0223904 7.24964 -0.813918 7.24964C-1.12133 7.24964 -1.43601 7.18186 -1.73374 7.03905H-1.73132ZM24.849 4.23844C24.1858 3.27021 24.4327 1.951 25.4009 1.28776C26.3691 0.624526 27.6884 0.871423 28.3516 1.83965C29.0148 2.80546 28.7679 4.1271 27.7997 4.79033C27.4342 5.04207 27.0154 5.1631 26.6015 5.1631C25.9262 5.1631 25.2605 4.84117 24.849 4.24086V4.23844ZM0.410892 2.774C-0.448412 1.97763 -0.501664 0.634208 0.297125 -0.225097C1.09349 -1.0844 2.43691 -1.13765 3.29622 -0.338863C4.15552 0.457506 4.20878 1.80092 3.40999 2.66023C2.99123 3.11288 2.42239 3.34041 1.85113 3.34041C1.33555 3.34041 0.817549 3.15403 0.408472 2.774H0.410892ZM22.0557 1.23693C21.1383 0.505918 20.9858 -0.82782 21.7168 -1.74522C22.4478 -2.66262 23.7815 -2.81511 24.6989 -2.0841C25.6163 -1.35308 25.7688 -0.0193477 25.0378 0.89805C24.6191 1.42574 23.9994 1.69926 23.3749 1.69926C22.9126 1.69926 22.4454 1.54919 22.0533 1.23693H22.0557ZM3.71014 -0.672903C3.12194 -1.68712 3.46566 -2.98697 4.47988 -3.57517C5.4941 -4.16337 6.79395 -3.81723 7.38215 -2.80301C7.97035 -1.78879 7.62421 -0.488939 6.60999 0.0992608C6.27353 0.292907 5.90802 0.387309 5.54735 0.387309C4.81634 0.387309 4.10227 0.00727844 3.71014 -0.670482V-0.672903ZM18.5047 -0.810876C17.413 -1.2369 16.8732 -2.46897 17.3017 -3.56065C17.7277 -4.65233 18.9598 -5.19212 20.0514 -4.76367C21.1431 -4.33765 21.6829 -3.10558 21.2545 -2.0139C20.9277 -1.17638 20.1265 -0.66322 19.2769 -0.66322C19.0203 -0.66322 18.7589 -0.709211 18.5047 -0.808455V-0.810876ZM7.87837 -2.99908C7.61695 -4.14159 8.33101 -5.27926 9.47353 -5.54068C10.616 -5.8021 11.7537 -5.08803 12.0151 -3.9431C12.2766 -2.80059 11.5625 -1.66292 10.42 -1.4015C10.2602 -1.36519 10.1029 -1.34824 9.94554 -1.34824C8.97731 -1.34824 8.10348 -2.0139 7.87837 -2.99908ZM14.5107 -1.71133C13.3416 -1.79605 12.4629 -2.81269 12.5477 -3.98183C12.6324 -5.15097 13.649 -6.02964 14.8182 -5.94492C15.9873 -5.8602 16.866 -4.84355 16.7812 -3.67442C16.7014 -2.55853 15.7694 -1.70407 14.6657 -1.70407C14.6148 -1.70407 14.5616 -1.70407 14.5107 -1.70891V-1.71133Z" fill="#0C0C0C"/>
<path d="M12.9737 21.1147C12.9253 20.449 13.4239 19.8681 14.092 19.8173C14.7577 19.7688 15.3386 20.2675 15.3894 20.9331C15.4378 21.5988 14.9392 22.1797 14.2711 22.2306C14.2397 22.2306 14.2106 22.233 14.1791 22.233C13.5522 22.233 13.0197 21.7489 12.9737 21.1123V21.1147ZM11.2236 22.0055C10.5725 21.8578 10.1634 21.2091 10.3111 20.5579C10.4587 19.9068 11.1074 19.4977 11.7586 19.6454C12.4097 19.793 12.8188 20.4418 12.6711 21.0929C12.5428 21.6545 12.0442 22.0369 11.4923 22.0369C11.4027 22.0369 11.3132 22.0272 11.2236 22.0079V22.0055ZM15.6847 20.8678C15.4403 20.2457 15.7453 19.5437 16.3673 19.2992C16.9894 19.0548 17.6914 19.3598 17.9359 19.9819C18.1804 20.6039 17.8754 21.3059 17.2533 21.5504C17.108 21.6085 16.958 21.6351 16.8103 21.6351C16.3262 21.6351 15.8711 21.3446 15.6823 20.8678H15.6847ZM8.3746 20.8896C7.79608 20.5555 7.5976 19.8148 7.93164 19.2363C8.26568 18.6578 9.00637 18.4593 9.58489 18.7934C10.1634 19.1274 10.3619 19.8681 10.0279 20.4466C9.80274 20.8339 9.39608 21.0517 8.97975 21.0517C8.774 21.0517 8.56583 20.9985 8.3746 20.8896ZM18.1997 19.8294C17.7834 19.3065 17.8681 18.5465 18.3909 18.1277C18.9138 17.7114 19.6738 17.7961 20.0926 18.3165C20.5089 18.8393 20.4242 19.5994 19.9038 20.0182C19.6811 20.1973 19.4148 20.282 19.1486 20.282C18.7928 20.282 18.4418 20.1271 18.2021 19.8269L18.1997 19.8294ZM5.98549 18.9846C5.53043 18.4956 5.55705 17.7283 6.04843 17.2732C6.53739 16.8182 7.30471 16.8448 7.75978 17.3362C8.21484 17.8251 8.18822 18.5924 7.69684 19.0475C7.46447 19.2654 7.16916 19.3719 6.87385 19.3719C6.54949 19.3719 6.22513 19.2412 5.98792 18.9846H5.98549ZM20.2959 18.0962C19.744 17.7186 19.6012 16.9658 19.9788 16.4139C20.3564 15.862 21.1092 15.7192 21.6611 16.0968C22.213 16.4744 22.3558 17.2272 21.9782 17.7791C21.7434 18.1229 21.3634 18.3068 20.9785 18.3068C20.7437 18.3068 20.5065 18.239 20.2959 18.0962ZM4.25962 16.4623C3.96916 15.8596 4.2209 15.1359 4.8212 14.8454C5.42392 14.5549 6.14767 14.8067 6.43814 15.407C6.72861 16.0097 6.47687 16.7334 5.87657 17.0239C5.70713 17.1062 5.52801 17.1449 5.3513 17.1449C4.90108 17.1449 4.47021 16.8932 4.25962 16.4623ZM21.7943 15.8233C21.1552 15.6272 20.797 14.9495 20.9931 14.3104C21.1891 13.6714 21.8669 13.3132 22.5059 13.5092C23.145 13.7053 23.5032 14.3831 23.3071 15.0221C23.1474 15.5425 22.6681 15.8766 22.1501 15.8766C22.0315 15.8766 21.9129 15.8596 21.7943 15.8233ZM3.35433 13.5383C3.25509 12.8775 3.71015 12.2602 4.37097 12.161C5.03179 12.0617 5.64903 12.5168 5.74828 13.1776C5.84752 13.8384 5.39245 14.4557 4.73164 14.5549C4.67112 14.5646 4.61061 14.5694 4.55009 14.5694C3.96189 14.5694 3.44389 14.1386 3.35433 13.5383ZM21.3392 12.0012V11.994V11.9843C21.3392 11.3162 21.879 10.774 22.5471 10.7716C23.2151 10.7716 23.7598 11.3114 23.7598 11.9794V11.9891C23.7598 11.9891 23.7598 11.9988 23.7598 12.0036C23.7598 12.6717 23.2176 13.2139 22.5495 13.2139C21.8814 13.2139 21.3392 12.6717 21.3392 12.0036V12.0012ZM4.37097 11.8584C3.71015 11.7592 3.25267 11.1443 3.35191 10.4835C3.45115 9.8227 4.06598 9.36521 4.7268 9.46445C5.38761 9.56127 5.8451 10.1785 5.74586 10.8393C5.6563 11.4396 5.14071 11.8729 4.55009 11.8729C4.492 11.8729 4.43149 11.8681 4.37097 11.8608V11.8584ZM20.9882 9.67262C20.7897 9.03359 21.148 8.35583 21.7846 8.15734C22.4236 7.95885 23.1014 8.3171 23.2999 8.95371C23.4984 9.59274 23.1401 10.2705 22.5035 10.469C22.3849 10.5053 22.2639 10.5247 22.1453 10.5247C21.6297 10.5247 21.1504 10.1906 20.9906 9.67262H20.9882ZM4.81636 9.17398C4.21363 8.88351 3.95947 8.16218 4.24994 7.55946C4.54041 6.95674 5.26416 6.70257 5.86447 6.99304C6.46719 7.28351 6.72135 8.00484 6.43088 8.60757C6.22271 9.04085 5.78943 9.29259 5.3392 9.29259C5.1625 9.29259 4.9858 9.25386 4.81636 9.17398ZM19.9692 7.57156C19.5915 7.01967 19.7319 6.26687 20.2838 5.88926C20.8357 5.51165 21.5885 5.65205 21.9661 6.20394C22.3437 6.75583 22.2033 7.50863 21.6539 7.88624C21.4457 8.02905 21.2061 8.09925 20.9713 8.09925C20.5864 8.09925 20.2064 7.91528 19.9716 7.57398L19.9692 7.57156ZM6.03633 6.7413C5.54495 6.28624 5.5159 5.52133 5.97097 5.02996C6.42604 4.53858 7.19094 4.50953 7.68232 4.9646C8.17369 5.41967 8.20274 6.18457 7.74767 6.67595C7.51046 6.93253 7.18368 7.06324 6.85932 7.06324C6.56401 7.06324 6.27112 6.95674 6.03633 6.7413ZM18.3764 5.86021C17.8536 5.44388 17.7664 4.68382 18.1828 4.15855C18.5991 3.63571 19.3592 3.54857 19.8844 3.96491C20.4073 4.38124 20.4944 5.1413 20.0781 5.66657C19.8384 5.96672 19.4875 6.12406 19.1292 6.12406C18.8654 6.12406 18.5991 6.03934 18.3764 5.86021ZM7.91711 4.7758C7.58065 4.19728 7.77914 3.45658 8.35524 3.12012C8.93375 2.78366 9.67445 2.98215 10.0109 3.55825C10.3474 4.13677 10.1489 4.87746 9.57279 5.2115C9.38156 5.32285 9.17339 5.3761 8.96522 5.3761C8.54888 5.3761 8.14223 5.16067 7.91711 4.77338V4.7758ZM16.3504 4.69592C15.7283 4.45386 15.4209 3.75189 15.663 3.12739C15.9074 2.5053 16.607 2.19788 17.2315 2.43994C17.8536 2.682 18.161 3.38397 17.9189 4.00848C17.7325 4.48533 17.2751 4.77822 16.7909 4.77822C16.6457 4.77822 16.4956 4.75159 16.3504 4.69592ZM10.2917 3.44932C10.1416 2.79819 10.5507 2.14947 11.2018 1.9994C11.853 1.84932 12.5017 2.2584 12.6518 2.90953C12.8018 3.56067 12.3928 4.20938 11.7416 4.35946C11.6496 4.38124 11.5601 4.39093 11.4705 4.39093C10.9186 4.39093 10.42 4.0109 10.2917 3.45174V3.44932ZM14.0751 4.18034C13.4094 4.13192 12.9059 3.55341 12.9543 2.88533C13.0027 2.21967 13.5813 1.71619 14.2493 1.7646C14.915 1.81301 15.4185 2.39153 15.3701 3.05961C15.3241 3.69622 14.794 4.18276 14.1646 4.18276C14.1356 4.18276 14.1065 4.18276 14.0775 4.18034H14.0751Z" fill="#0C0C0C"/>
<path d="M12.727 19.413C12.2429 19.3622 11.8919 18.9313 11.9428 18.4472C11.9936 17.9655 12.4245 17.6121 12.9062 17.663C13.3903 17.7138 13.7413 18.1446 13.6904 18.6288C13.6444 19.0814 13.262 19.4179 12.8166 19.4179C12.7876 19.4179 12.7561 19.4179 12.7246 19.413H12.727ZM14.6974 18.5247C14.5473 18.0623 14.7991 17.5661 15.2614 17.4161C15.7237 17.266 16.2199 17.5177 16.37 17.98C16.5201 18.4424 16.2683 18.9386 15.806 19.0887C15.7164 19.1177 15.6245 19.1322 15.5349 19.1322C15.1646 19.1322 14.8208 18.895 14.6998 18.5247H14.6974ZM9.77878 18.4569C9.3576 18.2148 9.21478 17.6775 9.45684 17.2563C9.6989 16.8351 10.2363 16.6923 10.6574 16.9344C11.0786 17.1764 11.2214 17.7138 10.9794 18.135C10.8172 18.4158 10.5219 18.5755 10.2169 18.5755C10.0668 18.5755 9.91675 18.5368 9.77878 18.4569ZM17.2463 17.4717C16.9219 17.1111 16.9509 16.5543 17.3116 16.23C17.6723 15.9056 18.229 15.9347 18.5534 16.2953C18.8777 16.656 18.8487 17.2127 18.488 17.5371C18.3186 17.6896 18.1104 17.7622 17.8998 17.7622C17.6602 17.7622 17.4205 17.663 17.2463 17.4717ZM7.47439 16.3849C7.18876 15.9928 7.27348 15.4433 7.66804 15.1577C8.06017 14.872 8.60964 14.9568 8.89527 15.3513C9.1809 15.7434 9.09618 16.2929 8.70162 16.5785C8.54671 16.6923 8.36516 16.748 8.18362 16.748C7.91252 16.748 7.64383 16.6221 7.47197 16.3873L7.47439 16.3849ZM19.1488 15.4772C18.7059 15.2787 18.505 14.7607 18.7034 14.3153C18.9019 13.8723 19.4199 13.6714 19.8653 13.8699C20.3083 14.0684 20.5092 14.5864 20.3107 15.0318C20.1655 15.3586 19.8435 15.5522 19.5071 15.5522C19.3885 15.5522 19.265 15.528 19.1488 15.4748V15.4772ZM6.21085 13.5552C6.10919 13.0808 6.41418 12.6136 6.88861 12.512C7.36305 12.4103 7.83022 12.7153 7.93188 13.1897C8.03354 13.6642 7.72855 14.1313 7.25412 14.233C7.1936 14.2451 7.13067 14.2524 7.07016 14.2524C6.6635 14.2524 6.29799 13.9692 6.21085 13.5552ZM19.1948 12.0012V11.994V11.9891C19.1948 11.5026 19.5869 11.108 20.0711 11.108C20.5576 11.108 20.9522 11.5002 20.9522 11.9843V11.9915C20.9522 11.9915 20.9522 11.9988 20.9522 12.0012C20.9522 12.4878 20.5576 12.8799 20.0735 12.8799C19.5869 12.8799 19.1948 12.4853 19.1948 12.0012ZM6.88861 11.5002C6.41418 11.4009 6.10919 10.9338 6.20843 10.4593C6.30767 9.98489 6.77484 9.6799 7.24928 9.77914C7.72371 9.87838 8.0287 10.3456 7.92946 10.82C7.84232 11.2339 7.47681 11.5195 7.07016 11.5195C7.00964 11.5195 6.94913 11.5123 6.88861 11.5002ZM18.6986 9.67264C18.5001 9.22967 18.6986 8.70925 19.1416 8.51076C19.5845 8.31227 20.105 8.51076 20.3034 8.95372C20.5019 9.39669 20.3034 9.91711 19.8605 10.1156C19.7443 10.1689 19.6208 10.1931 19.5022 10.1931C19.1658 10.1931 18.8463 9.99941 18.6986 9.67264ZM7.66078 8.85448C7.26864 8.56885 7.1815 8.01938 7.46471 7.62725C7.75034 7.23512 8.29981 7.14798 8.69194 7.43118C9.08407 7.71681 9.17121 8.26628 8.88801 8.65841C8.71615 8.89563 8.44746 9.0215 8.17636 9.0215C7.99724 9.0215 7.81569 8.96825 7.66078 8.85448ZM17.3019 7.76038C16.9413 7.43602 16.9098 6.87929 17.2342 6.51863C17.5585 6.15796 18.1152 6.12649 18.4759 6.45085C18.8366 6.77521 18.868 7.33194 18.5437 7.6926C18.3694 7.88625 18.1298 7.98549 17.8901 7.98549C17.682 7.98549 17.4714 7.91046 17.3043 7.76038H17.3019ZM9.44474 6.75342C9.20026 6.33466 9.34307 5.79487 9.76425 5.55282C10.183 5.30834 10.7228 5.45115 10.9649 5.87233C11.2093 6.29109 11.0665 6.83088 10.6453 7.07294C10.5074 7.15282 10.3549 7.19155 10.2048 7.19155C9.90223 7.19155 9.60692 7.03421 9.44474 6.75342ZM15.2517 6.58156C14.7894 6.43149 14.5352 5.93769 14.6853 5.47536C14.8354 5.01303 15.3292 4.75887 15.7915 4.90894C16.2538 5.05902 16.508 5.55282 16.3579 6.01515C16.2369 6.38791 15.8932 6.62513 15.5204 6.62513C15.4308 6.62513 15.3388 6.61061 15.2493 6.58156H15.2517ZM11.9282 5.55524C11.8774 5.07112 12.2284 4.64026 12.7101 4.58943C13.1918 4.5386 13.6251 4.88958 13.6759 5.37127C13.7267 5.85297 13.3758 6.28625 12.8941 6.33708C12.8626 6.3395 12.8311 6.34192 12.7997 6.34192C12.3567 6.34192 11.9742 6.00546 11.9258 5.55524H11.9282Z" fill="#0C0C0C"/>
<path d="M12.2743 17.3846C12.0468 17.3337 11.904 17.1062 11.9548 16.8787C12.0056 16.6511 12.2332 16.5083 12.4607 16.5592C12.6882 16.61 12.831 16.8375 12.7802 17.0651C12.7366 17.2611 12.5624 17.3943 12.3687 17.3943C12.3372 17.3943 12.3058 17.3918 12.2743 17.3846ZM14.2253 17.0651C14.1745 16.8375 14.3173 16.61 14.5448 16.5592C14.7723 16.5083 14.9999 16.6511 15.0507 16.8787C15.1015 17.1062 14.9587 17.3337 14.7312 17.3846C14.6997 17.3918 14.6683 17.3943 14.6368 17.3943C14.4431 17.3943 14.2689 17.2611 14.2253 17.0651ZM10.0595 16.3195C9.87793 16.1743 9.84647 15.908 9.9917 15.7241C10.1369 15.5425 10.4032 15.5111 10.5872 15.6563C10.7687 15.8015 10.8002 16.0678 10.6549 16.2518C10.5726 16.3558 10.4492 16.4115 10.3233 16.4115C10.2313 16.4115 10.1369 16.3825 10.0595 16.3195ZM16.3506 16.2493C16.2053 16.0678 16.2344 15.8015 16.4183 15.6539C16.5999 15.5086 16.8661 15.5377 17.0138 15.7216C17.159 15.9032 17.13 16.1695 16.946 16.3171C16.8686 16.38 16.7742 16.4091 16.6822 16.4091C16.5587 16.4091 16.4353 16.3558 16.3506 16.2493ZM8.52725 14.4C8.42559 14.1894 8.51273 13.9377 8.72332 13.836C8.93391 13.7344 9.18565 13.8215 9.28731 14.0321C9.38898 14.2427 9.30184 14.4944 9.09125 14.5961C9.03073 14.6251 8.97022 14.6372 8.90728 14.6372C8.74995 14.6372 8.59987 14.5501 8.52725 14.3976V14.4ZM17.9118 14.5937C17.7012 14.492 17.6141 14.2403 17.7133 14.0297C17.815 13.8191 18.0667 13.7319 18.2773 13.8312C18.4879 13.9328 18.5751 14.1846 18.4758 14.3952C18.4032 14.5452 18.2507 14.6348 18.0934 14.6348C18.0329 14.6348 17.9699 14.6203 17.9094 14.5937H17.9118ZM7.97778 12.0061C7.97778 11.7713 8.16659 11.5825 8.40138 11.5825C8.63618 11.5825 8.82498 11.7713 8.82498 12.0061C8.82498 12.2409 8.63618 12.4297 8.40138 12.4297C8.16659 12.4297 7.97778 12.2409 7.97778 12.0061ZM18.1757 11.9988C18.1757 11.9988 18.1757 11.9964 18.1757 11.994C18.1757 11.994 18.1757 11.9915 18.1757 11.9891C18.1757 11.7543 18.3645 11.5655 18.5968 11.5655C18.8316 11.5655 19.0204 11.7543 19.0204 11.9867V11.994V11.9988C19.0204 12.2336 18.8316 12.4224 18.5968 12.4224C18.362 12.4224 18.1732 12.2336 18.1732 11.9988H18.1757ZM8.71848 10.1737C8.50789 10.072 8.41833 9.82028 8.51999 9.60969C8.62166 9.3991 8.8734 9.30954 9.08399 9.41121C9.29458 9.51287 9.38414 9.76461 9.28247 9.9752C9.20986 10.1277 9.05736 10.2148 8.90002 10.2148C8.83951 10.2148 8.77657 10.2003 8.71606 10.1737H8.71848ZM17.7109 9.9631C17.6092 9.75251 17.6964 9.50077 17.907 9.3991C18.1176 9.29744 18.3693 9.38458 18.471 9.59517C18.5726 9.80576 18.4855 10.0575 18.2749 10.1616C18.2144 10.1906 18.1515 10.2027 18.0909 10.2027C17.9336 10.2027 17.7835 10.1156 17.7109 9.9631ZM9.98686 8.28322C9.84163 8.10168 9.87067 7.83541 10.0522 7.68776C10.2338 7.54252 10.5 7.57157 10.6477 7.75311C10.7929 7.93466 10.7639 8.20092 10.5823 8.34857C10.5049 8.41151 10.4105 8.44056 10.3185 8.44056C10.195 8.44056 10.0716 8.3873 9.98686 8.28322ZM16.4086 8.33889C16.2247 8.19366 16.1956 7.92739 16.3409 7.74343C16.4861 7.55947 16.7524 7.53042 16.9363 7.67565C17.1179 7.82089 17.1493 8.08715 17.0041 8.27111C16.9194 8.3752 16.7984 8.43087 16.6725 8.43087C16.5805 8.43087 16.4861 8.40183 16.4086 8.33889ZM11.9451 7.12376C11.8919 6.89623 12.0347 6.66869 12.2622 6.61786C12.4897 6.56461 12.7173 6.70742 12.7681 6.93496C12.8214 7.16249 12.6785 7.39003 12.451 7.44086C12.4195 7.44812 12.3881 7.45054 12.3566 7.45054C12.163 7.45054 11.9887 7.31741 11.9451 7.12134V7.12376ZM14.5327 7.43844C14.3052 7.38761 14.1624 7.16007 14.2132 6.93254C14.264 6.705 14.4916 6.56219 14.7191 6.61302C14.9466 6.66385 15.0894 6.89139 15.0386 7.11892C14.995 7.31499 14.8207 7.44812 14.6271 7.44812C14.5956 7.44812 14.5642 7.4457 14.5327 7.43844Z" fill="#0C0C0C"/>
</g>
</svg>
