<svg width="169" height="25" viewBox="0 0 169 25" fill="none" xmlns="http://www.w3.org/2000/svg">
<path d="M0.498535 0.783386H6.43364L9.13768 10.9878C9.29394 11.5943 9.29394 12.0233 8.82782 12.5L8.32462 13.0562C7.9247 13.4693 7.74196 13.9752 7.74196 14.5049C7.74196 15.6437 8.63449 16.5998 9.77331 16.5998C10.9121 16.5998 11.8152 15.6437 11.8152 14.5049C11.8152 13.9752 11.6351 13.4693 11.2087 13.0562L10.7055 12.5265C10.2527 12.0736 10.2527 11.5943 10.4089 10.9878L13.1633 0.783386H18.8918L13.3063 19.3276H6.18205L0.503837 0.783386H0.498535Z" fill="#0C0C0C"/>
<path d="M18.6958 0.5H23.5053V4.27664H18.6958V0.5ZM18.7461 5.61939H23.4391V19.3276H18.7461V5.61939Z" fill="black"/>
<path d="M27.1684 19.1608C26.1593 18.7979 25.3754 18.2736 24.8139 17.5823C24.2524 16.8937 23.9558 16.0568 23.9214 15.0743H28.8474C28.8554 15.6092 29.0381 16.0277 29.3904 16.3296C29.7426 16.6315 30.214 16.7825 30.7993 16.7825C31.3264 16.7825 31.7316 16.6766 32.0203 16.4647C32.3089 16.2528 32.4546 15.9668 32.4546 15.6039C32.4546 15.2861 32.3434 15.0425 32.1235 14.873C31.9037 14.7035 31.5435 14.5737 31.043 14.4784L28.482 13.9858C26.983 13.6918 25.8839 13.2124 25.19 12.545C24.4961 11.8776 24.1491 10.9957 24.1491 9.89925C24.1491 8.9776 24.4007 8.16718 24.9066 7.468C25.4124 6.76881 26.1487 6.22324 27.118 5.83127C28.0874 5.43931 29.2421 5.24332 30.5769 5.24332C31.9117 5.24332 33.0929 5.44195 34.0357 5.83921C34.9785 6.23648 35.6963 6.77145 36.1836 7.4415C36.6709 8.11155 36.941 8.86371 36.9913 9.69266H32.1553C32.1474 9.20006 31.9991 8.81869 31.7104 8.54061C31.4217 8.26517 31.0139 8.12745 30.4895 8.12745C30.1796 8.12745 29.9042 8.17777 29.6632 8.27576C29.4222 8.3764 29.2368 8.51412 29.107 8.68892C28.9772 8.86636 28.9137 9.07029 28.9137 9.30335C28.9137 9.58673 29.0222 9.81714 29.2368 9.98928C29.4513 10.1614 29.7929 10.2912 30.2591 10.376L32.8572 10.8792C33.9086 11.0778 34.7561 11.3585 35.397 11.7187C36.0379 12.0789 36.5067 12.5318 36.8007 13.0694C37.0946 13.6097 37.2403 14.2559 37.2403 15.016C37.2403 16.0515 36.9569 16.9202 36.3928 17.622C35.8287 18.3239 35.0553 18.8456 34.0781 19.1873C33.1008 19.5289 31.9858 19.6984 30.7358 19.6984C29.3639 19.6984 28.1748 19.5183 27.1657 19.1555L27.1684 19.1608Z" fill="black"/>
<path d="M37.709 0.5H42.5185V4.27664H37.709V0.5ZM37.7593 5.61939H42.4523V19.3276H37.7593V5.61939Z" fill="black"/>
<path d="M46.38 18.8244C45.3074 18.2391 44.4758 17.3996 43.8905 16.3084C43.3052 15.2173 43.0112 13.9407 43.0112 12.4735C43.0112 11.0063 43.3052 9.71915 43.8905 8.6333C44.4758 7.54745 45.3074 6.71055 46.38 6.12525C47.4526 5.53995 48.7 5.24597 50.1249 5.24597C51.5497 5.24597 52.7945 5.53995 53.8698 6.12525C54.9424 6.71055 55.774 7.54745 56.3593 8.6333C56.9446 9.71915 57.2385 11.001 57.2385 12.4735C57.2385 13.946 56.9446 15.2173 56.3593 16.3084C55.774 17.3996 54.9424 18.2365 53.8698 18.8244C52.7971 19.4124 51.5524 19.7037 50.1381 19.7037C48.7239 19.7037 47.4553 19.4097 46.3827 18.8244H46.38ZM51.3776 15.8052C51.7219 15.5324 51.9841 15.1219 52.1668 14.5711C52.3469 14.0202 52.4396 13.321 52.4396 12.4762C52.4396 11.2261 52.2383 10.2912 51.8384 9.66884C51.4385 9.04646 50.8717 8.73659 50.1381 8.73659C49.6561 8.73659 49.2403 8.87165 48.8907 9.14444C48.5411 9.41723 48.2736 9.83304 48.0882 10.3919C47.9029 10.9533 47.8102 11.6498 47.8102 12.4867C47.8102 13.3237 47.9029 13.9963 48.0882 14.5552C48.2736 15.1166 48.5411 15.5324 48.8907 15.8026C49.2403 16.0727 49.6561 16.2104 50.1381 16.2104C50.6201 16.2104 51.0359 16.0754 51.3802 15.8026L51.3776 15.8052Z" fill="black"/>
<path d="M57.8076 5.61939H62.3338V10.3124L61.9338 8.90344C62.0371 8.16983 62.2861 7.5289 62.6781 6.97538C63.07 6.42451 63.5865 5.99812 64.23 5.6962C64.871 5.39428 65.6072 5.24332 66.4362 5.24332C67.3419 5.24332 68.1179 5.44725 68.7641 5.85775C69.4103 6.26826 69.9003 6.83766 70.2314 7.57127C70.5624 8.30489 70.7293 9.16298 70.7293 10.1455V19.3276H66.0363V10.4951C66.0363 9.92573 65.9038 9.49139 65.6416 9.18947C65.3794 8.88755 64.9848 8.73659 64.4578 8.73659C64.0526 8.73659 63.7004 8.82928 63.4037 9.01467C63.1071 9.20006 62.882 9.47019 62.731 9.82243C62.5801 10.1747 62.5059 10.5931 62.5059 11.0778V19.3276H57.8129V5.61939H57.8076Z" fill="black"/>
<path d="M73.3194 19.1926C72.6334 18.8509 72.0984 18.3636 71.7091 17.7253C71.3225 17.0871 71.1265 16.3429 71.1265 15.4874C71.1265 14.2029 71.5025 13.2257 72.2573 12.5583C73.0121 11.8909 74.1139 11.4539 75.5626 11.2446L78.0468 10.9215C78.4785 10.8527 78.8228 10.7706 79.0823 10.6752C79.3419 10.5799 79.5299 10.4501 79.6517 10.2806C79.7736 10.1111 79.8318 9.89394 79.8318 9.62645C79.8318 9.38545 79.7683 9.16298 79.6385 8.9617C79.5087 8.76042 79.3207 8.60152 79.077 8.49028C78.8307 8.37905 78.5394 8.32343 78.2031 8.32343C77.6336 8.32343 77.1861 8.47704 76.8577 8.7816C76.5292 9.08882 76.3545 9.49934 76.328 10.0158H71.4919C71.5343 9.07559 71.831 8.24397 72.3765 7.52095C72.9221 6.79793 73.6901 6.23647 74.678 5.83921C75.6659 5.44195 76.81 5.24332 78.1103 5.24332C79.4981 5.24332 80.6634 5.45784 81.6089 5.88953C82.5518 6.32123 83.2642 6.93566 83.7435 7.73284C84.2229 8.53001 84.4613 9.4861 84.4613 10.5984V16.1972C84.4613 16.7931 84.5063 17.3493 84.5963 17.871C84.6864 18.3927 84.8188 18.7211 84.991 18.8615V19.3276H80.1417C80.0543 18.9568 79.9854 18.5463 79.9351 18.0935C79.8848 17.6406 79.853 17.148 79.8451 16.613L80.4913 16.0833C80.3456 16.7375 80.0675 17.3387 79.657 17.8816C79.2465 18.4245 78.701 18.8642 78.0203 19.2005C77.3397 19.5369 76.5451 19.7037 75.642 19.7037C74.7389 19.7037 74.0053 19.5342 73.322 19.1926H73.3194ZM78.738 16.1548C79.0876 15.9535 79.3578 15.6622 79.5537 15.2888C79.7497 14.9154 79.8451 14.4731 79.8451 13.9646V12.1928L80.1947 12.3994C80.004 12.6589 79.7789 12.8575 79.5167 12.9953C79.2545 13.133 78.889 13.2495 78.4229 13.3448L77.6601 13.4879C77.0986 13.5991 76.6696 13.7818 76.373 14.0308C76.0764 14.2797 75.9281 14.6267 75.9281 15.0663C75.9281 15.506 76.079 15.8476 76.3809 16.0939C76.6829 16.3402 77.0748 16.462 77.5568 16.462C77.9965 16.462 78.3911 16.3614 78.7407 16.1575L78.738 16.1548Z" fill="black"/>
<path d="M85.5498 5.61937H90.0362V10.2223L89.7264 9.32981C89.8217 8.53793 90.0574 7.84406 90.4388 7.25346C90.8175 6.66286 91.3128 6.20467 91.9272 5.88156C92.5416 5.55845 93.2249 5.39691 93.9824 5.39691C94.2657 5.39691 94.5094 5.42339 94.7054 5.47371V9.97338C94.5253 9.92041 94.3373 9.88598 94.1439 9.86215C93.9506 9.84096 93.744 9.83037 93.5295 9.83037C92.8992 9.83037 92.3377 9.95749 91.8425 10.2117C91.3472 10.466 90.9579 10.8527 90.6718 11.3691C90.3858 11.8855 90.2455 12.5238 90.2455 13.2839V19.3223H85.5525V5.61408L85.5498 5.61937Z" fill="black"/>
<path d="M95.8707 24.4099C95.4496 24.349 95.0602 24.2669 94.708 24.1636V20.3367C95.002 20.4479 95.3066 20.5327 95.627 20.5883C95.9448 20.6439 96.2812 20.673 96.6361 20.673C97.0492 20.673 97.4147 20.6148 97.7299 20.4982C98.045 20.3817 98.3152 20.1937 98.5456 19.9368C98.776 19.6799 98.9667 19.3382 99.1203 18.9145L99.5202 21.0623L93.6116 5.62204H98.6542L102.185 17.0288H100.49L103.633 5.62204H108.456L103.723 19.3674C103.318 20.575 102.815 21.555 102.211 22.3098C101.607 23.0646 100.897 23.6181 100.084 23.9703C99.2686 24.3226 98.3231 24.5 97.2452 24.5C96.7526 24.5 96.2971 24.4709 95.8733 24.4099H95.8707Z" fill="black"/>
<path d="M111.663 14.9577L117.702 7.45739C118.218 6.81118 118.478 6.64169 119.513 6.64169H120.586C121.854 6.64169 122.771 5.70943 122.771 4.49381C122.771 3.27818 121.828 2.34594 120.649 2.34594C119.407 2.34594 118.502 3.23847 118.425 4.57062C118.385 5.15328 118.075 5.39693 117.506 5.39693H111.557V0.780731H126.015V5.17711L120.067 12.4709C119.55 13.1171 119.317 13.2866 118.282 13.2866H117.233C115.978 13.2866 115.048 14.2188 115.048 15.4344C115.048 16.6501 116.004 17.5823 117.196 17.5823C118.388 17.5823 119.251 16.6898 119.381 15.5006C119.434 14.9577 119.73 14.7247 120.197 14.7247H126.185V19.3276H111.663V14.9577Z" fill="#0C0C0C"/>
<path d="M129.659 18.8244C128.587 18.2391 127.755 17.3996 127.17 16.3084C126.585 15.2173 126.291 13.9407 126.291 12.4735C126.291 11.0063 126.585 9.71915 127.17 8.6333C127.755 7.54745 128.587 6.71055 129.659 6.12525C130.732 5.53995 131.979 5.24597 133.404 5.24597C134.829 5.24597 136.074 5.53995 137.149 6.12525C138.222 6.71055 139.053 7.54745 139.639 8.6333C140.224 9.71915 140.518 11.001 140.518 12.4735C140.518 13.946 140.224 15.2173 139.639 16.3084C139.053 17.3996 138.222 18.2365 137.149 18.8244C136.076 19.4124 134.832 19.7037 133.417 19.7037C132.003 19.7037 130.735 19.4097 129.662 18.8244H129.659ZM134.657 15.8052C135.001 15.5324 135.263 15.1219 135.446 14.5711C135.626 14.0202 135.719 13.321 135.719 12.4762C135.719 11.2261 135.518 10.2912 135.118 9.66884C134.718 9.04646 134.151 8.73659 133.417 8.73659C132.935 8.73659 132.52 8.87165 132.17 9.14444C131.82 9.41723 131.553 9.83304 131.368 10.3919C131.182 10.9533 131.089 11.6498 131.089 12.4867C131.089 13.3237 131.182 13.9963 131.368 14.5552C131.553 15.1166 131.82 15.5324 132.17 15.8026C132.52 16.0727 132.935 16.2104 133.417 16.2104C133.899 16.2104 134.315 16.0754 134.66 15.8026L134.657 15.8052Z" fill="black"/>
<path d="M141.085 5.61939H145.611V10.3124L145.211 8.90344C145.314 8.16983 145.563 7.5289 145.955 6.97538C146.347 6.42451 146.864 5.99812 147.507 5.6962C148.148 5.39428 148.884 5.24332 149.711 5.24332C150.616 5.24332 151.392 5.44725 152.039 5.85775C152.685 6.26826 153.175 6.83766 153.506 7.57127C153.837 8.30489 154.004 9.16298 154.004 10.1455V19.3276H149.311V10.4951C149.311 9.92573 149.178 9.49139 148.916 9.18947C148.654 8.88755 148.259 8.73659 147.732 8.73659C147.327 8.73659 146.975 8.82928 146.678 9.01467C146.382 9.20006 146.156 9.47019 146.006 9.82243C145.855 10.1747 145.778 10.5931 145.778 11.0778V19.3276H141.085V5.61939Z" fill="black"/>
<path d="M157.833 18.8959C156.763 18.3583 155.937 17.5505 155.349 16.4779C154.764 15.4053 154.47 14.0838 154.47 12.5132C154.47 10.9427 154.777 9.66619 155.394 8.57504C156.011 7.48389 156.859 6.65758 157.942 6.09082C159.022 5.5267 160.262 5.24332 161.66 5.24332C162.979 5.24332 164.155 5.52404 165.191 6.08286C166.226 6.64433 167.036 7.45474 167.622 8.51411C168.207 9.57348 168.501 10.8421 168.501 12.3173C168.501 12.929 168.496 13.3899 168.488 13.6997H158.376V10.7653H165.41L163.795 11.1149C163.795 10.5375 163.707 10.0449 163.53 9.63969C163.353 9.23448 163.096 8.92727 162.754 8.7207C162.412 8.51412 162.007 8.41084 161.533 8.41084C161.025 8.41084 160.585 8.53001 160.214 8.76572C159.843 9.00407 159.557 9.35368 159.353 9.8198C159.15 10.2859 159.049 10.85 159.049 11.5148V13.4296C159.049 14.0679 159.152 14.6108 159.359 15.0584C159.565 15.506 159.862 15.8502 160.251 16.086C160.638 16.3243 161.091 16.4409 161.61 16.4409C162.187 16.4409 162.669 16.2978 163.051 16.0144C163.435 15.7311 163.678 15.3285 163.782 14.8121H168.451C168.313 15.8291 167.95 16.7057 167.365 17.4366C166.78 18.1703 166.001 18.7291 165.032 19.1184C164.062 19.5077 162.934 19.7011 161.65 19.7011C160.174 19.7011 158.903 19.4309 157.836 18.8933L157.833 18.8959Z" fill="black"/>
</svg>
