<svg width="265" height="25" viewBox="0 0 265 25" fill="none" xmlns="http://www.w3.org/2000/svg">
<path d="M0.37617 10.1247C0.37617 3.89248 3.82128 0.5 9.21661 0.5C14.6119 0.5 17.8254 3.26346 17.9044 8.18505H12.159C12.0564 6.20589 11.1826 5.02418 9.36926 5.02418C7.28745 5.02418 6.15575 6.73226 6.15575 10.0747C6.15575 13.4172 7.15849 15.1253 9.39294 15.1253C11.3458 15.1253 12.0801 13.6093 12.1564 11.8618H17.9018C17.7596 17.2334 14.2908 19.6626 9.29293 19.6626C3.61336 19.6626 0.373535 16.1807 0.373535 10.1274L0.37617 10.1247ZM3.29491 12.0513C4.38713 12.0513 5.27407 11.1643 5.27407 10.0721C5.27407 8.97988 4.38713 8.09294 3.29491 8.09294C2.20268 8.09294 1.31574 8.97988 1.31574 10.0721C1.31574 11.1643 2.20268 12.0513 3.29491 12.0513Z" fill="#0C0C0C"/>
<path d="M18.3704 5.6637H22.8287V10.2379L22.5208 9.35095C22.6156 8.56402 22.8498 7.87447 23.2288 7.28756C23.6051 6.70066 24.0973 6.24535 24.7079 5.92426C25.3159 5.60317 25.9975 5.44263 26.7502 5.44263C27.0318 5.44263 27.274 5.46894 27.4687 5.51895V9.99049C27.2898 9.93786 27.1029 9.90364 26.9108 9.87996C26.7186 9.8589 26.5133 9.84837 26.3002 9.84837C25.6738 9.84837 25.1158 9.9747 24.6237 10.2274C24.1315 10.48 23.7446 10.8643 23.4604 11.3775C23.1761 11.8907 23.0367 12.525 23.0367 13.2803V19.281H18.373V5.65844L18.3704 5.6637Z" fill="#0C0C0C"/>
<path d="M30.4006 18.8573C29.3373 18.323 28.5162 17.5203 27.9319 16.4544C27.3502 15.3885 27.0581 14.0752 27.0581 12.5145C27.0581 10.9538 27.3634 9.6852 27.9766 8.60087C28.5899 7.51654 29.4321 6.69539 30.5085 6.13217C31.5823 5.57159 32.814 5.28998 34.2036 5.28998C35.5143 5.28998 36.6828 5.56896 37.7119 6.12428C38.741 6.68224 39.5463 7.48759 40.128 8.54034C40.7096 9.59308 41.0017 10.8537 41.0017 12.3197C41.0017 12.9277 40.9965 13.3856 40.9886 13.6935H30.9401V10.7774H37.9303L36.3249 11.1248C36.3249 10.5511 36.2381 10.0616 36.0617 9.65888C35.8854 9.2562 35.6301 8.95091 35.2906 8.74562C34.9511 8.54034 34.5484 8.43769 34.0773 8.43769C33.572 8.43769 33.1351 8.55613 32.7666 8.79036C32.3982 9.02723 32.1139 9.37464 31.9113 9.83785C31.7086 10.3011 31.6086 10.8616 31.6086 11.5222V13.4251C31.6086 14.0594 31.7113 14.5989 31.9165 15.0437C32.1218 15.4885 32.4166 15.8306 32.8035 16.0648C33.1877 16.3017 33.6378 16.4175 34.1536 16.4175C34.7274 16.4175 35.2064 16.2754 35.5854 15.9938C35.967 15.7122 36.2091 15.3121 36.3117 14.7989H40.9517C40.8149 15.8096 40.4543 16.6807 39.8727 17.4071C39.291 18.1361 38.5173 18.6914 37.554 19.0783C36.5907 19.4652 35.4696 19.6573 34.1931 19.6573C32.7272 19.6573 31.4639 19.3889 30.4032 18.8546L30.4006 18.8573Z" fill="#0C0C0C"/>
<path d="M43.1543 19.152C42.4726 18.8125 41.941 18.3283 41.5541 17.694C41.1699 17.0597 40.9751 16.3201 40.9751 15.47C40.9751 14.1936 41.3488 13.2224 42.0989 12.5592C42.849 11.896 43.9438 11.4617 45.3835 11.2538L47.8522 10.9327C48.2812 10.8643 48.6233 10.7827 48.8812 10.6879C49.1392 10.5932 49.326 10.4642 49.4471 10.2958C49.5681 10.13 49.626 9.91154 49.626 9.64572C49.626 9.40622 49.5629 9.18514 49.4339 8.98512C49.305 8.7851 49.1181 8.62718 48.876 8.51665C48.6312 8.40611 48.3417 8.35084 48.0074 8.35084C47.4416 8.35084 46.9968 8.50349 46.6705 8.80615C46.3441 9.11145 46.1704 9.51939 46.1441 10.0326H41.3383C41.3804 9.09829 41.6752 8.27189 42.2173 7.55339C42.7621 6.83489 43.5227 6.27693 44.5044 5.88215C45.4861 5.48737 46.6231 5.28998 47.9153 5.28998C49.2944 5.28998 50.4525 5.50316 51.392 5.93215C52.329 6.36115 53.0369 6.97174 53.5133 7.76393C53.9897 8.55612 54.2265 9.50623 54.2265 10.6116V16.1754C54.2265 16.7676 54.2713 17.3202 54.3608 17.8387C54.4503 18.3572 54.5819 18.6836 54.7529 18.823V19.2862H49.934C49.8471 18.9178 49.7787 18.5099 49.7287 18.0598C49.6787 17.6098 49.6471 17.1202 49.6392 16.5886L50.2814 16.0622C50.1366 16.7123 49.8603 17.3097 49.4523 17.8493C49.0444 18.3888 48.5022 18.8257 47.8258 19.1599C47.1495 19.4942 46.3599 19.66 45.4624 19.66C44.565 19.66 43.8359 19.4915 43.1569 19.152H43.1543ZM48.5391 16.1333C48.8865 15.9333 49.1549 15.6437 49.3497 15.2727C49.5445 14.9016 49.6392 14.462 49.6392 13.9567V12.196L49.9866 12.4013C49.7971 12.6592 49.5734 12.8566 49.3128 12.9935C49.0523 13.1303 48.6891 13.2461 48.2259 13.3409L47.4679 13.483C46.91 13.5935 46.4836 13.7751 46.1888 14.0225C45.8941 14.2699 45.7467 14.6147 45.7467 15.0516C45.7467 15.4885 45.8967 15.828 46.1967 16.0727C46.4968 16.3175 46.8863 16.4386 47.3653 16.4386C47.8022 16.4386 48.1943 16.3386 48.5417 16.1359L48.5391 16.1333Z" fill="#0C0C0C"/>
<path d="M58.6826 19.0547C57.9588 18.7546 57.3956 18.2756 56.9929 17.615C56.5902 16.9544 56.3902 16.1017 56.3902 15.0569V9.10622H54.1794V5.6611H54.54C55.1138 5.6611 55.5822 5.57688 55.9481 5.41107C56.3113 5.24527 56.5929 4.95576 56.7903 4.54256C56.9876 4.13199 57.0982 3.5714 57.1245 2.85816L57.1877 1.53433H61.0433V6.05851L60.4512 5.6611H63.9595V9.10622H61.0433V14.3752C61.0433 14.9226 61.1828 15.3148 61.4618 15.5517C61.7408 15.7885 62.1356 15.9043 62.6514 15.9043C63.0357 15.9043 63.4041 15.8649 63.7568 15.7885V19.1678C63.4647 19.2626 63.0988 19.3416 62.6593 19.4047C62.2172 19.4679 61.7671 19.5021 61.3039 19.5021C60.2854 19.5021 59.4116 19.3521 58.6878 19.052L58.6826 19.0547Z" fill="#0C0C0C"/>
<path d="M64.4724 0.576324H69.2519V4.32937H64.4724V0.576324ZM64.5224 5.66373H69.1861V19.2863H64.5224V5.66373Z" fill="#0C0C0C"/>
<path d="M69.0627 5.66373H74.0238L77.4558 17.5756H75.824L79.0744 5.66373H83.9196L79.306 19.2863H73.908L69.0627 5.66373Z" fill="#0C0C0C"/>
<path d="M86.6435 18.8573C85.5802 18.323 84.7591 17.5203 84.1748 16.4544C83.5932 15.3885 83.301 14.0752 83.301 12.5145C83.301 10.9538 83.6063 9.6852 84.2195 8.60087C84.8328 7.51654 85.675 6.69539 86.7514 6.13217C87.8252 5.57159 89.0569 5.28998 90.4465 5.28998C91.7572 5.28998 92.9258 5.56896 93.9548 6.12428C94.9839 6.68224 95.7892 7.48759 96.3709 8.54034C96.9525 9.59308 97.2446 10.8537 97.2446 12.3197C97.2446 12.9277 97.2394 13.3856 97.2315 13.6935H87.183V10.7774H94.1733L92.5678 11.1248C92.5678 10.5511 92.481 10.0616 92.3046 9.65888C92.1283 9.2562 91.873 8.95091 91.5335 8.74562C91.194 8.54034 90.7913 8.43769 90.3202 8.43769C89.8149 8.43769 89.378 8.55613 89.0095 8.79036C88.6411 9.02723 88.3568 9.37464 88.1542 9.83785C87.9515 10.3011 87.8515 10.8616 87.8515 11.5222V13.4251C87.8515 14.0594 87.9542 14.5989 88.1595 15.0437C88.3647 15.4885 88.6595 15.8306 89.0464 16.0648C89.4306 16.3017 89.8807 16.4175 90.3965 16.4175C90.9703 16.4175 91.4493 16.2754 91.8283 15.9938C92.2099 15.7122 92.452 15.3121 92.5547 14.7989H97.1946C97.0578 15.8096 96.6972 16.6807 96.1156 17.4071C95.5339 18.1361 94.7602 18.6914 93.7969 19.0783C92.8336 19.4652 91.7125 19.6573 90.436 19.6573C88.9701 19.6573 87.7068 19.3889 86.6461 18.8546L86.6435 18.8573Z" fill="#0C0C0C"/>
<path d="M100.924 10.1247C100.924 3.89248 104.369 0.5 109.764 0.5C115.16 0.5 118.373 3.26346 118.452 8.18505H112.707C112.604 6.20589 111.73 5.02418 109.917 5.02418C107.835 5.02418 106.704 6.73226 106.704 10.0747C106.704 13.4172 107.706 15.1253 109.941 15.1253C111.894 15.1253 112.628 13.6093 112.704 11.8618H118.45C118.307 17.2334 114.839 19.6626 109.841 19.6626C104.161 19.6626 100.921 16.1807 100.921 10.1274L100.924 10.1247ZM103.84 12.0513C104.932 12.0513 105.819 11.1643 105.819 10.0721C105.819 8.97988 104.932 8.09294 103.84 8.09294C102.748 8.09294 101.861 8.97988 101.861 10.0721C101.861 11.1643 102.748 12.0513 103.84 12.0513Z" fill="#0C0C0C"/>
<path d="M120.787 19.0889C120.131 18.7073 119.642 18.1651 119.315 17.4624C118.989 16.7597 118.826 15.9333 118.826 14.9832V5.66635H123.49V14.4436C123.49 14.9911 123.624 15.4201 123.895 15.728C124.166 16.0359 124.556 16.1912 125.071 16.1912C125.474 16.1912 125.821 16.0991 126.114 15.9148C126.406 15.7306 126.624 15.4674 126.774 15.1253C126.924 14.7831 126.998 14.3752 126.998 13.9041V5.66635H131.662V19.2889H127.203V14.6358L127.614 16.0228C127.511 16.7518 127.264 17.3887 126.874 17.9388C126.485 18.4862 125.971 18.9125 125.34 19.2099C124.706 19.51 123.982 19.66 123.169 19.66C122.234 19.66 121.439 19.4705 120.784 19.0889H120.787Z" fill="#0C0C0C"/>
<path d="M132.822 0.857941H137.486V19.2863H132.822V0.857941Z" fill="#0C0C0C"/>
<path d="M142.147 19.0547C141.423 18.7546 140.86 18.2756 140.457 17.615C140.055 16.9544 139.855 16.1017 139.855 15.0569V9.10622H137.644V5.6611H138.004C138.578 5.6611 139.047 5.57688 139.412 5.41107C139.776 5.24527 140.057 4.95576 140.255 4.54256C140.452 4.13199 140.563 3.5714 140.589 2.85816L140.652 1.53433H144.508V6.05851L143.916 5.6611H147.424V9.10622H144.508V14.3752C144.508 14.9226 144.647 15.3148 144.926 15.5517C145.205 15.7885 145.6 15.9043 146.116 15.9043C146.5 15.9043 146.868 15.8649 147.221 15.7885V19.1678C146.929 19.2626 146.563 19.3416 146.124 19.4047C145.682 19.4679 145.231 19.5021 144.768 19.5021C143.75 19.5021 142.876 19.3521 142.152 19.052L142.147 19.0547Z" fill="#0C0C0C"/>
<path d="M149.858 19.0889C149.203 18.7073 148.713 18.1651 148.387 17.4624C148.061 16.7597 147.897 15.9333 147.897 14.9832V5.66635H152.561V14.4436C152.561 14.9911 152.695 15.4201 152.966 15.728C153.238 16.0359 153.627 16.1912 154.143 16.1912C154.546 16.1912 154.893 16.0991 155.185 15.9148C155.477 15.7306 155.696 15.4674 155.846 15.1253C155.996 14.7831 156.069 14.3752 156.069 13.9041V5.66635H160.733V19.2889H156.275V14.6358L156.685 16.0228C156.583 16.7518 156.335 17.3887 155.946 17.9388C155.556 18.4862 155.043 18.9125 154.411 19.2099C153.777 19.51 153.053 19.66 152.24 19.66C151.306 19.66 150.511 19.4705 149.856 19.0889H149.858Z" fill="#0C0C0C"/>
<path d="M161.896 5.6637H166.355V10.2379L166.047 9.35095C166.141 8.56402 166.376 7.87447 166.755 7.28756C167.131 6.70066 167.623 6.24535 168.234 5.92426C168.842 5.60317 169.523 5.44263 170.276 5.44263C170.558 5.44263 170.8 5.46894 170.995 5.51895V9.99049C170.816 9.93786 170.629 9.90364 170.437 9.87996C170.245 9.8589 170.039 9.84837 169.826 9.84837C169.2 9.84837 168.642 9.9747 168.15 10.2274C167.657 10.48 167.271 10.8643 166.986 11.3775C166.702 11.8907 166.563 12.525 166.563 13.2803V19.281H161.899V5.65844L161.896 5.6637Z" fill="#0C0C0C"/>
<path d="M173.927 18.8573C172.863 18.323 172.042 17.5203 171.458 16.4544C170.876 15.3885 170.584 14.0752 170.584 12.5145C170.584 10.9538 170.89 9.6852 171.503 8.60087C172.116 7.51654 172.958 6.69539 174.035 6.13217C175.108 5.57159 176.34 5.28998 177.73 5.28998C179.04 5.28998 180.209 5.56896 181.238 6.12428C182.267 6.68224 183.072 7.48759 183.654 8.54034C184.236 9.59308 184.528 10.8537 184.528 12.3197C184.528 12.9277 184.523 13.3856 184.515 13.6935H174.466V10.7774H181.456L179.851 11.1248C179.851 10.5511 179.764 10.0616 179.588 9.65888C179.411 9.2562 179.156 8.95091 178.817 8.74562C178.477 8.54034 178.075 8.43769 177.603 8.43769C177.098 8.43769 176.661 8.55613 176.293 8.79036C175.924 9.02723 175.64 9.37464 175.437 9.83785C175.235 10.3011 175.135 10.8616 175.135 11.5222V13.4251C175.135 14.0594 175.237 14.5989 175.443 15.0437C175.648 15.4885 175.943 15.8306 176.33 16.0648C176.714 16.3017 177.164 16.4175 177.68 16.4175C178.253 16.4175 178.732 16.2754 179.111 15.9938C179.493 15.7122 179.735 15.3121 179.838 14.7989H184.478C184.341 15.8096 183.98 16.6807 183.399 17.4071C182.817 18.1361 182.043 18.6914 181.08 19.0783C180.117 19.4652 178.996 19.6573 177.719 19.6573C176.253 19.6573 174.99 19.3889 173.929 18.8546L173.927 18.8573Z" fill="#0C0C0C"/>
<path d="M187.384 0.857941H193.282L195.969 10.9985C196.124 11.6012 196.124 12.0276 195.661 12.5013L195.161 13.054C194.763 13.4646 194.582 13.9673 194.582 14.4936C194.582 15.6254 195.469 16.5755 196.6 16.5755C197.732 16.5755 198.63 15.6254 198.63 14.4936C198.63 13.9673 198.451 13.4646 198.027 13.054L197.527 12.5276C197.077 12.0776 197.077 11.6012 197.232 10.9985L199.969 0.857941H205.662L200.111 19.2863H193.032L187.389 0.857941H187.384Z" fill="#0C0C0C"/>
<path d="M205.467 0.576324H210.247V4.32937H205.467V0.576324ZM205.517 5.66373H210.181V19.2863H205.517V5.66373Z" fill="#0C0C0C"/>
<path d="M211.341 0.857941H216.005V19.2863H211.341V0.857941Z" fill="#0C0C0C"/>
<path d="M217.163 0.857941H221.827V19.2863H217.163V0.857941Z" fill="#0C0C0C"/>
<path d="M224.498 19.152C223.816 18.8125 223.285 18.3283 222.898 17.694C222.514 17.0597 222.319 16.3201 222.319 15.47C222.319 14.1936 222.693 13.2224 223.443 12.5592C224.193 11.896 225.288 11.4617 226.727 11.2538L229.196 10.9327C229.625 10.8643 229.967 10.7827 230.225 10.6879C230.483 10.5932 230.67 10.4642 230.791 10.2958C230.912 10.13 230.97 9.91154 230.97 9.64572C230.97 9.40622 230.907 9.18514 230.778 8.98512C230.649 8.7851 230.462 8.62718 230.22 8.51665C229.975 8.40611 229.685 8.35084 229.351 8.35084C228.785 8.35084 228.341 8.50349 228.014 8.80615C227.688 9.11145 227.514 9.51939 227.488 10.0326H222.682C222.724 9.09829 223.019 8.27189 223.561 7.55339C224.106 6.83489 224.867 6.27693 225.848 5.88215C226.83 5.48737 227.967 5.28998 229.259 5.28998C230.638 5.28998 231.796 5.50316 232.736 5.93215C233.673 6.36115 234.381 6.97174 234.857 7.76393C235.333 8.55612 235.57 9.50623 235.57 10.6116V16.1754C235.57 16.7676 235.615 17.3202 235.705 17.8387C235.794 18.3572 235.926 18.6836 236.097 18.823V19.2862H231.278C231.191 18.9178 231.122 18.5099 231.072 18.0598C231.022 17.6098 230.991 17.1202 230.983 16.5886L231.625 16.0622C231.48 16.7123 231.204 17.3097 230.796 17.8493C230.388 18.3888 229.846 18.8257 229.17 19.1599C228.493 19.4942 227.704 19.66 226.806 19.66C225.909 19.66 225.18 19.4915 224.501 19.152H224.498ZM229.883 16.1333C230.23 15.9333 230.499 15.6437 230.693 15.2727C230.888 14.9016 230.983 14.462 230.983 13.9567V12.196L231.33 12.4013C231.141 12.6592 230.917 12.8566 230.657 12.9935C230.396 13.1303 230.033 13.2461 229.57 13.3409L228.812 13.483C228.254 13.5935 227.827 13.7751 227.533 14.0225C227.238 14.2699 227.09 14.6147 227.09 15.0516C227.09 15.4885 227.24 15.828 227.54 16.0727C227.841 16.3175 228.23 16.4386 228.709 16.4386C229.146 16.4386 229.538 16.3386 229.885 16.1359L229.883 16.1333Z" fill="#0C0C0C"/>
<path d="M239.463 23.9078C238.444 23.5104 237.681 22.9472 237.176 22.2234C236.671 21.4997 236.41 20.6311 236.392 19.6205H241.147C241.182 20.1679 241.387 20.5917 241.763 20.8917C242.14 21.1917 242.632 21.3417 243.242 21.3417C243.945 21.3417 244.479 21.1444 244.842 20.7496C245.206 20.3548 245.39 19.8021 245.39 19.0915V15.6095L245.853 15.4806C245.648 16.157 245.35 16.7307 244.961 17.2018C244.571 17.6729 244.092 18.0335 243.521 18.2809C242.95 18.5283 242.303 18.6546 241.574 18.6546C240.468 18.6546 239.502 18.3756 238.676 17.8203C237.85 17.2623 237.213 16.4886 236.768 15.4937C236.323 14.4989 236.099 13.3435 236.099 12.0249C236.099 10.7064 236.323 9.54571 236.768 8.52191C237.213 7.49812 237.852 6.70329 238.684 6.13744C239.516 5.57159 240.487 5.28998 241.6 5.28998C242.329 5.28998 242.974 5.41894 243.54 5.67423C244.106 5.92952 244.582 6.30588 244.966 6.79804C245.35 7.2902 245.648 7.89553 245.853 8.61666L245.442 9.45096V5.66107H250.132V18.6651C250.132 19.9416 249.851 21.0154 249.29 21.8839C248.73 22.7524 247.932 23.4078 246.901 23.8446C245.869 24.2815 244.653 24.5 243.258 24.5C241.75 24.5 240.487 24.3 239.468 23.9025L239.463 23.9078ZM244.406 14.8542C244.745 14.5884 244.998 14.2094 245.171 13.7172C245.343 13.2251 245.429 12.6487 245.429 11.9881C245.429 11.3275 245.343 10.7406 245.171 10.2537C245 9.76415 244.745 9.3878 244.406 9.12198C244.066 8.85616 243.658 8.72457 243.179 8.72457C242.7 8.72457 242.292 8.85616 241.958 9.12198C241.624 9.3878 241.371 9.76415 241.2 10.2537C241.029 10.7432 240.942 11.3196 240.942 11.9881C240.942 12.6566 241.029 13.2224 241.2 13.7093C241.371 14.1989 241.624 14.5778 241.958 14.8463C242.292 15.1147 242.7 15.2516 243.179 15.2516C243.658 15.2516 244.069 15.12 244.406 14.8542Z" fill="#0C0C0C"/>
<path d="M254.025 18.8573C252.962 18.323 252.141 17.5203 251.556 16.4544C250.975 15.3885 250.683 14.0752 250.683 12.5145C250.683 10.9538 250.988 9.6852 251.601 8.60087C252.214 7.51654 253.057 6.69539 254.133 6.13217C255.207 5.57159 256.439 5.28998 257.828 5.28998C259.139 5.28998 260.307 5.56896 261.336 6.12428C262.365 6.68224 263.171 7.48759 263.752 8.54034C264.334 9.59308 264.626 10.8537 264.626 12.3197C264.626 12.9277 264.621 13.3856 264.613 13.6935H254.565V10.7774H261.555L259.949 11.1248C259.949 10.5511 259.863 10.0616 259.686 9.65888C259.51 9.2562 259.255 8.95091 258.915 8.74562C258.576 8.54034 258.173 8.43769 257.702 8.43769C257.196 8.43769 256.76 8.55613 256.391 8.79036C256.023 9.02723 255.738 9.37464 255.536 9.83785C255.333 10.3011 255.233 10.8616 255.233 11.5222V13.4251C255.233 14.0594 255.336 14.5989 255.541 15.0437C255.746 15.4885 256.041 15.8306 256.428 16.0648C256.812 16.3017 257.262 16.4175 257.778 16.4175C258.352 16.4175 258.831 16.2754 259.21 15.9938C259.591 15.7122 259.834 15.3121 259.936 14.7989H264.576C264.439 15.8096 264.079 16.6807 263.497 17.4071C262.916 18.1361 262.142 18.6914 261.179 19.0783C260.215 19.4652 259.094 19.6573 257.818 19.6573C256.352 19.6573 255.088 19.3889 254.028 18.8546L254.025 18.8573Z" fill="#0C0C0C"/>
</svg>
