<svg width="232" height="22" viewBox="0 0 232 22" fill="none" xmlns="http://www.w3.org/2000/svg">
<path d="M0.286133 0.413956H18.8476V6.46314H13.7442C13.0522 6.46314 12.8014 6.16701 12.8014 5.62313V5.59292C12.8014 3.77696 11.3843 2.45049 9.5714 2.45049C7.75846 2.45049 6.34133 3.77696 6.34133 5.59292V5.62313C6.34133 6.17004 6.10566 6.46314 5.4107 6.46314H0.292182V0.413956H0.286133ZM9.56837 5.56272C11.3843 5.56272 12.7984 6.97981 12.7984 8.79275V21.571H6.33531V8.79275C6.33531 6.97679 7.75241 5.56272 9.56535 5.56272H9.56837Z" fill="#0C0C0C"/>
<path d="M18.9805 0.413955H25.4436V7.39376C25.4436 7.82283 25.0749 8.19146 24.661 8.19146H23.6578C22.1833 8.19146 20.9717 9.40009 20.9717 10.8776C20.9717 12.3552 22.1803 13.5638 23.6578 13.5638H24.661C25.0749 13.5638 25.4436 13.9324 25.4436 14.3162V21.574H18.9805V0.416979V0.413955ZM27.2293 8.18844H30.4594C31.9641 8.18844 33.203 9.39707 33.203 10.8746C33.203 12.3522 31.9641 13.5608 30.4594 13.5608H27.2293C25.7095 13.5608 24.4706 12.3794 24.4706 10.8746C24.4706 9.36987 25.7095 8.18844 27.2293 8.18844ZM33.0277 13.5578H34.0309C35.5054 13.5578 36.717 12.3491 36.717 10.8716C36.717 9.39404 35.5084 8.18541 34.0309 8.18541H33.0277C32.5987 8.18541 32.2452 7.81678 32.2452 7.38772V0.407906H38.7083V21.5649H32.2452V14.3071C32.2452 13.9234 32.5987 13.5547 33.0277 13.5547V13.5578Z" fill="#0C0C0C"/>
<path d="M45.0388 0.413956H54.5839L60.8687 21.571H54.0974L53.197 18.2503C53.0066 17.5855 53.2846 17.099 53.8316 16.9238L54.6715 16.6428C55.9708 16.2288 56.6053 14.857 56.1762 13.588C55.7623 12.3189 54.5839 11.8476 53.342 12.1407L52.7075 12.2887C52.0155 12.4791 51.5563 12.2011 51.381 11.5666L49.698 5.35421L47.9878 11.5666C47.8095 12.2011 47.3533 12.5093 46.6311 12.3189L46.0268 12.1709C44.7578 11.8476 43.4887 12.4821 43.1352 13.8085C42.7665 15.1078 43.5491 16.3467 44.9209 16.7606L45.6128 16.9812C46.1869 17.1595 46.335 17.6157 46.1598 18.2503L45.2442 21.571H38.5605L45.0388 0.413956ZM48.9335 12.5999H50.6317C52.1364 12.5999 53.3178 13.6484 53.3178 15.1682C53.3178 16.6881 52.1364 17.6762 50.6317 17.6762H48.9335C47.3563 17.6762 46.2202 16.7032 46.2202 15.1682C46.2202 13.6333 47.3563 12.5999 48.9335 12.5999Z" fill="#0C0C0C"/>
<path d="M60.0738 11.0498C60.0738 3.89478 64.0291 0 70.2233 0C76.4175 0 80.1068 3.17263 80.1974 8.82296H73.6014C73.4835 6.55074 72.4804 5.19405 70.3985 5.19405C68.0084 5.19405 66.7092 7.15507 66.7092 10.9925C66.7092 14.8298 67.8604 16.7908 70.4257 16.7908C72.6677 16.7908 73.5107 15.0504 73.5984 13.0441H80.1945C80.0313 19.2111 76.0488 22 70.3109 22C63.7903 22 60.0708 18.0025 60.0708 11.0529L60.0738 11.0498ZM63.4248 13.2647C64.6787 13.2647 65.6969 12.2464 65.6969 10.9925C65.6969 9.73851 64.6787 8.72023 63.4248 8.72023C62.1708 8.72023 61.1525 9.73851 61.1525 10.9925C61.1525 12.2464 62.1708 13.2647 63.4248 13.2647Z" fill="#0C0C0C"/>
<path d="M80.0675 11.0498C80.0675 3.89478 84.0227 0 90.2169 0C96.4112 0 100.1 3.17263 100.191 8.82296H93.595C93.4772 6.55074 92.4741 5.19405 90.3922 5.19405C88.0022 5.19405 86.7028 7.15507 86.7028 10.9925C86.7028 14.8298 87.8541 16.7908 90.4194 16.7908C92.6614 16.7908 93.5044 15.0504 93.592 13.0441H100.188C100.025 19.2111 96.0425 22 90.3046 22C83.784 22 80.0645 18.0025 80.0645 11.0529L80.0675 11.0498ZM83.4154 13.2647C84.6693 13.2647 85.6876 12.2464 85.6876 10.9925C85.6876 9.73851 84.6693 8.72023 83.4154 8.72023C82.1614 8.72023 81.1432 9.73851 81.1432 10.9925C81.1432 12.2464 82.1614 13.2647 83.4154 13.2647Z" fill="#0C0C0C"/>
<path d="M105.651 0.413956H115.196L121.481 21.571H114.71L113.809 18.2503C113.619 17.5855 113.897 17.099 114.444 16.9238L115.284 16.6428C116.583 16.2288 117.218 14.857 116.789 13.588C116.375 12.3189 115.196 11.8476 113.954 12.1407L113.32 12.2887C112.628 12.4791 112.169 12.2011 111.993 11.5666L110.31 5.35421L108.6 11.5666C108.422 12.2011 107.966 12.5093 107.243 12.3189L106.639 12.1709C105.37 11.8476 104.101 12.4821 103.748 13.8085C103.379 15.1078 104.161 16.3467 105.533 16.7606L106.225 16.9812C106.799 17.1595 106.947 17.6157 106.772 18.2503L105.857 21.571H99.1729L105.651 0.413956ZM109.546 12.5999H111.244C112.749 12.5999 113.93 13.6484 113.93 15.1682C113.93 16.6881 112.749 17.6762 111.244 17.6762H109.546C107.969 17.6762 106.833 16.7032 106.833 15.1682C106.833 13.6333 107.969 12.5999 109.546 12.5999Z" fill="#0C0C0C"/>
<path d="M125.557 0.413956H135.915C140.695 0.413956 143.116 3.52617 143.116 7.81982C143.116 12.1135 140.269 15.3737 135.858 15.3737H133.437C131.99 15.3737 130.812 14.2527 130.812 12.748C130.812 11.2432 131.993 10.1796 133.437 10.1796H134.589C136.093 10.1796 137.066 9.4575 137.066 7.81982C137.066 6.18213 136.093 5.65032 134.558 5.65032H133.555C132.715 5.65032 132.286 5.22127 132.286 4.49912V4.18789C132.286 2.94905 131.328 1.961 130.087 1.961C128.845 1.961 127.814 2.89165 127.814 4.1607C127.814 5.42976 128.818 6.43293 130.117 6.43293H130.633C131.504 6.43293 132.02 6.88918 132.02 7.78961V8.8532C132.02 9.78385 131.504 10.2401 130.633 10.2401H130.322C128.905 10.2401 127.754 11.3309 127.754 12.7782C127.754 14.2255 128.905 15.3163 130.322 15.3163H130.809C131.649 15.3163 132.017 15.7454 132.017 16.5854V21.571H125.554V0.413956H125.557Z" fill="#0C0C0C"/>
<path d="M145.028 21.4138C144.246 21.0241 143.635 20.4681 143.191 19.7399C142.75 19.0117 142.526 18.1626 142.526 17.1867C142.526 15.7212 142.955 14.6062 143.817 13.8448C144.678 13.0834 145.935 12.5848 147.587 12.3461L150.422 11.9775C150.914 11.8989 151.307 11.8052 151.603 11.6965C151.899 11.5877 152.114 11.4396 152.253 11.2463C152.392 11.0559 152.458 10.8051 152.458 10.4999C152.458 10.225 152.386 9.97117 152.238 9.74153C152.09 9.51189 151.875 9.33059 151.597 9.20368C151.316 9.07677 150.984 9.01332 150.6 9.01332C149.95 9.01332 149.44 9.18856 149.065 9.53604C148.69 9.88655 148.491 10.3549 148.461 10.9441H142.943C142.992 9.87145 143.33 8.9227 143.953 8.09781C144.578 7.27293 145.451 6.63232 146.578 6.17909C147.705 5.72585 149.011 5.49924 150.494 5.49924C152.078 5.49924 153.407 5.744 154.486 6.23652C155.561 6.72903 156.374 7.43003 156.921 8.33952C157.468 9.24901 157.74 10.3398 157.74 11.6089V17.9964C157.74 18.6763 157.791 19.3108 157.894 19.9061C157.997 20.5013 158.148 20.876 158.344 21.0361V21.5679H152.812C152.712 21.1449 152.634 20.6766 152.576 20.1599C152.519 19.6432 152.482 19.0812 152.473 18.4708L153.211 17.8665C153.044 18.6128 152.727 19.2988 152.259 19.9182C151.791 20.5376 151.168 21.0392 150.392 21.4229C149.615 21.8067 148.709 21.997 147.678 21.997C146.648 21.997 145.811 21.8036 145.031 21.4138H145.028ZM151.21 17.9481C151.609 17.7185 151.917 17.3861 152.141 16.9601C152.365 16.534 152.473 16.0294 152.473 15.4493V13.4278L152.872 13.6635C152.655 13.9596 152.398 14.1862 152.099 14.3434C151.8 14.5005 151.383 14.6335 150.851 14.7422L149.981 14.9054C149.34 15.0323 148.851 15.2408 148.512 15.5248C148.174 15.8088 148.005 16.2047 148.005 16.7063C148.005 17.2078 148.177 17.5976 148.521 17.8786C148.866 18.1596 149.313 18.2986 149.863 18.2986C150.364 18.2986 150.815 18.1838 151.213 17.9511L151.21 17.9481Z" fill="black"/>
<path d="M157.002 5.93134H162.698L166.638 19.6069H164.765L168.496 5.93134H174.059L168.762 21.571H162.565L157.002 5.93134Z" fill="black"/>
<path d="M173.987 0.0876389H179.474V4.39639H173.987V0.0876389ZM174.045 5.93134H179.399V21.571H174.045V5.93134Z" fill="black"/>
<path d="M180.731 0.413956H186.085V21.571H180.731V0.413956Z" fill="black"/>
<path d="M187.415 0.413956H192.769V21.571H187.415V0.413956Z" fill="black"/>
<path d="M194.041 0.0876389H199.528V4.39639H194.041V0.0876389ZM194.102 5.93134H199.456V21.571H194.102V5.93134Z" fill="black"/>
<path d="M203.937 20.9938C202.713 20.3261 201.764 19.3682 201.096 18.1233C200.429 16.8785 200.093 15.4221 200.093 13.7481C200.093 12.0742 200.429 10.6057 201.096 9.36685C201.764 8.12801 202.713 7.17321 203.937 6.50544C205.16 5.83767 206.584 5.50226 208.209 5.50226C209.835 5.50226 211.255 5.83767 212.482 6.50544C213.705 7.17321 214.654 8.12801 215.322 9.36685C215.99 10.6057 216.325 12.0681 216.325 13.7481C216.325 15.4281 215.99 16.8785 215.322 18.1233C214.654 19.3682 213.705 20.323 212.482 20.9938C211.258 21.6646 209.838 21.997 208.224 21.997C206.611 21.997 205.163 21.6616 203.94 20.9938H203.937ZM209.638 17.5492C210.031 17.238 210.33 16.7697 210.539 16.1412C210.744 15.5127 210.85 14.715 210.85 13.7511C210.85 12.325 210.62 11.2584 210.164 10.5483C209.708 9.83823 209.061 9.4847 208.224 9.4847C207.674 9.4847 207.2 9.63881 206.801 9.95003C206.402 10.2613 206.097 10.7356 205.886 11.3732C205.674 12.0137 205.568 12.8084 205.568 13.7632C205.568 14.7181 205.674 15.4855 205.886 16.1231C206.097 16.7636 206.402 17.238 206.801 17.5462C207.2 17.8544 207.674 18.0115 208.224 18.0115C208.774 18.0115 209.246 17.8574 209.641 17.5462L209.638 17.5492Z" fill="black"/>
<path d="M216.972 5.93133H222.135V11.2855L221.679 9.67808C221.797 8.84111 222.081 8.10988 222.528 7.47837C222.975 6.84989 223.565 6.36343 224.299 6.01897C225.03 5.67451 225.87 5.50226 226.816 5.50226C227.849 5.50226 228.735 5.73494 229.472 6.20328C230.209 6.67162 230.768 7.32125 231.146 8.15823C231.524 8.9952 231.714 9.97418 231.714 11.0952V21.571H226.36V11.494C226.36 10.8444 226.209 10.3489 225.909 10.0044C225.61 9.65994 225.16 9.48772 224.559 9.48772C224.096 9.48772 223.695 9.59346 223.356 9.80497C223.018 10.0165 222.761 10.3247 222.589 10.7266C222.416 11.1284 222.332 11.6058 222.332 12.1588V21.571H216.978V5.93133H216.972Z" fill="black"/>
</svg>
