<svg width="222" height="25" viewBox="0 0 222 25" fill="none" xmlns="http://www.w3.org/2000/svg">
<path d="M0.640381 10.151C0.640381 4.04774 4.29078 0.5 10.0098 0.5C15.1104 0.5 18.5055 3.21086 18.645 7.57976H12.797C12.6944 5.948 11.6153 4.94526 9.9572 4.94526C7.65695 4.94526 6.42259 6.60328 6.42259 10.0221C6.42259 13.4409 7.74644 15.2147 10.1888 15.2147C11.1916 15.2147 11.9759 14.8411 12.5285 14.2121C12.926 13.762 13.1312 13.6331 13.7234 13.6331H14.6103C15.6631 13.6331 16.5895 12.7856 16.5895 11.7065C16.5895 10.6274 15.6631 9.79051 14.6103 9.79051C13.5576 9.79051 12.6443 10.6248 12.6443 11.7065V12.2592C12.6443 12.6566 12.3732 12.9145 11.9495 12.9145H9.76508V8.96933H18.6055V19.2889H13.9024V17.3992C12.8865 18.9546 11.2047 19.66 8.92813 19.66C3.68545 19.66 0.640381 16.1517 0.640381 10.151ZM3.55911 12.0539C4.6645 12.0539 5.53829 11.1802 5.53829 10.0748C5.53829 8.96938 4.6645 8.10871 3.55911 8.10871C2.45373 8.10871 1.57998 8.96938 1.57998 10.0748C1.57998 11.1802 2.45373 12.0539 3.55911 12.0539Z" fill="#0C0C0C"/>
<path d="M19.624 0.860565H24.2877V19.2889H19.624V0.860565Z" fill="black"/>
<path d="M28.1908 18.7862C27.1249 18.2046 26.2985 17.3703 25.7168 16.2859C25.1352 15.2016 24.843 13.9331 24.843 12.475C24.843 11.0169 25.1352 9.73786 25.7168 8.65879C26.2985 7.57973 27.1249 6.74807 28.1908 6.16642C29.2567 5.58478 30.4963 5.29263 31.9122 5.29263C33.3282 5.29263 34.5651 5.58478 35.6337 6.16642C36.6996 6.74807 37.526 7.57973 38.1076 8.65879C38.6893 9.73786 38.9814 11.0117 38.9814 12.475C38.9814 13.9383 38.6893 15.2016 38.1076 16.2859C37.526 17.3703 36.6996 18.2019 35.6337 18.7862C34.5678 19.3705 33.3308 19.66 31.9254 19.66C30.52 19.66 29.2593 19.3679 28.1934 18.7862H28.1908ZM33.1571 15.7859C33.4993 15.5148 33.7598 15.1068 33.9414 14.5594C34.1204 14.012 34.2125 13.3172 34.2125 12.4776C34.2125 11.2354 34.0125 10.3063 33.6151 9.68783C33.2176 9.06934 32.6544 8.76147 31.9254 8.76147C31.4464 8.76147 31.0332 8.89564 30.6858 9.16673C30.3384 9.43781 30.0726 9.85107 29.8883 10.4064C29.7041 10.9643 29.612 11.6565 29.612 12.4882C29.612 13.3198 29.7041 13.9884 29.8883 14.5437C30.0726 15.1016 30.3384 15.5148 30.6858 15.7833C31.0332 16.0517 31.4464 16.1886 31.9254 16.1886C32.4044 16.1886 32.8176 16.0544 33.1597 15.7833L33.1571 15.7859Z" fill="black"/>
<path d="M39.4026 9.61156H47.3324V13.6857H39.4026V9.61156Z" fill="black"/>
<path d="M51.9274 18.5362C50.6299 17.7861 49.635 16.6992 48.9455 15.2727C48.2559 13.8462 47.9111 12.1355 47.9111 10.1379C47.9111 8.14034 48.2612 6.37171 48.9639 4.92682C49.6666 3.48456 50.6667 2.38443 51.9642 1.63172C53.2617 0.879002 54.7935 0.5 56.5595 0.5C58.1965 0.5 59.6282 0.786879 60.8573 1.36063C62.0864 1.93437 63.0444 2.77659 63.7287 3.88461C64.4129 4.99526 64.7788 6.3296 64.8209 7.88767H59.9125C59.8598 7.15075 59.6993 6.52433 59.4308 6.01112C59.1624 5.4979 58.7939 5.1084 58.3255 4.84258C57.8596 4.57676 57.3043 4.44517 56.6621 4.44517C55.8567 4.44517 55.1725 4.65833 54.6119 5.08733C54.0513 5.51632 53.6223 6.1506 53.3275 6.99016C53.0328 7.82973 52.8854 8.85884 52.8854 10.0748C52.8854 11.2907 53.0275 12.3066 53.317 13.1461C53.6039 13.9857 54.0329 14.62 54.6014 15.049C55.1725 15.478 55.8804 15.6911 56.7279 15.6911C57.378 15.6911 57.9333 15.5411 58.3913 15.2411C58.8492 14.9411 59.2019 14.5305 59.444 14.0068C59.6888 13.483 59.8361 12.8751 59.8861 12.1829H64.8078C64.7472 13.8462 64.3656 15.2332 63.6629 16.3465C62.9602 17.4597 62.0074 18.2914 60.8047 18.8388C59.6019 19.3863 58.1939 19.66 56.5832 19.66C54.7751 19.66 53.2222 19.2863 51.9247 18.5362H51.9274Z" fill="black"/>
<path d="M66.8239 19.1521C66.1423 18.8126 65.6107 18.3283 65.2238 17.694C64.8395 17.0597 64.6448 16.3202 64.6448 15.4701C64.6448 14.1937 65.0185 13.2225 65.7686 12.5592C66.5186 11.896 67.6135 11.4618 69.0532 11.2539L71.5219 10.9328C71.9508 10.8643 72.293 10.7827 72.5509 10.688C72.8088 10.5932 72.9957 10.4643 73.1167 10.2958C73.2378 10.1274 73.2957 9.91157 73.2957 9.64575C73.2957 9.40625 73.2325 9.18518 73.1036 8.98515C72.9746 8.78513 72.7878 8.62721 72.5456 8.51667C72.3009 8.40613 72.0114 8.3509 71.6771 8.3509C71.1113 8.3509 70.6665 8.50354 70.3401 8.8062C70.0138 9.1115 69.8401 9.51942 69.8137 10.0326H65.008C65.0501 9.09832 65.3448 8.27193 65.887 7.55343C66.4292 6.83493 67.1924 6.27695 68.1741 5.88217C69.1558 5.48739 70.2928 5.29 71.585 5.29C72.9641 5.29 74.1221 5.50323 75.0617 5.93223C75.9986 6.36122 76.7066 6.9718 77.183 7.76399C77.6593 8.55619 77.8962 9.50625 77.8962 10.6116V16.1754C77.8962 16.7676 77.941 17.3203 78.0305 17.8388C78.1199 18.3573 78.2515 18.6836 78.4226 18.8231V19.2863H73.6036C73.5168 18.9179 73.4483 18.5099 73.3983 18.0598C73.3483 17.6098 73.3168 17.1203 73.3089 16.5887L73.9511 16.0623C73.8063 16.7124 73.53 17.3097 73.122 17.8493C72.7141 18.3888 72.1719 18.8257 71.4955 19.16C70.8191 19.4942 70.0296 19.66 69.1321 19.66C68.2346 19.66 67.5056 19.4916 66.8266 19.1521H66.8239ZM72.2088 16.1333C72.5562 15.9333 72.8246 15.6438 73.0194 15.2727C73.2141 14.9016 73.3089 14.4621 73.3089 13.9568V12.196L73.6563 12.4013C73.4668 12.6592 73.2431 12.8566 72.9825 12.9935C72.722 13.1303 72.3588 13.2462 71.8956 13.3409L71.1376 13.483C70.5796 13.5936 70.1533 13.7752 69.8585 14.0226C69.5637 14.27 69.4164 14.6147 69.4164 15.0516C69.4164 15.4885 69.5664 15.828 69.8664 16.0728C70.1664 16.3175 70.5559 16.4386 71.0349 16.4386C71.4718 16.4386 71.864 16.3386 72.2114 16.1359L72.2088 16.1333Z" fill="black"/>
<path d="M78.9753 0.860565H83.639V19.2889H78.9753V0.860565Z" fill="black"/>
<path d="M88.4897 0.860547H97.2538L100.094 11.0248C100.299 11.7565 100.402 12.3092 100.402 13.2856V14.4673C100.402 15.8938 101.249 16.7044 102.328 16.7044C103.407 16.7044 104.268 15.9201 104.268 14.8147C104.268 13.7094 103.56 12.8356 102.328 12.8356H101.981C101.557 12.8356 101.325 12.5776 101.325 12.1276V0.857912H106.452V19.2863H97.8039L94.7956 8.41403C94.6404 7.83502 94.5377 6.91119 94.5377 6.20322V5.12419C94.5377 3.76088 93.7166 2.96607 92.6349 2.96607C91.5532 2.96607 90.6689 3.78717 90.6689 4.89255C90.6689 5.99794 91.5032 6.83227 92.5849 6.83227H92.9586C93.3823 6.83227 93.6139 7.10335 93.6139 7.55077V19.2837H88.4871V0.855278L88.4897 0.860547Z" fill="#0C0C0C"/>
<path d="M110.416 18.8573C109.352 18.323 108.531 17.5203 107.947 16.4544C107.363 15.3885 107.073 14.0752 107.073 12.5145C107.073 10.9538 107.379 9.68524 107.992 8.60091C108.605 7.51658 109.447 6.69547 110.524 6.13225C111.597 5.57166 112.829 5.29 114.219 5.29C115.529 5.29 116.698 5.56902 117.727 6.12435C118.756 6.6823 119.561 7.48764 120.143 8.54038C120.725 9.59313 121.017 10.8538 121.017 12.3197C121.017 12.9277 121.012 13.3857 121.004 13.6936H110.955V10.7775H117.945L116.34 11.1249C116.34 10.5511 116.253 10.0616 116.077 9.65893C115.901 9.25625 115.645 8.95096 115.306 8.74568C114.966 8.54039 114.564 8.4377 114.092 8.4377C113.587 8.4377 113.15 8.55616 112.782 8.7904C112.413 9.02727 112.129 9.37467 111.926 9.83788C111.724 10.3011 111.624 10.8617 111.624 11.5223V13.4251C111.624 14.0594 111.726 14.5989 111.932 15.0437C112.137 15.4885 112.432 15.8307 112.819 16.0649C113.203 16.3018 113.653 16.4175 114.169 16.4175C114.742 16.4175 115.222 16.2755 115.601 15.9938C115.979 15.7122 116.224 15.3122 116.327 14.799H120.967C120.83 15.8096 120.469 16.6807 119.888 17.4071C119.306 18.1362 118.532 18.6915 117.569 19.0784C116.606 19.4653 115.485 19.6574 114.208 19.6574C112.742 19.6574 111.479 19.3889 110.418 18.8547L110.416 18.8573Z" fill="black"/>
<path d="M124.957 19.0573C124.233 18.7573 123.67 18.2783 123.267 17.6177C122.864 16.9571 122.664 16.1044 122.664 15.0595V9.10884H120.454V5.66376H120.814C121.388 5.66376 121.856 5.57949 122.222 5.41368C122.588 5.24788 122.867 4.95842 123.064 4.54522C123.262 4.13202 123.372 3.57402 123.399 2.86078L123.462 1.53698H127.318V6.06118L126.725 5.66376H130.234V9.10884H127.318V14.3778C127.318 14.9253 127.457 15.3174 127.736 15.5543C128.015 15.7911 128.41 15.907 128.926 15.907C129.31 15.907 129.678 15.8675 130.031 15.7912V19.1705C129.739 19.2652 129.373 19.3442 128.933 19.4074C128.494 19.4705 128.041 19.5047 127.578 19.5047C126.56 19.5047 125.686 19.3547 124.962 19.0547L124.957 19.0573Z" fill="black"/>
<path d="M129.694 5.6664H134.192L136.711 17.0913H135.079L138.356 5.6664H142.791L146.054 17.0913H144.472L146.888 5.6664H151.231L147.646 19.2889H142.814L139.64 7.56923H141.388L138.151 19.2889H133.255L129.694 5.6664Z" fill="black"/>
<path d="M153.694 18.7862C152.628 18.2046 151.802 17.3703 151.22 16.2859C150.639 15.2016 150.346 13.9331 150.346 12.475C150.346 11.0169 150.639 9.73786 151.22 8.65879C151.802 7.57973 152.628 6.74807 153.694 6.16642C154.76 5.58478 156 5.29263 157.416 5.29263C158.832 5.29263 160.069 5.58478 161.137 6.16642C162.203 6.74807 163.029 7.57973 163.611 8.65879C164.193 9.73786 164.485 11.0117 164.485 12.475C164.485 13.9383 164.193 15.2016 163.611 16.2859C163.029 17.3703 162.203 18.2019 161.137 18.7862C160.071 19.3705 158.834 19.66 157.429 19.66C156.023 19.66 154.763 19.3679 153.697 18.7862H153.694ZM158.661 15.7859C159.003 15.5148 159.263 15.1068 159.445 14.5594C159.624 14.012 159.716 13.3172 159.716 12.4776C159.716 11.2354 159.516 10.3063 159.118 9.68783C158.721 9.06934 158.158 8.76147 157.429 8.76147C156.95 8.76147 156.537 8.89564 156.189 9.16673C155.842 9.43781 155.576 9.85107 155.392 10.4064C155.207 10.9643 155.115 11.6565 155.115 12.4882C155.115 13.3198 155.207 13.9884 155.392 14.5437C155.576 15.1016 155.842 15.5148 156.189 15.7833C156.537 16.0517 156.95 16.1886 157.429 16.1886C157.908 16.1886 158.321 16.0544 158.663 15.7833L158.661 15.7859Z" fill="black"/>
<path d="M165.051 5.6664H169.509V10.2406L169.201 9.35365C169.296 8.56672 169.53 7.87715 169.909 7.29024C170.285 6.70333 170.777 6.24804 171.388 5.92695C171.996 5.60586 172.678 5.4453 173.43 5.4453C173.712 5.4453 173.952 5.47163 174.149 5.52163V9.99317C173.97 9.94053 173.783 9.90634 173.591 9.88265C173.399 9.8616 173.194 9.85104 172.98 9.85104C172.354 9.85104 171.796 9.97736 171.304 10.23C170.812 10.4827 170.425 10.867 170.141 11.3802C169.856 11.8934 169.717 12.5277 169.717 13.283V19.2837H165.051V5.66113V5.6664Z" fill="black"/>
<path d="M174.344 0.860565H179.007V11.3223H177.773L182.721 5.66902H188.324L178.339 16.3596L179.007 13.3909V19.2889H174.344V0.860565ZM179.663 13.454L182.542 10.0748L188.658 19.2889H183.211L179.663 13.454Z" fill="black"/>
<path d="M188.095 0.576347H192.875V4.32939H188.095V0.576347ZM188.145 5.6664H192.809V19.289H188.145V5.6664Z" fill="black"/>
<path d="M193.969 5.66639H198.467V10.3301L198.07 8.92988C198.173 8.20086 198.42 7.56394 198.809 7.01388C199.199 6.46645 199.712 6.0427 200.352 5.74266C200.989 5.44263 201.72 5.29263 202.544 5.29263C203.444 5.29263 204.215 5.4953 204.858 5.90324C205.5 6.31118 205.987 6.87702 206.316 7.60605C206.645 8.33507 206.81 9.18779 206.81 10.1642V19.2889H202.147V10.5116C202.147 9.94579 202.015 9.51418 201.755 9.21415C201.494 8.91411 201.102 8.76411 200.578 8.76411C200.175 8.76411 199.825 8.85617 199.531 9.0404C199.236 9.22463 199.012 9.4931 198.862 9.84313C198.712 10.1932 198.638 10.609 198.638 11.0906V19.2889H193.975V5.66639H193.969Z" fill="black"/>
<path d="M210.69 23.9078C209.671 23.5104 208.908 22.9472 208.403 22.2235C207.898 21.4997 207.637 20.6312 207.619 19.6206H212.374C212.409 20.168 212.614 20.5917 212.99 20.8917C213.367 21.1918 213.859 21.3418 214.469 21.3418C215.172 21.3418 215.706 21.1444 216.069 20.7496C216.433 20.3548 216.617 19.8022 216.617 19.0916V15.6095L217.08 15.4806C216.875 16.157 216.577 16.7307 216.188 17.2018C215.798 17.6729 215.319 18.0335 214.748 18.2809C214.177 18.5283 213.53 18.6546 212.801 18.6546C211.695 18.6546 210.729 18.3757 209.903 17.8204C209.077 17.2624 208.44 16.4886 207.995 15.4938C207.55 14.4989 207.326 13.3435 207.326 12.025C207.326 10.7064 207.55 9.54574 207.995 8.52194C208.44 7.49815 209.079 6.70331 209.911 6.13745C210.743 5.5716 211.714 5.29 212.827 5.29C213.556 5.29 214.201 5.41895 214.767 5.67424C215.333 5.92953 215.809 6.3059 216.193 6.79806C216.577 7.29022 216.875 7.89559 217.08 8.61672L216.67 9.451V5.66114H221.36V18.6652C221.36 19.9416 221.078 21.0154 220.517 21.8839C219.957 22.7525 219.159 23.4078 218.128 23.8447C217.096 24.2816 215.88 24.5 214.485 24.5C212.977 24.5 211.714 24.3 210.695 23.9026L210.69 23.9078ZM215.63 14.8542C215.969 14.5884 216.222 14.2094 216.396 13.7172C216.567 13.2251 216.654 12.6488 216.654 11.9882C216.654 11.3276 216.567 10.7406 216.396 10.2537C216.225 9.7642 215.969 9.38783 215.63 9.12202C215.29 8.8562 214.882 8.7246 214.403 8.7246C213.924 8.7246 213.517 8.8562 213.182 9.12202C212.848 9.38783 212.595 9.7642 212.424 10.2537C212.253 10.7433 212.166 11.3197 212.166 11.9882C212.166 12.6566 212.253 13.2224 212.424 13.7093C212.595 14.1989 212.848 14.5779 213.182 14.8463C213.517 15.1148 213.924 15.2516 214.403 15.2516C214.882 15.2516 215.293 15.12 215.63 14.8542Z" fill="black"/>
</svg>
