<svg width="274" height="25" viewBox="0 0 274 25" fill="none" xmlns="http://www.w3.org/2000/svg">
<path d="M0.803223 0.5H6.64784L8.04629 10.4037C8.13898 11.0961 8.15261 11.3496 7.72735 11.8021L7.08945 12.4809C6.67782 12.9062 6.4761 13.4514 6.4761 13.9857C6.4761 15.1443 7.4084 16.0875 8.57787 16.0875C9.74734 16.0875 10.6796 15.1415 10.6796 13.9857C10.6796 13.4541 10.4943 12.9062 10.0799 12.4809L9.44202 11.8021C9.01676 11.3224 9.01676 11.0579 9.13671 10.3791L10.8405 0.502729H17.6283L19.1194 10.3791C19.2394 11.0579 19.2394 11.3251 18.8141 11.8021L18.1762 12.4809C17.7646 12.9062 17.5765 13.4514 17.5765 13.9857C17.5765 15.1443 18.5088 16.0875 19.6783 16.0875C20.8477 16.0875 21.78 15.1415 21.78 13.9857C21.78 13.4541 21.581 12.9062 21.1667 12.4809L20.5288 11.8021C20.1308 11.3905 20.0899 11.0825 20.2099 10.4037L21.7146 0.5H27.3057L23.353 19.5877H16.1644L14.6079 9.11154C14.5424 8.5527 14.5942 8.24739 14.9541 7.86029L15.6192 7.15425C16.0308 6.71536 16.2189 6.17015 16.2189 5.64948C16.2189 4.47728 15.273 3.54771 14.1172 3.54771C12.9613 3.54771 12.0154 4.48001 12.0154 5.64948C12.0154 6.16742 12.2008 6.72899 12.6151 7.16788L13.2666 7.86029C13.6537 8.28555 13.7328 8.53907 13.6265 9.09791L11.6692 19.5877H4.73416L0.808674 0.5H0.803223Z" fill="#0C0C0C"/>
<path d="M30.2825 19.0697C29.1784 18.4673 28.3224 17.6031 27.72 16.48C27.1175 15.3569 26.8149 14.0429 26.8149 12.5327C26.8149 11.0225 27.1175 9.69762 27.72 8.57995C28.3224 7.46227 29.1784 6.60085 30.2825 5.99839C31.3865 5.39594 32.6705 5.09335 34.1371 5.09335C35.6037 5.09335 36.8849 5.39594 37.9917 5.99839C39.0957 6.60085 39.9517 7.46227 40.5541 8.57995C41.1566 9.69762 41.4592 11.017 41.4592 12.5327C41.4592 14.0484 41.1566 15.3569 40.5541 16.48C39.9517 17.6031 39.0957 18.4645 37.9917 19.0697C36.8876 19.6749 35.6064 19.9748 34.1507 19.9748C32.695 19.9748 31.3892 19.6722 30.2852 19.0697H30.2825ZM35.4265 15.962C35.7809 15.6813 36.0507 15.2587 36.2388 14.6917C36.4242 14.1247 36.5196 13.405 36.5196 12.5354C36.5196 11.2487 36.3124 10.2864 35.9008 9.64583C35.4892 9.00521 34.9058 8.68626 34.1507 8.68626C33.6546 8.68626 33.2266 8.82529 32.8667 9.10607C32.5069 9.38686 32.2316 9.81484 32.0407 10.39C31.8499 10.968 31.7545 11.6849 31.7545 12.5463C31.7545 13.4078 31.8499 14.1002 32.0407 14.6754C32.2316 15.2533 32.5069 15.6813 32.8667 15.9593C33.2266 16.2374 33.6546 16.3791 34.1507 16.3791C34.6468 16.3791 35.0748 16.2401 35.4292 15.9593L35.4265 15.962Z" fill="black"/>
<path d="M42.0427 5.47775H46.6606V10.2156L46.3417 9.29693C46.4398 8.48184 46.6824 7.76762 47.075 7.15972C47.4648 6.55181 47.9746 6.0802 48.607 5.74763C49.2395 5.41505 49.9428 5.24876 50.7224 5.24876C51.0141 5.24876 51.2649 5.27603 51.4666 5.32782V9.95935C51.2813 9.90483 51.0877 9.86939 50.8887 9.84486C50.6897 9.82305 50.4771 9.81215 50.2563 9.81215C49.6075 9.81215 49.0296 9.943 48.5198 10.2047C48.01 10.4664 47.6093 10.8644 47.3149 11.396C47.0205 11.9275 46.876 12.5845 46.876 13.3669V19.5822H42.0455V5.4723L42.0427 5.47775Z" fill="black"/>
<path d="M51.6682 0.5H56.4987V11.336H55.2202L60.3452 5.48046H66.1489L55.8063 16.5536L56.4987 13.4786V19.5877H51.6682V0.5ZM57.1803 13.5441L60.1625 10.0438L66.4978 19.5877H60.8549L57.1803 13.5441Z" fill="black"/>
<path d="M68.6024 19.416C67.5637 19.0425 66.7568 18.5027 66.1789 17.7912C65.601 17.0825 65.2957 16.221 65.2603 15.2097H70.3307C70.3389 15.7603 70.5269 16.1911 70.8895 16.5018C71.2521 16.8126 71.7373 16.968 72.3398 16.968C72.8822 16.968 73.2993 16.8589 73.5965 16.6409C73.8936 16.4228 74.0435 16.1284 74.0435 15.7549C74.0435 15.4278 73.929 15.177 73.7028 15.0025C73.4765 14.828 73.1058 14.6945 72.5906 14.5963L69.9545 14.0893C68.4115 13.7867 67.2802 13.2933 66.566 12.6063C65.8518 11.9194 65.4947 11.0116 65.4947 9.88302C65.4947 8.93436 65.7537 8.1002 66.2743 7.38052C66.795 6.66085 67.5529 6.09929 68.5506 5.69583C69.5483 5.29238 70.7369 5.09065 72.1108 5.09065C73.4847 5.09065 74.7005 5.2951 75.671 5.70401C76.6414 6.11291 77.3802 6.66357 77.8818 7.35326C78.3834 8.04295 78.6614 8.81714 78.7132 9.67039H73.7355C73.7273 9.16335 73.5747 8.7708 73.2775 8.48457C72.9804 8.20106 72.5606 8.05931 72.0208 8.05931C71.7019 8.05931 71.4184 8.1111 71.1703 8.21196C70.9222 8.31555 70.7314 8.45731 70.5978 8.63722C70.4642 8.81987 70.3988 9.02977 70.3988 9.26966C70.3988 9.56135 70.5106 9.79852 70.7314 9.97571C70.9522 10.1529 71.3039 10.2865 71.7837 10.3737L74.4579 10.8917C75.5401 11.0961 76.4125 11.3851 77.0722 11.7558C77.7319 12.1265 78.2144 12.5927 78.517 13.1461C78.8195 13.7022 78.9695 14.3673 78.9695 15.1497C78.9695 16.2156 78.6778 17.1097 78.0971 17.8321C77.5165 18.5545 76.7205 19.0916 75.7146 19.4432C74.7087 19.7949 73.561 19.9693 72.2743 19.9693C70.8622 19.9693 69.6383 19.784 68.5996 19.4105L68.6024 19.416Z" fill="black"/>
<path d="M79.5037 0.5H84.3342V9.21786L83.8162 8.84439C83.9307 8.08928 84.1952 7.42958 84.6095 6.85984C85.0211 6.29282 85.5555 5.85393 86.207 5.54861C86.8585 5.2433 87.5973 5.09064 88.4232 5.09064C89.3474 5.09064 90.1352 5.30055 90.7922 5.72308C91.4491 6.14562 91.948 6.73444 92.2888 7.49228C92.6295 8.25012 92.8013 9.13062 92.8013 10.1338V19.585H87.9707V10.4936C87.9707 9.90754 87.8344 9.46047 87.5645 9.14971C87.2947 8.83894 86.8885 8.68355 86.346 8.68355C85.9289 8.68355 85.5664 8.78442 85.261 8.98342C84.9557 9.18242 84.724 9.46592 84.5686 9.82849C84.4132 10.191 84.3369 10.6272 84.3369 11.1343V19.5877H79.5064V0.5H79.5037Z" fill="black"/>
<path d="M96.7488 19.0697C95.6447 18.4673 94.7887 17.6031 94.1863 16.48C93.5838 15.3569 93.2812 14.0429 93.2812 12.5327C93.2812 11.0225 93.5838 9.69762 94.1863 8.57995C94.7887 7.46227 95.6447 6.60085 96.7488 5.99839C97.8528 5.39594 99.1368 5.09335 100.603 5.09335C102.07 5.09335 103.351 5.39594 104.458 5.99839C105.562 6.60085 106.418 7.46227 107.02 8.57995C107.623 9.69762 107.925 11.017 107.925 12.5327C107.925 14.0484 107.623 15.3569 107.02 16.48C106.418 17.6031 105.562 18.4645 104.458 19.0697C103.354 19.6749 102.073 19.9748 100.617 19.9748C99.1613 19.9748 97.8555 19.6722 96.7515 19.0697H96.7488ZM101.896 15.962C102.25 15.6813 102.52 15.2587 102.708 14.6917C102.893 14.1247 102.989 13.405 102.989 12.5354C102.989 11.2487 102.781 10.2864 102.37 9.64583C101.958 9.00521 101.375 8.68626 100.62 8.68626C100.124 8.68626 99.6956 8.82529 99.3358 9.10607C98.9759 9.38686 98.7006 9.81484 98.5098 10.39C98.319 10.968 98.2235 11.6849 98.2235 12.5463C98.2235 13.4078 98.319 14.1002 98.5098 14.6754C98.7006 15.2533 98.9759 15.6813 99.3358 15.9593C99.6956 16.2374 100.124 16.3791 100.62 16.3791C101.116 16.3791 101.544 16.2401 101.898 15.9593L101.896 15.962Z" fill="black"/>
<path d="M115.34 19.5877C114.746 19.3315 114.247 18.9444 113.844 18.4291C113.44 17.9139 113.135 17.2815 112.933 16.5264L113.32 16.4337V19.5877H108.514V5.47775H113.345V8.63177L112.947 8.56634C113.16 7.83849 113.47 7.21696 113.879 6.70174C114.288 6.18652 114.792 5.79125 115.398 5.51046C116.003 5.22968 116.684 5.09065 117.448 5.09065C118.574 5.09065 119.555 5.38506 120.389 5.97661C121.223 6.56816 121.869 7.42141 122.325 8.53909C122.78 9.65676 123.009 10.9925 123.009 12.5464C123.009 14.1002 122.777 15.4087 122.316 16.5264C121.856 17.644 121.201 18.5 120.354 19.0888C119.506 19.6777 118.514 19.9748 117.38 19.9748C116.616 19.9748 115.937 19.8467 115.343 19.5877H115.34ZM108.512 17.047H113.342V24.5H108.512V17.047ZM117.003 15.9348C117.358 15.6186 117.625 15.1743 117.802 14.5963C117.979 14.0184 118.069 13.3315 118.069 12.5327C118.069 11.734 117.979 11.047 117.802 10.4691C117.625 9.8912 117.358 9.44686 117.003 9.13064C116.649 8.81442 116.213 8.65903 115.698 8.65903C115.182 8.65903 114.746 8.81714 114.386 9.13064C114.026 9.44686 113.757 9.89392 113.574 10.4746C113.391 11.0552 113.301 11.7422 113.301 12.53C113.301 13.3178 113.391 14.0048 113.574 14.5854C113.757 15.1661 114.026 15.6159 114.386 15.9294C114.746 16.2456 115.182 16.401 115.698 16.401C116.213 16.401 116.646 16.2429 117.003 15.9294V15.9348Z" fill="black"/>
<path d="M127.417 0.5H136.347L138.318 10.8426C138.424 11.415 138.372 11.8403 137.879 12.2792C137.146 12.9307 136.84 13.4241 136.84 14.2501C136.84 15.3678 137.745 16.2347 138.863 16.2347C139.981 16.2347 140.872 15.3024 140.872 14.1847C140.872 13.3451 140.499 12.9062 139.782 12.2547C139.357 11.843 139.237 11.4423 139.357 10.8426L141.341 0.5H150.206V19.5877H145.029V7.87392C145.029 7.27419 145.283 6.96888 145.88 6.96888H146.052C147.169 6.96888 148.074 6.03658 148.074 4.9189C148.074 3.80123 147.197 2.93435 146.09 2.93435C144.983 2.93435 144.04 3.7985 144.04 5.1179V5.8512C144.04 6.91708 143.947 7.72671 143.628 9.41958L141.671 19.5877H135.922L133.82 8.60722C133.648 7.72944 133.566 7.05066 133.566 6.31735V5.17242C133.566 3.82849 132.648 2.93707 131.53 2.93707C130.412 2.93707 129.535 3.82849 129.535 4.94616C129.535 6.06383 130.467 6.96888 131.585 6.96888H131.732C132.332 6.96888 132.596 7.27419 132.596 7.87392V19.5877H127.419V0.5H127.417Z" fill="#0C0C0C"/>
<path d="M153.033 19.4487C152.327 19.097 151.776 18.5954 151.376 17.9384C150.978 17.2815 150.776 16.5155 150.776 15.635C150.776 14.3128 151.163 13.3069 151.94 12.62C152.717 11.933 153.851 11.4832 155.342 11.2678L157.899 10.9353C158.343 10.8644 158.698 10.7799 158.965 10.6817C159.232 10.5836 159.426 10.45 159.551 10.2756C159.676 10.1011 159.736 9.87757 159.736 9.60224C159.736 9.35417 159.671 9.12518 159.537 8.91801C159.404 8.71083 159.21 8.54727 158.959 8.43277C158.706 8.31828 158.406 8.26103 158.06 8.26103C157.474 8.26103 157.013 8.41914 156.675 8.73263C156.337 9.04885 156.157 9.47139 156.13 10.003H151.152C151.196 9.03522 151.501 8.17925 152.063 7.43504C152.624 6.69084 153.415 6.11291 154.431 5.70401C155.448 5.2951 156.626 5.09065 157.964 5.09065C159.393 5.09065 160.592 5.31146 161.566 5.75581C162.536 6.20015 163.269 6.83259 163.763 7.65313C164.256 8.47366 164.501 9.45776 164.501 10.6027V16.3655C164.501 16.9789 164.548 17.5514 164.64 18.0884C164.733 18.6254 164.869 18.9634 165.047 19.1079V19.5877H160.055C159.965 19.2061 159.894 18.7835 159.843 18.3174C159.791 17.8512 159.758 17.3442 159.75 16.7935L160.415 16.2483C160.265 16.9216 159.979 17.5404 159.556 18.0993C159.134 18.6581 158.572 19.1106 157.872 19.4569C157.171 19.8031 156.353 19.9748 155.424 19.9748C154.494 19.9748 153.739 19.8003 153.036 19.4487H153.033ZM158.61 16.3192C158.97 16.112 159.248 15.8121 159.45 15.4278C159.652 15.0434 159.75 14.5882 159.75 14.0648V12.241L160.11 12.4537C159.914 12.7208 159.682 12.9253 159.412 13.067C159.142 13.2088 158.766 13.3287 158.286 13.4269L157.501 13.5741C156.923 13.6886 156.481 13.8767 156.176 14.1329C155.871 14.3892 155.718 14.7463 155.718 15.1988C155.718 15.6513 155.874 16.003 156.184 16.2565C156.495 16.51 156.899 16.6354 157.395 16.6354C157.847 16.6354 158.253 16.5318 158.613 16.3219L158.61 16.3192Z" fill="black"/>
<path d="M168.255 19.416C167.217 19.0425 166.41 18.5027 165.832 17.7912C165.254 17.0825 164.949 16.221 164.913 15.2097H169.984C169.992 15.7603 170.18 16.1911 170.543 16.5018C170.905 16.8126 171.39 16.968 171.993 16.968C172.535 16.968 172.952 16.8589 173.25 16.6409C173.547 16.4228 173.697 16.1284 173.697 15.7549C173.697 15.4278 173.582 15.177 173.356 15.0025C173.13 14.828 172.759 14.6945 172.244 14.5963L169.608 14.0893C168.065 13.7867 166.933 13.2933 166.219 12.6063C165.505 11.9194 165.148 11.0116 165.148 9.88302C165.148 8.93436 165.407 8.1002 165.927 7.38052C166.448 6.66085 167.206 6.09929 168.204 5.69583C169.201 5.29238 170.39 5.09065 171.764 5.09065C173.138 5.09065 174.354 5.2951 175.324 5.70401C176.295 6.11291 177.033 6.66357 177.535 7.35326C178.036 8.04295 178.315 8.81714 178.366 9.67039H173.389C173.38 9.16335 173.228 8.7708 172.931 8.48457C172.633 8.20106 172.214 8.05931 171.674 8.05931C171.355 8.05931 171.071 8.1111 170.823 8.21196C170.575 8.31555 170.384 8.45731 170.251 8.63722C170.117 8.81987 170.052 9.02977 170.052 9.26966C170.052 9.56135 170.164 9.79852 170.384 9.97571C170.605 10.1529 170.957 10.2865 171.437 10.3737L174.111 10.8917C175.193 11.0961 176.066 11.3851 176.725 11.7558C177.385 12.1265 177.867 12.5927 178.17 13.1461C178.473 13.7022 178.623 14.3673 178.623 15.1497C178.623 16.2156 178.331 17.1097 177.75 17.8321C177.17 18.5545 176.374 19.0916 175.368 19.4432C174.362 19.7949 173.214 19.9693 171.927 19.9693C170.515 19.9693 169.291 19.784 168.253 19.4105L168.255 19.416Z" fill="black"/>
<path d="M182.682 19.3478C181.932 19.037 181.349 18.5409 180.931 17.8567C180.514 17.1724 180.307 16.2892 180.307 15.207V9.04339H178.017V5.47502H178.391C178.985 5.47502 179.47 5.38779 179.849 5.21605C180.228 5.04431 180.517 4.74444 180.722 4.31645C180.926 3.88847 181.041 3.31055 181.068 2.57179L181.133 1.2006H185.127V5.88665L184.513 5.47502H188.147V9.04339H185.127V14.5009C185.127 15.0679 185.271 15.4741 185.56 15.7195C185.849 15.9648 186.258 16.0847 186.792 16.0847C187.19 16.0847 187.572 16.0439 187.937 15.9648V19.465C187.635 19.5632 187.256 19.6449 186.801 19.7104C186.345 19.7758 185.876 19.8112 185.397 19.8112C184.342 19.8112 183.437 19.6558 182.687 19.3451L182.682 19.3478Z" fill="black"/>
<path d="M191.566 19.1434C190.464 18.59 189.614 17.7585 189.009 16.6545C188.403 15.5504 188.104 14.1902 188.104 12.5736C188.104 10.9571 188.42 9.64313 189.055 8.52C189.69 7.39688 190.562 6.54636 191.677 5.96299C192.79 5.38234 194.065 5.09065 195.505 5.09065C196.862 5.09065 198.073 5.37962 199.139 5.95481C200.204 6.53273 201.039 7.36689 201.641 8.45731C202.243 9.54772 202.546 10.8535 202.546 12.3719C202.546 13.0016 202.541 13.4759 202.532 13.7949H192.124V10.7744H199.365L197.702 11.1343C197.702 10.54 197.612 10.033 197.429 9.61587C197.247 9.19879 196.982 8.88257 196.631 8.66994C196.279 8.4573 195.862 8.35099 195.371 8.35099C194.848 8.35099 194.395 8.47366 194.014 8.71628C193.632 8.96162 193.337 9.32146 193.128 9.80124C192.918 10.281 192.814 10.8617 192.814 11.5459V13.5168C192.814 14.1738 192.92 14.7326 193.133 15.1933C193.346 15.654 193.651 16.0084 194.052 16.251C194.45 16.4964 194.916 16.6163 195.45 16.6163C196.044 16.6163 196.541 16.4691 196.936 16.1774C197.331 15.8857 197.582 15.4714 197.688 14.9398H202.494C202.353 15.9866 201.979 16.8889 201.377 17.6413C200.774 18.3964 199.973 18.9716 198.975 19.3723C197.977 19.7731 196.816 19.9721 195.494 19.9721C193.975 19.9721 192.667 19.694 191.568 19.1406L191.566 19.1434Z" fill="black"/>
<path d="M203.214 5.47775H207.832V10.2156L207.513 9.29693C207.611 8.48184 207.854 7.76762 208.246 7.15972C208.636 6.55181 209.146 6.0802 209.778 5.74763C210.408 5.41505 211.114 5.24876 211.894 5.24876C212.185 5.24876 212.436 5.27603 212.638 5.32782V9.95935C212.452 9.90483 212.259 9.86939 212.06 9.84486C211.861 9.82305 211.648 9.81215 211.427 9.81215C210.779 9.81215 210.201 9.943 209.691 10.2047C209.181 10.4664 208.78 10.8644 208.486 11.396C208.192 11.9275 208.047 12.5845 208.047 13.3669V19.5822H203.217V5.4723L203.214 5.47775Z" fill="black"/>
<path d="M215.203 19.1025C214.124 18.5218 213.292 17.674 212.706 16.5591C212.12 15.4468 211.828 14.1247 211.828 12.5981C211.828 11.0716 212.126 9.70581 212.72 8.57724C213.314 7.45139 214.154 6.58723 215.236 5.98751C216.318 5.38778 217.578 5.08791 219.017 5.08791C220.347 5.08791 221.525 5.31963 222.55 5.78033C223.575 6.24103 224.384 6.91981 224.979 7.81667C225.573 8.71354 225.9 9.80395 225.963 11.0906H221.051C221.015 10.2837 220.827 9.67856 220.484 9.28055C220.143 8.88255 219.668 8.68083 219.066 8.68083C218.586 8.68083 218.177 8.81713 217.834 9.087C217.493 9.35688 217.229 9.77669 217.041 10.3437C216.855 10.9107 216.76 11.6304 216.76 12.5C216.76 13.3696 216.85 14.1056 217.032 14.6835C217.215 15.2615 217.474 15.6867 217.812 15.9621C218.15 16.2374 218.562 16.3737 219.05 16.3737C219.636 16.3737 220.105 16.1747 220.454 15.774C220.805 15.376 221.001 14.7626 221.045 13.9366H225.957C225.878 15.2151 225.535 16.3055 224.927 17.2106C224.319 18.1156 223.507 18.7999 222.49 19.266C221.473 19.7322 220.304 19.9639 218.981 19.9639C217.534 19.9639 216.272 19.6722 215.195 19.0915L215.203 19.1025Z" fill="black"/>
<path d="M226.472 0.5H231.303V19.5877H226.472V0.5Z" fill="black"/>
<path d="M234.067 19.4487C233.361 19.097 232.811 18.5954 232.41 17.9384C232.012 17.2815 231.81 16.5155 231.81 15.635C231.81 14.3128 232.197 13.3069 232.974 12.62C233.751 11.933 234.885 11.4832 236.376 11.2678L238.933 10.9353C239.378 10.8644 239.732 10.7799 239.999 10.6817C240.266 10.5836 240.46 10.45 240.585 10.2756C240.711 10.1038 240.771 9.87757 240.771 9.60224C240.771 9.35417 240.705 9.12518 240.572 8.91801C240.438 8.71083 240.244 8.54727 239.994 8.43277C239.74 8.31828 239.44 8.26103 239.094 8.26103C238.508 8.26103 238.047 8.41914 237.709 8.73263C237.371 9.04885 237.191 9.47139 237.164 10.003H232.186C232.23 9.03522 232.535 8.17925 233.097 7.43504C233.661 6.69084 234.449 6.11291 235.466 5.70401C236.482 5.2951 237.66 5.09065 238.999 5.09065C240.427 5.09065 241.627 5.31146 242.6 5.75581C243.57 6.20015 244.303 6.83259 244.797 7.65313C245.29 8.47366 245.536 9.45776 245.536 10.6027V16.3655C245.536 16.9789 245.582 17.5514 245.675 18.0884C245.767 18.6254 245.904 18.9634 246.081 19.1079V19.5877H241.089C241 19.2061 240.929 18.7835 240.877 18.3174C240.825 17.8512 240.792 17.3442 240.784 16.7935L241.449 16.2483C241.299 16.9216 241.013 17.5404 240.591 18.0993C240.168 18.6581 239.607 19.1106 238.906 19.4569C238.205 19.8031 237.388 19.9748 236.458 19.9748C235.528 19.9748 234.773 19.8003 234.07 19.4487H234.067ZM239.645 16.3192C240.005 16.112 240.283 15.8121 240.484 15.4278C240.686 15.0434 240.784 14.5882 240.784 14.0648V12.241L241.144 12.4537C240.948 12.7208 240.716 12.9253 240.446 13.067C240.176 13.2088 239.8 13.3287 239.32 13.4269L238.535 13.5741C237.957 13.6886 237.516 13.8767 237.21 14.1329C236.905 14.3892 236.752 14.7463 236.752 15.1988C236.752 15.6513 236.908 16.003 237.219 16.2565C237.529 16.51 237.933 16.6354 238.429 16.6354C238.881 16.6354 239.288 16.5318 239.647 16.3219L239.645 16.3192Z" fill="black"/>
<path d="M249.289 19.416C248.251 19.0425 247.444 18.5027 246.866 17.7912C246.288 17.0825 245.983 16.221 245.947 15.2097H251.018C251.026 15.7603 251.214 16.1911 251.577 16.5018C251.939 16.8126 252.424 16.968 253.027 16.968C253.569 16.968 253.986 16.8589 254.283 16.6409C254.581 16.4228 254.731 16.1284 254.731 15.7549C254.731 15.4278 254.616 15.177 254.39 15.0025C254.164 14.828 253.793 14.6945 253.278 14.5963L250.642 14.0893C249.099 13.7867 247.967 13.2933 247.253 12.6063C246.539 11.9194 246.182 11.0116 246.182 9.88302C246.182 8.93436 246.441 8.1002 246.961 7.38052C247.482 6.66085 248.24 6.09929 249.238 5.69583C250.235 5.29238 251.424 5.09065 252.798 5.09065C254.172 5.09065 255.388 5.2951 256.358 5.70401C257.328 6.11291 258.067 6.66357 258.569 7.35326C259.07 8.04567 259.348 8.81714 259.4 9.67039H254.423C254.414 9.16335 254.262 8.7708 253.965 8.48457C253.667 8.20106 253.248 8.05931 252.708 8.05931C252.389 8.05931 252.105 8.1111 251.857 8.21196C251.609 8.31555 251.418 8.45731 251.285 8.63722C251.151 8.81987 251.086 9.02977 251.086 9.26966C251.086 9.56135 251.198 9.79852 251.418 9.97571C251.639 10.1529 251.991 10.2865 252.471 10.3737L255.145 10.8917C256.227 11.0961 257.099 11.3851 257.759 11.7558C258.419 12.1293 258.901 12.5927 259.204 13.1461C259.507 13.7022 259.656 14.3673 259.656 15.1497C259.656 16.2156 259.365 17.1097 258.784 17.8321C258.204 18.5545 257.408 19.0916 256.402 19.4432C255.393 19.7949 254.248 19.9693 252.961 19.9693C251.549 19.9693 250.325 19.784 249.287 19.4105L249.289 19.416Z" fill="black"/>
<path d="M262.83 19.416C261.791 19.0425 260.984 18.5027 260.406 17.7912C259.828 17.0825 259.523 16.221 259.488 15.2097H264.558C264.566 15.7603 264.754 16.1911 265.117 16.5018C265.479 16.8126 265.965 16.968 266.567 16.968C267.11 16.968 267.527 16.8589 267.824 16.6409C268.121 16.4228 268.271 16.1284 268.271 15.7549C268.271 15.4278 268.156 15.177 267.93 15.0025C267.704 14.828 267.333 14.6945 266.818 14.5963L264.182 14.0893C262.639 13.7867 261.508 13.2933 260.793 12.6063C260.079 11.9194 259.722 11.0116 259.722 9.88302C259.722 8.93436 259.981 8.1002 260.502 7.38052C261.022 6.66085 261.78 6.09929 262.778 5.69583C263.776 5.29238 264.964 5.09065 266.338 5.09065C267.712 5.09065 268.928 5.2951 269.898 5.70401C270.869 6.11291 271.607 6.66357 272.109 7.35326C272.611 8.04567 272.889 8.81714 272.941 9.67039H267.963C267.955 9.16335 267.802 8.7708 267.505 8.48457C267.208 8.20106 266.788 8.05931 266.248 8.05931C265.929 8.05931 265.646 8.1111 265.398 8.21196C265.15 8.31555 264.959 8.45731 264.825 8.63722C264.692 8.81987 264.626 9.02977 264.626 9.26966C264.626 9.56135 264.738 9.79852 264.959 9.97571C265.179 10.1529 265.531 10.2865 266.011 10.3737L268.685 10.8917C269.767 11.0961 270.64 11.3851 271.299 11.7558C271.959 12.1293 272.442 12.5927 272.744 13.1461C273.047 13.7022 273.197 14.3673 273.197 15.1497C273.197 16.2156 272.905 17.1097 272.324 17.8321C271.744 18.5545 270.948 19.0916 269.942 19.4432C268.933 19.7949 267.788 19.9693 266.502 19.9693C265.09 19.9693 263.866 19.784 262.827 19.4105L262.83 19.416Z" fill="black"/>
</svg>
